<svg version="1" xmlns="http://www.w3.org/2000/svg" width="1444" height="1444" viewBox="0 0 1083.000000 1083.000000"><path d="M420 41.6c-26.6 1.6-54.3 5.7-83.6 12.4-58.3 13.5-99.8 31.6-151.4 66-50.4 33.7-82.8 65.4-113.7 111.1-72.9 108.1-86.9 240.2-38.2 359.2C52.9 638.5 82.4 682.4 121 721c14 14.1 35.1 32.4 43.9 38.1l2.5 1.6-4.8 16.9c-9.9 34.8-18.8 55-41.5 93.6-17.5 30-32.2 56-31.8 56.5.2.2 8.2.8 17.8 1.3 23.3 1.3 73-1.9 94.8-6.1 44.2-8.5 91.5-34 132.3-71.2l11.4-10.4 11 1.8c12.9 2.3 31.8 4.8 32.2 4.4.2-.2-2.1-4.5-5.1-9.7-17.7-30.4-29.8-59.4-41-98.3-11.1-38.1-14.1-59.3-14.1-97.5 0-31.2 1.3-44.2 6.9-66.9C354.1 500 401.2 429.5 469.6 375c63.2-50.5 139.1-82.2 212.9-89 40.5-3.7 116.8 2.5 159 12.9 6.6 1.6 12.2 2.8 12.4 2.6.6-.7-9.9-23.1-16.1-34.2-18.3-33-49.7-74.3-75.4-99.3-18.7-18.1-37.5-32.6-67.6-52.4-68.4-44.7-118.9-61.8-213.3-72.1-13.8-1.6-48.9-2.6-61.5-1.9zm-49.5 135.3c15.1 7 15.2 27.9.1 35.8-2 1-7.7 1.8-17.5 2.4-53.3 2.9-97.9 28.1-130.7 73.5-7.3 10.1-19 32.9-23 44.9-3.3 9.8-6.4 14.1-11.8 16.6-5.5 2.5-10.2 2.4-15.6-.4-5.8-2.9-9.9-8.7-10.6-15.3-.8-6.5 3.1-18.4 12.7-38.2 28-58.4 78.3-100.4 137.9-115.1 24.1-6 50.6-7.9 58.5-4.2z"/><path d="M712 339.1c-15.3 1.3-40.3 4.6-56.4 7.5-53.7 9.6-96 29.1-149.9 69.1-37.2 27.6-74.8 74.9-95.7 120.6-10.5 22.7-19.3 53.7-23.7 83.2-2.5 17-2.5 62.8 0 80 8.9 59.5 29.9 106.9 68.7 154.4 34.8 42.6 79.2 75.5 132.5 98.1 57.7 24.5 133.7 33.6 200.8 23.9l13.9-2 7.1 6.3c11.8 10.4 16.7 14.2 28.2 22 28 18.9 56 30.4 83.6 34.2 22.8 3.2 50.6 4.5 75.4 3.4 12.7-.6 23.1-1.2 23.3-1.3.4-.3-20.5-37.2-33.3-59-18-30.5-23.5-42.8-30.5-67.7l-1.8-6.7 10.6-8.9c32.5-27.1 60.7-63 80.2-102.1 37.7-75.5 42.2-163.5 12.3-241.1-21-54.8-55.1-101.3-98.8-135-50.5-38.9-94.7-59.5-153-71.4-37.2-7.6-65-9.8-93.5-7.5zM593.4 573.3c14.5 6.9 23.8 19.1 27.6 36.6 4.8 21.5.6 37.6-13.4 51.7-9.8 9.8-18.2 13.9-28.6 13.9-6.5 0-8.5-.5-14-3.2-8.1-4-12.5-8.4-19-19.2-11.8-19.8-12.9-39.7-3.2-60.4 4.5-9.5 8.7-14.7 14.9-18.4 7.6-4.5 11.2-5.4 19.9-5 6.8.3 9.3.9 15.8 4zm290.7 2.7c11.3 4.2 22 15.7 26.9 28.8 2.7 7 5 18.8 5 25.1 0 23-20.6 46.1-41.1 46.1-13.6 0-27.3-6.9-35.4-18-8.2-11.2-12.6-32.9-9.5-46.9 3.7-17 17.9-33.1 32.3-36.7 6.5-1.7 14.9-1.1 21.8 1.6zm-58 100.7c.7 2.1 1.3 6.1 1.3 8.9.1 14.6-24.4 47.4-45.9 61.3-21.2 13.8-43 20.4-67.5 20.3-39.1 0-71.6-18.7-86.7-49.6-4.6-9.5-5.1-13-2.9-20.1 1-3.2 1.7-4 3.4-3.8 5 .6 11.5 4.9 18.4 12.2 9.4 10 15.4 14.5 25.3 19.2 11 5.1 18.1 6.9 31 7.6 37.3 1.9 80-18 105.7-49.4 4.9-6 6.7-7.5 10.6-8.7 2.6-.8 5-1.5 5.4-1.5.3-.1 1.2 1.6 1.9 3.6z"/></svg>