<svg xmlns="http://www.w3.org/2000/svg" width="40" height="40" viewBox="0 0 40 40">
<style type="text/css">
	.st0{fill:#F0F0F0;}
	.st1{fill:#FFDA44;}
	.st2{fill:#6DA544;}
	.st3{fill:#0052B4;}
	.st4{fill:#D80027;}
</style>
<g>
	<circle class="st0" cx="20" cy="20" r="20"/>
	<path d="M5.86,34.14c-7.81-7.81-7.81-20.47,0-28.28c0,0,11.53,14.14,11.53,14.14L5.86,34.14z"/>
	<path class="st1" d="M17.39,20L2.65,10.04c-0.46,0.79-0.86,1.62-1.21,2.48L8.91,20l-7.46,7.48c0.35,0.86,0.75,1.69,1.21,2.48
		L17.39,20z"/>
	<path class="st2" d="M39.83,17.39H17.39L5.86,5.86C4.61,7.1,3.54,8.51,2.65,10.04L12.59,20l-9.94,9.96
		c0.88,1.53,1.96,2.94,3.21,4.18l11.53-11.53h22.44C39.94,21.75,40,20.88,40,20C40,19.12,39.94,18.25,39.83,17.39z"/>
	<path class="st3" d="M7.82,35.87C11.2,38.46,15.42,40,20,40c9.24,0,17.02-6.27,19.31-14.78H18.47L7.82,35.87z"/>
	<path class="st4" d="M39.31,14.78C37.02,6.27,29.24,0,20,0c-4.58,0-8.8,1.54-12.18,4.13l10.65,10.65L39.31,14.78L39.31,14.78z"/>
</g>
</svg>
