<svg xmlns="http://www.w3.org/2000/svg" width="40" height="40" viewBox="0 0 40 40">
<style type="text/css">
	.st0{fill:#0F9608;}
	.st1{fill:#FFFFFF;}
</style>
<g id="Group_44" transform="translate(3267.006 2759.919)">
	<path id="Path_372" class="st0" d="M-3266.41-2744.72c2.65-10.72,13.49-17.26,24.21-14.6c10.72,2.65,17.26,13.49,14.6,24.21
		c-2.65,10.72-13.49,17.26-24.21,14.6c0,0,0,0,0,0C-3262.53-2723.17-3269.07-2734-3266.41-2744.72
		C-3266.42-2744.72-3266.42-2744.72-3266.41-2744.72"/>
</g>
<g id="g4699" transform="matrix(0.064,0,0,0.064,0,468)">
	<g id="g4695" transform="matrix(18.0964,0,0,17.213631,246.63518,-8836.1551)">
		<g id="g4623">
			<path id="path4621" class="st1" d="M12.6,100.87c0.24-0.18,0.47-0.39,0.74-0.53c-0.08,0.33-0.31,0.58-0.55,0.79
				c-0.12,0.1-0.07,0.28-0.08,0.42c-0.07-0.02-0.13-0.03-0.19-0.06c0.06,0.83,0.15,1.66,0.19,2.49c0.01,0.09,0.01,0.19,0.09,0.26
				c0.37,0.34,0.74,0.68,1.01,1.12c0.11,0.17,0.16,0.37,0.22,0.56c0.07-0.32,0.06-0.66,0.03-0.98c-0.13-1.27-0.26-2.54-0.36-3.81
				c-0.01-0.16-0.03-0.32-0.02-0.47c0.01-0.14,0.15-0.27,0.29-0.26c0.08,0.07,0.13,0.17,0.17,0.27c0.11,0.26,0.21,0.54,0.18,0.84
				c-0.07-0.02-0.13-0.05-0.21-0.08c0.1,0.86,0.2,1.72,0.26,2.59c0.03,0.58,0.11,1.17-0.01,1.75c-0.1,0.53-0.35,1.07-0.79,1.38
				c-0.37,0.26-0.81,0.4-1.24,0.49c-0.18,0.04-0.36,0.06-0.53,0.01c0.18-0.11,0.39-0.18,0.58-0.27c0.28-0.13,0.56-0.27,0.81-0.44
				c0.24-0.17,0.49-0.33,0.67-0.58c-0.22-0.62-0.59-1.21-1.11-1.59c0.02,0.61,0.04,1.23-0.04,1.84c-0.02,0.14-0.08,0.27-0.17,0.37
				c-0.06-0.26-0.07-0.52-0.09-0.78c-0.05-0.57-0.09-1.14-0.13-1.71c0-0.12-0.07-0.21-0.16-0.27c-0.33-0.29-0.63-0.61-0.95-0.91
				c0.01,0.35,0.06,0.69,0.08,1.04c0.04,0.47,0.04,0.93,0.09,1.4c0.03,0.33,0.03,0.67-0.08,0.98c-0.12,0.29-0.38,0.54-0.69,0.57
				c-0.17,0.02-0.33,0-0.49-0.03c-0.17-0.03-0.31-0.17-0.38-0.32c-0.09-0.19-0.14-0.4-0.22-0.59c-0.14,0.03-0.29,0.07-0.4,0.18
				c-0.22,0.22-0.29,0.56-0.39,0.85c-0.06,0.17-0.13,0.36-0.29,0.46c-0.17,0.1-0.37,0.06-0.53-0.03c-0.24-0.14-0.39-0.41-0.47-0.68
				c-0.07-0.21,0.03-0.46-0.09-0.66c-0.09-0.18-0.04-0.4,0.01-0.59c0.09-0.34,0.29-0.63,0.53-0.87c-0.32-0.29-0.63-0.58-0.95-0.87
				c0.03,0.8,0.09,1.6-0.01,2.39c-0.02,0.16-0.07,0.31-0.18,0.43c-0.03-0.15-0.06-0.31-0.07-0.46c-0.08-0.88-0.14-1.76-0.2-2.63
				c-0.01-0.1-0.02-0.21-0.1-0.28c-0.32-0.32-0.63-0.67-0.92-1.03c-0.17-0.22-0.34-0.45-0.43-0.72c-0.03-0.11-0.06-0.27,0.04-0.35
				c0.12,0.01,0.22,0.07,0.32,0.12c0.18,0.11,0.36,0.26,0.51,0.42c0.07,0.07,0.1,0.17,0.13,0.26c-0.09,0-0.18-0.01-0.28-0.01
				c0.19,0.28,0.41,0.54,0.67,0.77c-0.02-0.74-0.1-1.49-0.13-2.24c0-0.1,0-0.21,0.07-0.29c0.06-0.07,0.16-0.1,0.24-0.13
				c0.16,0.24,0.27,0.51,0.33,0.79c0.03,0.11,0.02,0.23,0.02,0.34c-0.07-0.02-0.13-0.04-0.19-0.06c0.04,0.61,0.11,1.21,0.14,1.81
				c0.01,0.08,0.01,0.17,0.03,0.26c0.03,0.06,0.08,0.1,0.13,0.14c0.39,0.35,0.79,0.7,1.19,1.04c0.24-0.22,0.47-0.44,0.71-0.65
				c0.06-0.05,0.11-0.09,0.16-0.15c0.04-0.05,0.03-0.12,0.03-0.18c-0.08-0.73-0.13-1.46-0.19-2.18c-0.02-0.27-0.06-0.53-0.06-0.79
				c-0.01-0.16,0.11-0.31,0.26-0.32c0.07-0.01,0.09,0.07,0.13,0.12c0.11,0.21,0.19,0.43,0.24,0.66c0.03,0.11,0.02,0.23-0.01,0.34
				c-0.06-0.03-0.13-0.06-0.19-0.09c0.08,0.68,0.15,1.37,0.21,2.05c0.17-0.13,0.33-0.29,0.49-0.43c0.18-0.16,0.37-0.32,0.54-0.49
				c-0.21-0.23-0.42-0.45-0.63-0.68c-0.13-0.14-0.29-0.28-0.35-0.49c-0.04-0.14-0.02-0.3,0.01-0.44c0.25,0.04,0.47,0.2,0.67,0.36
				c0.14,0.11,0.26,0.24,0.38,0.37c-0.01-0.29-0.04-0.58-0.07-0.87c0-0.11-0.01-0.23,0.06-0.32c0.06-0.07,0.16-0.1,0.23-0.14
				c0.16,0.22,0.26,0.49,0.33,0.76c0.03,0.12,0.03,0.24,0.03,0.37c-0.07-0.02-0.14-0.03-0.21-0.05c0.02,0.22,0.04,0.44,0.07,0.66
				c0.26-0.21,0.5-0.44,0.76-0.64c0.09-0.09,0.25-0.16,0.25-0.31c0.01-0.17-0.03-0.34-0.01-0.51c0.02-0.14,0.15-0.26,0.29-0.25
				C12.48,100.55,12.53,100.72,12.6,100.87L12.6,100.87z M11.25,102.47c-0.04,0.05-0.13,0.09-0.12,0.18
				c0.03,0.07,0.1,0.13,0.16,0.19c0.32,0.31,0.63,0.63,0.97,0.91c-0.01-0.33-0.04-0.65-0.06-0.98c-0.03-0.34-0.04-0.69-0.07-1.03
				C11.81,101.96,11.54,102.23,11.25,102.47L11.25,102.47z M10.43,101.86c0.07,0.08,0.14,0.17,0.21,0.25c0-0.08-0.01-0.17-0.01-0.25
				C10.57,101.86,10.5,101.86,10.43,101.86L10.43,101.86z M9.65,103.89c-0.06,0.05-0.12,0.11-0.12,0.19
				c-0.01,0.42,0.04,0.86-0.06,1.27c-0.02,0.11-0.09,0.18-0.17,0.24c-0.09-0.41-0.09-0.82-0.16-1.23c-0.24,0.2-0.47,0.42-0.69,0.63
				c0.13,0.15,0.26,0.31,0.3,0.52c0.07,0.28-0.01,0.61-0.23,0.8c-0.27,0.24-0.64,0.28-0.98,0.32c0.05,0.23,0.09,0.48,0.23,0.68
				c0.08,0.12,0.22,0.23,0.36,0.18c0.16-0.04,0.25-0.2,0.31-0.34c0.11-0.29,0.23-0.58,0.4-0.85c0.13-0.22,0.35-0.41,0.61-0.41
				c0.08,0.01,0.19-0.02,0.24,0.07c0.11,0.19,0.15,0.43,0.29,0.61c0.23,0.32,0.73,0.33,1.01,0.06c0.09-0.09,0.09-0.23,0.08-0.36
				c-0.13-1.11-0.22-2.22-0.33-3.33C10.36,103.25,10.01,103.58,9.65,103.89z M7.69,105.78c-0.06,0.08-0.09,0.19-0.12,0.29
				c0.25,0.03,0.51-0.03,0.72-0.16c0.07-0.04,0.14-0.12,0.13-0.21c-0.02-0.19-0.17-0.32-0.3-0.43
				C7.97,105.42,7.82,105.6,7.69,105.78L7.69,105.78z"/>
		</g>
		<path id="path4625" class="st1" d="M-2.74,100.39c0.07-0.04,0.13,0.03,0.17,0.08c0.13,0.17,0.28,0.34,0.36,0.56
			c-0.07,0.01-0.14,0.02-0.21,0.03c0.02,0.33,0.28,0.56,0.36,0.88c0.06,0.19,0.06,0.41,0.02,0.6c-0.06,0.27-0.27,0.5-0.53,0.54
			c-0.31,0.06-0.65-0.02-0.88-0.26c-0.15-0.16-0.21-0.38-0.27-0.58c-0.07,0.27-0.18,0.53-0.36,0.74c-0.11,0.13-0.24,0.22-0.38,0.29
			c0.04,0.74,0.11,1.49,0.05,2.23c-0.02,0.21-0.03,0.46-0.22,0.6c-0.07-0.29-0.08-0.6-0.11-0.91c-0.06-0.62-0.11-1.23-0.17-1.85
			c-0.17-0.04-0.36-0.08-0.49-0.22c-0.22-0.21-0.29-0.54-0.28-0.84c0.01-0.23,0.08-0.46,0.13-0.69c-0.08,0.09-0.15,0.19-0.19,0.31
			c-0.12,0.37-0.19,0.76-0.36,1.12c-0.06,0.14-0.18,0.26-0.32,0.29c-0.18,0.04-0.39,0.03-0.53-0.12c-0.15-0.16-0.18-0.39-0.21-0.6
			c-0.01-0.22-0.03-0.45,0.07-0.65c0.06-0.12,0.17-0.19,0.27-0.25c-0.07,0.12-0.14,0.23-0.16,0.37c-0.02,0.19,0.01,0.38,0.04,0.57
			c0.02,0.11,0.04,0.23,0.13,0.31c0.13,0.12,0.34,0.11,0.47-0.01c0.07-0.08,0.1-0.18,0.13-0.27c0.11-0.36,0.2-0.72,0.34-1.07
			c0.12-0.29,0.34-0.57,0.65-0.63c-0.03,0.39-0.21,0.76-0.22,1.16c-0.01,0.18,0.01,0.37,0.12,0.51c0.08,0.12,0.22,0.16,0.35,0.19
			c-0.03-0.54-0.08-1.08-0.12-1.62c-0.01-0.2-0.04-0.41-0.01-0.61c0.03-0.14,0.17-0.19,0.28-0.23c0.21,0.33,0.37,0.72,0.36,1.12
			c-0.07-0.02-0.14-0.03-0.21-0.05c0.04,0.46,0.09,0.93,0.14,1.39c0.18-0.06,0.35-0.18,0.46-0.35c0.22-0.33,0.25-0.76,0.14-1.13
			c-0.04-0.16-0.12-0.31-0.15-0.48c-0.03-0.16,0.07-0.32,0.21-0.37c0.06-0.03,0.09,0.05,0.12,0.09c0.08,0.19,0.11,0.4,0.15,0.61
			c0.05,0.27,0,0.56,0.09,0.82c0.08,0.22,0.22,0.43,0.42,0.54c0.16,0.09,0.35,0.12,0.53,0.08c0.09-0.02,0.16-0.09,0.18-0.19
			c0.04-0.18-0.02-0.36-0.09-0.52c-0.17-0.37-0.37-0.72-0.45-1.12C-2.92,100.68-2.88,100.48-2.74,100.39L-2.74,100.39z"/>
		<path id="path4627" class="st1" d="M4.89,100.82c0.11-0.19,0.27-0.33,0.46-0.43c-0.05,0.14-0.13,0.26-0.2,0.38
			c-0.06,0.09-0.06,0.2-0.06,0.3c0.13-0.01,0.26-0.03,0.38-0.06c-0.03,0.11-0.07,0.22-0.16,0.28c-0.11,0.08-0.26,0.13-0.37,0.03
			C4.82,101.2,4.8,100.98,4.89,100.82L4.89,100.82z"/>
		<g id="g4631">
			<path id="path4629" class="st1" d="M-2,100.58c0.06-0.09,0.16-0.12,0.24-0.16c0.17,0.23,0.28,0.52,0.34,0.8
				c0.03,0.11,0.02,0.22,0.01,0.33c-0.06-0.02-0.13-0.04-0.19-0.07c0.07,0.54,0.16,1.07,0.22,1.61c0.29-0.15,0.57-0.33,0.87-0.47
				c0.09-0.04,0.19-0.07,0.3-0.08c-0.04,0.09-0.08,0.18-0.17,0.22c-0.32,0.17-0.65,0.32-0.97,0.51c0.03,0.27,0.06,0.54,0.09,0.81
				c0.14-0.19,0.27-0.44,0.52-0.5c0.01,0.14-0.03,0.32,0.07,0.43c0.16,0.13,0.37,0.05,0.51-0.07c-0.01-0.21,0.04-0.42,0.08-0.62
				c0.06,0.03,0.14,0.04,0.16,0.12c0.07,0.19,0.05,0.41,0,0.61c-0.05,0.22-0.22,0.39-0.41,0.49c-0.12,0.06-0.26,0.09-0.39,0.04
				c-0.13-0.06-0.22-0.19-0.31-0.31c-0.08,0.2-0.21,0.38-0.21,0.61c-0.02,0.48-0.2,0.93-0.47,1.31c-0.47,0.65-1.19,1.04-1.93,1.27
				c-0.42,0.12-0.86,0.23-1.31,0.21c-0.24-0.01-0.48-0.06-0.69-0.19c-0.09-0.06-0.17-0.14-0.26-0.2c-0.11-0.02-0.23,0.01-0.34,0.01
				c-0.28,0.01-0.56,0.02-0.83-0.03c0.33-0.12,0.67-0.21,1-0.33c-0.09-0.63,0.03-1.28,0.33-1.82c0.08-0.14,0.19-0.27,0.3-0.38
				c-0.09,0.2-0.21,0.39-0.26,0.62c-0.12,0.47-0.11,0.97,0.02,1.42c0.23-0.08,0.45-0.18,0.67-0.28c0.51-0.23,1-0.48,1.46-0.81
				c0.17-0.13,0.35-0.26,0.47-0.46c0.06-0.09,0.04-0.21,0.04-0.31c-0.24,0.05-0.47,0.17-0.72,0.16c-0.16-0.01-0.32-0.04-0.43-0.17
				c-0.11-0.13-0.12-0.31-0.09-0.47c0.03-0.21,0.12-0.42,0.28-0.56c0.18-0.16,0.46-0.16,0.67-0.06c0.21,0.1,0.32,0.31,0.42,0.51
				c0.31-0.12,0.52-0.41,0.83-0.55c0.01,0.17-0.01,0.36,0.12,0.49c0.07,0.09,0.19,0.09,0.29,0.1c-0.02-0.27-0.06-0.53-0.09-0.79
				c-0.11-0.87-0.21-1.75-0.3-2.63C-2.04,100.82-2.06,100.68-2,100.58L-2,100.58z M-3.9,104.37c-0.03,0.06,0.04,0.1,0.08,0.12
				c0.17,0.06,0.35,0.02,0.52-0.01c-0.09-0.1-0.19-0.21-0.34-0.22C-3.73,104.26-3.86,104.26-3.9,104.37L-3.9,104.37z M-2.69,104.73
				c0.01,0.18,0.02,0.36-0.04,0.52c-0.09,0.28-0.29,0.51-0.51,0.7c-0.41,0.35-0.88,0.58-1.34,0.83c-0.21,0.13-0.43,0.23-0.65,0.33
				c0.28,0.02,0.57-0.03,0.84-0.05c0.43-0.03,0.84-0.16,1.23-0.32c0.41-0.18,0.81-0.41,1.13-0.74c0.19-0.2,0.35-0.45,0.42-0.73
				c0.03-0.14,0.03-0.28,0.04-0.43c-0.17-0.01-0.34,0-0.49-0.09c-0.12-0.07-0.19-0.21-0.26-0.33
				C-2.43,104.54-2.56,104.64-2.69,104.73L-2.69,104.73z"/>
		</g>
		<path id="path4633" class="st1" d="M1.83,100.56c0.06-0.07,0.17-0.06,0.24-0.01c0.16,0.11,0.26,0.32,0.24,0.52
			c-0.01,0.09-0.04,0.18-0.07,0.26c-0.02-0.13-0.02-0.26-0.07-0.38c-0.08-0.12-0.24-0.14-0.34-0.24
			C1.79,100.67,1.78,100.59,1.83,100.56z"/>
		<path id="path4635" class="st1" d="M4.11,100.63c0.01-0.08,0.08-0.16,0.16-0.12c0.22,0.11,0.37,0.32,0.47,0.55
			c-0.08,0-0.16-0.01-0.23-0.01c0.04,0.16,0.08,0.31,0.14,0.46c0.08,0.21,0.2,0.41,0.23,0.64c0.04,0.26-0.01,0.54-0.18,0.74
			c-0.32,0.38-0.97,0.31-1.24-0.09c-0.11-0.14-0.16-0.31-0.22-0.48c-0.09,0.37-0.28,0.72-0.59,0.91c-0.32,0.21-0.75,0.18-1.06-0.04
			c-0.19-0.13-0.32-0.35-0.32-0.58c-0.02-0.34,0.11-0.67,0.15-1c-0.08,0.08-0.15,0.18-0.18,0.29c-0.13,0.37-0.19,0.77-0.38,1.12
			c-0.09,0.17-0.24,0.32-0.43,0.33c-0.18,0.01-0.38-0.06-0.49-0.23c-0.09-0.16-0.12-0.34-0.12-0.53c0.01-0.28,0.07-0.56,0.19-0.81
			c0,0.35-0.1,0.73,0.07,1.06c0.08,0.18,0.31,0.29,0.48,0.19c0.16-0.1,0.23-0.29,0.28-0.46c0.12-0.37,0.24-0.74,0.41-1.08
			c0.07-0.14,0.15-0.28,0.27-0.38c0.06-0.06,0.15-0.06,0.23-0.07c0.02,0.31-0.15,0.58-0.21,0.88c-0.06,0.26-0.07,0.57,0.11,0.79
			c0.2,0.23,0.53,0.28,0.81,0.21c0.38-0.13,0.66-0.53,0.68-0.96c0.01-0.25,0.02-0.52-0.11-0.74c-0.06-0.12-0.16-0.24-0.12-0.38
			c0.03-0.14,0.13-0.26,0.24-0.32c0.08,0.14,0.16,0.29,0.17,0.46c0.04,0.38,0.05,0.78,0.18,1.14c0.08,0.21,0.19,0.43,0.4,0.53
			c0.19,0.09,0.42,0.12,0.61,0.02c0.12-0.06,0.14-0.21,0.12-0.33c-0.08-0.4-0.34-0.72-0.46-1.1C4.12,101.03,4.07,100.83,4.11,100.63
			L4.11,100.63z"/>
		<path id="path4637" class="st1" d="M7.84,100.54c0.12-0.06,0.28-0.01,0.34,0.12c0.02,0.06-0.02,0.12-0.06,0.15
			c-0.08-0.02-0.16-0.06-0.23-0.09c-0.09,0.19-0.14,0.4-0.2,0.61c-0.04-0.1-0.07-0.21-0.13-0.29c-0.08-0.11-0.2-0.17-0.29-0.27
			c-0.03-0.09,0.07-0.19,0.16-0.16c0.12,0.04,0.19,0.16,0.27,0.26C7.72,100.75,7.74,100.61,7.84,100.54L7.84,100.54z"/>
		<path id="path4639" class="st1" d="M-7.1,101.01c0.09-0.21,0.28-0.37,0.48-0.47c-0.05,0.14-0.13,0.26-0.2,0.38
			c-0.06,0.09-0.05,0.2-0.06,0.3c0.13-0.01,0.26-0.04,0.38-0.08c-0.04,0.11-0.08,0.22-0.17,0.29c-0.1,0.08-0.25,0.12-0.36,0.04
			C-7.15,101.37-7.17,101.16-7.1,101.01z"/>
		<g id="g4643">
			<path id="path4641" class="st1" d="M0,100.73c0.03-0.18,0.29-0.18,0.38-0.04c0.06,0.1,0.08,0.21,0.14,0.31
				c0.05,0.1,0.11,0.21,0.08,0.32c-0.05,0.18-0.18,0.33-0.19,0.52c0.06-0.03,0.12-0.06,0.18-0.09c-0.02,0.1,0,0.23-0.1,0.29
				c-0.12,0.06-0.27-0.06-0.26-0.2c0.02-0.25,0.25-0.44,0.18-0.71c-0.23,0.33-0.56,0.62-0.95,0.68c0.17-0.14,0.37-0.24,0.52-0.41
				c0.1-0.1,0.17-0.23,0.23-0.35C0.12,100.95-0.02,100.87,0,100.73L0,100.73z M0.16,100.71c0.04,0.06,0.09,0.11,0.14,0.14
				C0.28,100.78,0.23,100.73,0.16,100.71z"/>
		</g>
		<path id="path4645" class="st1" d="M-1.23,100.84c0.08-0.02,0.18-0.06,0.25,0.02c0.2,0.19,0.29,0.51,0.23,0.78
			c-0.04-0.11-0.08-0.22-0.13-0.32C-0.97,101.14-1.15,101.03-1.23,100.84L-1.23,100.84z"/>
		<path id="path4647" class="st1" d="M-3.02,100.96c0.08,0.09,0.12,0.21,0.11,0.34c-0.13,0.02-0.27,0.06-0.4,0.09
			c-0.07,0.02-0.15-0.03-0.17-0.11c-0.01-0.08,0.02-0.16,0.04-0.24c0.03,0.08,0.06,0.17,0.08,0.26c0.03-0.02,0.07-0.03,0.11-0.04
			c0-0.08,0-0.16,0-0.23c0.03,0,0.06,0,0.08,0c0.01,0.07,0.02,0.14,0.03,0.21c0.04-0.01,0.08-0.01,0.13-0.02
			C-3.02,101.13-3.02,101.04-3.02,100.96L-3.02,100.96z"/>
		<path id="path4649" class="st1" d="M8.26,101.14c0.11-0.03,0.22-0.04,0.33-0.04c-0.06,0.07-0.12,0.13-0.19,0.16
			c-0.38,0.16-0.78,0.28-1.14,0.48c0.03,0.07,0.07,0.14,0.1,0.21c-0.09-0.02-0.19-0.02-0.26-0.09c-0.06-0.06-0.07-0.18,0.01-0.23
			c0.06-0.05,0.13-0.08,0.2-0.11C7.62,101.39,7.93,101.25,8.26,101.14L8.26,101.14z"/>
		<path id="path4651" class="st1" d="M2.46,101.43c0.04-0.04,0.09-0.07,0.14-0.09c-0.01,0.15,0.04,0.28,0.11,0.42
			c0.06,0.13,0.01,0.32-0.14,0.36c-0.13,0.04-0.24-0.04-0.33-0.12c-0.07,0.07-0.15,0.16-0.26,0.14c-0.19-0.01-0.29-0.25-0.25-0.43
			c0.02-0.12,0.11-0.19,0.18-0.26c-0.01,0.12-0.06,0.24-0.03,0.37c0.02,0.08,0.12,0.08,0.18,0.11c0.02-0.13,0.03-0.27,0.06-0.41
			c0.01-0.07,0.09-0.08,0.14-0.11c0.01,0.12,0.01,0.23,0.04,0.34c0.03,0.08,0.12,0.11,0.19,0.15
			C2.52,101.73,2.46,101.58,2.46,101.43L2.46,101.43z"/>
		<path id="path4653" class="st1" d="M-3.31,101.64c0.08,0,0.18-0.02,0.25,0.06c0.19,0.19,0.28,0.5,0.21,0.77
			c-0.07-0.18-0.12-0.38-0.27-0.52C-3.2,101.86-3.29,101.77-3.31,101.64z"/>
		<path id="path4655" class="st1" d="M8.19,102.34c0.04-0.05,0.09-0.08,0.14-0.12c0,0.14,0.04,0.27,0.1,0.39
			c0.06,0.12,0.06,0.32-0.08,0.37c-0.13,0.06-0.26-0.01-0.37-0.09c-0.08,0.07-0.18,0.15-0.3,0.12c-0.17-0.04-0.24-0.25-0.22-0.42
			c0.01-0.12,0.11-0.2,0.19-0.28c-0.02,0.13-0.07,0.26-0.03,0.38c0.03,0.08,0.12,0.07,0.19,0.08c0.02-0.14,0.01-0.29,0.07-0.43
			c0.04-0.03,0.09-0.06,0.14-0.08c0.01,0.13-0.02,0.27,0.04,0.38c0.04,0.07,0.12,0.08,0.19,0.1C8.24,102.62,8.2,102.48,8.19,102.34
			L8.19,102.34z"/>
		<path id="path4657" class="st1" d="M12.8,102.54c-0.03-0.09,0.03-0.18,0.12-0.18c0.14,0,0.24,0.12,0.31,0.24
			c0.12,0.24,0.17,0.53,0.08,0.78c-0.05-0.23-0.04-0.52-0.24-0.67C12.98,102.66,12.88,102.63,12.8,102.54L12.8,102.54z"/>
		<path id="path4659" class="st1" d="M5.13,103.04c0.06-0.07,0.16-0.09,0.25-0.07c0.11,0.11,0.09,0.31,0,0.43
			c-0.16,0.22-0.43,0.33-0.69,0.33c0.16-0.1,0.34-0.16,0.49-0.28c0.07-0.05,0.06-0.14,0.07-0.22c-0.08,0.01-0.16,0.03-0.23,0.04
			C5.06,103.19,5.08,103.11,5.13,103.04L5.13,103.04z"/>
		<path id="path4661" class="st1" d="M8.87,103.21c0.05-0.01,0.12-0.04,0.15,0.01c-0.04,0.13-0.17,0.19-0.28,0.24
			c-0.4,0.19-0.79,0.41-1.18,0.62c-0.02-0.04-0.04-0.07-0.06-0.11c0.22-0.17,0.47-0.3,0.71-0.44C8.43,103.43,8.64,103.3,8.87,103.21
			L8.87,103.21z"/>
		<g id="g4665">
			<path id="path4663" class="st1" d="M1.34,103.54c0.01-0.08,0.07-0.14,0.11-0.21c0.31,0.35,0.57,0.76,0.71,1.22
				c0.13,0.44,0.17,0.9,0.25,1.35c0.04,0.23,0.08,0.47,0.23,0.65c0.09,0.13,0.23,0.21,0.37,0.28c0.03-0.14,0.06-0.3,0.19-0.38
				c0.39-0.27,0.84-0.44,1.28-0.59c-0.36-0.01-0.73,0-1.09-0.01c-0.29-0.01-0.59,0.02-0.88-0.03c0.01-0.12,0.01-0.24,0.08-0.34
				c0.13-0.23,0.37-0.37,0.59-0.49c0.34-0.18,0.68-0.34,1.05-0.45c-0.09-0.11-0.24-0.22-0.2-0.39c0.07-0.2,0.23-0.4,0.44-0.39
				c0.23,0,0.46,0.1,0.66,0.22c0.12,0.08,0.27,0.17,0.32,0.33c-0.01,0.11-0.06,0.21-0.12,0.3c-0.13,0.17-0.36,0.16-0.54,0.18
				c-0.01,0.13-0.03,0.29-0.16,0.36c-0.04-0.11-0.08-0.21-0.12-0.31c-0.46,0.09-0.87,0.34-1.23,0.64c1.02,0.01,2.04-0.02,3.06-0.02
				c0.07,0.01,0.13,0.01,0.2,0.02c-0.04,0.28-0.32,0.42-0.56,0.48c-0.48,0.11-0.97,0.21-1.45,0.31c-0.36,0.08-0.73,0.17-1.06,0.34
				c-0.12,0.06-0.22,0.17-0.31,0.28c0.24,0.09,0.49,0.15,0.74,0.2c0.08,0.02,0.2,0.04,0.22,0.14c0.03,0.14,0.04,0.33-0.09,0.42
				c-0.16,0.04-0.33,0-0.49-0.03c-0.44-0.07-0.87-0.32-1.13-0.72c-0.19-0.29-0.25-0.65-0.3-0.99c-0.13,0.19-0.26,0.38-0.42,0.53
				c-0.43,0.43-0.96,0.74-1.5,0.99c-0.19,0.09-0.43,0.12-0.62-0.01c-0.13-0.08-0.18-0.26-0.24-0.4c-0.51,0.27-1.02,0.53-1.58,0.64
				c-0.34,0.07-0.69,0.12-1.04,0.11c0.18-0.09,0.37-0.17,0.56-0.24c0.61-0.27,1.21-0.57,1.8-0.89c0.07-0.04,0.16-0.08,0.21-0.16
				c0.06-0.16,0.06-0.33,0.14-0.49c0.08-0.19,0.23-0.33,0.39-0.44c-0.11,0.24-0.22,0.49-0.25,0.76c0.36-0.23,0.69-0.48,0.99-0.79
				c0.08-0.09,0.19-0.2,0.14-0.33c-0.06-0.19-0.15-0.36-0.22-0.54c-0.1-0.27-0.22-0.54-0.19-0.84c0.01-0.09,0.07-0.17,0.12-0.24
				c0.24,0.17,0.4,0.44,0.54,0.7c-0.05,0.01-0.11,0.02-0.16,0.03c0.09,0.27,0.25,0.52,0.29,0.81c0.03,0.22-0.02,0.47-0.17,0.63
				c-0.38,0.43-0.84,0.75-1.28,1.1c0.08,0.04,0.16,0.11,0.26,0.1c0.18-0.01,0.36-0.07,0.53-0.14c0.61-0.28,1.11-0.76,1.63-1.19
				c-0.13-0.52-0.36-1.01-0.59-1.49C1.37,103.96,1.31,103.75,1.34,103.54L1.34,103.54z M4.29,104.23c0.06,0.09,0.14,0.16,0.24,0.2
				c0.15,0.03,0.29-0.06,0.41-0.16c-0.14-0.11-0.3-0.2-0.48-0.2C4.38,104.07,4.29,104.14,4.29,104.23L4.29,104.23z"/>
		</g>
		<g id="g4669">
			<path id="path4667" class="st1" d="M-6.3,103.54c0.01-0.07,0.06-0.14,0.13-0.13c0.19-0.02,0.32,0.14,0.44,0.27
				c0.06,0.07,0.11,0.16,0.07,0.25c-0.02,0.11-0.14,0.1-0.22,0.12c-0.17,0.01-0.23,0.2-0.36,0.28c-0.26,0.18-0.57,0.33-0.89,0.28
				c0.08-0.12,0.21-0.17,0.33-0.21c0.23-0.08,0.41-0.25,0.58-0.43C-6.27,103.84-6.33,103.69-6.3,103.54L-6.3,103.54z M-6.2,103.56
				c0.01,0.09,0.03,0.19,0.08,0.28c0.03-0.08,0.07-0.16,0.09-0.24C-6.08,103.59-6.14,103.58-6.2,103.56z M-5.95,103.93
				c0.06-0.01,0.12-0.02,0.18-0.02c-0.01-0.08-0.03-0.17-0.06-0.24C-5.9,103.72-5.91,103.83-5.95,103.93L-5.95,103.93z"/>
		</g>
		<path id="path4671" class="st1" d="M3.13,103.59c0.03-0.04,0.09-0.07,0.13-0.1c0,0.19,0.13,0.34,0.15,0.53
			c0.02,0.19-0.22,0.29-0.37,0.21c-0.04-0.03-0.08-0.07-0.12-0.11c-0.08,0.07-0.16,0.18-0.28,0.15c-0.18-0.03-0.27-0.25-0.24-0.43
			c0.02-0.12,0.11-0.2,0.19-0.27c-0.02,0.12-0.06,0.23-0.04,0.35c0.01,0.09,0.11,0.12,0.17,0.16c0.04-0.13,0.06-0.28,0.08-0.42
			c0.01-0.08,0.1-0.09,0.15-0.13c0.01,0.12,0,0.24,0.03,0.35c0.03,0.08,0.11,0.12,0.17,0.16C3.23,103.89,3.13,103.74,3.13,103.59
			L3.13,103.59z"/>
		<path id="path4673" class="st1" d="M-5.74,104.3c0.09-0.04,0.19-0.1,0.3-0.11c0.1-0.01,0.15,0.16,0.07,0.22
			c-0.12,0.09-0.26,0.13-0.39,0.19c-0.31,0.16-0.62,0.31-0.93,0.48c-0.07,0.04-0.15,0.03-0.22,0.02c0.04-0.09,0.11-0.18,0.19-0.24
			C-6.39,104.66-6.06,104.47-5.74,104.3z"/>
		<path id="path4675" class="st1" d="M5.94,104.47c0.02-0.11,0.14-0.13,0.23-0.16c0.02,0.16,0.04,0.33,0.13,0.46
			c-0.05,0.01-0.1,0.01-0.14,0.02c-0.07,0.11-0.14,0.22-0.25,0.28c-0.18,0.09-0.39,0.09-0.59,0.08c0.21-0.06,0.47-0.08,0.61-0.28
			C6.03,104.75,5.93,104.6,5.94,104.47L5.94,104.47z"/>
		<g id="g4679">
			<path id="path4677" class="st1" d="M10.14,104.63c0.03-0.09,0.13-0.09,0.2-0.08c0.16,0.03,0.27,0.17,0.37,0.28
				c0.07,0.07,0.09,0.2,0.03,0.29c-0.1,0.08-0.26,0.03-0.35,0.14c-0.27,0.32-0.68,0.53-1.09,0.48c0.08-0.12,0.21-0.17,0.33-0.21
				c0.23-0.08,0.41-0.26,0.57-0.43C10.15,104.96,10.09,104.8,10.14,104.63L10.14,104.63z M10.24,104.7c0.01,0.1,0.03,0.2,0.07,0.29
				c0.04-0.08,0.08-0.16,0.1-0.24C10.35,104.73,10.29,104.71,10.24,104.7z M10.56,104.82c-0.03,0.08-0.06,0.16-0.08,0.24
				c0.06-0.01,0.12-0.02,0.18-0.02c-0.02-0.08-0.03-0.16-0.06-0.23C10.6,104.81,10.58,104.82,10.56,104.82z"/>
		</g>
		<path id="path4681" class="st1" d="M-0.37,104.8c0.11-0.11,0.29-0.05,0.36,0.08c0.03,0.07-0.04,0.13-0.07,0.18
			c-0.06-0.03-0.11-0.08-0.17-0.09c-0.06-0.02-0.07,0.05-0.09,0.09c-0.07,0.17-0.1,0.34-0.15,0.52c-0.04-0.11-0.07-0.21-0.13-0.31
			c-0.07-0.1-0.18-0.16-0.26-0.24c-0.08-0.07,0.01-0.21,0.09-0.19c0.13,0.02,0.21,0.14,0.29,0.23
			C-0.45,104.98-0.43,104.88-0.37,104.8L-0.37,104.8z"/>
		<path id="path4683" class="st1" d="M-7.05,105.77c0.11-0.19,0.27-0.33,0.46-0.43c-0.05,0.14-0.13,0.26-0.2,0.38
			c-0.06,0.09-0.06,0.19-0.06,0.29c0.13-0.01,0.26-0.03,0.38-0.06c-0.03,0.11-0.07,0.22-0.17,0.28c-0.11,0.07-0.26,0.13-0.37,0.03
			C-7.12,106.14-7.13,105.92-7.05,105.77L-7.05,105.77z"/>
		<path id="path4685" class="st1" d="M1.82,106.62c0.09-0.02,0.21-0.06,0.29,0.01c0.08,0.06,0.11,0.2,0.03,0.28
			c-0.12,0.07-0.27,0.03-0.37,0.12c0.02,0.14,0.12,0.26,0.14,0.4c0.01,0.09-0.06,0.16-0.1,0.23c-0.03-0.14-0.05-0.29-0.12-0.41
			c-0.04-0.09-0.11-0.18-0.09-0.28c0.02-0.12,0.14-0.17,0.22-0.23C1.82,106.71,1.82,106.67,1.82,106.62z"/>
		<path id="path4687" class="st1" d="M6.08,106.8c0.04-0.12,0.15-0.17,0.24-0.23c-0.04,0.09-0.11,0.19-0.12,0.29
			c0.04,0.08,0.12,0.14,0.16,0.23c0.01,0.14-0.19,0.17-0.26,0.08C6.02,107.07,6.03,106.91,6.08,106.8L6.08,106.8z"/>
		<path id="path4689" class="st1" d="M5.05,106.64c0.16-0.06,0.32,0,0.46,0.08c-0.1,0.22-0.33,0.27-0.51,0.41
			c0.01,0.02,0.01,0.07,0.01,0.09c0.12,0.01,0.25,0.02,0.36-0.04c0.14-0.08,0.28-0.15,0.44-0.18c-0.12,0.11-0.24,0.22-0.36,0.33
			c-0.14,0.12-0.34,0.12-0.52,0.07c-0.08-0.03-0.19-0.11-0.16-0.22c0.04-0.14,0.18-0.21,0.28-0.29c-0.08-0.01-0.15-0.01-0.23-0.02
			C4.89,106.77,4.94,106.66,5.05,106.64z"/>
		<path id="path4691" class="st1" d="M9.08,107.03c-0.06-0.07-0.01-0.18,0.07-0.19c0.15-0.03,0.28,0.1,0.34,0.23
			c0.1,0.18,0.09,0.4,0.01,0.58c-0.03-0.13-0.03-0.26-0.09-0.38C9.33,107.16,9.18,107.14,9.08,107.03L9.08,107.03z"/>
		<path id="path4693" class="st1" d="M11.59,107.11c0.21-0.08,0.41-0.18,0.63-0.16c-0.05,0.08-0.11,0.16-0.21,0.19
			c-0.34,0.13-0.69,0.26-1.03,0.41c-0.11,0.05-0.22,0.09-0.33,0.12c-0.01-0.03-0.03-0.07-0.04-0.1
			C10.93,107.39,11.26,107.25,11.59,107.11L11.59,107.11z"/>
	</g>
	<path id="path4697" class="st1" d="M444.26-6869.54h-30.96v-2.93c1.4-1.21,3.3-2.85,3.3-3.8c0-1.64-3.89-5.01-4.79-5.01
		c-1,0-4.79,3.45-4.79,5.01c0,1.04,1.7,2.5,3.1,3.71l0.1,0.09v3.02H166.06c8.69,8.63,21.57,8.55,47.43,8.8
		c23.07,0.35,22.97,0.35,196.62,0v3.11c-1.4,1.21-3.1,2.85-3.1,3.8c0,1.64,3.69,5.01,4.79,5.01c0.7,0,3-1.9,4.19-3.54h10.68
		c0.7,1.21,2.3,1.9,4.19,1.9c1.9,0,3.5-0.78,4.19-1.9h12.78c1.6,1.81,3.79,1.9,5.09,1.9c4.89-0.17,5.99-2.68,5.99-11.31
		C458.84-6868.94,453.95-6869.71,444.26-6869.54L444.26-6869.54z M446.46-6854.95h-11.38c-0.7-1.21-2.3-1.99-4.19-1.99
		c-1.9,0-3.5,0.78-4.19,1.99H416.2c-0.6-0.86-1.8-1.99-2.8-2.68v-3.11h32.65h0.5C445.96-6858.49,445.86-6856.51,446.46-6854.95z"/>
</g>
</svg>
