<svg xmlns="http://www.w3.org/2000/svg" width="40" height="40" viewBox="0 0 40 40">
<style type="text/css">
	.st0{fill:#FFFFFF;}
	.st1{fill:#00267F;}
	.st2{fill:#F31830;}
	.st3{fill:#FF0000;}
	.st4{fill:#006600;}
	.st5{fill-rule:evenodd;clip-rule:evenodd;fill:#FFFF00;}
	.st6{fill-rule:evenodd;clip-rule:evenodd;fill:#FFFF00;stroke:#000000;stroke-width:0.6;stroke-linecap:round;stroke-linejoin:round;}
	.st7{fill:#FFFF00;}
	.st8{fill:#FFFF00;stroke:#000000;stroke-width:0.5;}
</style>
<g>
	<path class="st0" d="M13.34,1.16v37.69c0.6,0.21,1.22,0.4,1.86,0.56c0,0,0,0,0,0c3.95,0.98,7.9,0.7,11.47-0.56V1.15
		c-0.61-0.21-1.22-0.4-1.86-0.56C20.86-0.39,16.9-0.11,13.34,1.16z"/>
	<path class="st1" d="M0.59,15.2C0.59,15.2,0.59,15.2,0.59,15.2c-2.5,10.08,3.14,20.27,12.74,23.65V1.16
		C7.22,3.33,2.27,8.42,0.59,15.2z"/>
	<path class="st2" d="M39.41,24.8c2.5-10.08-3.14-20.27-12.75-23.65v37.69C32.78,36.67,37.73,31.58,39.41,24.8z"/>
</g>
<path class="st3" d="M82.66,30.39h21.23v26.54H82.66V30.39z"/>
<path class="st4" d="M68.5,30.39h14.16v26.54H68.5V30.39z"/>
<g>
	<g>
		<path class="st5" d="M87.28,47.32c-1.79-0.06-9.95-5.15-10.01-5.97l0.45-0.75c0.81,1.18,9.16,6.14,9.99,5.96L87.28,47.32"/>
		<path d="M87.28,47.34C87.28,47.34,87.28,47.34,87.28,47.34c-0.95-0.03-3.65-1.47-5.66-2.7c-2.08-1.27-4.33-2.84-4.36-3.29
			c0,0,0-0.01,0-0.01l0.45-0.75c0,0,0.01-0.01,0.01-0.01c0.01,0,0.01,0,0.01,0.01c0.42,0.6,2.8,2.19,4.98,3.48
			c2.57,1.53,4.62,2.55,4.99,2.47c0.01,0,0.01,0,0.02,0.01c0,0.01,0,0.01,0,0.02l-0.43,0.76C87.29,47.33,87.28,47.34,87.28,47.34z
			 M77.28,41.35c0.04,0.38,1.86,1.74,4.35,3.25c2.01,1.22,4.68,2.66,5.64,2.7l0.4-0.72c-0.01,0-0.01,0-0.02,0
			c-0.55,0-2.85-1.23-4.96-2.48c-2.16-1.29-4.52-2.85-4.98-3.47L77.28,41.35z"/>
	</g>
	<path class="st6" d="M68.5,30.39"/>
	<g>
		<path class="st5" d="M82.67,41.85c1.78-0.02,3.98-0.24,5.25-0.75l-0.28-0.44c-0.75,0.41-2.96,0.69-4.99,0.73
			c-2.4-0.02-4.1-0.25-4.95-0.82l-0.25,0.48C79.01,41.7,80.61,41.84,82.67,41.85"/>
		<path d="M82.67,41.86C82.67,41.86,82.67,41.86,82.67,41.86c-2.07-0.01-3.66-0.14-5.23-0.81c0,0-0.01-0.01-0.01-0.01
			c0,0,0-0.01,0-0.01l0.25-0.48c0,0,0.01-0.01,0.01-0.01c0,0,0.01,0,0.01,0c0.8,0.53,2.37,0.79,4.94,0.82
			c1.89-0.04,4.21-0.3,4.99-0.73c0.01,0,0.02,0,0.02,0.01l0.28,0.44c0,0,0,0.01,0,0.01c0,0-0.01,0.01-0.01,0.01
			C86.6,41.64,84.34,41.85,82.67,41.86z M77.47,41.03c1.55,0.66,3.14,0.79,5.2,0.8c1.66-0.02,3.9-0.22,5.23-0.74l-0.26-0.41
			c-0.79,0.43-3.1,0.69-4.99,0.72c-2.56-0.02-4.14-0.28-4.94-0.81L77.47,41.03z"/>
	</g>
	<path class="st6" d="M68.5,30.39"/>
	<path class="st6" d="M68.5,30.39"/>
	<path class="st6" d="M68.5,30.39"/>
	<path class="st6" d="M68.5,30.39"/>
	<g>
		<path class="st5" d="M82.65,37.83c3.22,0,5.84,2.62,5.84,5.84c0,3.22-2.62,5.84-5.83,5.84s-5.84-2.62-5.84-5.84
			C76.82,40.45,79.44,37.83,82.65,37.83L82.65,37.83z M76.94,43.66c0,3.14,2.58,5.71,5.71,5.71c3.13,0,5.71-2.57,5.71-5.71
			s-2.58-5.71-5.71-5.71C79.52,37.95,76.94,40.52,76.94,43.66z M68.5,30.39"/>
		<path d="M82.66,49.52c-3.23,0-5.86-2.63-5.86-5.86c0-3.23,2.62-5.85,5.85-5.86c0,0,0,0,0,0h0.01c0,0,0,0,0,0
			c3.23,0,5.85,2.63,5.85,5.86C88.51,46.9,85.89,49.52,82.66,49.52z M82.66,37.84c-3.21,0-5.82,2.61-5.82,5.82
			c0,3.21,2.61,5.82,5.82,5.82c3.21,0,5.82-2.61,5.82-5.82C88.48,40.46,85.87,37.84,82.66,37.84z M82.65,49.39
			c-1.52,0-2.95-0.6-4.04-1.68c-1.09-1.09-1.69-2.52-1.69-4.05c0-1.52,0.6-2.96,1.69-4.05c1.09-1.09,2.52-1.68,4.04-1.68
			c1.52,0,2.95,0.6,4.04,1.68c1.09,1.09,1.69,2.52,1.69,4.05c0,1.52-0.6,2.96-1.69,4.05C85.61,48.79,84.17,49.39,82.65,49.39z
			 M82.65,37.97c-3.14,0-5.7,2.56-5.7,5.7s2.56,5.7,5.7,5.7s5.7-2.56,5.7-5.7S85.79,37.97,82.65,37.97z"/>
	</g>
	<g>
		<path class="st5" d="M82.9,37.8h-0.5v11.74h0.5L82.9,37.8z"/>
		<path d="M82.89,49.56h-0.5c-0.01,0-0.02-0.01-0.02-0.02V37.8c0-0.01,0.01-0.02,0.02-0.02h0.5c0,0,0.01,0,0.01,0c0,0,0,0.01,0,0.01
			l-0.01,11.74C82.91,49.55,82.9,49.56,82.89,49.56z M82.41,49.52h0.46l0.01-11.71h-0.47V49.52z"/>
	</g>
	<g>
		<path class="st5" d="M82.84,37.73h0.13v11.87h-0.12L82.84,37.73L82.84,37.73z M82.34,37.73h0.13v11.87h-0.13L82.34,37.73
			L82.34,37.73z"/>
		<path d="M82.97,49.62h-0.12c-0.01,0-0.02-0.01-0.02-0.02V37.75c0,0-0.01-0.01-0.01-0.01c0-0.01,0.01-0.02,0.02-0.02h0.13
			c0.01,0,0.02,0.01,0.02,0.02v11.87C82.99,49.61,82.98,49.62,82.97,49.62z M82.86,49.59h0.09V37.75h-0.09V49.59z M82.48,49.62
			h-0.13c-0.01,0-0.02-0.01-0.02-0.02V37.75c0,0-0.01-0.01-0.01-0.01c0-0.01,0.01-0.02,0.02-0.02h0.13c0.01,0,0.02,0.01,0.02,0.02
			v11.87C82.49,49.61,82.49,49.62,82.48,49.62z M82.37,49.59h0.09V37.75h-0.09V49.59z"/>
	</g>
	<g>
		<path class="st5" d="M88.5,43.89v-0.43l-0.35-0.33l-2.01-0.53l-2.89-0.29l-3.48,0.18l-2.48,0.59l-0.5,0.37v0.44l1.27-0.57
			l3.01-0.47h2.89l2.12,0.23l1.47,0.35L88.5,43.89z"/>
		<path d="M88.5,43.91C88.5,43.91,88.49,43.91,88.5,43.91l-0.95-0.47l-1.47-0.35l-2.12-0.23l-2.89,0l-3,0.47l-1.26,0.57
			c-0.01,0-0.01,0-0.02,0c0,0-0.01-0.01-0.01-0.01v-0.44c0-0.01,0-0.01,0.01-0.01l0.5-0.37c0,0,0,0,0.01,0l2.48-0.59l3.49-0.18
			l2.89,0.29l2.01,0.53c0,0,0.01,0,0.01,0l0.35,0.33c0,0,0.01,0.01,0.01,0.01v0.43C88.52,43.9,88.51,43.9,88.5,43.91
			C88.5,43.91,88.5,43.91,88.5,43.91z M83.96,42.82l2.13,0.23l1.47,0.35l0.93,0.46v-0.4l-0.35-0.32l-2-0.53l-2.88-0.29l-3.48,0.18
			l-2.47,0.58l-0.49,0.36v0.4l1.24-0.56c0,0,0,0,0,0l3.01-0.47L83.96,42.82z"/>
	</g>
	<path class="st6" d="M68.5,30.39"/>
	<path class="st6" d="M68.5,30.39"/>
	<path class="st6" d="M68.5,30.39"/>
	<g>
		<path class="st5" d="M87.82,46.45l-0.43,0.68l-1.26-1.11l-3.24-2.18l-3.66-2.01l-1.9-0.65l0.4-0.75l0.14-0.07l1.18,0.29l3.89,2.01
			l2.25,1.42l1.89,1.35l0.77,0.88L87.82,46.45z"/>
		<path d="M87.39,47.15c0,0-0.01,0-0.01,0l-1.26-1.11l-3.24-2.18l-3.66-2.01l-1.89-0.65c0,0-0.01-0.01-0.01-0.01c0,0,0-0.01,0-0.01
			l0.4-0.75c0,0,0-0.01,0.01-0.01l0.14-0.07c0,0,0.01,0,0.01,0l1.18,0.29l3.9,2.01l2.25,1.42l1.89,1.36l0.77,0.89c0,0,0,0.01,0,0.01
			l-0.03,0.14c0,0,0,0,0,0.01l-0.43,0.68C87.4,47.15,87.4,47.15,87.39,47.15C87.39,47.15,87.39,47.15,87.39,47.15z M77.36,41.17
			l1.88,0.64l3.66,2.01l3.24,2.19l1.24,1.1l0.42-0.66l0.03-0.13l-0.76-0.88l-1.88-1.35l-2.24-1.42l-3.89-2.01l-1.17-0.29l-0.13,0.07
			L77.36,41.17z M87.82,46.45L87.82,46.45L87.82,46.45z"/>
	</g>
	<g>
		<path class="st5" d="M77.27,41.2c0.33-0.22,2.78,0.86,5.34,2.41c2.55,1.55,4.99,3.3,4.77,3.62l-0.07,0.12l-0.03,0.03
			c0.01-0.01,0.04-0.06,0-0.17c-0.11-0.36-1.85-1.74-4.72-3.48c-2.8-1.66-5.14-2.67-5.36-2.38L77.27,41.2z M87.91,46.45
			c0.21-0.42-2.06-2.13-4.87-3.79c-2.88-1.63-4.95-2.59-5.34-2.31l-0.08,0.16c0,0.01,0-0.01,0.02-0.03
			c0.07-0.06,0.18-0.06,0.23-0.06c0.65,0.01,2.52,0.87,5.13,2.37c1.15,0.66,4.84,3.04,4.83,3.71c0,0.06,0.01,0.07-0.02,0.1
			L87.91,46.45L87.91,46.45z"/>
		<path d="M87.28,47.39c0,0-0.01,0-0.01-0.01c-0.01-0.01-0.01-0.02,0-0.02c0,0,0.04-0.04,0-0.15c-0.11-0.37-1.95-1.8-4.71-3.47
			c-2.94-1.75-5.14-2.65-5.34-2.39c-0.01,0.01-0.01,0.01-0.02,0s-0.01-0.01-0.01-0.02l0.07-0.14c0,0,0,0,0.01-0.01
			c0.35-0.23,2.85,0.9,5.36,2.41c2.3,1.4,4.68,3.07,4.79,3.55c0.01,0.04,0,0.07-0.01,0.09l-0.07,0.12c0,0,0,0,0,0l-0.03,0.03
			C87.29,47.39,87.29,47.39,87.28,47.39z M77.36,41.28c0.64,0,2.81,1,5.22,2.43c2.81,1.7,4.61,3.11,4.72,3.49
			c0.02,0.05,0.02,0.08,0.02,0.11l0.05-0.09c0.01-0.02,0.01-0.04,0.01-0.07c-0.1-0.48-2.48-2.14-4.78-3.53
			c-2.75-1.66-5.01-2.6-5.32-2.41l-0.04,0.09C77.27,41.29,77.31,41.28,77.36,41.28z M87.82,46.61
			C87.82,46.61,87.82,46.61,87.82,46.61c-0.02-0.01-0.02-0.02-0.01-0.03l0,0c0.01-0.02,0.01-0.03,0.01-0.06c0-0.01,0-0.02,0-0.03
			c0.02-0.62-3.49-2.92-4.82-3.69c-2.6-1.49-4.47-2.35-5.12-2.36c-0.05,0-0.16,0-0.22,0.05c-0.01,0-0.01,0.01-0.02,0.02
			c0,0.01-0.01,0.01-0.02,0.01c-0.01,0-0.01-0.01-0.01-0.02c0,0,0,0,0-0.01l0.08-0.16c0,0,0,0,0-0.01c0.46-0.35,3.16,1.06,5.35,2.3
			c2.52,1.49,5.07,3.32,4.88,3.8c0,0.01,0,0.01,0,0.02l-0.09,0.14c0,0,0,0,0,0C87.83,46.61,87.83,46.61,87.82,46.61z M77.88,40.41
			c0.66,0.01,2.53,0.87,5.14,2.37c1.03,0.59,4.85,3.03,4.84,3.72c0,0.01,0,0.01,0,0.02l0.04-0.06c0,0,0-0.01,0-0.01
			c0.19-0.39-1.94-2.04-4.87-3.77c-3.07-1.74-4.96-2.56-5.31-2.31l-0.04,0.08C77.75,40.41,77.84,40.41,77.88,40.41z"/>
	</g>
</g>
<g transform="translate(0 26.7) scale(1.06667)">
	<path class="st6" d="M64.22,4.84"/>
	<path class="st6" d="M64.22,4.84"/>
	<g id="e">
		<g id="d">
			<path class="st7" d="M74.74,13.38c0.01-0.3,0.22-0.38,0.22-0.38c0.01,0,0.24,0.08,0.24,0.38L74.74,13.38"/>
			<g>
				<path class="st7" d="M74.55,13.01l-0.04,0.35h0.23c0-0.29,0.22-0.33,0.22-0.33c0.01,0,0.22,0.06,0.23,0.33h0.23L75.38,13
					L74.55,13.01L74.55,13.01z M74.5,13.36h0.94c0.02,0,0.03,0.02,0.03,0.04c0,0.03-0.02,0.04-0.03,0.04H74.5
					c-0.02,0-0.03-0.02-0.03-0.04C74.46,13.38,74.48,13.36,74.5,13.36L74.5,13.36z"/>
				<path d="M75.44,13.46H74.5c-0.02,0-0.05-0.02-0.05-0.06c0-0.03,0.02-0.05,0.05-0.05v0h0l0.04-0.36h0.85l0.04,0.36
					c0.02,0,0.05,0.02,0.05,0.05C75.48,13.44,75.46,13.46,75.44,13.46z M74.5,13.38c-0.01,0-0.03,0.01-0.03,0.03
					c0,0.02,0.01,0.03,0.02,0.03h0.94c0.01,0,0.02-0.01,0.02-0.03c0-0.01-0.01-0.03-0.02-0.03H74.5z M74.76,13.35h0.42
					c-0.01-0.24-0.19-0.31-0.21-0.31C74.94,13.05,74.76,13.1,74.76,13.35z M75.2,13.35h0.21l-0.04-0.33h-0.39
					C75.03,13.03,75.19,13.11,75.2,13.35z M74.53,13.35h0.2c0.01-0.24,0.17-0.31,0.22-0.33h-0.39L74.53,13.35z"/>
			</g>
			<g>
				<path class="st7" d="M74.84,13.36c0-0.18,0.13-0.23,0.13-0.23s0.13,0.06,0.13,0.23H74.84 M74.52,12.86h0.9
					c0.02,0,0.03,0.02,0.03,0.04c0,0.02-0.02,0.03-0.03,0.03h-0.9c-0.02,0-0.03-0.02-0.03-0.04C74.48,12.88,74.5,12.87,74.52,12.86
					L74.52,12.86z M74.54,12.94h0.85c0.02,0,0.03,0.02,0.03,0.04c0,0.02-0.02,0.04-0.03,0.04h-0.86c-0.02,0-0.03-0.02-0.03-0.04
					C74.5,12.96,74.51,12.94,74.54,12.94L74.54,12.94z M74.82,12.36h0.07v0.04h0.05v-0.04H75v0.05h0.05v-0.06h0.07v0.11
					c0,0.02-0.01,0.03-0.03,0.03h-0.24c-0.02,0-0.03-0.01-0.03-0.03V12.36L74.82,12.36z M75.07,12.51l0.02,0.35h-0.24l0.02-0.36
					L75.07,12.51"/>
				<path d="M75.11,13.37h-0.28v-0.01c0-0.19,0.13-0.24,0.14-0.24l0,0l0,0c0.01,0,0.14,0.06,0.14,0.24V13.37z M74.85,13.35h0.23
					c-0.01-0.14-0.09-0.19-0.11-0.2C74.94,13.15,74.86,13.2,74.85,13.35z M75.39,13.03h-0.86c-0.03,0-0.05-0.02-0.05-0.05
					c0-0.01,0-0.03,0.01-0.04c-0.02-0.01-0.03-0.03-0.03-0.05c0-0.02,0.01-0.04,0.03-0.04v-0.01h0.33l0.02-0.34h0
					c-0.02,0-0.05-0.02-0.05-0.04v-0.12h0.09v0.04h0.02v-0.04h0.1v0.05h0.02v-0.06h0.09v0.12c0,0.03-0.02,0.05-0.04,0.05h-0.01
					l0.02,0.34h0.32c0.02,0,0.05,0.03,0.05,0.06c0,0.02-0.02,0.04-0.04,0.05c0.01,0.01,0.01,0.02,0.01,0.03
					C75.44,13.01,75.42,13.03,75.39,13.03z M74.53,12.96c-0.02,0-0.02,0.01-0.02,0.03s0,0.03,0.02,0.03h0.86
					c0.01,0,0.02-0.01,0.02-0.03s-0.01-0.03-0.02-0.03H74.53z M74.52,12.88c-0.01,0-0.02,0.01-0.02,0.02c0,0.01,0.01,0.03,0.02,0.03
					h0.9c0.01,0,0.02-0.01,0.02-0.02c0-0.02-0.01-0.03-0.02-0.03h-0.89v0.01H74.52z M74.86,12.85h0.21l-0.02-0.33h-0.18L74.86,12.85
					z M74.83,12.37v0.1c0,0.01,0.01,0.01,0.02,0.01h0.24c0,0,0.01,0,0.01-0.02v-0.1h-0.04v0.06h-0.08v-0.05h-0.05v0.04h-0.08v-0.04
					H74.83z"/>
			</g>
			<g>
				<path id="a_1_" class="st7" d="M74.78,12.67v0.19h-0.22v-0.19H74.78z"/>
				<path d="M74.8,12.87h-0.25v-0.21h0.25V12.87z M74.57,12.85h0.2v-0.16h-0.2V12.85z"/>
			</g>
			<g>
				<g>
					<path class="st7" d="M75.37,12.67v0.19h-0.22v-0.19H75.37z"/>
					<path d="M75.38,12.87h-0.25v-0.21h0.25V12.87z M75.16,12.85h0.2v-0.16h-0.2V12.85z"/>
				</g>
			</g>
			<path id="b" class="st8" d="M64.22,4.84"/>
			<g>
				<path class="st8" d="M64.81,4.84"/>
			</g>
			<path d="M74.94,12.62c0-0.03,0.05-0.03,0.05,0v0.09h-0.05V12.62"/>
			<path id="c" d="M74.65,12.74c0-0.03,0.04-0.03,0.04,0v0.07h-0.04V12.74"/>
			<g>
				<path d="M75.24,12.74c0-0.03,0.04-0.03,0.04,0v0.07h-0.04V12.74"/>
			</g>
		</g>
		<g>
			<g>
				<path class="st7" d="M74.74,15.94c0.01-0.3,0.22-0.38,0.22-0.38c0.01,0,0.24,0.08,0.24,0.38L74.74,15.94"/>
				<g>
					<path class="st7" d="M74.55,15.57l-0.04,0.35h0.23c0-0.29,0.22-0.33,0.22-0.33c0.01,0,0.22,0.06,0.23,0.33h0.23l-0.04-0.35
						L74.55,15.57L74.55,15.57z M74.5,15.92h0.94c0.02,0,0.03,0.02,0.03,0.04c0,0.03-0.02,0.04-0.03,0.04H74.5
						c-0.02,0-0.03-0.02-0.03-0.04C74.46,15.94,74.48,15.92,74.5,15.92L74.5,15.92z"/>
					<path d="M75.44,16.02H74.5c-0.02,0-0.05-0.02-0.05-0.06c0-0.03,0.02-0.05,0.05-0.05v0h0l0.04-0.36h0.85l0.04,0.36
						c0.02,0,0.05,0.02,0.05,0.05C75.48,16,75.46,16.02,75.44,16.02z M74.5,15.94c-0.01,0-0.03,0.01-0.03,0.03
						c0,0.02,0.01,0.03,0.02,0.03h0.94c0.01,0,0.02-0.01,0.02-0.03c0-0.01-0.01-0.03-0.02-0.03H74.5z M74.76,15.91h0.42
						c-0.01-0.24-0.19-0.31-0.21-0.31C74.94,15.61,74.76,15.66,74.76,15.91z M75.2,15.91h0.21l-0.04-0.33h-0.39
						C75.03,15.59,75.19,15.67,75.2,15.91z M74.53,15.91h0.2c0.01-0.24,0.17-0.31,0.22-0.33h-0.39L74.53,15.91z"/>
				</g>
				<g>
					<path class="st7" d="M74.84,15.92c0-0.18,0.13-0.23,0.13-0.23s0.13,0.06,0.13,0.23H74.84 M74.52,15.42h0.9
						c0.02,0,0.03,0.02,0.03,0.04c0,0.02-0.02,0.03-0.03,0.03h-0.9c-0.02,0-0.03-0.02-0.03-0.04C74.48,15.44,74.5,15.43,74.52,15.42
						L74.52,15.42z M74.54,15.5h0.85c0.02,0,0.03,0.02,0.03,0.04c0,0.02-0.02,0.04-0.03,0.04h-0.86c-0.02,0-0.03-0.02-0.03-0.04
						C74.5,15.52,74.51,15.5,74.54,15.5L74.54,15.5z M74.82,14.92h0.07v0.04h0.05v-0.04H75v0.05h0.05v-0.06h0.07v0.11
						c0,0.02-0.01,0.03-0.03,0.03h-0.24c-0.02,0-0.03-0.01-0.03-0.03V14.92L74.82,14.92z M75.07,15.07l0.02,0.35h-0.24l0.02-0.36
						L75.07,15.07"/>
					<path d="M75.11,15.93h-0.28v-0.01c0-0.19,0.13-0.24,0.14-0.24l0,0l0,0c0.01,0,0.14,0.06,0.14,0.24V15.93z M74.85,15.91h0.23
						c-0.01-0.14-0.09-0.19-0.11-0.2C74.94,15.71,74.86,15.76,74.85,15.91z M75.39,15.59h-0.86c-0.03,0-0.05-0.02-0.05-0.05
						c0-0.01,0-0.03,0.01-0.04c-0.02-0.01-0.03-0.03-0.03-0.05c0-0.02,0.01-0.04,0.03-0.04v-0.01h0.33l0.02-0.34h0
						c-0.02,0-0.05-0.02-0.05-0.04v-0.12h0.09v0.04h0.02v-0.04h0.1v0.05h0.02V14.9h0.09v0.12c0,0.03-0.02,0.05-0.04,0.05h-0.01
						l0.02,0.34h0.32c0.02,0,0.05,0.03,0.05,0.06c0,0.02-0.02,0.04-0.04,0.05c0.01,0.01,0.01,0.02,0.01,0.03
						C75.44,15.57,75.42,15.59,75.39,15.59z M74.53,15.52c-0.02,0-0.02,0.01-0.02,0.03s0,0.03,0.02,0.03h0.86
						c0.01,0,0.02-0.01,0.02-0.03s-0.01-0.03-0.02-0.03H74.53z M74.52,15.44c-0.01,0-0.02,0.01-0.02,0.02
						c0,0.01,0.01,0.03,0.02,0.03h0.9c0.01,0,0.02-0.01,0.02-0.02c0-0.02-0.01-0.03-0.02-0.03h-0.89v0.01H74.52z M74.86,15.41h0.21
						l-0.02-0.33h-0.18L74.86,15.41z M74.83,14.93v0.1c0,0.01,0.01,0.01,0.02,0.01h0.24c0,0,0.01,0,0.01-0.02v-0.1h-0.04v0.06h-0.08
						v-0.05h-0.05v0.04h-0.08v-0.04H74.83z"/>
				</g>
				<g>
					<path class="st7" d="M74.78,15.23v0.19h-0.22v-0.19H74.78z"/>
					<path d="M74.8,15.43h-0.25v-0.21h0.25V15.43z M74.57,15.41h0.2v-0.16h-0.2V15.41z"/>
				</g>
				<g>
					<g>
						<path class="st7" d="M75.37,15.23v0.19h-0.22v-0.19H75.37z"/>
						<path d="M75.38,15.43h-0.25v-0.21h0.25V15.43z M75.16,15.41h0.2v-0.16h-0.2V15.41z"/>
					</g>
				</g>
				<path class="st8" d="M64.22,7.4"/>
				<g>
					<path class="st8" d="M64.81,7.4"/>
				</g>
				<path d="M74.94,15.18c0-0.03,0.05-0.03,0.05,0v0.09h-0.05V15.18"/>
				<path d="M74.65,15.3c0-0.03,0.04-0.03,0.04,0v0.07h-0.04V15.3"/>
				<g>
					<path d="M75.24,15.3c0-0.03,0.04-0.03,0.04,0v0.07h-0.04V15.3"/>
				</g>
			</g>
		</g>
		<g transform="rotate(-45.2 312.8 180)">
			<g>
				<path class="st7" d="M75.74,18.61c-0.21-0.22-0.11-0.42-0.11-0.42c0,0,0.22-0.11,0.44,0.1L75.74,18.61"/>
				<g>
					<path class="st7" d="M75.34,18.48l0.22,0.27l0.16-0.16c-0.2-0.2-0.08-0.39-0.08-0.39c0,0,0.2-0.11,0.4,0.07l0.16-0.16
						l-0.28-0.22L75.34,18.48L75.34,18.48z M75.55,18.77l0.66-0.67c0.01-0.01,0.04-0.01,0.05,0c0.02,0.02,0.02,0.04,0.01,0.05
						l-0.66,0.67c-0.01,0.01-0.04,0.01-0.05-0.01C75.54,18.81,75.54,18.78,75.55,18.77L75.55,18.77z"/>
					<path d="M75.59,18.85c-0.01,0-0.03-0.01-0.04-0.02c-0.01-0.01-0.02-0.02-0.02-0.04c0-0.01,0-0.02,0.01-0.03l0,0l0,0l-0.23-0.28
						l0.6-0.61l0.29,0.22c0.02-0.02,0.05-0.02,0.07,0c0.01,0.01,0.02,0.02,0.02,0.04c0,0.01,0,0.03-0.01,0.03l-0.66,0.67
						C75.61,18.85,75.6,18.85,75.59,18.85z M75.57,18.78c-0.01,0.01-0.01,0.01-0.01,0.02c0,0.01,0,0.01,0.01,0.02
						c0.01,0.01,0.01,0.01,0.02,0.01c0.01,0,0.01,0,0.01,0l0.66-0.67c0,0,0-0.01,0-0.01c0-0.01-0.01-0.02-0.01-0.02
						c-0.01-0.01-0.01-0.01-0.02-0.01c-0.01,0-0.01,0-0.01,0L75.57,18.78z M75.36,18.48l0.21,0.26l0.14-0.15
						c-0.17-0.18-0.1-0.34-0.08-0.39L75.36,18.48z M75.65,18.21c-0.01,0.02-0.1,0.19,0.07,0.37l0.3-0.3
						C75.85,18.11,75.67,18.2,75.65,18.21z M75.79,18.15c0.07,0,0.16,0.02,0.25,0.1l0.14-0.15l-0.26-0.2l-0.28,0.28
						C75.67,18.17,75.72,18.15,75.79,18.15z"/>
				</g>
				<g>
					<path class="st7" d="M75.79,18.52c-0.13-0.13-0.08-0.25-0.08-0.25s0.13-0.05,0.25,0.07L75.79,18.52 M75.21,18.4l0.64-0.64
						c0.01-0.01,0.04-0.01,0.05,0.01c0.01,0.01,0.01,0.04,0,0.05l-0.64,0.64c-0.01,0.01-0.04,0.01-0.05,0
						C75.2,18.44,75.2,18.42,75.21,18.4L75.21,18.4z M75.29,18.44l0.6-0.6c0.01-0.01,0.04-0.01,0.05,0c0.02,0.02,0.02,0.04,0,0.05
						l-0.6,0.61c-0.02,0.02-0.04,0.01-0.05,0C75.27,18.48,75.27,18.46,75.29,18.44L75.29,18.44z M75.07,17.83l0.05-0.05l0.03,0.03
						l0.04-0.04l-0.03-0.03l0.05-0.05l0.04,0.04l0.04-0.04l-0.04-0.04l0.05-0.05l0.08,0.08c0.02,0.02,0.02,0.03,0,0.04l-0.17,0.17
						c-0.01,0.01-0.03,0.02-0.04,0L75.07,17.83L75.07,17.83z M75.35,17.76L75.61,18l-0.17,0.17L75.2,17.9L75.35,17.76"/>
					<path d="M75.79,18.54L75.79,18.54c-0.14-0.14-0.09-0.27-0.09-0.28l0,0l0,0c0.01,0,0.14-0.05,0.27,0.08l0.01,0.01L75.79,18.54z
						 M75.73,18.28c-0.01,0.02-0.03,0.12,0.07,0.23l0.16-0.16C75.85,18.25,75.75,18.27,75.73,18.28z M75.32,18.52
						c-0.01,0-0.03-0.01-0.04-0.02c-0.01-0.01-0.02-0.02-0.02-0.03c-0.02,0.01-0.04,0-0.05-0.01c-0.01-0.01-0.02-0.04-0.01-0.05
						l-0.01-0.01l0.23-0.24l-0.23-0.25l0,0c-0.02,0.02-0.04,0.02-0.06,0l-0.09-0.09l0.07-0.07l0.03,0.03l0.02-0.02l-0.03-0.03
						l0.07-0.07l0.04,0.04l0.02-0.02l-0.04-0.04l0.07-0.07l0.09,0.09c0.02,0.02,0.02,0.04,0,0.06l-0.01,0.01l0.25,0.23l0.23-0.23
						c0.01-0.01,0.02-0.01,0.04-0.01c0.01,0,0.03,0.01,0.04,0.02c0.01,0.01,0.01,0.02,0.01,0.03c0,0.01,0,0.02-0.01,0.03
						c0.01,0,0.02,0.01,0.03,0.02c0.02,0.02,0.02,0.05,0,0.07l-0.6,0.61C75.34,18.52,75.33,18.52,75.32,18.52z M75.91,17.84
						C75.91,17.84,75.91,17.84,75.91,17.84c-0.01,0-0.01,0-0.01,0l-0.6,0.61c-0.01,0.01,0,0.02,0,0.03c0.01,0.01,0.02,0.02,0.03,0
						l0.6-0.61c0.01-0.01,0.01-0.02,0-0.03C75.92,17.85,75.92,17.84,75.91,17.84z M75.23,18.4L75.23,18.4l-0.01,0.01
						c-0.01,0.01-0.01,0.02,0,0.03c0.01,0.01,0.03,0.01,0.03,0l0.64-0.64c0.01-0.01,0.01-0.02,0-0.03
						c-0.01-0.01-0.03-0.01-0.04-0.01L75.23,18.4z M75.22,17.9l0.23,0.25L75.59,18l-0.25-0.22L75.22,17.9z M75.08,17.83l0.07,0.07
						c0.01,0.01,0.02,0,0.02,0l0.17-0.17c0,0,0.01-0.01,0-0.02l-0.07-0.07l-0.03,0.03l0.04,0.04l-0.05,0.05l-0.04-0.04l-0.03,0.03
						l0.03,0.03l-0.05,0.05l-0.03-0.03L75.08,17.83z"/>
				</g>
				<g>
					<path class="st7" d="M75.27,18.08l0.13,0.13l-0.16,0.16l-0.13-0.13L75.27,18.08z"/>
					<path d="M75.24,18.39l-0.15-0.15l0.17-0.18l0.15,0.15L75.24,18.39z M75.13,18.24l0.11,0.11l0.14-0.14l-0.11-0.11L75.13,18.24z"
						/>
				</g>
				<g>
					<g>
						<path class="st7" d="M75.68,17.66l0.13,0.13l-0.16,0.16l-0.13-0.13L75.68,17.66z"/>
						<path d="M75.66,17.97l-0.15-0.15l0.17-0.18l0.15,0.15L75.66,17.97z M75.54,17.82l0.12,0.11l0.14-0.14l-0.12-0.11L75.54,17.82z
							"/>
					</g>
				</g>
				<path class="st8" d="M62.27,20.06"/>
				<g>
					<path class="st8" d="M62.68,19.64"/>
				</g>
				<path d="M75.34,17.93c-0.02-0.02,0.01-0.06,0.04-0.04l0.06,0.06l-0.04,0.04L75.34,17.93"/>
				<path d="M75.22,18.22c-0.02-0.02,0.01-0.05,0.03-0.03l0.05,0.05l-0.03,0.03L75.22,18.22"/>
				<g>
					<path d="M75.63,17.8c-0.02-0.02,0.01-0.05,0.03-0.03l0.05,0.05l-0.03,0.03L75.63,17.8"/>
				</g>
			</g>
		</g>
	</g>
	<g>
		<g>
			<path class="st7" d="M77.27,13.38c0.01-0.3,0.22-0.38,0.22-0.38c0.01,0,0.24,0.08,0.24,0.38L77.27,13.38"/>
			<g>
				<path class="st7" d="M77.08,13.01l-0.04,0.35h0.23c0-0.29,0.22-0.33,0.22-0.33c0.01,0,0.22,0.06,0.23,0.33h0.23L77.91,13
					L77.08,13.01L77.08,13.01z M77.02,13.36h0.94c0.02,0,0.03,0.02,0.03,0.04c0,0.03-0.02,0.04-0.03,0.04h-0.94
					c-0.02,0-0.03-0.02-0.03-0.04C76.99,13.38,77.01,13.36,77.02,13.36L77.02,13.36z"/>
				<path d="M77.96,13.46h-0.94c-0.02,0-0.05-0.02-0.05-0.06c0-0.03,0.02-0.05,0.05-0.05v0h0l0.04-0.36h0.85l0.04,0.36
					c0.02,0,0.05,0.02,0.05,0.05C78.01,13.44,77.99,13.46,77.96,13.46z M77.03,13.38c-0.01,0-0.03,0.01-0.03,0.03
					c0,0.02,0.01,0.03,0.02,0.03h0.94c0.01,0,0.02-0.01,0.02-0.03c0-0.01-0.01-0.03-0.02-0.03H77.03z M77.28,13.35h0.42
					c-0.01-0.24-0.19-0.31-0.21-0.31C77.47,13.05,77.29,13.1,77.28,13.35z M77.73,13.35h0.21l-0.04-0.33H77.5
					C77.55,13.03,77.72,13.11,77.73,13.35z M77.05,13.35h0.2c0.01-0.24,0.17-0.31,0.22-0.33h-0.39L77.05,13.35z"/>
			</g>
			<g>
				<path class="st7" d="M77.37,13.36c0-0.18,0.13-0.23,0.13-0.23s0.13,0.06,0.13,0.23H77.37 M77.04,12.86h0.9
					c0.02,0,0.03,0.02,0.03,0.04c0,0.02-0.02,0.03-0.03,0.03h-0.9c-0.02,0-0.03-0.02-0.03-0.04C77.01,12.88,77.03,12.87,77.04,12.86
					L77.04,12.86z M77.07,12.94h0.85c0.02,0,0.03,0.02,0.03,0.04c0,0.02-0.02,0.04-0.03,0.04h-0.86c-0.02,0-0.03-0.02-0.03-0.04
					C77.03,12.96,77.04,12.94,77.07,12.94L77.07,12.94z M77.34,12.36h0.07v0.04h0.05v-0.04h0.07v0.05h0.05v-0.06h0.07v0.11
					c0,0.02-0.01,0.03-0.03,0.03h-0.24c-0.02,0-0.03-0.01-0.03-0.03L77.34,12.36L77.34,12.36z M77.6,12.51l0.02,0.35h-0.24
					l0.02-0.36L77.6,12.51"/>
				<path d="M77.63,13.37h-0.28v-0.01c0-0.19,0.13-0.24,0.14-0.24l0,0l0,0c0.01,0,0.13,0.06,0.13,0.24V13.37z M77.38,13.35h0.23
					c-0.01-0.14-0.09-0.19-0.11-0.2C77.47,13.15,77.38,13.2,77.38,13.35z M77.92,13.03h-0.86c-0.03,0-0.05-0.02-0.05-0.05
					c0-0.01,0-0.03,0.01-0.04C77.01,12.94,77,12.92,77,12.9c0-0.02,0.01-0.04,0.03-0.04v-0.01h0.33l0.02-0.34h0
					c-0.02,0-0.05-0.02-0.05-0.04v-0.12h0.09v0.04h0.02v-0.04h0.1v0.05h0.02v-0.06h0.09v0.12c0,0.03-0.02,0.05-0.04,0.05h-0.01
					l0.02,0.34h0.32c0.02,0,0.05,0.03,0.05,0.06c0,0.02-0.02,0.04-0.04,0.05c0.01,0.01,0.01,0.02,0.01,0.03
					C77.96,13.01,77.94,13.03,77.92,13.03z M77.06,12.96c-0.02,0-0.02,0.01-0.02,0.03s0,0.03,0.02,0.03h0.86
					c0.01,0,0.02-0.01,0.02-0.03s-0.01-0.03-0.02-0.03H77.06z M77.04,12.88c-0.01,0-0.02,0.01-0.02,0.02c0,0.01,0.01,0.03,0.02,0.03
					h0.9c0.01,0,0.02-0.01,0.02-0.02c0-0.02-0.01-0.03-0.02-0.03h-0.89v0.01H77.04z M77.39,12.85h0.21l-0.02-0.33h-0.18L77.39,12.85
					z M77.36,12.37v0.1c0,0.01,0.01,0.01,0.02,0.01h0.24c0,0,0.01,0,0.01-0.02v-0.1h-0.04v0.06h-0.08v-0.05h-0.05v0.04H77.4v-0.04
					H77.36z"/>
			</g>
			<g>
				<path class="st7" d="M77.31,12.67v0.19h-0.22v-0.19H77.31z"/>
				<path d="M77.32,12.87h-0.25v-0.21h0.25V12.87z M77.1,12.85h0.2v-0.16h-0.2V12.85z"/>
			</g>
			<g>
				<g>
					<path class="st7" d="M77.9,12.67v0.19h-0.22v-0.19H77.9z"/>
					<path d="M77.91,12.87h-0.25v-0.21h0.25V12.87z M77.69,12.85h0.2v-0.16h-0.2V12.85z"/>
				</g>
			</g>
			<path class="st8" d="M66.75,4.84"/>
			<g>
				<path class="st8" d="M67.33,4.84"/>
			</g>
			<path d="M77.47,12.62c0-0.03,0.05-0.03,0.05,0v0.09h-0.05V12.62"/>
			<path d="M77.18,12.74c0-0.03,0.04-0.03,0.04,0v0.07h-0.04V12.74"/>
			<g>
				<path d="M77.76,12.74c0-0.03,0.04-0.03,0.04,0v0.07h-0.04V12.74"/>
			</g>
		</g>
	</g>
	<g transform="matrix(-1 0 0 1 479.8 0)">
		<g>
			<g>
				<path class="st7" d="M80.24,13.38c-0.01-0.3-0.22-0.38-0.22-0.38c-0.01,0-0.24,0.08-0.24,0.38L80.24,13.38"/>
				<g>
					<path class="st7" d="M80.42,13.01l0.04,0.35h-0.23c0-0.29-0.22-0.33-0.22-0.33c-0.01,0-0.22,0.06-0.23,0.33h-0.23L79.59,13
						L80.42,13.01L80.42,13.01z M80.48,13.36h-0.94c-0.02,0-0.03,0.02-0.03,0.04c0,0.03,0.02,0.04,0.03,0.04h0.94
						c0.02,0,0.03-0.02,0.03-0.04C80.51,13.38,80.5,13.36,80.48,13.36L80.48,13.36z"/>
					<path d="M80.48,13.46h-0.94c-0.02,0-0.05-0.02-0.05-0.06c0-0.03,0.02-0.05,0.05-0.05l0.04-0.36h0.85v0.02l0.04,0.34l0,0
						c0.03,0,0.05,0.02,0.05,0.05C80.52,13.44,80.5,13.46,80.48,13.46z M79.54,13.38c-0.01,0-0.02,0.01-0.02,0.03
						c0,0.02,0.01,0.03,0.02,0.03h0.94c0.01,0,0.02-0.01,0.02-0.03c0-0.01-0.01-0.03-0.03-0.03H79.54z M79.8,13.35h0.42
						c0-0.25-0.18-0.31-0.21-0.31C79.99,13.05,79.8,13.11,79.8,13.35z M80.24,13.35h0.2l-0.04-0.33h-0.39
						C80.07,13.03,80.24,13.1,80.24,13.35z M79.56,13.35h0.21c0.01-0.24,0.18-0.31,0.23-0.33h-0.39L79.56,13.35z"/>
				</g>
				<g>
					<path class="st7" d="M80.14,13.36c0-0.18-0.13-0.23-0.13-0.23s-0.13,0.06-0.13,0.23H80.14 M80.46,12.86h-0.9
						c-0.02,0-0.03,0.02-0.03,0.04c0,0.02,0.02,0.03,0.03,0.03h0.9c0.02,0,0.03-0.02,0.03-0.04C80.49,12.88,80.47,12.87,80.46,12.86
						L80.46,12.86z M80.43,12.94h-0.85c-0.02,0-0.03,0.02-0.03,0.04c0,0.02,0.02,0.04,0.03,0.04h0.86c0.02,0,0.03-0.02,0.03-0.04
						C80.47,12.96,80.46,12.94,80.43,12.94L80.43,12.94z M80.16,12.36h-0.07v0.04h-0.05v-0.04h-0.07v0.05h-0.05v-0.06h-0.07v0.11
						c0,0.02,0.01,0.03,0.03,0.03h0.24c0.02,0,0.03-0.01,0.03-0.03V12.36L80.16,12.36z M79.9,12.51l-0.02,0.35h0.24l-0.02-0.36
						L79.9,12.51"/>
					<path d="M80.15,13.37h-0.28v-0.01c0-0.18,0.13-0.24,0.13-0.24l0,0l0,0c0.01,0,0.14,0.06,0.14,0.24V13.37z M79.89,13.35h0.23
						c0-0.14-0.09-0.19-0.11-0.2C79.99,13.15,79.9,13.21,79.89,13.35z M80.44,13.03h-0.86c-0.03,0-0.05-0.02-0.05-0.05
						c0-0.01,0-0.02,0.01-0.03c-0.02,0-0.04-0.02-0.04-0.05c0-0.03,0.02-0.06,0.05-0.06h0.32l0.02-0.34h-0.01
						c-0.02,0-0.04-0.02-0.04-0.05v-0.12h0.09v0.06h0.02v-0.05h0.1v0.04h0.02v-0.04h0.09v0.12c0,0.03-0.02,0.04-0.05,0.04h0
						l0.02,0.34h0.33v0.01c0.02,0.01,0.03,0.02,0.03,0.04c0,0.02-0.01,0.04-0.03,0.05c0.01,0.01,0.01,0.02,0.01,0.04
						C80.49,13.01,80.47,13.03,80.44,13.03z M79.58,12.96c-0.01,0-0.02,0.01-0.02,0.03s0.01,0.03,0.02,0.03h0.86
						c0.02,0,0.02-0.01,0.02-0.03s0-0.03-0.02-0.03H79.58z M79.56,12.87c-0.01,0-0.02,0.01-0.02,0.03c0,0.01,0.01,0.02,0.02,0.02
						h0.9c0.01,0,0.02-0.01,0.02-0.03c0-0.01-0.01-0.02-0.02-0.02h-0.01v-0.01H79.56z M79.9,12.85h0.21l-0.02-0.33h-0.18L79.9,12.85
						z M79.87,12.37v0.1c0,0.02,0.01,0.02,0.01,0.02h0.24c0.01,0,0.02-0.01,0.02-0.01v-0.1H80.1v0.04h-0.08v-0.04h-0.05v0.05h-0.08
						v-0.06H79.87z"/>
				</g>
				<g>
					<path class="st7" d="M80.19,12.67v0.19h0.22v-0.19H80.19z"/>
					<path d="M80.43,12.87h-0.25v-0.21h0.25V12.87z M80.2,12.85h0.2v-0.16h-0.2V12.85z"/>
				</g>
				<g>
					<g>
						<path class="st7" d="M79.6,12.67v0.19h0.22v-0.19H79.6z"/>
						<path d="M79.84,12.87h-0.25v-0.21h0.25V12.87z M79.62,12.85h0.2v-0.16h-0.2V12.85z"/>
					</g>
				</g>
				<path class="st8" d="M90.75,4.84"/>
				<g>
					<path class="st8" d="M90.17,4.84"/>
				</g>
				<path d="M80.03,12.62c0-0.03-0.05-0.03-0.05,0v0.09h0.05V12.62"/>
				<path d="M80.32,12.74c0-0.03-0.04-0.03-0.04,0v0.07h0.04V12.74"/>
				<g>
					<path d="M79.74,12.74c0-0.03-0.04-0.03-0.04,0v0.07h0.04V12.74"/>
				</g>
			</g>
			<g>
				<g>
					<path class="st7" d="M80.24,15.94c-0.01-0.3-0.22-0.38-0.22-0.38c-0.01,0-0.24,0.08-0.24,0.38L80.24,15.94"/>
					<g>
						<path class="st7" d="M80.42,15.57l0.04,0.35h-0.23c0-0.29-0.22-0.33-0.22-0.33c-0.01,0-0.22,0.06-0.23,0.33h-0.23l0.04-0.35
							L80.42,15.57L80.42,15.57z M80.48,15.92h-0.94c-0.02,0-0.03,0.02-0.03,0.04c0,0.03,0.02,0.04,0.03,0.04h0.94
							c0.02,0,0.03-0.02,0.03-0.04C80.51,15.94,80.5,15.92,80.48,15.92L80.48,15.92z"/>
						<path d="M80.48,16.02h-0.94c-0.02,0-0.05-0.02-0.05-0.06c0-0.03,0.02-0.05,0.05-0.05l0.04-0.36h0.85v0.02l0.04,0.34l0,0
							c0.03,0,0.05,0.02,0.05,0.05C80.52,16,80.5,16.02,80.48,16.02z M79.54,15.94c-0.01,0-0.02,0.01-0.02,0.03
							c0,0.02,0.01,0.03,0.02,0.03h0.94c0.01,0,0.02-0.01,0.02-0.03c0-0.01-0.01-0.03-0.03-0.03H79.54z M79.8,15.91h0.42
							c0-0.25-0.18-0.31-0.21-0.31C79.99,15.61,79.8,15.67,79.8,15.91z M80.24,15.91h0.2l-0.04-0.33h-0.39
							C80.07,15.59,80.24,15.66,80.24,15.91z M79.56,15.91h0.21c0.01-0.24,0.18-0.31,0.23-0.33h-0.39L79.56,15.91z"/>
					</g>
					<g>
						<path class="st7" d="M80.14,15.92c0-0.18-0.13-0.23-0.13-0.23s-0.13,0.06-0.13,0.23H80.14 M80.46,15.42h-0.9
							c-0.02,0-0.03,0.02-0.03,0.04c0,0.02,0.02,0.03,0.03,0.03h0.9c0.02,0,0.03-0.02,0.03-0.04
							C80.49,15.44,80.47,15.43,80.46,15.42L80.46,15.42z M80.43,15.5h-0.85c-0.02,0-0.03,0.02-0.03,0.04
							c0,0.02,0.02,0.04,0.03,0.04h0.86c0.02,0,0.03-0.02,0.03-0.04C80.47,15.52,80.46,15.5,80.43,15.5L80.43,15.5z M80.16,14.92
							h-0.07v0.04h-0.05v-0.04h-0.07v0.05h-0.05v-0.06h-0.07v0.11c0,0.02,0.01,0.03,0.03,0.03h0.24c0.02,0,0.03-0.01,0.03-0.03
							V14.92L80.16,14.92z M79.9,15.07l-0.02,0.35h0.24l-0.02-0.36L79.9,15.07"/>
						<path d="M80.15,15.93h-0.28v-0.01c0-0.18,0.13-0.24,0.13-0.24l0,0l0,0c0.01,0,0.14,0.06,0.14,0.24V15.93z M79.89,15.91h0.23
							c0-0.14-0.09-0.19-0.11-0.2C79.99,15.71,79.9,15.77,79.89,15.91z M80.44,15.59h-0.86c-0.03,0-0.05-0.02-0.05-0.05
							c0-0.01,0-0.02,0.01-0.03c-0.02,0-0.04-0.02-0.04-0.05c0-0.03,0.02-0.06,0.05-0.06h0.32l0.02-0.34h-0.01
							c-0.02,0-0.04-0.02-0.04-0.05V14.9h0.09v0.06h0.02v-0.05h0.1v0.04h0.02v-0.04h0.09v0.12c0,0.03-0.02,0.04-0.05,0.04h0
							l0.02,0.34h0.33v0.01c0.02,0.01,0.03,0.02,0.03,0.04c0,0.02-0.01,0.04-0.03,0.05c0.01,0.01,0.01,0.02,0.01,0.04
							C80.49,15.57,80.47,15.59,80.44,15.59z M79.58,15.52c-0.01,0-0.02,0.01-0.02,0.03s0.01,0.03,0.02,0.03h0.86
							c0.02,0,0.02-0.01,0.02-0.03s0-0.03-0.02-0.03H79.58z M79.56,15.43c-0.01,0-0.02,0.01-0.02,0.03c0,0.01,0.01,0.02,0.02,0.02
							h0.9c0.01,0,0.02-0.01,0.02-0.03c0-0.01-0.01-0.02-0.02-0.02h-0.01v-0.01H79.56z M79.9,15.41h0.21l-0.02-0.33h-0.18
							L79.9,15.41z M79.87,14.93v0.1c0,0.02,0.01,0.02,0.01,0.02h0.24c0.01,0,0.02-0.01,0.02-0.01v-0.1H80.1v0.04h-0.08v-0.04h-0.05
							v0.05h-0.08v-0.06H79.87z"/>
					</g>
					<g>
						<path class="st7" d="M80.19,15.23v0.19h0.22v-0.19H80.19z"/>
						<path d="M80.43,15.43h-0.25v-0.21h0.25V15.43z M80.2,15.41h0.2v-0.16h-0.2V15.41z"/>
					</g>
					<g>
						<g>
							<path class="st7" d="M79.6,15.23v0.19h0.22v-0.19H79.6z"/>
							<path d="M79.84,15.43h-0.25v-0.21h0.25V15.43z M79.62,15.41h0.2v-0.16h-0.2V15.41z"/>
						</g>
					</g>
					<path class="st8" d="M90.75,7.4"/>
					<g>
						<path class="st8" d="M90.17,7.4"/>
					</g>
					<path d="M80.03,15.18c0-0.03-0.05-0.03-0.05,0v0.09h0.05V15.18"/>
					<path d="M80.32,15.3c0-0.03-0.04-0.03-0.04,0v0.07h0.04V15.3"/>
					<g>
						<path d="M79.74,15.3c0-0.03-0.04-0.03-0.04,0v0.07h0.04V15.3"/>
					</g>
				</g>
			</g>
			<g transform="rotate(-45.2 312.8 180)">
				<g>
					<path class="st7" d="M79.24,18.61c0.21-0.22,0.11-0.42,0.11-0.42c0,0-0.22-0.11-0.44,0.1L79.24,18.61"/>
					<g>
						<path class="st7" d="M79.63,18.48l-0.22,0.27l-0.16-0.16c0.2-0.2,0.08-0.39,0.08-0.39c0,0-0.2-0.11-0.4,0.07l-0.16-0.16
							l0.28-0.22L79.63,18.48L79.63,18.48z M79.42,18.77l-0.66-0.67c-0.01-0.01-0.04-0.01-0.05,0c-0.02,0.02-0.02,0.04-0.01,0.05
							l0.66,0.67c0.01,0.01,0.04,0.01,0.05-0.01C79.43,18.81,79.43,18.78,79.42,18.77L79.42,18.77z"/>
						<path d="M79.38,18.85C79.38,18.85,79.38,18.85,79.38,18.85c-0.01,0-0.02,0-0.03-0.01l-0.66-0.67
							c-0.02-0.02-0.02-0.05,0.01-0.07c0.02-0.02,0.05-0.02,0.07,0l0.29-0.22l0.6,0.61l-0.01,0.01l-0.22,0.27l0,0l0,0
							c0.01,0.01,0.01,0.02,0.01,0.03c0,0.01-0.01,0.03-0.02,0.04C79.41,18.84,79.4,18.85,79.38,18.85z M78.74,18.11
							C78.74,18.11,78.74,18.11,78.74,18.11c-0.01,0-0.01,0-0.02,0.01c-0.01,0.01-0.01,0.03-0.01,0.04l0.66,0.67
							c0,0,0.01,0.01,0.01,0c0.01,0,0.02,0,0.02-0.01c0.01-0.01,0.01-0.03,0-0.04l-0.66-0.66C78.75,18.11,78.74,18.11,78.74,18.11z
							 M79.27,18.59l0.14,0.15l0.21-0.26l-0.27-0.28C79.37,18.25,79.44,18.42,79.27,18.59z M78.95,18.28l0.3,0.3
							c0.18-0.18,0.09-0.34,0.07-0.37C79.3,18.2,79.13,18.11,78.95,18.28z M78.79,18.11l0.14,0.15c0.18-0.16,0.35-0.09,0.39-0.07
							l-0.28-0.28L78.79,18.11z"/>
					</g>
					<g>
						<path class="st7" d="M79.18,18.52c0.13-0.13,0.08-0.25,0.08-0.25s-0.13-0.05-0.25,0.07L79.18,18.52 M79.76,18.4l-0.64-0.64
							c-0.01-0.01-0.04-0.01-0.05,0.01c-0.01,0.01-0.01,0.04,0,0.05l0.64,0.64c0.01,0.01,0.04,0.01,0.05,0
							C79.77,18.44,79.77,18.42,79.76,18.4L79.76,18.4z M79.69,18.44l-0.6-0.6c-0.01-0.01-0.04-0.01-0.05,0
							c-0.02,0.02-0.02,0.04,0,0.05l0.6,0.61c0.02,0.02,0.04,0.01,0.05,0C79.7,18.48,79.71,18.46,79.69,18.44L79.69,18.44z
							 M79.91,17.83l-0.05-0.05l-0.03,0.03l-0.04-0.04l0.03-0.03l-0.05-0.05l-0.04,0.04l-0.04-0.04l0.04-0.04l-0.05-0.05l-0.08,0.08
							c-0.02,0.02-0.02,0.03,0,0.04l0.17,0.17c0.01,0.01,0.03,0.02,0.04,0L79.91,17.83L79.91,17.83z M79.62,17.76L79.36,18
							l0.17,0.17l0.24-0.27L79.62,17.76"/>
						<path d="M79.18,18.54l-0.2-0.2l0.01-0.01c0.13-0.13,0.26-0.08,0.27-0.08l0,0l0,0C79.27,18.27,79.33,18.4,79.18,18.54
							L79.18,18.54z M79.02,18.34l0.16,0.16c0.1-0.1,0.07-0.2,0.07-0.23C79.22,18.27,79.12,18.25,79.02,18.34z M79.66,18.52
							c-0.01,0-0.02,0-0.03-0.01l-0.6-0.61c-0.02-0.02-0.02-0.05,0-0.07c0.01-0.01,0.02-0.01,0.03-0.02c0-0.01-0.01-0.02-0.01-0.03
							c0-0.01,0-0.02,0.01-0.03c0.01-0.01,0.02-0.02,0.04-0.02c0.01,0,0.03,0,0.04,0.01l0.23,0.23l0.25-0.23l-0.01-0.01
							c-0.01-0.01-0.01-0.02-0.01-0.03c0-0.01,0.01-0.02,0.02-0.03l0.09-0.09l0.07,0.07l-0.04,0.04l0.02,0.02l0.04-0.04l0.07,0.07
							l-0.03,0.03l0.02,0.02l0.03-0.03l0.07,0.07l-0.09,0.09c-0.01,0.01-0.02,0.01-0.03,0.01c-0.01,0-0.02-0.01-0.03-0.01l0,0
							l-0.23,0.25l0.23,0.24l-0.01,0.01c0.01,0.02,0.01,0.04-0.01,0.05c-0.01,0.01-0.02,0.02-0.04,0.02c-0.01,0-0.01,0-0.02,0
							c0,0,0,0,0,0c0,0.01-0.01,0.02-0.02,0.03C79.69,18.52,79.68,18.52,79.66,18.52C79.66,18.52,79.66,18.52,79.66,18.52z
							 M79.07,17.84C79.07,17.84,79.06,17.84,79.07,17.84c-0.01,0-0.01,0-0.02,0.01c-0.01,0.01-0.01,0.03,0,0.03l0.6,0.61
							c0,0,0.01,0.01,0.01,0.01c0.01,0,0.01,0,0.02-0.01c0.01-0.01,0.01-0.01,0.01-0.02c0-0.01,0-0.01-0.01-0.01l-0.6-0.61
							C79.08,17.84,79.07,17.84,79.07,17.84z M79.11,17.77c-0.01,0-0.02,0-0.03,0.01c-0.01,0.01-0.01,0.02,0,0.03l0.64,0.64
							c0,0,0.01,0.01,0.01,0c0.01,0,0.01,0,0.02-0.01c0,0,0.01-0.01,0.01-0.01c0-0.01,0-0.01,0-0.01l-0.01-0.01l0,0l-0.63-0.63
							C79.12,17.77,79.11,17.77,79.11,17.77z M79.45,18.07l0.07,0.07l0.23-0.25l-0.13-0.13L79.38,18L79.45,18.07z M79.7,17.63
							l-0.07,0.07c-0.01,0.01-0.01,0.02,0,0.02l0.17,0.17c0,0,0.01,0.01,0.01,0.01c0,0,0.01,0,0.01,0l0.07-0.07l-0.03-0.03
							l-0.03,0.03l-0.05-0.05l0.03-0.03l-0.03-0.03l-0.04,0.04l-0.05-0.05l0.04-0.04L79.7,17.63z"/>
					</g>
					<g>
						<path class="st7" d="M79.71,18.08l-0.13,0.13l0.16,0.16l0.13-0.13L79.71,18.08z"/>
						<path d="M79.73,18.39l-0.17-0.18l0.15-0.15l0.17,0.18L79.73,18.39z M79.59,18.21l0.14,0.14l0.12-0.11l-0.14-0.14L79.59,18.21z
							"/>
					</g>
					<g>
						<g>
							<path class="st7" d="M79.3,17.66l-0.13,0.13l0.16,0.16l0.13-0.13L79.3,17.66z"/>
							<path d="M79.32,17.97l-0.17-0.18l0.15-0.15l0.17,0.18L79.32,17.97z M79.18,17.8l0.14,0.14l0.12-0.11l-0.14-0.14L79.18,17.8z"
								/>
						</g>
					</g>
					<path class="st8" d="M92.71,20.06"/>
					<g>
						<path class="st8" d="M92.29,19.64"/>
					</g>
					<path d="M79.63,17.93c0.02-0.02-0.01-0.06-0.04-0.04l-0.06,0.06l0.04,0.04L79.63,17.93"/>
					<path d="M79.75,18.22c0.02-0.02-0.01-0.05-0.03-0.03l-0.05,0.05l0.03,0.03L79.75,18.22"/>
					<g>
						<path d="M79.34,17.8c0.02-0.02-0.01-0.05-0.03-0.03l-0.05,0.05l0.03,0.03L79.34,17.8"/>
					</g>
				</g>
			</g>
		</g>
	</g>
	<g id="f">
		<path d="M64.22,4.84"/>
		<circle class="st0" cx="77.28" cy="15.66" r="0.08"/>
		<circle class="st0" cx="77.74" cy="15.66" r="0.08"/>
		<circle class="st0" cx="77.5" cy="15.89" r="0.08"/>
		<circle class="st0" cx="77.28" cy="16.12" r="0.08"/>
		<circle class="st0" cx="77.74" cy="16.12" r="0.08"/>
	</g>
	<g>
		<g>
			<path class="st0" d="M64.22,3.4"/>
			<circle class="st0" cx="77.28" cy="14.23" r="0.08"/>
			<circle class="st0" cx="77.74" cy="14.23" r="0.08"/>
			<circle class="st0" cx="77.5" cy="14.45" r="0.08"/>
			<circle class="st0" cx="77.28" cy="14.68" r="0.08"/>
			<circle class="st0" cx="77.74" cy="14.68" r="0.08"/>
		</g>
	</g>
	<g>
		<g>
			<path class="st0" d="M63.07,4.84"/>
			<circle class="st0" cx="76.13" cy="15.66" r="0.08"/>
			<circle class="st0" cx="76.59" cy="15.66" r="0.08"/>
			<circle class="st0" cx="76.35" cy="15.89" r="0.08"/>
			<circle class="st0" cx="76.13" cy="16.12" r="0.08"/>
			<circle class="st0" cx="76.59" cy="16.12" r="0.08"/>
		</g>
	</g>
	<g>
		<g>
			<path class="st0" d="M65.37,4.84"/>
			<circle class="st0" cx="78.43" cy="15.66" r="0.08"/>
			<circle class="st0" cx="78.89" cy="15.66" r="0.08"/>
			<circle class="st0" cx="78.65" cy="15.89" r="0.08"/>
			<circle class="st0" cx="78.43" cy="16.12" r="0.08"/>
			<circle class="st0" cx="78.89" cy="16.12" r="0.08"/>
		</g>
	</g>
	<g>
		<g>
			<path class="st0" d="M64.22,6.27"/>
			<circle class="st0" cx="77.28" cy="17.09" r="0.08"/>
			<circle class="st0" cx="77.74" cy="17.09" r="0.08"/>
			<circle class="st0" cx="77.5" cy="17.31" r="0.08"/>
			<circle class="st0" cx="77.28" cy="17.54" r="0.08"/>
			<circle class="st0" cx="77.74" cy="17.54" r="0.08"/>
		</g>
	</g>
</g>
</svg>
