<svg xmlns="http://www.w3.org/2000/svg" width="40" height="40" viewBox="0 0 40 40">
  <g id="Group_38" data-name="Group 38" transform="translate(27.479 -131.373)">
    <path id="Path_256" data-name="Path 256" d="M12.521,155.226a19.353,19.353,0,0,1-.143,2.336c-.073.584-.169,1.159-.3,1.726-.065.315-.14.623-.227.931H-26.81c-.087-.308-.162-.616-.23-.931-.123-.567-.223-1.141-.3-1.726a19.2,19.2,0,0,1-.144-2.336,18.891,18.891,0,0,1,1.756-7.976c.133-.294.273-.581.424-.865H10.341c.15.284.294.57.428.865.215.466.414.945.593,1.432a18.823,18.823,0,0,1,1.04,4.422A18.7,18.7,0,0,1,12.521,155.226Z" transform="translate(0 -3.937)" fill="#db0100"/>
    <path id="Path_257" data-name="Path 257" d="M11.523,142.86H-25.064c.133-.294.273-.581.425-.865.206-.388.426-.774.657-1.148q.384-.63.822-1.229a20.117,20.117,0,0,1,11.415-7.643l.058-.011a20.637,20.637,0,0,1,4.916-.592A20.34,20.34,0,0,1,5.51,135.455a19.534,19.534,0,0,1,4.1,4.163c.065.084.126.171.187.255.224.318.44.645.642.974.235.374.451.756.657,1.148C11.244,142.28,11.389,142.566,11.523,142.86Z" transform="translate(-0.706)"/>
    <path id="Path_258" data-name="Path 258" d="M12.271,164.62c-.065.315-.14.623-.227.931a17.376,17.376,0,0,1-.569,1.761,18.966,18.966,0,0,1-1.652,3.33q-.351.561-.734,1.092c-.148.2-.3.4-.45.6a19.969,19.969,0,0,1-3.967,3.824A20.29,20.29,0,0,1-7.3,180.025a20.3,20.3,0,0,1-11.976-3.868,20.048,20.048,0,0,1-3.963-3.824c-.155-.2-.3-.4-.45-.6q-.384-.531-.735-1.092a19.017,19.017,0,0,1-1.652-3.33,17.376,17.376,0,0,1-.569-1.761c-.087-.308-.162-.616-.23-.931Z" transform="translate(-0.177 -8.652)" fill="#f2cd30"/>
  </g>
</svg>
