<svg xmlns="http://www.w3.org/2000/svg" width="40" height="40" viewBox="0 0 40 40">
<style type="text/css">
	.st0{fill:#E71E1A;}
	.st1{fill:#FFFFFF;}
	.st2{fill:#0039A6;}
</style>
<path class="st0" d="M18.55,0.06h2.76C20.38,0,19.46,0,18.55,0.06z"/>
<path class="st1" d="M1.13,13.4h37.73C36.71,7.25,31.6,2.27,24.81,0.59c-1.17-0.29-2.34-0.45-3.5-0.53h-2.76
	C10.75,0.63,3.79,5.77,1.13,13.4z"/>
<path class="st2" d="M0.59,15.2C0.59,15.2,0.59,15.2,0.59,15.2c-0.98,3.97-0.7,7.95,0.58,11.53h37.65c0.22-0.62,0.42-1.27,0.58-1.92
	c0.97-3.92,0.7-7.86-0.54-11.4H1.13C0.93,13.99,0.74,14.58,0.59,15.2z"/>
<path class="st0" d="M15.19,39.41C15.19,39.41,15.19,39.41,15.19,39.41c10.07,2.49,20.23-3.12,23.64-12.68H1.17
	C3.36,32.82,8.44,37.74,15.19,39.41z"/>
</svg>
