<svg xmlns="http://www.w3.org/2000/svg" width="959.581" height="1003.477" viewBox="0 0 959.581 1003.477">
  <g id="Group_907" data-name="Group 907" transform="translate(-960.562 373)">
    <g id="Group_905" data-name="Group 905">
      <path id="Shape" d="M341.008,681.636C528.884,693.072,665,546.948,681.187,342.424S528.883-25.145,341.008,3.215,14.871,147.938.829,342.426,153.132,670.2,341.008,681.636Z" transform="matrix(0.777, 0.629, -0.629, 0.777, 1389.922, -373)" fill="#fff6e9" opacity="0.4"/>
      <path id="Shape-2" data-name="Shape" d="M61.431,122.432c35.249,0,61-27.324,61-61.033S92.54-3.795,61.431.372-4.265,24.554.431,61.4,26.181,122.432,61.431,122.432Z" transform="matrix(0.777, 0.629, -0.629, 0.777, 1328.827, 458.281)" fill="#fff6e9" opacity="0.4"/>
      <path id="Shape-3" data-name="Shape" d="M20.1,40.186c11.076.675,19.1-7.94,20.054-20S31.18-1.482,20.1.19.877,8.722.049,20.187,9.029,39.511,20.1,40.186Z" transform="translate(1294.695 468.034) rotate(155.997)" fill="#fff6e9" opacity="0.4"/>
    </g>
  </g>
</svg>
