<svg xmlns="http://www.w3.org/2000/svg" width="458.583" height="376.259" viewBox="0 0 458.583 376.259">
  <g id="Group_915" data-name="Group 915" transform="translate(-195 -3542)">
    <circle id="Ellipse_13" data-name="Ellipse 13" cx="5.829" cy="5.829" r="5.829" transform="translate(506.532 3615.521)" fill="#ec615b"/>
    <circle id="Ellipse_14" data-name="Ellipse 14" cx="2.718" cy="2.718" r="2.718" transform="translate(515.829 3605.58)" fill="#ec615b"/>
    <circle id="Ellipse_15" data-name="Ellipse 15" cx="2.789" cy="2.789" r="2.789" transform="translate(337.569 3570.071)" fill="#ec615b"/>
    <circle id="Ellipse_16" data-name="Ellipse 16" cx="4.72" cy="4.72" r="4.72" transform="translate(518.154 3892.656)" fill="#ec615b"/>
    <circle id="Ellipse_17" data-name="Ellipse 17" cx="2.181" cy="2.181" r="2.181" transform="translate(305.887 3913.896)" fill="#ec615b"/>
    <circle id="Ellipse_18" data-name="Ellipse 18" cx="2.253" cy="2.253" r="2.253" transform="translate(333.064 3752.622)" fill="#ec615b"/>
    <circle id="Ellipse_19" data-name="Ellipse 19" cx="2.181" cy="2.181" r="2.181" transform="translate(337.569 3764.244)" fill="#006"/>
    <circle id="Ellipse_20" data-name="Ellipse 20" cx="4.077" cy="4.077" r="4.077" transform="translate(333.064 3821.244)" fill="#006"/>
    <circle id="Ellipse_21" data-name="Ellipse 21" cx="2.575" cy="2.575" r="2.575" transform="translate(506.532 3592.564)" fill="#006"/>
    <circle id="Ellipse_22" data-name="Ellipse 22" cx="2.253" cy="2.253" r="2.253" transform="translate(408.909 3597.713)" fill="#006"/>
    <circle id="Ellipse_23" data-name="Ellipse 23" cx="1.716" cy="1.716" r="1.716" transform="translate(208.586 3775.008)" fill="#006"/>
    <circle id="Ellipse_24" data-name="Ellipse 24" cx="4.291" cy="4.291" r="4.291" transform="translate(512.611 3905.314)" fill="#006"/>
    <circle id="Ellipse_25" data-name="Ellipse 25" cx="2.253" cy="2.253" r="2.253" transform="translate(560.6 3542)" fill="#006"/>
    <g id="Group_72" data-name="Group 72" transform="translate(342.652 3627.038)">
      <g id="Group_71" data-name="Group 71">
        <path id="Path_441" data-name="Path 441" d="M559.733,315.692c-.358-2.217-.679-6.651,2.861-6.294,1.287.143,2,1.287,3.433.787,2.682-.93,2.074-4.4,3.183-6.4,1.824-3.218,5.364,1.466,8.082-.072a2.406,2.406,0,0,0,1.073-2.4c-.072-3.612,3.111-3.361,5.721-2.646a.538.538,0,0,0,.286-1.037c-2.646-.715-7.045-.966-7.152,2.861-.036.93.465,1.859-.894,2.432a2.813,2.813,0,0,1-1.538-.143c-.93-.286-1.752-.93-2.718-1.18a3.06,3.06,0,0,0-3.326.894c-1.073,1.287-1.037,3.04-1.538,4.541-.536,1.609-1.573,2.539-3.326,1.752a3.858,3.858,0,0,0-2.181-.5c-3.683.5-3.5,4.971-3.04,7.688.143.679,1.18.393,1.073-.286Z" transform="translate(-558.415 -297.207)" fill="#006"/>
      </g>
    </g>
    <g id="Group_74" data-name="Group 74" transform="translate(347.11 3631.75)">
      <g id="Group_73" data-name="Group 73" transform="translate(0)">
        <path id="Path_442" data-name="Path 442" d="M571.959,326.232c.286-2.217,2.074-3.183,4.148-3.183a9.25,9.25,0,0,0,3.29-.215c2.432-.93,1.967-3.576,2.539-5.65,1.073-3.934,6.043-1.5,8.8-2.146,1.859-.465,3.433-2.324,2.646-4.291-.25-.644-1.287-.358-1.037.286,1.216,2.968-2.932,3.147-4.685,2.932a10.587,10.587,0,0,0-3.826-.036c-2.038.536-2.825,2.038-3.111,3.969-.25,1.788-.215,3.755-2.539,4.041-1.252.143-2.5-.215-3.755.072a4.69,4.69,0,0,0-3.54,4.148c-.107.751.966.751,1.073.072Z" transform="translate(-570.879 -310.385)" fill="#006"/>
      </g>
    </g>
    <g id="Group_76" data-name="Group 76" transform="translate(419.949 3559.592)">
      <g id="Group_75" data-name="Group 75">
        <path id="Path_443" data-name="Path 443" d="M776.693,108.776c-1.252,1.573-2.575,3.5-1.967,5.614a3.091,3.091,0,0,0,3.5,2.253c.965-.072,1.967-.322,2.753.536.608.644.215,2,.036,2.718a9.929,9.929,0,0,0-.715,3.361,2.627,2.627,0,0,0,3.111,2.5c.679-.143.393-1.18-.286-1.037-3.111.715-.966-4.47-.823-5.721a3.492,3.492,0,0,0-.858-2.932,3.148,3.148,0,0,0-2.753-.572c-1.573.179-3.04-.322-3.111-2.217-.036-1.43.966-2.718,1.824-3.79.5-.465-.286-1.252-.715-.715Z" transform="translate(-774.574 -108.596)" fill="#006"/>
      </g>
    </g>
    <g id="Group_78" data-name="Group 78" transform="translate(428.089 3559.192)">
      <g id="Group_77" data-name="Group 77">
        <path id="Path_444" data-name="Path 444" d="M799.754,107.521a3.641,3.641,0,0,0-.894,6.4c.858.644,1.859.5,2.718,1.037,1.609.965.322,2.861.393,4.363a2.273,2.273,0,0,0,.858,1.9,1.734,1.734,0,0,0,2.789-.715c.214-.644-.823-.93-1.037-.286-1.359-.179-1.824-.787-1.43-1.824l.214-1.073a5.457,5.457,0,0,0,.107-1.073,2.8,2.8,0,0,0-.787-2.074c-.858-.787-2.181-.465-3.111-1.109-1.9-1.323-1.216-3.826.715-4.649.644-.25.072-1.144-.536-.894Z" transform="translate(-797.335 -107.478)" fill="#006"/>
      </g>
    </g>
    <g id="Group_80" data-name="Group 80" transform="translate(195 3750.017)">
      <g id="Group_79" data-name="Group 79">
        <path id="Path_445" data-name="Path 445" d="M147.186,661.706a3.855,3.855,0,0,1,0-4.184c.822-1.287,1.967-1.323,3.29-1.824,1.824-.751,1.859-2.646,1.752-4.363a5.439,5.439,0,0,1,.107-1.859c.465-1.43,1.681-1.037,2.789-.858a2.413,2.413,0,0,0,1.788-.358,3.676,3.676,0,0,0,1.323-2.074c.179-.644.215-1.323.358-1.967a3.906,3.906,0,0,1,.429-1.287c.572-.894,1.252-.966,2.074-.179a.538.538,0,0,0,1.037-.286c-.644-2.324-3.5-1.287-4.22.358a13.275,13.275,0,0,0-.536,2.36,4.848,4.848,0,0,1-.429,1.395c-.536.966-1.538.787-2.467.679-1.109-.107-1.967-.214-2.682.823-.822,1.18-.608,2.575-.608,3.933.036,1.645-.322,2.289-1.931,2.825a5.417,5.417,0,0,0-1.752.751,4.981,4.981,0,0,0-1.252,6.615c.358.608,1.287.072.93-.5Z" transform="translate(-145.508 -641.114)" fill="#ec615b"/>
      </g>
    </g>
    <g id="Group_82" data-name="Group 82" transform="translate(199.142 3755.45)">
      <g id="Group_81" data-name="Group 81">
        <path id="Path_446" data-name="Path 446" d="M159.1,673.934c-1.5-.215-.93-1.859-.25-2.5a7.656,7.656,0,0,1,1.824-1.073,6.564,6.564,0,0,0,2.146-1.538c1.538-1.931-.679-4.506,1.466-6.043,2.146-1.5,7.9-2.181,6.222-6.186-.25-.644-1.18-.072-.93.536,1.216,2.9-4.684,3.755-6.186,4.971a3.6,3.6,0,0,0-1.216,1.681c-.429,1.5.822,3.04-.286,4.47-1.287,1.573-4.041,1.573-4.684,3.79a2.267,2.267,0,0,0,1.645,2.968c.644.072.93-.965.25-1.073Z" transform="translate(-157.09 -656.308)" fill="#ec615b"/>
      </g>
    </g>
    <g id="Group_84" data-name="Group 84" transform="translate(591.75 3674.185)">
      <g id="Group_83" data-name="Group 83">
        <path id="Path_447" data-name="Path 447" d="M1256.4,444.84a2.347,2.347,0,0,1,.107-2.5c.787-1.144,1.716-.894,2.932-.787a3.584,3.584,0,0,0,2.36-.215c1.395-.858,1.18-2.646,1.43-4.005.572-3.183,3.326-.286,5.185-1.287a2.3,2.3,0,0,0,1.073-1.752c.25-1.395.322-5.543,3-3.862.572.358,1.144-.572.536-.93-2.4-1.466-4.327.965-4.541,3.218-.143,1.287,0,2.539-1.717,2.36-.608-.072-1.216-.393-1.824-.465a2.3,2.3,0,0,0-2.36,1.037c-.608,1-.393,2.253-.644,3.326-.536,2.432-2.61,1.073-4.291,1.359a3.423,3.423,0,0,0-2.217,5.006.544.544,0,0,0,.965-.5Z" transform="translate(-1255.011 -429.053)" fill="#ec615b"/>
      </g>
    </g>
    <g id="Group_86" data-name="Group 86" transform="translate(597.296 3678.953)">
      <g id="Group_85" data-name="Group 85">
        <path id="Path_448" data-name="Path 448" d="M1271.693,455.657a2.157,2.157,0,0,1,2.932-2.61.532.532,0,0,0,.644-.072,7.314,7.314,0,0,0,1.395-3.075c.644-2.074,2.181-2.36,4.041-2.932,1.824-.572,3.862-2.074,3.111-4.22-.25-.644-1.287-.358-1.037.286,1.037,2.825-4.041,3.04-5.543,4.077-1.824,1.287-1.287,3.612-2.682,5.114a3.944,3.944,0,0,1,.644-.072c-2.4-1.252-5.435,1.216-4.506,3.826.214.608,1.252.358,1-.322Z" transform="translate(-1270.52 -442.385)" fill="#ec615b"/>
      </g>
    </g>
    <g id="Group_88" data-name="Group 88" transform="translate(453.37 3700.487)">
      <g id="Group_87" data-name="Group 87">
        <path id="Path_449" data-name="Path 449" d="M868.7,503.713a20.1,20.1,0,0,0,1.18,2.181,2.082,2.082,0,0,0,1.716.322c1.073-.179,1.752-.966,2.682-1.466,2-1.144,2,.822,2.789,1.931.894,1.323,1.859.679,2.9.036.679-.429,1.323-.715,1.931-.107a7.409,7.409,0,0,1,.787,1.252,3.491,3.491,0,0,0,1.466,1.323c.608.286,1.18-.644.536-.93-1.466-.644-1.645-3.075-3.4-3.326-.822-.107-1.18.358-1.824.715-.787.465-1.252.787-1.752-.107-.215-.358-.25-.858-.5-1.216-1.144-1.9-2.932-.858-4.363.072a5.878,5.878,0,0,1-.787.5c-.608-.179-1.252-.358-1.859-.536-.25-.25-.25-.858-.465-1.18a1.128,1.128,0,0,0-1.287-.536c-.715.143-.429,1.18.25,1.073Z" transform="translate(-868.035 -502.606)" fill="#ec615b"/>
      </g>
    </g>
    <g id="Group_90" data-name="Group 90" transform="translate(461.436 3696.703)">
      <g id="Group_89" data-name="Group 89">
        <path id="Path_450" data-name="Path 450" d="M891.6,493.481c1.073-1.681,3.54,1.824,4.541,2.253a2.662,2.662,0,0,0,1.824.072,5.176,5.176,0,0,0,.787-.322,2.325,2.325,0,0,1,2.575.536c1.144.966,1.466,2.253,3.111,2.61a1.883,1.883,0,0,0,2.289-1c.286-.608-.644-1.18-.93-.536-1,2.146-3.755-2.074-4.47-2.539-1.323-.858-2.146-.143-3.469.143-2.11.429-2.789-1.931-4.541-2.5a2.031,2.031,0,0,0-2.61.787c-.429.572.5,1.109.894.5Z" transform="translate(-890.591 -492.023)" fill="#ec615b"/>
      </g>
    </g>
    <g id="background_grey" transform="translate(198.421 3561.32)" opacity="0.3">
      <g id="Group_92" data-name="Group 92" transform="translate(397.143 198.276)">
        <g id="Group_91" data-name="Group 91">
          <path id="Path_451" data-name="Path 451" d="M1266.184,668.973h57a.537.537,0,0,0,0-1.073h-57a.537.537,0,0,0,0,1.073Z" transform="translate(-1265.675 -667.9)" fill="#8c8989"/>
        </g>
      </g>
      <g id="Group_94" data-name="Group 94" transform="translate(413.207 198.589)">
        <g id="Group_93" data-name="Group 93">
          <path id="Path_452" data-name="Path 452" d="M1310.6,669.285v16.592a.537.537,0,0,0,1.073,0V669.285a.537.537,0,0,0-1.073,0Z" transform="translate(-1310.6 -668.775)" fill="#8c8989"/>
        </g>
      </g>
      <g id="Group_96" data-name="Group 96" transform="translate(438.668 174.88)">
        <g id="Group_95" data-name="Group 95">
          <path id="Path_453" data-name="Path 453" d="M1382.873,626.157V602.985a.537.537,0,0,0-1.073,0v23.172a.536.536,0,1,0,1.073,0Z" transform="translate(-1381.8 -602.475)" fill="#8c8989"/>
        </g>
      </g>
      <g id="Group_98" data-name="Group 98" transform="translate(426.608 174.746)">
        <g id="Group_97" data-name="Group 97">
          <path id="Path_454" data-name="Path 454" d="M1348.584,603.173h21.563a.537.537,0,0,0,0-1.073h-21.563a.537.537,0,0,0,0,1.073Z" transform="translate(-1348.075 -602.1)" fill="#8c8989"/>
        </g>
      </g>
      <g id="Group_100" data-name="Group 100" transform="translate(412.993 46.54)">
        <g id="Group_99" data-name="Group 99">
          <path id="Path_455" data-name="Path 455" d="M1310,244.085V264.11a.537.537,0,0,0,1.073,0V244.085a.537.537,0,0,0-1.073,0Z" transform="translate(-1310 -243.575)" fill="#8c8989"/>
        </g>
      </g>
      <g id="Group_102" data-name="Group 102" transform="translate(395.757 67.54)">
        <g id="Group_101" data-name="Group 101">
          <path id="Path_456" data-name="Path 456" d="M1262.336,303.373h38.692a.537.537,0,0,0,0-1.073h-38.692a.536.536,0,0,0,0,1.073Z" transform="translate(-1261.8 -302.3)" fill="#8c8989"/>
        </g>
      </g>
      <g id="Group_104" data-name="Group 104" transform="translate(434.627 67.96)">
        <g id="Group_103" data-name="Group 103">
          <path id="Path_457" data-name="Path 457" d="M1370.5,303.985v13.3a.537.537,0,0,0,1.073,0v-13.3a.537.537,0,0,0-1.073,0Z" transform="translate(-1370.5 -303.475)" fill="#8c8989"/>
        </g>
      </g>
      <g id="Group_106" data-name="Group 106" transform="translate(74.974 25.129)">
        <g id="Group_105" data-name="Group 105">
          <path id="Path_458" data-name="Path 458" d="M365.26,184.773h37.9a.537.537,0,0,0,0-1.073h-37.9a.537.537,0,0,0,0,1.073Z" transform="translate(-364.737 -183.7)" fill="#8c8989"/>
        </g>
      </g>
      <g id="Group_108" data-name="Group 108" transform="translate(111.828 25.558)">
        <g id="Group_107" data-name="Group 107">
          <path id="Path_459" data-name="Path 459" d="M467.8,185.436v10.3a.537.537,0,0,0,1.073,0v-10.3a.536.536,0,1,0-1.073,0Z" transform="translate(-467.8 -184.9)" fill="#8c8989"/>
        </g>
      </g>
      <g id="Group_110" data-name="Group 110" transform="translate(99.277 8.242)">
        <g id="Group_109" data-name="Group 109">
          <path id="Path_460" data-name="Path 460" d="M433.773,153.47V136.985a.537.537,0,0,0-1.073,0V153.47a.536.536,0,1,0,1.073,0Z" transform="translate(-432.7 -136.475)" fill="#8c8989"/>
        </g>
      </g>
      <g id="Group_112" data-name="Group 112" transform="translate(0 135.339)">
        <g id="Group_111" data-name="Group 111">
          <path id="Path_461" data-name="Path 461" d="M155.585,492.973H181.76a.537.537,0,0,0,0-1.073H155.585a.537.537,0,0,0,0,1.073Z" transform="translate(-155.075 -491.9)" fill="#8c8989"/>
        </g>
      </g>
      <g id="Group_114" data-name="Group 114" transform="translate(16.494 125.139)">
        <g id="Group_113" data-name="Group 113">
          <path id="Path_462" data-name="Path 462" d="M201.2,463.885v9.655a.537.537,0,0,0,1.073,0v-9.655a.537.537,0,0,0-1.073,0Z" transform="translate(-201.2 -463.375)" fill="#8c8989"/>
        </g>
      </g>
      <g id="Group_116" data-name="Group 116" transform="translate(9.664 125.112)">
        <g id="Group_115" data-name="Group 115">
          <path id="Path_463" data-name="Path 463" d="M182.636,464.373h13.946a.537.537,0,0,0,0-1.073H182.636a.536.536,0,1,0,0,1.073Z" transform="translate(-182.1 -463.3)" fill="#8c8989"/>
        </g>
      </g>
      <g id="Group_118" data-name="Group 118" transform="translate(167.148 350.574)">
        <g id="Group_117" data-name="Group 117">
          <path id="Path_464" data-name="Path 464" d="M623.036,1094.873h34.973a.537.537,0,0,0,0-1.073H623.036a.536.536,0,0,0,0,1.073Z" transform="translate(-622.5 -1093.8)" fill="#8c8989"/>
        </g>
      </g>
      <g id="Group_120" data-name="Group 120" transform="translate(188.139 342.52)">
        <g id="Group_119" data-name="Group 119">
          <path id="Path_465" data-name="Path 465" d="M682.273,1079.33v-7.545a.537.537,0,0,0-1.073,0v7.545a.536.536,0,1,0,1.073,0Z" transform="translate(-681.2 -1071.275)" fill="#8c8989"/>
        </g>
      </g>
      <g id="Group_122" data-name="Group 122" transform="translate(185.448 341.992)">
        <g id="Group_121" data-name="Group 121">
          <path id="Path_466" data-name="Path 466" d="M674.185,1070.873H688.7a.537.537,0,0,0,0-1.073H674.185a.537.537,0,0,0,0,1.073Z" transform="translate(-673.675 -1069.8)" fill="#8c8989"/>
        </g>
      </g>
      <g id="Group_124" data-name="Group 124" transform="translate(0.822 331.765)">
        <g id="Group_123" data-name="Group 123">
          <path id="Path_467" data-name="Path 467" d="M157.885,1042.273h34.973a.537.537,0,0,0,0-1.073H157.885a.537.537,0,0,0,0,1.073Z" transform="translate(-157.375 -1041.2)" fill="#8c8989"/>
        </g>
      </g>
      <g id="Group_126" data-name="Group 126" transform="translate(17.495 318.311)">
        <g id="Group_125" data-name="Group 125">
          <path id="Path_468" data-name="Path 468" d="M204,1004.085v12.373a.537.537,0,0,0,1.073,0v-12.373a.537.537,0,0,0-1.073,0Z" transform="translate(-204 -1003.575)" fill="#8c8989"/>
        </g>
      </g>
      <g id="Group_128" data-name="Group 128" transform="translate(3.004 317.211)">
        <g id="Group_127" data-name="Group 127">
          <path id="Path_469" data-name="Path 469" d="M177.966,1000.5H163.985a.537.537,0,0,0,0,1.073h13.982a.537.537,0,0,0,0-1.073Z" transform="translate(-163.475 -1000.5)" fill="#8c8989"/>
        </g>
      </g>
      <g id="Group_130" data-name="Group 130" transform="translate(388.241 285.077)">
        <g id="Group_129" data-name="Group 129">
          <path id="Path_470" data-name="Path 470" d="M1242.612,926.931a2.276,2.276,0,0,1,.93-3.862c.965-.215,1.9.393,2.825.5a1.874,1.874,0,0,0,1.931-.608c.715-.93.143-2,.107-3.04-.071-3.254,3.791-3.04,5.722-1.9a.543.543,0,0,0,.787-.608,4.705,4.705,0,0,1,7.688-4.577c.536.429,1.287-.322.751-.751a5.791,5.791,0,0,0-9.476,5.65c.25-.215.536-.393.787-.608-1.645-1-3.755-1.5-5.507-.393a3.7,3.7,0,0,0-1.5,1.716,3.133,3.133,0,0,0-.286,1.5c.036.965.358.894-.358,1.824-.787,1.037-.858.572-1.967.322a3.327,3.327,0,0,0-3.469.966,3.313,3.313,0,0,0,.322,4.613c.465.5,1.216-.25.715-.751Z" transform="translate(-1240.782 -910.638)" fill="#8c8989"/>
        </g>
      </g>
      <g id="Group_132" data-name="Group 132" transform="translate(395.988 291.825)">
        <g id="Group_131" data-name="Group 131">
          <path id="Path_471" data-name="Path 471" d="M1263.5,940.126c-.393-3.254,4.935-3.29,6.437-5.543a9.062,9.062,0,0,0,.787-1.824,3.539,3.539,0,0,1,2.5-2.146c1.967-.5,4.005.393,5.793,1.144.644.25.93-.787.286-1.037-3.29-1.359-7.724-2.4-9.548,1.609-.644,1.43-.858,2.217-2.36,2.968-.894.429-1.824.679-2.682,1.18a3.812,3.812,0,0,0-2.253,3.647c.071.679,1.144.679,1.037,0Z" transform="translate(-1262.445 -929.509)" fill="#8c8989"/>
        </g>
      </g>
      <g id="Group_134" data-name="Group 134" transform="translate(242.025 197.821)">
        <g id="Group_133" data-name="Group 133">
          <path id="Path_472" data-name="Path 472" d="M833.111,667.262c.715,1.788,1.43,3.612,2.146,5.4.072-.215.179-.393.25-.608-.393.25-.787.5-1.18.787-.608-1.43-.358-1.788.787-1.144a3.19,3.19,0,0,1,1.144,2.11,10.166,10.166,0,0,1-.608,5.149.523.523,0,0,0,.644.644c2.146-.429,3,2.146,2.575,3.755a12.551,12.551,0,0,1-1.609,3.254c-.358.572.572,1.109.93.536,1.144-1.788,2.467-4.005,1.681-6.222a3.428,3.428,0,0,0-3.862-2.36l.644.644c.715-2.074,1.18-4.684.286-6.794a3.066,3.066,0,0,0-3.576-2,1.918,1.918,0,0,0-1.252,2.753c.966,1.967,2.646.644,3.9-.179a.58.58,0,0,0,.25-.608c-.715-1.788-1.43-3.612-2.146-5.4-.215-.608-1.252-.358-1,.286Z" transform="translate(-831.893 -666.629)" fill="#8c8989"/>
        </g>
      </g>
      <g id="Group_136" data-name="Group 136" transform="translate(30.6 26.233)">
        <g id="Group_135" data-name="Group 135">
          <path id="Path_473" data-name="Path 473" d="M241.81,189.831c-.679-1.716,1.609-2.181,2.682-1.573a5.974,5.974,0,0,1,1.859,2.038,8.936,8.936,0,0,1,1.216,2.217,2.127,2.127,0,0,1-.107,1.967c-1.252.572-1.9.429-1.931-.393-.322-1.18.93-1.967,2-1.931a4.381,4.381,0,0,1,2.9,1.466A6.179,6.179,0,0,1,252,198.592c.322-.107.679-.179,1-.286a1.861,1.861,0,0,1,.93-2.682,2.667,2.667,0,0,1,2.539.107,9.493,9.493,0,0,1,3,3.075c.393.572,1.323.036.93-.536-1.359-1.9-3.4-4.541-6.079-3.934-1.967.429-3.54,2.718-2.253,4.506a.544.544,0,0,0,1-.286c.322-3.4-2.181-8.046-6.186-7.474a2.686,2.686,0,0,0-2.467,2.682,2.252,2.252,0,0,0,1.931,2.4,2.543,2.543,0,0,0,2.467-2.575c.107-1.788-1.287-3.719-2.36-5.042-1-1.18-2.467-2.181-4.041-1.573a2.371,2.371,0,0,0-1.609,3.075c.215.715,1.252.429,1-.215Z" transform="translate(-240.646 -186.787)" fill="#8c8989"/>
        </g>
      </g>
      <g id="Group_138" data-name="Group 138" transform="translate(218.362 77.998)">
        <g id="Group_137" data-name="Group 137">
          <path id="Path_474" data-name="Path 474" d="M767.5,335.284c-1.5-.894-.429-3.54,1.252-2.432,1.609,1.073-.536,2.9-1.573,1.645-.429-.536-1.18.215-.751.751a2.363,2.363,0,0,0,3.326.107,2.111,2.111,0,0,0-.322-3.326,2.279,2.279,0,0,0-3.4.644,2.682,2.682,0,0,0,.966,3.54c.536.322,1.073-.572.5-.93Z" transform="translate(-765.72 -331.546)" fill="#8c8989"/>
        </g>
      </g>
      <g id="Group_140" data-name="Group 140" transform="translate(332.675)">
        <g id="Group_139" data-name="Group 139">
          <path id="Path_475" data-name="Path 475" d="M1086.789,116.957a1.586,1.586,0,0,1,1.824-2.289c-.107-.072-.214-.179-.322-.25a1.867,1.867,0,0,1-1.645,2.718,6.11,6.11,0,0,1,.5.393c-.215-.608-.465-1.252-.679-1.859-.25-.644-1.287-.358-1.037.286.214.608.465,1.252.679,1.859a.5.5,0,0,0,.5.393,2.822,2.822,0,0,0,2.646-1.645c.393-.787.608-2.432-.358-2.932-2.11-1.037-4.291,2.11-3.04,3.862.393.572,1.323.036.93-.536Z" transform="translate(-1085.392 -113.427)" fill="#8c8989"/>
        </g>
      </g>
      <g id="Group_142" data-name="Group 142" transform="translate(362.049 53.703)">
        <g id="Group_141" data-name="Group 141">
          <path id="Path_476" data-name="Path 476" d="M1168.667,266.607a1.668,1.668,0,0,1,1.252-1.9,1.485,1.485,0,0,1,1.609,1.144c.465,1.609-1.645,2.36-2.646,1.252-.465-.5-1.216.25-.751.751,1.859,2.074,5.435.036,4.291-2.61a2.5,2.5,0,0,0-3-1.538,2.762,2.762,0,0,0-1.824,3.183.556.556,0,0,0,1.073-.286Z" transform="translate(-1167.536 -263.605)" fill="#8c8989"/>
        </g>
      </g>
      <g id="Group_144" data-name="Group 144" transform="translate(244.994 343.245)">
        <g id="Group_143" data-name="Group 143">
          <path id="Path_477" data-name="Path 477" d="M842.307,1082.743a1.812,1.812,0,0,1,0-3.218c1.216-.679,2.36-.072,3.469.429.93.429,2,.823,2.825,0,.751-.715.608-1.824.644-2.753.143-3.612,3.647-2.9,6.043-2,.644.25.93-.787.286-1.037-2.11-.823-5.042-1.609-6.723.465a3.356,3.356,0,0,0-.679,2.074c-.036.5.179,1.609-.107,2.074-.787,1.18-1.859.107-2.682-.25-1.573-.679-3.826-.5-4.792,1.144a2.822,2.822,0,0,0,1.144,3.969c.644.322,1.18-.608.572-.894Z" transform="translate(-840.196 -1073.303)" fill="#8c8989"/>
        </g>
      </g>
    </g>
    <g id="flower" transform="translate(462.309 3756.252)">
      <g id="Group_146" data-name="Group 146" transform="translate(0 72.958)">
        <g id="Group_145" data-name="Group 145">
          <path id="Path_478" data-name="Path 478" d="M893.557,863.085a156.966,156.966,0,0,0,1.716,39.264c.107.679,1.144.393,1.037-.286a156.371,156.371,0,0,1-1.681-38.978c.071-.679-1-.679-1.073,0Z" transform="translate(-893.033 -862.575)" fill="#e8e8e8"/>
        </g>
      </g>
      <g id="Group_148" data-name="Group 148" transform="translate(0.867 73.214)">
        <g id="Group_147" data-name="Group 147">
          <path id="Path_479" data-name="Path 479" d="M895.83,864.368a78.794,78.794,0,0,0,17.2,3.862c5.507.572,11.836,1.18,17.129-.894.644-.25.358-1.287-.286-1.037-5.149,2.038-11.407,1.43-16.843.858a76.264,76.264,0,0,1-16.914-3.826c-.679-.25-.93.787-.286,1.037Z" transform="translate(-895.457 -863.292)" fill="#e8e8e8"/>
        </g>
      </g>
      <g id="Group_150" data-name="Group 150" transform="translate(0.216 1.513)">
        <g id="Group_149" data-name="Group 149">
          <path id="Path_480" data-name="Path 480" d="M903.171,737.025a40.246,40.246,0,0,1-4.47-9.262,44.329,44.329,0,0,1-1.252-4.756c-.179-.965-.358-1.931-.465-2.9,0-.107-.393-2.646.358-2.289.358.179.966-.143.787-.608a44.531,44.531,0,0,1-3.147-15.555l-.536.536c.286.107.536.215.823.322.358.429,1.037-.036.894-.536a29.488,29.488,0,0,1-1.323-7.08c-.036-.572.071-7.009.465-6.9a.532.532,0,0,0,.644-.644,58.479,58.479,0,0,1-.822-12.23,48.682,48.682,0,0,1,.572-6.043c.286-1.824.429-4.041,1.859-5.364l-.858-.107c3,5.65,4.684,11.836,6.222,17.987q2.253,9.065,3.969,18.309a294.933,294.933,0,0,1,4.434,38.441c.036.679,1.109.679,1.073,0a293.907,293.907,0,0,0-4.47-38.727q-1.77-9.548-4.112-18.988c-1.538-6.043-3.218-12.051-6.186-17.594a.562.562,0,0,0-.858-.107,6.823,6.823,0,0,0-1.859,4.112,59.273,59.273,0,0,0-.822,6.651,60.5,60.5,0,0,0,.787,13.91l.644-.644c-2.074-.572-1.824,3.9-1.859,4.9a30.957,30.957,0,0,0,1.43,10.37c.286-.179.608-.358.894-.536a1.589,1.589,0,0,0-1.573-.644.55.55,0,0,0-.536.536,45.487,45.487,0,0,0,3.183,15.841c.25-.215.536-.393.787-.608-3.576-1.716-1.5,6.365-1.216,7.581a41.6,41.6,0,0,0,5.578,13.088c.429.644,1.359.107.966-.465Z" transform="translate(-893.636 -662.782)" fill="#e8e8e8"/>
        </g>
      </g>
      <g id="Group_152" data-name="Group 152" transform="translate(14.189 0)">
        <g id="Group_151" data-name="Group 151">
          <path id="Path_481" data-name="Path 481" d="M933.959,698.583a26.243,26.243,0,0,1-.107-6.9c.072-.572,1.43-7.295,2.11-7.009a.562.562,0,0,0,.822-.465c.215-4.577,1.645-8.654,3.326-12.873,1.681-4.184,3.326-8.225,6.115-11.836h-.751c2.038,2.324,1.788,5.865,1.9,8.761.143,3.254.25,6.508.286,9.762q.107,9.6-.322,19.2a318.021,318.021,0,0,1-4.291,39.049c-.107.679.93.966,1.037.286a323.775,323.775,0,0,0,4.4-40.73q.429-10.3.215-20.6c-.072-3.433-.143-6.866-.393-10.3-.143-2.253-.5-4.47-2.074-6.222a.518.518,0,0,0-.751,0,46.151,46.151,0,0,0-6.115,11.693c-1.824,4.506-3.361,8.868-3.612,13.8.286-.143.536-.322.823-.465-2.181-.966-2.9,3.683-3.183,4.935a26.969,26.969,0,0,0-.358,10.156c-.036.715,1,.429.93-.25Z" transform="translate(-932.712 -658.55)" fill="#e8e8e8"/>
        </g>
      </g>
      <g id="Group_154" data-name="Group 154" transform="translate(2.353 112.058)">
        <g id="Group_153" data-name="Group 153">
          <path id="Path_482" data-name="Path 482" d="M900,973.485a53.7,53.7,0,0,0,34.4-.5c.644-.215.358-1.252-.286-1.037a52.927,52.927,0,0,1-33.828.5.538.538,0,0,0-.286,1.037Z" transform="translate(-899.614 -971.919)" fill="#e8e8e8"/>
        </g>
      </g>
      <g id="Group_156" data-name="Group 156" transform="translate(35.425 76.391)">
        <g id="Group_155" data-name="Group 155">
          <path id="Path_483" data-name="Path 483" d="M992.1,872.685c.429,5.793.894,11.586,1.287,17.379a77.448,77.448,0,0,1-.429,17.737c-.107.679.93.965,1.037.286a74.074,74.074,0,0,0,.5-17.343c-.393-6.008-.858-12.051-1.323-18.058-.036-.679-1.109-.679-1.073,0Z" transform="translate(-992.098 -872.175)" fill="#e8e8e8"/>
        </g>
      </g>
    </g>
    <g id="window" transform="translate(236.821 3639.216)">
      <path id="Path_484" data-name="Path 484" d="M458.4,970.522c7.295-3.9,14.626-7.8,21.92-11.693,3.433.572,8.153,1.323,13.8,2.11a461.709,461.709,0,0,0,52.53,4.792,374.723,374.723,0,0,0,46.88-1.43c15.841-1.5,25.425-3.54,33.256-5.65A175.677,175.677,0,0,0,643.955,953a78.894,78.894,0,0,1,11.336,4.792,73.175,73.175,0,0,1,6.365,3.719c-6.723,1.931-15.77,4.4-26.533,6.9-22.671,5.292-40.05,7.8-43.7,8.332-20.848,2.968-50.564,7.152-87.932,2.825A291.154,291.154,0,0,1,458.4,970.522Z" transform="translate(-388.333 -730.671)" fill="#fff"/>
      <path id="Path_485" data-name="Path 485" d="M457.3,984.626c.179,1.5.393,2.968.572,4.47,2.682.751,6.615,1.824,11.479,2.9a214.028,214.028,0,0,0,31.075,4.47,551.878,551.878,0,0,0,81.96.393c18.2-1.609,35.867-3.254,58.681-9.905,8.582-2.5,15.591-5.042,20.6-7.009l-1.18-5.042c-1.395.572-3.469,1.395-6.008,2.324-17.236,6.294-31.432,8.368-44.091,9.905-27.821,3.433-41.731,5.114-62.15,5.435A447.008,447.008,0,0,1,457.3,984.626Z" transform="translate(-387.626 -744.74)" fill="#161616"/>
      <g id="Group_158" data-name="Group 158" transform="translate(69.423 240.03)">
        <g id="Group_157" data-name="Group 157">
          <path id="Path_486" data-name="Path 486" d="M456.6,1003.036v3.433a.537.537,0,0,0,1.073,0v-3.433a.536.536,0,0,0-1.073,0Z" transform="translate(-456.6 -1002.5)" fill="#161616"/>
        </g>
      </g>
      <g id="Group_160" data-name="Group 160" transform="translate(69.428 234.77)">
        <g id="Group_159" data-name="Group 159">
          <path id="Path_487" data-name="Path 487" d="M457,998.022c26.712,7.223,54.6,8.153,82.1,8.546,26.426.358,53.031-.787,79.064-5.614a240.694,240.694,0,0,0,43.054-12.087c.644-.25.358-1.287-.286-1.037-24.6,9.548-50.742,14.411-77.026,16.449-26.5,2.038-53.246,1.573-79.743-.036a235.973,235.973,0,0,1-46.88-7.223.521.521,0,1,0-.286,1Z" transform="translate(-456.614 -987.792)" fill="#161616"/>
        </g>
      </g>
      <g id="Group_162" data-name="Group 162" transform="translate(272.993 230.044)">
        <g id="Group_161" data-name="Group 161">
          <path id="Path_488" data-name="Path 488" d="M1026.923,979.626a19.317,19.317,0,0,0,.143-4.541c-.072-.679-1.144-.679-1.073,0a18.791,18.791,0,0,1-.107,4.255c-.107.644.93.966,1.037.286Z" transform="translate(-1025.878 -974.575)" fill="#161616"/>
        </g>
      </g>
      <g id="Group_164" data-name="Group 164" transform="translate(69.455 227.91)">
        <g id="Group_163" data-name="Group 163">
          <path id="Path_489" data-name="Path 489" d="M457.514,981.157c7.509-3.576,14.876-7.4,22.1-11.55a.537.537,0,0,0-.536-.93q-10.835,6.168-22.1,11.55c-.644.286-.107,1.216.536.93Z" transform="translate(-456.687 -968.608)" fill="#161616"/>
        </g>
      </g>
      <g id="Group_166" data-name="Group 166" transform="translate(91.706 221.989)">
        <g id="Group_165" data-name="Group 165">
          <path id="Path_490" data-name="Path 490" d="M519.3,958.468c42.661,8.117,87,9.619,130.021,3.469,11.443-1.645,22.814-4.184,33.4-8.9.644-.286.071-1.216-.536-.93a118.9,118.9,0,0,1-29.93,8.3c-10.442,1.645-20.991,2.646-31.54,3.326a406.286,406.286,0,0,1-64.3-1.037c-12.373-1.18-24.638-2.968-36.832-5.257-.679-.107-.966.93-.286,1.037Z" transform="translate(-518.914 -952.049)" fill="#161616"/>
        </g>
      </g>
      <g id="Group_168" data-name="Group 168" transform="translate(254.912 221.728)">
        <g id="Group_167" data-name="Group 167">
          <path id="Path_491" data-name="Path 491" d="M975.7,952.385a74,74,0,0,1,17.915,8.654c.572.393,1.109-.536.536-.93a76.032,76.032,0,0,0-18.166-8.761.538.538,0,0,0-.286,1.037Z" transform="translate(-975.314 -951.319)" fill="#161616"/>
        </g>
      </g>
      <g id="Group_170" data-name="Group 170" transform="translate(69.986 229.702)">
        <g id="Group_169" data-name="Group 169">
          <path id="Path_492" data-name="Path 492" d="M458.54,983.8c12.623,4.255,25.782,6.258,39.013,7.331,13.41,1.073,26.927,1.395,40.372,1.395,26.712,0,53.5-1.824,79.815-6.615A318.352,318.352,0,0,0,661.9,974.685c.644-.215.358-1.252-.286-1.037-25.353,8.439-51.708,13.374-78.313,15.806a530,530,0,0,1-79.743,1c-15.162-.93-30.36-2.825-44.806-7.688-.572-.215-.858.823-.215,1.037Z" transform="translate(-458.173 -973.619)" fill="#161616"/>
        </g>
      </g>
      <g id="Group_172" data-name="Group 172" transform="translate(90.276 21.705)">
        <g id="Group_171" data-name="Group 171">
          <path id="Path_493" data-name="Path 493" d="M515.588,405.921c43.7-10.12,88.683-12.337,133.382-12.766,12.659-.143,25.318-.107,37.976-.107a.537.537,0,0,0,0-1.073c-44.842-.072-89.9-.107-134.419,6.079-12.516,1.752-24.924,3.969-37.225,6.83a.538.538,0,0,0,.286,1.037Z" transform="translate(-514.914 -391.96)" fill="#161616"/>
        </g>
      </g>
      <path id="Path_494" data-name="Path 494" d="M988.2,354.848c.465,16.628.751,35.9.644,57.322-.072,12.444-.179,6.508-1.287,58.288-.644,29.823-.822,41.052-2.932,58.288-1.359,11.228-3,20.454-4.22,26.712,9.226,2.575,18.023,5.006,25.747,7.152,11.944,3.326,15.126,4.22,19.882,4.9a79.338,79.338,0,0,0,26.712-.966c3.826-31.325,5.936-58.037,7.152-78.492,4.363-71.876.286-104.989-1.287-116.611-2.146-15.663-4.792-28.536-6.83-37.44-7.652,1.466-13.875,3.04-18.237,4.22a305.906,305.906,0,0,0-36.8,13.016C993.059,352.774,990.091,354.025,988.2,354.848Z" transform="translate(-723.67 -333.021)" fill="#fff"/>
      <path id="Path_495" data-name="Path 495" d="M292.492,335.8c-.286,3.075-.608,6.866-.894,10.156-5.936,67.692-8.9,101.556-9.87,123.334a619.14,619.14,0,0,0,3.9,99.447,7.788,7.788,0,0,0,2.4,3c1.681,1.252,3.218,1.216,6.258,2.074a41.53,41.53,0,0,1,4.792,1.788c3.29,1.287,10.656,2.753,20.025,2.4,13.445-.536,23.78-4.649,31.361-7.76a121.968,121.968,0,0,0,16.735-8.368c-2.217-19.918-3.862-40.944-4.792-63.008a908.558,908.558,0,0,1,3.9-128.412c-1.645-.644-4.041-1.538-6.866-2.682-4.863-1.967-16.521-6.723-37.047-16.735C314.269,347.1,304.114,341.986,292.492,335.8Z" transform="translate(-274.49 -334.177)" fill="#fff"/>
      <path id="Path_496" data-name="Path 496" d="M1179.4,333.6c.429,2.36,1,5.614,1.645,9.512.894,5.543,2.9,18.666,4.363,35.9,1.5,17.951,1.859,33.4,1.9,45.7.107,24.96-.823,43.269-3.254,85.965-.751,13.3-1.859,32.791-3.254,56.571,1.466-.107,2.9-.179,4.363-.286.715-5.936,1.681-14.769,2.432-25.568.572-7.8.823-13.481,1.073-19.6,1.252-28.035,1.466-27.713,1.9-39.156.858-22.564.679-39.907.536-55.5-.107-10.764-.429-20.955-1.073-41.338-.465-13.875-.93-26.176-4.077-42.16-.822-4.077-1.609-7.474-2.181-9.8C1182.3,333.779,1180.866,333.707,1179.4,333.6Z" transform="translate(-851.509 -332.764)" fill="#161616"/>
      <path id="Path_497" data-name="Path 497" d="M276.272,337.6c-.25,1.252-.644,3.183-1.037,5.543A127.384,127.384,0,0,0,273.7,356.8c-.787,12.158-2.36,18.094-4.649,45.092-.429,4.935-.751,9.262-1.395,17.951-1.323,17.737-1.967,26.6-2.432,36.617-.5,11.193-.572,19.1-.679,34.9-.107,13.66-.179,23.53.179,36.439.286,10.3.858,24.281,2.253,40.944,2.9.858,5.757,1.716,8.654,2.575-.036-1.609-.143-4.506-.358-8.117-.858-16.056-2.253-22.564-2.575-35.938-.107-4.112-.036-6.83,0-10.728.393-27.964-.072-40.73.179-58.9.429-29.644,2.432-52.816,4.148-72.556,1.609-18.666,3.433-34.651,5.006-47.166C280.063,337.815,278.167,337.707,276.272,337.6Z" transform="translate(-263.742 -335.334)" fill="#161616"/>
      <g id="Group_174" data-name="Group 174" transform="translate(256.324 21.925)">
        <g id="Group_173" data-name="Group 173">
          <path id="Path_498" data-name="Path 498" d="M986.606,393.085c1.323,26.247,1.144,52.566.787,78.813-.393,25.675-.572,51.422-2.539,77.061a397.319,397.319,0,0,1-5.578,43.555c-.143.679.894.966,1.037.286,4.756-25.21,6.508-50.85,7.295-76.453q1.234-39.21,1.144-78.527c-.036-14.912-.286-29.823-1.037-44.735-.072-.679-1.144-.679-1.109,0Z" transform="translate(-979.262 -392.575)" fill="#161616"/>
        </g>
      </g>
      <g id="Group_176" data-name="Group 176" transform="translate(264.187 0.286)">
        <g id="Group_175" data-name="Group 175">
          <path id="Path_499" data-name="Path 499" d="M1002.056,354.211a245.561,245.561,0,0,1,62.65-21.1c.679-.143.393-1.18-.286-1.037a248.975,248.975,0,0,0-62.9,21.205c-.608.322-.071,1.252.536.93Z" transform="translate(-1001.252 -332.062)" fill="#161616"/>
        </g>
      </g>
      <g id="Group_178" data-name="Group 178" transform="translate(327.27 0.348)">
        <g id="Group_177" data-name="Group 177">
          <path id="Path_500" data-name="Path 500" d="M1177.676,332.9c5.9,29.716,7.688,60.076,7.652,90.328-.072,30.252-1.859,60.433-3.326,90.65q-1.287,26.122-2.575,52.209c-.036.679,1.037.679,1.073,0,1.538-30.825,3.147-61.649,4.541-92.509,1.359-30.252,2.217-60.576.179-90.793a393.106,393.106,0,0,0-6.472-50.135.551.551,0,0,0-1.073.25Z" transform="translate(-1177.662 -332.235)" fill="#161616"/>
        </g>
      </g>
      <g id="Group_180" data-name="Group 180" transform="translate(256.37 221.163)">
        <g id="Group_179" data-name="Group 179">
          <path id="Path_501" data-name="Path 501" d="M979.538,950.654c1.609,1.859,4.47,2.217,6.723,2.9,3.075.93,6.186,1.859,9.262,2.789,6.222,1.859,12.408,3.826,18.7,5.4a91.619,91.619,0,0,0,37.4,1.466c.679-.107.393-1.144-.286-1.037a90.069,90.069,0,0,1-36.832-1.466c-5.757-1.395-11.407-3.183-17.057-4.9l-8.582-2.575-4.291-1.287c-1.5-.465-3.183-.787-4.255-2.038a.544.544,0,0,0-.787.751Z" transform="translate(-979.392 -949.738)" fill="#161616"/>
        </g>
      </g>
      <g id="Group_182" data-name="Group 182" transform="translate(327.61)">
        <g id="Group_181" data-name="Group 181">
          <path id="Path_502" data-name="Path 502" d="M1179,332.313c1.323.322,2.646.644,4.005.965a.538.538,0,0,0,.286-1.037c-1.323-.322-2.646-.644-4.005-.966-.679-.143-.965.894-.286,1.037Z" transform="translate(-1178.614 -331.262)" fill="#161616"/>
        </g>
      </g>
      <g id="Group_184" data-name="Group 184" transform="translate(331.912 0.991)">
        <g id="Group_183" data-name="Group 183">
          <path id="Path_503" data-name="Path 503" d="M1190.663,334.7c3.576,14.447,4.542,29.537,5.578,44.377,1.073,15.162,1.645,30.36,1.9,45.593.429,30.217-.608,60.433-2.324,90.614-.965,17.093-2.181,34.186-3.433,51.279-.036.679,1.037.679,1.073,0,2.253-30.4,4.291-60.791,5.257-91.258.965-30.4.894-60.862-1.037-91.258-1.037-16.521-1.967-33.471-5.936-49.6a.551.551,0,0,0-1.073.25Z" transform="translate(-1190.642 -334.035)" fill="#161616"/>
        </g>
      </g>
      <g id="Group_186" data-name="Group 186" transform="translate(329.098 233.304)">
        <g id="Group_185" data-name="Group 185">
          <path id="Path_504" data-name="Path 504" d="M1183.285,985.2c1.573-.143,3.111-.286,4.684-.429.679-.072.679-1.144,0-1.073-1.573.143-3.111.286-4.684.429-.679.072-.679,1.144,0,1.073Z" transform="translate(-1182.775 -983.69)" fill="#161616"/>
        </g>
      </g>
      <g id="Group_188" data-name="Group 188" transform="translate(86.456 35.478)">
        <g id="Group_187" data-name="Group 187">
          <path id="Path_505" data-name="Path 505" d="M508.69,430.985q-3.594,37.172-4.291,74.522-.7,37.494,1.538,74.987c.822,14.018,2,28,3.433,41.946.072.679,1.144.679,1.073,0q-3.862-37.118-4.828-74.487-.965-37.494,1-74.987,1.126-21.026,3.111-41.981c.107-.679-.965-.679-1.037,0Z" transform="translate(-504.232 -430.475)" fill="#161616"/>
        </g>
      </g>
      <g id="Group_190" data-name="Group 190" transform="translate(18.414 1.471)">
        <g id="Group_189" data-name="Group 189">
          <path id="Path_506" data-name="Path 506" d="M314.22,336.385a582.289,582.289,0,0,0,72.055,33.828c.644.25.93-.787.286-1.037a578.321,578.321,0,0,1-71.8-33.721.537.537,0,0,0-.536.93Z" transform="translate(-313.952 -335.375)" fill="#161616"/>
        </g>
      </g>
      <g id="Group_192" data-name="Group 192" transform="translate(8.019 1.721)">
        <g id="Group_191" data-name="Group 191">
          <path id="Path_507" data-name="Path 507" d="M294.438,336.585q-5.954,45.379-8.225,91.186-2.253,45.754-.715,91.544.858,25.693,2.9,51.35c.072.679,1.144.679,1.073,0q-3.647-45.647-3.5-91.472.107-45.808,4.005-91.472,2.2-25.639,5.543-51.136c.072-.679-1-.679-1.073,0Z" transform="translate(-284.884 -336.075)" fill="#161616"/>
        </g>
      </g>
      <g id="Group_194" data-name="Group 194" transform="translate(11.233 226.826)">
        <g id="Group_193" data-name="Group 193">
          <path id="Path_508" data-name="Path 508" d="M294.132,975.74c19.918,10.835,43.769,8.511,64.009-.072a141.032,141.032,0,0,0,17.594-9.083c.572-.358.036-1.287-.536-.93-18.845,11.407-40.944,19.382-63.222,15.233a58.361,58.361,0,0,1-17.307-6.079c-.572-.322-1.144.608-.536.93Z" transform="translate(-293.872 -965.575)" fill="#161616"/>
        </g>
      </g>
      <g id="Group_196" data-name="Group 196" transform="translate(3.3 233.038)">
        <g id="Group_195" data-name="Group 195">
          <path id="Path_509" data-name="Path 509" d="M271.978,983.933a74.883,74.883,0,0,0,7.688,3.075c.644.215.93-.822.286-1.037A70.045,70.045,0,0,1,272.514,983c-.644-.286-1.18.644-.536.93Z" transform="translate(-271.687 -982.949)" fill="#161616"/>
        </g>
      </g>
      <g id="Group_198" data-name="Group 198" transform="translate(0 1.967)">
        <g id="Group_197" data-name="Group 197">
          <path id="Path_510" data-name="Path 510" d="M274.274,337.276c-3.862,29.966-7.08,60-9.19,90.149-2.074,30-3.075,60.076-2.432,90.149.358,17.021,1.216,34.043,2.682,50.993.072.679,1.144.679,1.073,0a829.534,829.534,0,0,1-2.61-90.435c.679-30.074,2.753-60.111,5.721-90.078q2.521-25.425,5.829-50.814c.107-.644-.966-.644-1.073.036Z" transform="translate(-262.459 -336.762)" fill="#161616"/>
        </g>
      </g>
      <g id="Group_200" data-name="Group 200" transform="translate(11.749 1.664)">
        <g id="Group_199" data-name="Group 199">
          <path id="Path_511" data-name="Path 511" d="M295.988,337.483a24.676,24.676,0,0,1,6.294-.465c.679.036.679-1.037,0-1.073a27.1,27.1,0,0,0-6.58.5c-.679.143-.393,1.18.286,1.037Z" transform="translate(-295.314 -335.915)" fill="#161616"/>
        </g>
      </g>
      <g id="Group_202" data-name="Group 202" transform="translate(275.253 24.357)">
        <g id="Group_201" data-name="Group 201">
          <path id="Path_512" data-name="Path 512" d="M1034.308,399.885q2.253,62.221-.286,124.478c-.465,11.622-1.073,23.208-1.824,34.83-.036.679,1.037.679,1.073,0q3.916-62.114,3-124.442-.268-17.433-.894-34.865c-.036-.679-1.109-.679-1.073,0Z" transform="translate(-1032.198 -399.375)" fill="#161616"/>
        </g>
      </g>
      <g id="Group_204" data-name="Group 204" transform="translate(291.595 9.481)">
        <g id="Group_203" data-name="Group 203">
          <path id="Path_513" data-name="Path 513" d="M1081.01,358.285q2.145,43.287,2.11,86.68,0,43.34-2.146,86.681-1.18,24.513-3.075,48.954c-.036.679,1.037.679,1.073,0q3.326-43.233,4.542-86.573,1.18-43.34.286-86.716-.536-24.513-1.716-49.026c-.036-.679-1.109-.679-1.073,0Z" transform="translate(-1077.898 -357.775)" fill="#161616"/>
        </g>
      </g>
      <g id="Group_206" data-name="Group 206" transform="translate(314.409 3.084)">
        <g id="Group_205" data-name="Group 205">
          <path id="Path_514" data-name="Path 514" d="M1142.807,340.428q3,45,3.54,90.185.483,45.325-1.538,90.578-1.126,25.371-3.111,50.707c-.036.679,1.037.679,1.073,0q3.433-45,4.4-90.149.912-45.271-.679-90.614-.912-25.371-2.61-50.742a.537.537,0,0,0-1.073.036Z" transform="translate(-1141.698 -339.887)" fill="#161616"/>
        </g>
      </g>
      <g id="Group_208" data-name="Group 208" transform="translate(269.161 197.074)">
        <g id="Group_207" data-name="Group 207">
          <path id="Path_515" data-name="Path 515" d="M1019.681,882.885a192.713,192.713,0,0,1-4.506,27.821.538.538,0,0,0,1.037.286,191.76,191.76,0,0,0,4.541-28.107c.071-.679-1-.679-1.073,0Z" transform="translate(-1015.161 -882.375)" fill="#161616"/>
        </g>
      </g>
      <g id="Group_210" data-name="Group 210" transform="translate(23.977 9.076)">
        <g id="Group_209" data-name="Group 209">
          <path id="Path_516" data-name="Path 516" d="M335.944,357.02a685.8,685.8,0,0,0-6.4,90.614c-.25,30.467,1,60.9,2.861,91.293,1.037,17.2,2.253,34.365,3.469,51.565.036.679,1.109.679,1.073,0-2.146-30.288-4.291-60.576-5.471-90.9-1.18-30.252-1.359-60.576.393-90.829,1-17.2,2.646-34.4,5.078-51.458.143-.644-.894-.965-1-.286Z" transform="translate(-329.511 -356.642)" fill="#161616"/>
        </g>
      </g>
      <g id="Group_212" data-name="Group 212" transform="translate(45.631 18.961)">
        <g id="Group_211" data-name="Group 211">
          <path id="Path_517" data-name="Path 517" d="M395.406,384.792c-2.718,29-4.541,58.109-5.149,87.253a856.019,856.019,0,0,0,2.5,87.253q1.985,24.191,5.614,48.168c.107.679,1.144.393,1.037-.286a739.506,739.506,0,0,1-7.8-87.074c-.93-28.75-.393-57.572,1.18-86.287q1.341-24.513,3.683-48.99c.072-.715-1-.715-1.073-.036Z" transform="translate(-390.066 -384.287)" fill="#161616"/>
        </g>
      </g>
      <g id="Group_214" data-name="Group 214" transform="translate(65.343 27.499)">
        <g id="Group_213" data-name="Group 213">
          <path id="Path_518" data-name="Path 518" d="M451.415,408.676a750.622,750.622,0,0,0-6.079,81.6,761.225,761.225,0,0,0,2.789,81.781q2.038,22.743,5.4,45.307c.107.679,1.144.393,1.037-.286a753.731,753.731,0,0,1-6.615-162.812q1.556-22.85,4.506-45.629c.143-.644-.93-.644-1.037.036Z" transform="translate(-445.188 -408.162)" fill="#161616"/>
        </g>
      </g>
      <path id="Path_519" data-name="Path 519" d="M1057.131,338.757a301.01,301.01,0,0,1,8.26,56.464c2.682,54.14-10.048,98.374-21.134,126.767q-11.747,18.827-23.458,37.654a104.64,104.64,0,0,0,33.006,8.26,102.474,102.474,0,0,0,24.745-1c.072-1.573,1.252-25.5,1.323-27.07,3.9-80.137,4.148-85.608,4.291-91.115a763.247,763.247,0,0,0-3.29-94.762q-1.985-10.245-3.969-20.454C1070.362,335.216,1063.747,336.969,1057.131,338.757Z" transform="translate(-749.623 -332.7)" fill="#3f3f3f" opacity="0.12"/>
      <path id="Path_520" data-name="Path 520" d="M334,358.556c-.93,3.9-2.324,9.727-3.969,16.843-7.295,31.754-12.659,55.105-15.52,76.6-5.078,37.869-9.977,74.558,10.907,104.667a84.8,84.8,0,0,0,17.164,18.166,64.721,64.721,0,0,1-15.841,3.969c-17.307,2.038-31.182-3.576-37.976-6.937-2.575-23.708-4.363-49.1-4.935-75.953A882.321,882.321,0,0,1,294.734,337.1Q314.312,347.828,334,358.556Z" transform="translate(-276.053 -335.012)" fill="#3f3f3f" opacity="0.13"/>
    </g>
    <g id="cat" transform="translate(251.769 3618.829)">
      <path id="Path_521" data-name="Path 521" d="M310.671,279.7c-.465.358-.107,1.752.536,4.148.25.93.5,1.645.644,2.11-.286,1.931-.536,3.862-.822,5.793A6.587,6.587,0,0,0,305.7,296.3a20.245,20.245,0,0,1,4.041.822,21.815,21.815,0,0,1,5.149,2.4,2.721,2.721,0,0,0,.644,1.859,2.562,2.562,0,0,0,1.466.644c1.287.215,2.825.5,4.792.93.858.5,2.289,1.323,4.041,2.289,5.936,3.218,8.082,3.755,14.018,6.9,3.826,2.038,3.5,2.11,6.186,3.4a61.194,61.194,0,0,0,10.048,3.862,16.3,16.3,0,0,0,3.5-6.365,15.792,15.792,0,0,0,.536-6.008,4.553,4.553,0,0,0,2.682.536c2.861-.322,4.684-3.576,5.257-5.9.5-2.038.036-3.326-.358-5.721-.894-5.364-1.681-10.156.536-13.2,1.859-2.539,5.686-3.719,8.761-7.116.286-.322.822-.93.644-1.216-.322-.536-2.825.393-4.041.93-.787.358-6.687,3.075-8.475,9.226-.286.966-.322,3.755-.358,9.3-.036,4.041.036,6.329-1.573,7.652a3.81,3.81,0,0,1-3.147.822c-1.645-.358-2.432-1.967-3.147-3.04-1.859-2.825-4.506-4.005-7.76-5.614-2.539-1.252-4.72-1.716-9.119-2.682-4.148-.894-5.4-.787-7.188-2.11a12.91,12.91,0,0,1-3.683-4.792,16.817,16.817,0,0,1-1.859-5.364c-.215-1.466-.179-2.5-.536-2.575-.644-.143-.966,2.825-3.147,3.862-1.323.644-2.181.036-4.506.107a13.331,13.331,0,0,0-5.149,1.216C313.317,280.883,311.314,279.238,310.671,279.7Z" transform="translate(-305.186 -274.249)"/>
      <g id="Group_216" data-name="Group 216" transform="translate(5.408 5.455)">
        <g id="Group_215" data-name="Group 215">
          <path id="Path_522" data-name="Path 522" d="M320.535,301.267a9.781,9.781,0,0,1,10.549-10.656c5.614.572,9.333,7.4,9.154,12.516-.036.679,1.037.679,1.073,0,.179-5.65-4.041-13.088-10.227-13.589-6.508-.536-12.444,5.221-11.622,11.729.107.644,1.18.679,1.073,0Z" transform="translate(-319.386 -289.503)"/>
        </g>
      </g>
      <g id="Group_218" data-name="Group 218" transform="translate(6.383 18.189)">
        <g id="Group_217" data-name="Group 217">
          <path id="Path_523" data-name="Path 523" d="M322.18,327.862c2.181,4.255,6.866,7.259,11.765,6.615a10.589,10.589,0,0,0,8.94-8.69c.107-.679-.93-.965-1.037-.286a9.484,9.484,0,0,1-8.046,7.9c-4.47.608-8.689-2.181-10.692-6.079-.322-.608-1.252-.072-.93.536Z" transform="translate(-322.113 -325.114)"/>
        </g>
      </g>
      <g id="Group_220" data-name="Group 220" transform="translate(9.198 22.306)">
        <g id="Group_219" data-name="Group 219">
          <path id="Path_524" data-name="Path 524" d="M331.1,340.445c-.107-1.359,3.755-1.931,4.72-2.146a24.351,24.351,0,0,1,5.328-.608,17.522,17.522,0,0,1,9.333,2.61c.572.358,1.144-.572.536-.93a19.463,19.463,0,0,0-12.122-2.646,28.938,28.938,0,0,0-6.508,1.395c-1.144.393-2.5.894-2.4,2.324.072.679,1.18.679,1.109,0Z" transform="translate(-329.983 -336.629)"/>
        </g>
      </g>
      <g id="Group_222" data-name="Group 222" transform="translate(25.56 12.798)">
        <g id="Group_221" data-name="Group 221">
          <path id="Path_525" data-name="Path 525" d="M375.869,310.991c2.253,2.718,5.9,3.361,9.154,4.077,4.327,1,8.8,1.9,12.587,4.291a14.91,14.91,0,0,1,3.111,22.6c-.465.5.286,1.287.751.751a15.946,15.946,0,0,0-.036-21.563c-3-3.218-7.295-4.9-11.479-6.008-4.255-1.109-10.37-1.287-13.374-4.935-.393-.5-1.144.25-.715.787Z" transform="translate(-375.741 -310.04)"/>
        </g>
      </g>
      <g id="Group_224" data-name="Group 224" transform="translate(39.701 29.903)">
        <g id="Group_223" data-name="Group 223">
          <path id="Path_526" data-name="Path 526" d="M426.3,360.421a6.483,6.483,0,0,0-7.688-2.038c-3.4,1.395-3.576,5.578-3.183,8.761.072.679,1.144.679,1.073,0-.322-2.5-.358-6.365,2.217-7.617a5.393,5.393,0,0,1,6.615,1.466c.429.536,1.359,0,.965-.572Z" transform="translate(-415.285 -357.873)"/>
        </g>
      </g>
      <g id="Group_226" data-name="Group 226" transform="translate(33.859 36.378)">
        <g id="Group_225" data-name="Group 225">
          <path id="Path_527" data-name="Path 527" d="M405.869,378.275c-1.967-1.5-4.005-2.789-6.544-2.11a.527.527,0,0,0-.358.644c.644,2.5,4.577,3.54,6.651,4.434a96.38,96.38,0,0,0,9.727,3.612c.644.215.93-.822.286-1.037-2.646-.822-5.221-1.716-7.8-2.789-1.395-.572-2.753-1.18-4.112-1.824-1.216-.572-3.4-1.252-3.755-2.682-.107.215-.25.429-.358.644,2.217-.608,4.041.715,5.686,2,.572.465,1.109-.465.572-.894Z" transform="translate(-398.949 -375.979)"/>
        </g>
      </g>
      <g id="Group_228" data-name="Group 228" transform="translate(9.266 25.211)">
        <g id="Group_227" data-name="Group 227">
          <path id="Path_528" data-name="Path 528" d="M330.255,345.556c1.395,2.289,4.22,2.682,6.687,3.04a43.114,43.114,0,0,0,10.942.143c.679-.072.679-1.144,0-1.073a42.553,42.553,0,0,1-8.8.107c-2.467-.25-6.437-.393-7.939-2.753-.322-.608-1.252-.072-.894.536Z" transform="translate(-330.175 -344.752)"/>
        </g>
      </g>
      <g id="Group_230" data-name="Group 230" transform="translate(0 17.397)">
        <g id="Group_229" data-name="Group 229">
          <path id="Path_529" data-name="Path 529" d="M305.277,327.871c.465-2.5,2.646-3.79,5.078-3.9a6.11,6.11,0,0,1-.5-.393,11.674,11.674,0,0,0,.787,2.467c.25.644,1.287.358,1.037-.286a19.788,19.788,0,0,1-.787-2.467.536.536,0,0,0-.5-.393c-2.861.143-5.578,1.716-6.115,4.684-.143.679.894.966,1,.286Z" transform="translate(-304.262 -322.9)"/>
        </g>
      </g>
      <g id="Group_232" data-name="Group 232" transform="translate(4.959 4.87)">
        <g id="Group_231" data-name="Group 231">
          <path id="Path_530" data-name="Path 530" d="M320.408,294.28a19.81,19.81,0,0,1-1.073-4.792c0-.143-.036-.286-.036-.429-.036-.322,0-.286.143.107.322.215.644.465.966.715a11.61,11.61,0,0,1,1.466,1.5c.465.536,1.216-.25.751-.751-.608-.715-3.147-3.647-4.22-2.5-.536.572-.143,1.9-.036,2.539a20.709,20.709,0,0,0,.966,3.9c.286.644,1.323.393,1.073-.286Z" transform="translate(-318.13 -287.867)"/>
        </g>
      </g>
      <g id="Group_234" data-name="Group 234" transform="translate(18.313 1.896)">
        <g id="Group_233" data-name="Group 233">
          <path id="Path_531" data-name="Path 531" d="M356.485,283.931c.322-.572.644-1.144,1-1.716a7.1,7.1,0,0,0,.393-.715c.215-.358.215-.679.644-.572.5.107.322,1.287.322,1.716,0,.679.036,1.359.036,2.038a.537.537,0,0,0,1.073,0c0-1.109.036-2.217-.036-3.326a1.759,1.759,0,0,0-1.073-1.752,1.4,1.4,0,0,0-1.573.787c-.608.965-1.144,2-1.716,2.968a.546.546,0,0,0,.93.572Z" transform="translate(-355.475 -279.55)"/>
        </g>
      </g>
      <g id="Group_236" data-name="Group 236" transform="translate(53.58 0.125)">
        <g id="Group_235" data-name="Group 235">
          <path id="Path_532" data-name="Path 532" d="M454.1,304.136c.215,2.718,3.254,3.612,5.364,2.289,3.111-1.931,3.79-6.294,3.4-9.583-.536-4.506-1.609-8.689-.072-13.159,1.466-4.255,5.114-7.724,9.727-8.01.679-.036.679-1.109,0-1.073-6.294.393-10.585,5.757-11.479,11.693-.536,3.54.25,6.83.715,10.3a11.259,11.259,0,0,1-.894,6.58,6.285,6.285,0,0,1-1.967,2.36c-1.323.822-3.612.572-3.755-1.359,0-.715-1.073-.751-1.037-.036Z" transform="translate(-454.098 -274.598)"/>
        </g>
      </g>
      <g id="Group_238" data-name="Group 238" transform="translate(54.114 20.034)">
        <g id="Group_237" data-name="Group 237">
          <path id="Path_533" data-name="Path 533" d="M455.631,341.834c1.109,2.968,4.971,1.645,6.651-.072,2.753-2.789,2.146-7.438,1.931-10.978-.036-.679-1.109-.679-1.073,0a30.012,30.012,0,0,1-.036,6.937,6.029,6.029,0,0,1-1.287,2.932c-.787.966-4.22,3.4-5.149.894-.25-.644-1.287-.358-1.037.286Z" transform="translate(-455.592 -330.275)"/>
        </g>
      </g>
      <g id="Group_240" data-name="Group 240" transform="translate(61.183 0.051)">
        <g id="Group_239" data-name="Group 239">
          <path id="Path_534" data-name="Path 534" d="M486.209,274.431c-4.077,1.573-8.189,3.79-9.834,8.082-1.9,4.935-.536,10.3-.644,15.412a.537.537,0,0,0,1.073,0c.107-4.47-.966-9.047.107-13.481,1.18-4.863,5.221-7.295,9.583-8.976.644-.25.358-1.287-.286-1.037Z" transform="translate(-475.36 -274.392)"/>
        </g>
      </g>
      <g id="Group_242" data-name="Group 242" transform="translate(61.476 0.644)">
        <g id="Group_241" data-name="Group 241">
          <path id="Path_535" data-name="Path 535" d="M485.912,276.1a18.074,18.074,0,0,0-8.94,8.546c-.93,2-.787,4.22-.787,6.4,0,2.789.107,5.614.322,8.4.036.679,1.109.679,1.073,0-.143-2.253-.25-4.47-.286-6.723-.036-2.36-.358-5.149.536-7.366,1.538-3.755,5.006-6.651,8.618-8.332.644-.286.107-1.216-.536-.93Z" transform="translate(-476.178 -276.049)"/>
        </g>
      </g>
      <g id="Group_244" data-name="Group 244" transform="translate(8.627 12.601)">
        <g id="Group_243" data-name="Group 243">
          <path id="Path_536" data-name="Path 536" d="M328.428,310.529a2.034,2.034,0,0,0,3.79-.787c.036-.358-.5-.322-.536,0a1.5,1.5,0,0,1-2.789.536.264.264,0,1,0-.465.25Z" transform="translate(-328.388 -309.487)" fill="#fff"/>
        </g>
      </g>
      <g id="Group_246" data-name="Group 246" transform="translate(16.208 10.943)">
        <g id="Group_245" data-name="Group 245">
          <path id="Path_537" data-name="Path 537" d="M349.628,306.155a2.121,2.121,0,0,0,3.969-1.037.268.268,0,0,0-.536,0,1.58,1.58,0,0,1-2.968.787.264.264,0,1,0-.465.25Z" transform="translate(-349.588 -304.85)" fill="#fff"/>
        </g>
      </g>
      <g id="Group_248" data-name="Group 248" transform="translate(13.44 14.283)">
        <g id="Group_247" data-name="Group 247">
          <path id="Path_538" data-name="Path 538" d="M342.509,314.517a3.45,3.45,0,0,1-.608,2.932c-.215.286.25.536.465.286a4.15,4.15,0,0,0,.679-3.361c-.107-.322-.644-.179-.536.143Z" transform="translate(-341.846 -314.193)" fill="#fff"/>
        </g>
      </g>
      <g id="Group_250" data-name="Group 250" transform="translate(14.307 14.304)">
        <g id="Group_249" data-name="Group 249">
          <path id="Path_539" data-name="Path 539" d="M344.282,314.518a3.256,3.256,0,0,0,1.9,3.218c.322.143.572-.322.286-.465a2.774,2.774,0,0,1-1.645-2.753.268.268,0,1,0-.536,0Z" transform="translate(-344.272 -314.25)" fill="#fff"/>
        </g>
      </g>
      <g id="Group_252" data-name="Group 252" transform="translate(5.351 17.17)">
        <g id="Group_251" data-name="Group 251">
          <path id="Path_540" data-name="Path 540" d="M319.466,322.85c3.147-.25,5.149,2.324,7.259,4.22.25.215.644-.143.393-.393-2.217-2-4.363-4.613-7.652-4.4-.322.036-.322.572,0,.572Z" transform="translate(-319.225 -322.265)" fill="#fff"/>
        </g>
      </g>
      <g id="Group_254" data-name="Group 254" transform="translate(11.064 20.724)">
        <g id="Group_253" data-name="Group 253">
          <path id="Path_541" data-name="Path 541" d="M335.595,335.528a17.811,17.811,0,0,1,13.517-2.4c.322.072.465-.429.143-.5a18.466,18.466,0,0,0-13.91,2.467c-.322.143-.036.608.25.429Z" transform="translate(-335.202 -332.204)" fill="#fff"/>
        </g>
      </g>
      <g id="Group_256" data-name="Group 256" transform="translate(21.371 25.488)">
        <g id="Group_255" data-name="Group 255">
          <path id="Path_542" data-name="Path 542" d="M364.266,348.986a12.4,12.4,0,0,0,9.011-3c.25-.215-.107-.608-.393-.393a11.863,11.863,0,0,1-8.618,2.861.27.27,0,0,0,0,.536Z" transform="translate(-364.025 -345.526)" fill="#fff"/>
        </g>
      </g>
      <g id="Group_258" data-name="Group 258" transform="translate(19.892 3.417)">
        <g id="Group_257" data-name="Group 257">
          <path id="Path_543" data-name="Path 543" d="M360.645,283.947a5.256,5.256,0,0,0-.5,4.327c.107.322.608.179.5-.143a4.661,4.661,0,0,1,.429-3.9.259.259,0,1,0-.429-.286Z" transform="translate(-359.891 -283.805)" fill="#fff"/>
        </g>
      </g>
      <g id="Group_260" data-name="Group 260" transform="translate(6.36 6.379)">
        <g id="Group_259" data-name="Group 259">
          <path id="Path_544" data-name="Path 544" d="M322.173,292.593a3.589,3.589,0,0,1,1.609,2.324c.072.322.572.179.5-.143a4.158,4.158,0,0,0-1.859-2.646c-.286-.179-.536.286-.25.465Z" transform="translate(-322.047 -292.088)" fill="#fff"/>
        </g>
      </g>
      <g id="Group_262" data-name="Group 262" transform="translate(25.337 12.132)">
        <g id="Group_261" data-name="Group 261">
          <path id="Path_545" data-name="Path 545" d="M375.182,308.649a9.3,9.3,0,0,0,2.36,2.074c.286.179.572-.286.286-.465a8.636,8.636,0,0,1-2.253-2c-.25-.25-.608.143-.393.393Z" transform="translate(-375.116 -308.176)" fill="#fff"/>
        </g>
      </g>
      <g id="Group_264" data-name="Group 264" transform="translate(39.393 29.177)">
        <g id="Group_263" data-name="Group 263">
          <path id="Path_546" data-name="Path 546" d="M422.5,356.829c-.751-1.9-4.363-.608-5.543.143a5.583,5.583,0,0,0-2.253,6.4c.107.322.608.179.5-.143A5.071,5.071,0,0,1,416.6,357.9a5.393,5.393,0,0,1,2.36-1.252c.608-.179,2.682-.572,3,.286.143.358.644.215.536-.107Z" transform="translate(-414.425 -355.843)" fill="#fff"/>
        </g>
      </g>
      <g id="Group_266" data-name="Group 266" transform="translate(31.265 35.757)">
        <g id="Group_265" data-name="Group 265">
          <path id="Path_547" data-name="Path 547" d="M400.528,375.229a12.434,12.434,0,0,0-8.654-.393c-.322.107-.179.608.143.5a11.843,11.843,0,0,1,8.368.393c.322.143.465-.393.143-.5Z" transform="translate(-391.693 -374.243)" fill="#fff"/>
        </g>
      </g>
    </g>
    <g id="legs" transform="translate(386.917 3788.617)">
      <path id="Path_548" data-name="Path 548" d="M685.383,764.736c-1.466,3.5-1.466,6.115-1.681,12.838-.25,8.3-.966,16.557-1.037,24.817-.072,6.973-.179,17.522-.465,31.254a361.245,361.245,0,0,0,73.914-3.5c-5.149-17.415-8.546-30.109-10.978-39.943a80.934,80.934,0,0,0-8.4-22.314,71.7,71.7,0,0,0-8.01-11.371c-.572-.5-13.2-11.121-27.785-6.115C700.223,750.683,689.6,754.545,685.383,764.736Z" transform="translate(-682.2 -749.059)" fill="#fa5051"/>
      <g id="Group_268" data-name="Group 268" transform="translate(24.178 35.721)">
        <g id="Group_267" data-name="Group 267">
          <path id="Path_549" data-name="Path 549" d="M749.88,849.756c2.4,4.255,4.792,8.511,7.152,12.766.322.608,1.252.072.93-.536-2.4-4.255-4.792-8.511-7.152-12.766-.322-.608-1.252-.071-.93.536Z" transform="translate(-749.813 -848.952)" fill="#c64f4f"/>
        </g>
      </g>
      <g id="Group_270" data-name="Group 270" transform="translate(23.835 35.36)">
        <g id="Group_269" data-name="Group 269">
          <path id="Path_550" data-name="Path 550" d="M748.977,848.893a52.867,52.867,0,0,1,10.406,23.279,203.154,203.154,0,0,1,3.254,24.6c.036.679,1.109.679,1.073,0a214.569,214.569,0,0,0-3.361-25.282,53.252,53.252,0,0,0-10.585-23.351c-.429-.572-1.216.215-.787.751Z" transform="translate(-748.853 -847.942)" fill="#c64f4f"/>
        </g>
      </g>
      <path id="Path_551" data-name="Path 551" d="M773.3,750.5c1.252,2.5,3.04,6.186,5.042,10.62,5.829,12.945,11.872,26.6,15.09,43.412a122.92,122.92,0,0,1,2.038,28.893c3-.143,6.186-.393,9.512-.751s6.508-.787,9.512-1.287c-.93-3.147-2.432-8.153-4.112-14.339-4.684-17.307-5.328-22.707-9.333-34.114-2.968-8.475-5.721-14.232-9.691-19.739-3.576-4.971-6.937-8.082-11.193-10.263A28.609,28.609,0,0,0,773.3,750.5Z" transform="translate(-740.723 -749.985)" fill="#3f3f3f" opacity="0.19"/>
      <path id="Path_552" data-name="Path 552" d="M749.4,851.7a104.632,104.632,0,0,1,3.183,18.452,106.672,106.672,0,0,1-1.859,30.181l12.3-.751a171.78,171.78,0,0,0-2.253-20.133c-2.253-13.2-4.613-18.094-6.508-21.241A45.4,45.4,0,0,0,749.4,851.7Z" transform="translate(-725.37 -814.996)" fill="#3f3f3f" opacity="0.11"/>
    </g>
    <g id="hand_right" transform="translate(350.994 3742.579)">
      <path id="Path_553" data-name="Path 553" d="M596.748,621.1c-1.18.787-1.9,2.289-3.29,5.257a47.9,47.9,0,0,0-2.539,7.152c-2.36,8.01-2.11,6.651-2.932,9.691a135.5,135.5,0,0,0-4.077,20.454,126.89,126.89,0,0,0-.787,17.7,111.209,111.209,0,0,0,3.5,23.6c2.217,9.119,5.185,16.7,11.085,31.826,1.287,3.254,2.36,5.936,3.111,7.8-.536.071-1.395.179-2.432.322-5.4.644-6.151.5-8.332.966-2.789.608-5.292,1.216-6.258,3.326-.429.966-.608,2.324-.072,2.789.679.572,2-.715,4.291-1.466a10.783,10.783,0,0,1,4.827-.393,24.286,24.286,0,0,0-1.788,4.649c-.787,2.718-1.395,4.935-.393,6.508.5.787,1.466,1.5,2.253,1.287.429-.107.823-.5,1.9-3.326,1.037-2.825,1.109-3.719,1.967-4.828a6.438,6.438,0,0,1,2.181-1.716,17.974,17.974,0,0,0-.751,3.826,12.042,12.042,0,0,0,0,3c.143,1.037.465,3.254,2.11,4.47.286.215,1.466,1.109,2.181.644.608-.358.429-1.359.679-4.577a13.4,13.4,0,0,1,.608-3.9,7.534,7.534,0,0,1,1.716-2.682,54.526,54.526,0,0,0-.072,6.294c.143,2.539.393,3.683,1.216,4.4a1.955,1.955,0,0,0,1.9.5c.644-.286.858-1.18,1.037-2.289.787-4.184.322-5.4,1.216-7.51a5.639,5.639,0,0,1,1.716-2.539c2.038-1.5,4.935-.608,5.328-.5,1.716.536,2.36,1.466,3.218,1.073a2.6,2.6,0,0,0,1.144-2.217c.036-2.11-2.289-3.719-4.291-5.042a19.907,19.907,0,0,0-4.506-2.289,84.48,84.48,0,0,1-5.793-14.912,95.882,95.882,0,0,1-2.324-10.692c-1.9-10.907-1.216-15.09-3.326-25.925-.5-2.61-1-4.684-1.287-5.865.143-1.788.393-4.577.751-7.974,1.18-11.085,1.967-18.023,4.363-26.176,1.9-6.4,3.826-11.658,3.826-11.658,2.432-6.544,3.218-7.438,2.932-9.548C611.552,623.957,601.146,618.164,596.748,621.1Z" transform="translate(-582.603 -620.315)" fill="#fff"/>
      <g id="Group_272" data-name="Group 272" transform="translate(0 3.896)">
        <g id="Group_271" data-name="Group 271">
          <path id="Path_554" data-name="Path 554" d="M593.135,631.493a135.28,135.28,0,0,0-11.228,46.416c-.894,16.342,1.931,32.326,7.223,47.774,3,8.833,6.651,17.415,10.37,26,.286.644,1.18.071.93-.536-6.437-14.876-12.73-29.966-15.734-45.915a119.392,119.392,0,0,1,1.073-47.631,139.175,139.175,0,0,1,8.3-25.532c.25-.644-.644-1.216-.93-.572Z" transform="translate(-581.743 -631.211)" fill="#161616"/>
        </g>
      </g>
      <g id="Group_274" data-name="Group 274" transform="translate(17.614 24.234)">
        <g id="Group_273" data-name="Group 273">
          <path id="Path_555" data-name="Path 555" d="M638.116,688.448A142.5,142.5,0,0,0,631,730.68a.537.537,0,0,0,1.073,0,141.745,141.745,0,0,1,7.08-41.946c.215-.644-.822-.93-1.037-.286Z" transform="translate(-631 -688.085)" fill="#161616"/>
        </g>
      </g>
      <g id="Group_276" data-name="Group 276" transform="translate(13.764 59.562)">
        <g id="Group_275" data-name="Group 275">
          <path id="Path_556" data-name="Path 556" d="M620.329,787.637c3.183,4.434,4.47,9.727,5.221,15.019.787,5.4,1.144,10.871,1.931,16.271,1.573,10.978,4.148,21.92,9.333,31.754.322.608,1.252.071.93-.536-5.4-10.227-7.939-21.634-9.44-33.006-1.323-9.977-.93-21.527-7.045-30.038-.393-.536-1.323,0-.93.536Z" transform="translate(-620.234 -786.879)" fill="#161616"/>
        </g>
      </g>
      <g id="Group_278" data-name="Group 278" transform="translate(0.113 123.864)">
        <g id="Group_277" data-name="Group 277">
          <path id="Path_557" data-name="Path 557" d="M599.56,966.7a76.3,76.3,0,0,0-9.905,1.109c-2.324.465-4.792,1.216-6.4,3.075-.93,1.109-2.11,3.755-.071,4.506.894.322,1.681-.286,2.432-.715,1.859-1.073,3.791-2.181,6.008-1.573a.538.538,0,0,0,.286-1.037,6.92,6.92,0,0,0-5.114.751c-.5.25-.965.5-1.43.787-.286.143-.536.322-.822.5-.322-.572-.679-1.144-1-1.716.071-.894,1.859-1.931,2.5-2.289a17.641,17.641,0,0,1,5.721-1.538c2.61-.393,5.221-.644,7.831-.787a.537.537,0,0,0-.036-1.073Z" transform="translate(-582.059 -966.698)" fill="#161616"/>
        </g>
      </g>
      <g id="Group_280" data-name="Group 280" transform="translate(7.034 127.04)">
        <g id="Group_279" data-name="Group 279">
          <path id="Path_558" data-name="Path 558" d="M609.061,975.586a8.194,8.194,0,0,0-6.222,5.006c-1.144,2.718-2.11,6.759-.787,9.548,1,2.11,3.469,2.861,4.4.286.572-1.609.465-3.361,1.037-4.971a9.583,9.583,0,0,1,3.719-4.9c.572-.393.036-1.323-.536-.93a10.283,10.283,0,0,0-3.755,4.434,13.779,13.779,0,0,0-.966,2.9c-.179.822-.286,4.971-2.253,3.755-1.109-.679-1.216-2.861-1.18-3.969a19.4,19.4,0,0,1,1.037-5.114,7.307,7.307,0,0,1,5.757-5.006c.715-.107.429-1.144-.25-1.037Z" transform="translate(-601.413 -975.578)" fill="#161616"/>
        </g>
      </g>
      <g id="Group_282" data-name="Group 282" transform="translate(14.789 129.599)">
        <g id="Group_281" data-name="Group 281">
          <path id="Path_559" data-name="Path 559" d="M626.355,982.829c-2.217,1.43-3,4.542-3.218,7.045a9.27,9.27,0,0,0,2.539,7.474c1.18,1.109,3,1.681,3.326-.393.536-3.469-.858-8.368,2.932-10.442.608-.322.072-1.252-.536-.93a6.132,6.132,0,0,0-2.753,3.433c-.751,2.146-.322,4.327-.644,6.544-.143,1-.429,2.074-1.538,1.037a6.067,6.067,0,0,1-1.037-1.287,7.858,7.858,0,0,1-1.18-3.54c-.25-2.5.393-6.508,2.682-8.01.536-.393,0-1.323-.572-.93Z" transform="translate(-623.101 -982.734)" fill="#161616"/>
        </g>
      </g>
      <g id="Group_284" data-name="Group 284" transform="translate(22.088 132.194)">
        <g id="Group_283" data-name="Group 283">
          <path id="Path_560" data-name="Path 560" d="M644.545,990.352a19.312,19.312,0,0,0-.894,7.939c.179,1.287.93,4.434,2.575,4.756,1.859.358,2.61-2.932,2.789-4.148.393-2.646-.107-5.829,1.967-7.867a.531.531,0,0,0-.751-.751c-2.5,2.467-1.645,6.043-2.4,9.19-.25,1.144-.966,2.861-2.146,1.538a5.826,5.826,0,0,1-.966-2.9,18.845,18.845,0,0,1,.894-7.438c.143-.679-.894-.966-1.073-.322Z" transform="translate(-643.513 -989.991)" fill="#161616"/>
        </g>
      </g>
      <g id="Group_286" data-name="Group 286" transform="translate(28.096 122.87)">
        <g id="Group_285" data-name="Group 285">
          <path id="Path_561" data-name="Path 561" d="M663.062,965.021A17.324,17.324,0,0,1,669,968.453a6.728,6.728,0,0,1,1.9,2.968c.536,2.968-1.681,1.073-2.5.715-2.253-1-6.723-.286-8.01,2-.322.608.608,1.144.93.536.679-1.252,2.539-1.573,3.826-1.752a6.178,6.178,0,0,1,2.432.036c.858.25,1.395,1,2.217,1.252a1.754,1.754,0,0,0,2.253-1.609c.322-1.859-1.287-3.934-2.539-5.149a18.778,18.778,0,0,0-6.222-3.5c-.572-.215-.823.822-.215,1.073Z" transform="translate(-660.313 -963.919)" fill="#161616"/>
        </g>
      </g>
      <path id="Path_562" data-name="Path 562" d="M628.717,656.792c-4.112.25-6.58,10.763-7.939,16.592a111.548,111.548,0,0,0-2.646,28.679,166.512,166.512,0,0,0,11.514,57.179c1.144,3.218,2.253,6.437,3.4,9.619-.644,2.646-1.287,5.364-1.9,8.189-.787,3.719-1.5,7.366-2.074,10.871a2.719,2.719,0,0,0,2.253-.608c.822-.822.715-2.146.751-3.29.036-1.073.143-6.258,2.467-8.189a5.713,5.713,0,0,1,5.292-.608c1.609.608,2.324,1.788,3.4,1.43a2.558,2.558,0,0,0,1.5-2.038c.358-2.61-4.649-5.292-5.471-5.721-1.609-.858-2.36-.966-3.4-2.038a8.1,8.1,0,0,1-1.9-3.683c-2.968-11.3-4.434-10.585-6.437-23.565-1.5-9.8-.536-9.226-2.074-17.021-1.073-5.507-1.967-7.76-2.253-12.516a51.562,51.562,0,0,1,.93-12.909c2.682-14.769,7.831-32.648,9.083-36.9C632.079,658.472,630.505,656.684,628.717,656.792Z" transform="translate(-605.096 -643.745)" fill="#3f3f3f" opacity="0.13"/>
    </g>
    <g id="hand_left" transform="translate(402.728 3591.171)">
      <path id="Path_563" data-name="Path 563" d="M771.951,214.992c-1.109-.036-1.967,1.967-2.181,2.5a8.121,8.121,0,0,0-.465,4.506s.215,1.5.93,10.585a38.22,38.22,0,0,1-.322,8.725c-1.43,3.934-2.789,7.009-3.719,9.011-3.147,6.723-5.257,9.4-9.655,17.915-1.645,3.183-1.788,3.683-3.719,7.617-4.828,9.762-8.368,15.877-11.979,22.421C737.658,304,733.188,312.4,727.932,323.2c-.25.93-1.5,5.9,1.395,10.263,3.075,4.613,9.512,6.687,15.734,4.684a37.736,37.736,0,0,0,3.576-6.222,42.737,42.737,0,0,0,2.181-6.079c.393-1.323,1.967-5.793,5.149-14.8,1-2.789,2.217-6.115,4.684-12.623,3.755-9.977,5.614-14.947,6.866-18.058,2.825-7.08,4.971-11.979,9.19-21.491,2.217-5.006,4.935-11.05,8.082-17.915a43.857,43.857,0,0,0,7.009-4.971c3.862-3.326,5.793-6.151,9.512-11.514,2.4-3.5,4.22-6.58,3.719-9.655-.072-.429-.25-1.681-.93-1.859-.858-.25-1.931,1.466-3.111,2.968a31.974,31.974,0,0,1-5.757,5.614,59.435,59.435,0,0,1,2.5-5.9c1.466-3,2.682-4.935,3.433-8.26.822-3.54.072-4.184-.143-4.363-.965-.715-2.61.644-3.576-.143-.858-.751-.107-2.4-.787-2.789s-2.181.787-3.254,2.038c-1.859,2.146-2.289,4.22-2.968,6.222a26.56,26.56,0,0,1-4.041,7.617c-.536.072-1.252.107-1.573-.322-.358-.5.143-1.323.608-2.646.107-.322.036-.143.787-3.433.286-1.252.822-3.576,1.252-5.435.608-2.682.894-3.79.322-4.971-.107-.25-.572-1.216-1.252-1.252-.787-.036-1.395,1.216-1.859,2.181-1.9,3.9-2.861,5.865-3.111,6.544a79.663,79.663,0,0,0-3.183,10.37,8.736,8.736,0,0,1-.465,1.931c-.179.465-.286.644-.393.93-.894,2-.143,3.326-1.073,4.041-.107.072-.644.465-1.073.322-.465-.143-.679-.751-.93-2.789-.358-2.789-.143-3.612-.787-4.828C773.239,216.064,772.7,215.027,771.951,214.992Z" transform="translate(-727.078 -197.543)" fill="#fff"/>
      <g id="Group_288" data-name="Group 288" transform="translate(41.762 16.675)">
        <g id="Group_287" data-name="Group 287">
          <path id="Path_564" data-name="Path 564" d="M844.594,260.867a51.2,51.2,0,0,0-.286-7.76,19.2,19.2,0,0,1,.107-3.79,13.853,13.853,0,0,1,.465-2.11c.358-1.037.393-1.9,1.538-1.931,1.073-.036,1,.608,1.18,1.5a13.62,13.62,0,0,1,.25,2.4,20.572,20.572,0,0,0,.358,3.326c.25,1.109.93,2.038,2.181,1.645.644-.215.393-1.252-.286-1.037-1.252.358-1.144-3.862-1.216-4.577a12.157,12.157,0,0,0-.644-3.4c-.608-1.5-2-2.253-3.183-.858-1.538,1.788-1.859,5.006-1.859,7.223,0,3.147.608,6.222.322,9.369-.036.679,1.037.679,1.073,0Z" transform="translate(-843.2 -243.538)" fill="#161616"/>
        </g>
      </g>
      <g id="Group_290" data-name="Group 290" transform="translate(48.382)">
        <g id="Group_289" data-name="Group 289">
          <path id="Path_565" data-name="Path 565" d="M862.71,223.759c1.788-3.469,2.324-7.4,3.361-11.121a48.676,48.676,0,0,1,4.577-11.514,10.7,10.7,0,0,1,1.609-2.5c1.323-1.216,1.323,1.109,1.216,2.11a53.239,53.239,0,0,1-1.287,6.651c-.465,2-1.109,3.934-1.573,5.936a2.98,2.98,0,0,0,.536,2.932c.465.5,1.216-.25.751-.751-.894-.965.036-2.9.322-3.934.322-1.18.644-2.36.894-3.54.5-2.181,1-4.4,1.323-6.651.179-1.18.429-3.254-.608-4.148-.894-.751-1.788-.036-2.4.679-2.61,3.254-4.22,7.545-5.507,11.479-1.466,4.541-1.931,9.619-4.148,13.875a.529.529,0,0,0,.93.5Z" transform="translate(-861.713 -196.906)" fill="#161616"/>
        </g>
      </g>
      <g id="Group_292" data-name="Group 292" transform="translate(57.563 1.713)">
        <g id="Group_291" data-name="Group 291">
          <path id="Path_566" data-name="Path 566" d="M887.892,219.435c1.073.107,1.466-.679,1.967-1.538.787-1.359,1.5-2.789,2.181-4.184,1.323-2.718,2.253-5.686,3.862-8.225a6.265,6.265,0,0,1,1.359-1.716,1.611,1.611,0,0,1,1.859-.465,7.177,7.177,0,0,1,.179,1.5,14.356,14.356,0,0,1-1.144,5.149c-1.216,3.254-2.575,6.472-3.9,9.727-.25.644.787.93,1.037.286.751-1.859,8.475-18.166,3.433-18.273-1-.036-2.146,1.216-2.718,1.9a16.9,16.9,0,0,0-2.36,3.934c-.751,1.681-1.43,3.361-2.217,5.006-.465,1-1,2.038-1.5,3-.322.644-1.109,2.861-2,2.789-.715-.036-.715,1.037-.036,1.109Z" transform="translate(-887.387 -201.698)" fill="#161616"/>
        </g>
      </g>
      <g id="Group_294" data-name="Group 294" transform="translate(66.892 4.175)">
        <g id="Group_293" data-name="Group 293">
          <path id="Path_567" data-name="Path 567" d="M917.31,210.7c.393-2.074,2.646-.644,2.932.679a6.045,6.045,0,0,1-.536,3.254c-.536,1.573-1.144,3.111-1.788,4.613a70.264,70.264,0,0,1-4.363,8.475.537.537,0,0,0,.93.536,74.787,74.787,0,0,0,4.112-7.867,30.847,30.847,0,0,0,2.682-7.438c.25-1.609-.215-3.683-2-4.255a2.324,2.324,0,0,0-3,1.752c-.107.644.93.93,1.037.25Z" transform="translate(-913.475 -208.581)" fill="#161616"/>
        </g>
      </g>
      <g id="Group_296" data-name="Group 296" transform="translate(56.95 15.161)">
        <g id="Group_295" data-name="Group 295">
          <path id="Path_568" data-name="Path 568" d="M897.375,248.422c1.359-1.538,2.682-3.075,4.041-4.613a28.163,28.163,0,0,1,2.146-2.432c.25-.215.5-.393.715-.608.608.215,1.216.429,1.859.644.179.322-.25,1.252-.358,1.538a43.3,43.3,0,0,1-4.613,9.619,46.028,46.028,0,0,1-15.233,14.8c-.608.358-.036,1.287.536.93a47.006,47.006,0,0,0,17.915-19.274,37.117,37.117,0,0,0,2.5-6.043c.358-1.216.572-2.861-.823-3.5-1.359-.644-2.789.608-3.647,1.5-2.038,2.11-3.9,4.47-5.829,6.687-.429.5.322,1.252.787.751Z" transform="translate(-885.672 -239.305)" fill="#161616"/>
        </g>
      </g>
      <g id="Group_298" data-name="Group 298" transform="translate(0 32.387)">
        <g id="Group_297" data-name="Group 297">
          <path id="Path_569" data-name="Path 569" d="M768.64,287.985a42.026,42.026,0,0,1-.036,9.941,31.649,31.649,0,0,1-3.4,9.19c-3.04,5.936-6.222,11.8-9.333,17.7q-9.333,17.7-18.666,35.366c-3.576,6.758-7.152,13.553-10.728,20.311-.322.608.608,1.144.93.536,12.838-24.352,25.925-48.6,38.548-73.092a33.661,33.661,0,0,0,3.5-9.047,39.781,39.781,0,0,0,.179-10.907.5.5,0,1,0-1,0Z" transform="translate(-726.413 -287.475)" fill="#161616"/>
        </g>
      </g>
      <g id="Group_300" data-name="Group 300" transform="translate(18.608 42.713)">
        <g id="Group_299" data-name="Group 299">
          <path id="Path_570" data-name="Path 570" d="M816.98,316.62a749.219,749.219,0,0,0-30.217,74.165c-2.575,7.331-5.149,14.661-8.26,21.777-.286.644.644,1.18.93.536,5.328-12.122,9.226-24.817,13.8-37.19q7.027-19.1,15.162-37.8c3.075-7.045,6.222-14.018,9.512-20.955.286-.608-.644-1.144-.93-.536Z" transform="translate(-778.449 -316.352)" fill="#161616"/>
        </g>
      </g>
      <path id="Path_571" data-name="Path 571" d="M818.079,213.29c-1.466-.215-3.433,5.793-4.577,8.8-3.469,9.226-6.4,10.3-13.839,22.814a167.761,167.761,0,0,0-10.37,20.6Q772.129,301.651,755,337.84c2.789,3.4,5.543,6.83,8.332,10.227,1.395-3.969,3.433-9.8,5.972-16.843,4.613-12.695,10.585-29.037,19.024-48.919,3.361-7.867,8.01-18.488,13.982-30.968a50.369,50.369,0,0,0,6.437-4.863c3.361-2.932,7.8-6.9,10.835-13.374a32.833,32.833,0,0,0,2.825-9.119,3.129,3.129,0,0,0-1.9-.322c-1.287.25-1.967,1.5-2.5,2.36-2.074,3.183-5.114,5.292-5.507,5.042-.215-.179.393-1.216,2.038-4.577,3.361-6.9,1.967-5.078,3.29-7.4.751-1.323,1.5-2.467,1.252-3.934C819.081,214.506,818.687,213.4,818.079,213.29Z" transform="translate(-744.778 -207.428)" fill="#3f3f3f" opacity="0.1"/>
      <path id="Path_572" data-name="Path 572" d="M822.194,281.5c-1.788,1.144-4.327,2.825-7.223,5.042a63.382,63.382,0,0,0-9.905,8.654,38.628,38.628,0,0,0-6.937,11.944c-9.834,25.1-21.527,52.352-24.853,59.933-1.824,4.148-4.684,10.406-8.475,17.915,1.716,2.253,3.469,4.506,5.185,6.759,4.935-15.055,10.621-30.824,17.129-47.166,7.009-17.558,14.268-33.971,21.563-49.241A47.073,47.073,0,0,0,822.194,281.5Z" transform="translate(-751.073 -251.25)" fill="#3f3f3f" opacity="0.13"/>
    </g>
    <g id="torso" transform="translate(361.865 3712.408)">
      <path id="Path_573" data-name="Path 573" d="M629.849,548.837a39.948,39.948,0,0,0-7.331,6.329,45.7,45.7,0,0,0-6.472,9.476c-1.18,2.11-2.038,3.969-2.646,5.328.93,1.788,2.432,4.541,4.506,7.831,3.683,5.829,6.544,8.976,11.479,15.3,2.074,2.646,5.078,6.615,8.654,11.622q.858,4.023,1.5,8.475a120.257,120.257,0,0,1,1.18,16.807,20.949,20.949,0,0,0,6.973,4.971A22.756,22.756,0,0,0,661,636.3a30.117,30.117,0,0,0,12.623-5.328A39.054,39.054,0,0,0,684.275,620.5c-.465-5.578-1.073-11.336-1.824-17.307q-.966-7.617-2.146-14.8a81.582,81.582,0,0,0-1.645-14.8,60.7,60.7,0,0,0-5.829-17.629,54.477,54.477,0,0,0-12.3-15.627,56.088,56.088,0,0,0-4.971-3.826,79.862,79.862,0,0,1-12.8,6.651C637.037,545.511,634.355,545.869,629.849,548.837Z" transform="translate(-612.95 -536.301)" fill="#fff"/>
      <g id="Group_302" data-name="Group 302" transform="translate(0 11.762)">
        <g id="Group_301" data-name="Group 301">
          <path id="Path_574" data-name="Path 574" d="M613.164,590.885c1.109-4.22,4.184-8.153,6.83-11.586a44.942,44.942,0,0,1,9.691-9.44c.572-.393.036-1.323-.536-.93a45.81,45.81,0,0,0-9.977,9.691c-2.753,3.54-5.865,7.545-7.009,11.944-.179.715.858.965,1,.322Z" transform="translate(-612.142 -568.834)" fill="#161616"/>
        </g>
      </g>
      <g id="Group_304" data-name="Group 304" transform="translate(0.155 33.367)">
        <g id="Group_303" data-name="Group 303">
          <path id="Path_575" data-name="Path 575" d="M612.656,630.056a210.922,210.922,0,0,0,26,36.01c.465.5,1.216-.25.751-.751a210.237,210.237,0,0,1-25.818-35.8.537.537,0,0,0-.93.536Z" transform="translate(-612.575 -629.252)" fill="#161616"/>
        </g>
      </g>
      <g id="Group_306" data-name="Group 306" transform="translate(29.707)">
        <g id="Group_305" data-name="Group 305">
          <path id="Path_576" data-name="Path 576" d="M696,543.294A43.813,43.813,0,0,1,709.085,537a.538.538,0,0,0-.286-1.037,45.031,45.031,0,0,0-13.338,6.4c-.572.393-.036,1.323.536.93Z" transform="translate(-695.216 -535.942)" fill="#161616"/>
        </g>
      </g>
      <g id="Group_308" data-name="Group 308" transform="translate(42.459 0.319)">
        <g id="Group_307" data-name="Group 307">
          <path id="Path_577" data-name="Path 577" d="M731.1,537.859c17.093,11.908,24.424,32.791,23.6,53-.036.679,1.037.679,1.073,0,.858-20.633-6.723-41.8-24.138-53.925-.536-.393-1.073.536-.536.93Z" transform="translate(-730.879 -536.834)" fill="#161616"/>
        </g>
      </g>
      <g id="Group_310" data-name="Group 310" transform="translate(23.852 67.232)">
        <g id="Group_309" data-name="Group 309">
          <path id="Path_578" data-name="Path 578" d="M678.9,724.794c1.859,3.826,2.074,8.582,2.467,12.73a125.89,125.89,0,0,1,.572,12.73.537.537,0,0,0,1.073,0,116.411,116.411,0,0,0-.715-14.125c-.429-3.969-.715-8.26-2.467-11.908-.322-.608-1.216-.071-.93.572Z" transform="translate(-678.844 -723.955)" fill="#161616"/>
        </g>
      </g>
      <g id="Group_312" data-name="Group 312" transform="translate(27.498 83.287)">
        <g id="Group_311" data-name="Group 311">
          <path id="Path_579" data-name="Path 579" d="M689.169,779.311c5.364,6.58,14.518,8.439,22.493,6.4a35.909,35.909,0,0,0,12.23-6.043c3.683-2.718,7.188-5.865,9.262-10.013.322-.608-.608-1.144-.93-.536-2,3.969-5.364,7.009-8.9,9.619a35.824,35.824,0,0,1-11.407,5.793c-7.8,2.181-16.771.5-22.028-5.972-.393-.536-1.144.214-.715.751Z" transform="translate(-689.041 -768.852)" fill="#161616"/>
        </g>
      </g>
      <g id="Group_314" data-name="Group 314" transform="translate(66.668 52.055)">
        <g id="Group_313" data-name="Group 313">
          <path id="Path_580" data-name="Path 580" d="M798.586,682.188c1.752,10.477,3.469,20.955,4.077,31.54.036.679,1.109.679,1.073,0a307.306,307.306,0,0,0-4.112-31.826c-.107-.679-1.144-.393-1.037.286Z" transform="translate(-798.578 -681.514)" fill="#161616"/>
        </g>
      </g>
      <path id="Path_581" data-name="Path 581" d="M701.2,542.607a95.727,95.727,0,0,1,13.946,21.849C721.8,578.9,723.12,591.383,724.122,602a153.833,153.833,0,0,1-.358,32.791,37.7,37.7,0,0,0,16.771-13.946c-1.18-9.977-2.36-19.989-3.54-29.966a67.487,67.487,0,0,0-2.289-19.382,66.539,66.539,0,0,0-13.41-25.747,64.232,64.232,0,0,0-8.976-8.654C708.6,538.959,704.919,540.783,701.2,542.607Z" transform="translate(-669.354 -536.686)" fill="#3f3f3f" opacity="0.13"/>
      <path id="Path_582" data-name="Path 582" d="M775.425,587.492c-.644.179.858,6.008,2.289,14.626a232.655,232.655,0,0,1,2.646,25.747,127.825,127.825,0,0,1-3.862,35.8A33.77,33.77,0,0,0,782.5,659.8a32.159,32.159,0,0,0,5.829-6.186c-.465-14.411-1.681-21.885-2.825-26.1a55,55,0,0,1-1.252-5.471c-.858-5.078-.429-7.259-.894-11.479a47.284,47.284,0,0,0-2.289-9.691C779.179,594.679,776.14,587.277,775.425,587.492Z" transform="translate(-716.937 -569.055)" fill="#3f3f3f" opacity="0.14"/>
    </g>
    <path id="Path_583" data-name="Path 583" d="M594.917,391.4a33.409,33.409,0,0,0-16.878,23.458,4.312,4.312,0,0,0-3.183.751c-1.752,1.359-1.788,4.041-1.109,5.614a8.873,8.873,0,0,0,1.359,1.967,6.365,6.365,0,0,0,2.4,2.181,4.149,4.149,0,0,0,2.575.143,34.891,34.891,0,0,0,2,4.72,27.492,27.492,0,0,0,6.937,9.19,24.442,24.442,0,0,0,5.149,3.254,11.983,11.983,0,0,1,2.61,6.58c.358,5.543-3.683,10.156-7.509,12.194-6.651,3.54-13.875,0-16.521-1.323-1.43-.715-8.618-4.434-11.622-12.587-3.647-9.834,1.109-19.668,3.934-25.532,2.861-5.9,4.184-5.507,6.365-11.264,2.9-7.617,1.359-10.3,4.684-16.127,1.287-2.289,3.9-6.866,9.369-9.011a17.166,17.166,0,0,1,10.871-.358A14.971,14.971,0,0,1,604.035,383c8.153,0,13.374,7.724,14.626,9.583,3.719,5.471,1.752,7.152,5.078,14.84,4.184,9.691,8.26,9.119,12.015,18.2,1.824,4.434,4.863,11.765,1.5,18.774-3.469,7.223-11.371,9.333-12.373,9.583-1.824.465-6.723,1.681-11.622-.93-.465-.25-6.615-3.612-7.116-9.369a12.128,12.128,0,0,1,.572-4.506,13.236,13.236,0,0,1,2.432-4.327c1.538-1.9,3.4-5.4,4.684-12.373a6,6,0,0,0,2.61-.751,6.427,6.427,0,0,0,3-5.829c-.036-.5-.179-3.361-2.253-4.327a3.645,3.645,0,0,0-2.253-.179C608.291,404.67,601.6,398.055,594.917,391.4Z" transform="translate(-216.653 3274.717)" fill="#006"/>
    <path id="Path_584" data-name="Path 584" d="M620.05,406.4a36.878,36.878,0,0,0-8.475,6.794,34.936,34.936,0,0,0-8.082,14.483,20.153,20.153,0,0,0-.5,2.324,2.976,2.976,0,0,0-2.181,0c-1.359.608-1.645,2.253-1.788,3.075a6.217,6.217,0,0,0,.644,3.969,5.263,5.263,0,0,0,2.575,2.825,4.635,4.635,0,0,0,2.932.25,42.718,42.718,0,0,0,2.324,5.114c1.681,3.218,3.254,6.186,6.294,8.833a20.2,20.2,0,0,0,5.9,3.576,13.215,13.215,0,0,1,1.788,4.112,12.731,12.731,0,0,1,.393,3.576,10.608,10.608,0,0,0,4.863,1.144,11.286,11.286,0,0,0,7.581-3.326,32.308,32.308,0,0,1-1.538-7.438c-.107-1.323-.143-2.575-.143-3.719a20.991,20.991,0,0,0,3.576-5.114,22.075,22.075,0,0,0,2.324-9.619,4.963,4.963,0,0,0,2.575-.25,5.209,5.209,0,0,0,2.575-2.682,7.813,7.813,0,0,0,.25-6.294c-.322-.679-.858-1.931-1.931-2.038a2.269,2.269,0,0,0-1.681.787c-1.466-1.752-4.22-5.006-8.082-9.476-3.326-3.9-5.435-6.329-8.976-8.833C621.982,407.544,620.837,406.865,620.05,406.4Z" transform="translate(-241.787 3259.685)" fill="#fff"/>
    <path id="Path_585" data-name="Path 585" d="M644.112,505.172c-.358.822,1.323,2.289,2.11,2.9a7.6,7.6,0,0,0,4.041,1.43,8.1,8.1,0,0,0,5.471-1.359,6.474,6.474,0,0,0,2.61-3.361c.393-1.395.286-3.326-.465-3.647-.572-.215-1.109.5-2.324,1.359a14.13,14.13,0,0,1-6.258,2.11C646.078,505.1,644.469,504.457,644.112,505.172Z" transform="translate(-270.783 3198.854)"/>
    <g id="Group_316" data-name="Group 316" transform="translate(361.972 3693.932)">
      <g id="Group_315" data-name="Group 315">
        <path id="Path_586" data-name="Path 586" d="M612.463,486.108a38.55,38.55,0,0,0,6.794,14.983c3.039,3.9,7.545,7.652,12.8,7.152,4.863-.465,8.833-4.255,11.407-8.117a26.2,26.2,0,0,0,4.363-15.341c-.036-.679-1.109-.679-1.073,0A25.248,25.248,0,0,1,643,498.838c-2.467,3.969-6.544,8.153-11.515,8.368-5.257.215-9.583-4.077-12.373-8.082a39.333,39.333,0,0,1-5.65-13.338c-.143-.644-1.18-.358-1,.322Z" transform="translate(-612.442 -484.275)" fill="#161616"/>
      </g>
    </g>
    <g id="Group_318" data-name="Group 318" transform="translate(377.11 3716.595)">
      <g id="Group_317" data-name="Group 317">
        <path id="Path_587" data-name="Path 587" d="M654.856,548.456A13.442,13.442,0,0,1,657.108,556a.537.537,0,0,0,1.073,0,14.744,14.744,0,0,0-2.4-8.082.537.537,0,0,0-.93.536Z" transform="translate(-654.775 -547.652)" fill="#161616"/>
      </g>
    </g>
    <g id="Group_320" data-name="Group 320" transform="translate(379.677 3721.897)">
      <g id="Group_319" data-name="Group 319">
        <path id="Path_588" data-name="Path 588" d="M662.22,565.955a10.056,10.056,0,0,0,12.981-2.718c.429-.536-.5-1.073-.93-.536a8.936,8.936,0,0,1-11.515,2.324c-.608-.322-1.144.608-.536.93Z" transform="translate(-661.952 -562.479)" fill="#161616"/>
      </g>
    </g>
    <g id="Group_322" data-name="Group 322" transform="translate(390.243 3712.071)">
      <g id="Group_321" data-name="Group 321">
        <path id="Path_589" data-name="Path 589" d="M691.5,535.536a31.28,31.28,0,0,0,1.573,9.583c.215.644,1.252.358,1.037-.286a31.643,31.643,0,0,1-1.538-9.3.536.536,0,0,0-1.073,0Z" transform="translate(-691.5 -535)" fill="#161616"/>
      </g>
    </g>
    <g id="Group_324" data-name="Group 324" transform="translate(356.597 3689.122)">
      <g id="Group_323" data-name="Group 323">
        <path id="Path_590" data-name="Path 590" d="M603.879,480.864c-.465.5-1.609.322-2.146.036a4.569,4.569,0,0,1-1.144-.858,6.841,6.841,0,0,1-1.645-2.4c-.715-1.681-1.037-6.508,2.146-5.65a.538.538,0,0,0,.286-1.037c-3.934-1.037-4.541,4.184-3.54,6.794.787,2.11,4.4,6.472,6.83,3.862.429-.5-.322-1.252-.787-.751Z" transform="translate(-597.411 -470.824)" fill="#161616"/>
      </g>
    </g>
    <g id="Group_326" data-name="Group 326" transform="translate(396.327 3685.273)">
      <g id="Group_325" data-name="Group 325">
        <path id="Path_591" data-name="Path 591" d="M711.191,461.434c.429-1.43,2.289,1.323,2.5,1.824a7.3,7.3,0,0,1,.393,3.612c-.286,2.432-2.217,4.756-4.9,4.077a.538.538,0,0,0-.286,1.037c4.327,1.109,6.651-3.4,6.258-7.08-.179-1.609-.822-3.683-2.36-4.541-1-.536-2.289-.393-2.646.751a.543.543,0,0,0,1.037.322Z" transform="translate(-708.514 -460.061)" fill="#161616"/>
      </g>
    </g>
    <g id="Group_328" data-name="Group 328" transform="translate(365.895 3673.944)">
      <g id="Group_327" data-name="Group 327">
        <path id="Path_592" data-name="Path 592" d="M624.41,433.5a7.61,7.61,0,0,1,5.757-4.077c.679-.107.393-1.144-.286-1.037a8.6,8.6,0,0,0-6.4,4.577c-.322.608.608,1.144.93.536Z" transform="translate(-623.413 -428.378)" fill="#161616"/>
      </g>
    </g>
    <g id="Group_330" data-name="Group 330" transform="translate(382.738 3672.311)">
      <g id="Group_329" data-name="Group 329">
        <path id="Path_593" data-name="Path 593" d="M671.188,425.06a6.541,6.541,0,0,1,7.366,3.5c.322.608,1.216.072.93-.536a7.6,7.6,0,0,0-8.582-4.005.538.538,0,0,0,.286,1.037Z" transform="translate(-670.514 -423.812)" fill="#161616"/>
      </g>
    </g>
    <g id="Group_332" data-name="Group 332" transform="translate(375.609 3677.29)">
      <g id="Group_331" data-name="Group 331">
        <path id="Path_594" data-name="Path 594" d="M650.586,438.4a41.644,41.644,0,0,1,.465,11.55c-.143,1.18-.715,2.861-.179,4.041.572,1.287,2.11,2.4,3.075,3.4.465.5,1.252-.25.751-.751-.644-.679-1.287-1.323-1.931-2a2.548,2.548,0,0,1-.894-2.861c.179-1.359.358-2.753.429-4.148a42.006,42.006,0,0,0-.679-9.476c-.107-.715-1.144-.429-1.037.25Z" transform="translate(-650.578 -437.735)" fill="#161616"/>
      </g>
    </g>
    <g id="Group_334" data-name="Group 334" transform="translate(369.386 3681.94)">
      <g id="Group_333" data-name="Group 333">
        <path id="Path_595" data-name="Path 595" d="M634.9,455.946a4.543,4.543,0,0,1-.715-2.789c0-.215.143-1.144.322-1.18a6.694,6.694,0,0,1,.322,1.395,9.627,9.627,0,0,1,.107,1.43c0,.143-.036,1.323-.036.608-.036-1.037.036-2.074.071-3.111-.358.036-.715.107-1.037.143a20.967,20.967,0,0,1,.286,3.361h1.073v-.429a.537.537,0,0,0-1.073,0v.429a.537.537,0,0,0,1.073,0,20.952,20.952,0,0,0-.322-3.647c-.107-.608-1.037-.429-1.037.143a23.406,23.406,0,0,0-.036,3.54,1.184,1.184,0,0,0,.93,1.144c1.788.358,1.252-3.147,1.109-4.005-.107-.679-.215-1.716-.858-2.11a1.062,1.062,0,0,0-1.43.5c-.894,1.5-.393,3.719.429,5.078.25.608,1.18.072.822-.5Z" transform="translate(-633.175 -450.739)" fill="#161616"/>
      </g>
    </g>
    <g id="Group_336" data-name="Group 336" transform="translate(385.907 3680.045)">
      <g id="Group_335" data-name="Group 335">
        <path id="Path_596" data-name="Path 596" d="M681.1,450.646a4.543,4.543,0,0,1-.715-2.789c0-.215.143-1.144.322-1.18a6.7,6.7,0,0,1,.322,1.395,9.636,9.636,0,0,1,.107,1.43c0,.143-.036,1.323-.036.608-.036-1.037.036-2.074.072-3.111-.358.036-.715.107-1.037.143a20.974,20.974,0,0,1,.286,3.361h1.073v-.429a.537.537,0,0,0-1.073,0v.429a.537.537,0,0,0,1.073,0,20.946,20.946,0,0,0-.322-3.647c-.107-.608-1.037-.429-1.037.143a23.4,23.4,0,0,0-.036,3.54,1.184,1.184,0,0,0,.93,1.144c1.788.358,1.252-3.147,1.109-4.005-.107-.679-.214-1.716-.858-2.11a1.062,1.062,0,0,0-1.43.5c-.894,1.5-.393,3.719.429,5.078.25.644,1.18.107.822-.5Z" transform="translate(-679.375 -445.439)" fill="#161616"/>
      </g>
    </g>
    <g id="Group_338" data-name="Group 338" transform="translate(365.31 3689.364)">
      <g id="Group_337" data-name="Group 337">
        <path id="Path_597" data-name="Path 597" d="M622.285,472.573a.537.537,0,0,0,0-1.073.537.537,0,0,0,0,1.073Z" transform="translate(-621.775 -471.5)" fill="#161616"/>
      </g>
    </g>
    <g id="Group_340" data-name="Group 340" transform="translate(369.502 3690.151)">
      <g id="Group_339" data-name="Group 339">
        <path id="Path_598" data-name="Path 598" d="M634.036,474.773h.143a.536.536,0,0,0,0-1.073h-.143a.55.55,0,0,0-.536.536.527.527,0,0,0,.536.536Z" transform="translate(-633.5 -473.7)" fill="#161616"/>
      </g>
    </g>
    <g id="Group_342" data-name="Group 342" transform="translate(367.012 3693.441)">
      <g id="Group_341" data-name="Group 341">
        <path id="Path_599" data-name="Path 599" d="M627.06,483.973a.537.537,0,0,0,0-1.073.537.537,0,0,0,0,1.073Z" transform="translate(-626.537 -482.9)" fill="#161616"/>
      </g>
    </g>
    <g id="Group_344" data-name="Group 344" transform="translate(387.31 3688.828)">
      <g id="Group_343" data-name="Group 343">
        <path id="Path_600" data-name="Path 600" d="M683.836,471.073h.143a.536.536,0,0,0,0-1.073h-.143a.55.55,0,0,0-.536.536.527.527,0,0,0,.536.536Z" transform="translate(-683.3 -470)" fill="#161616"/>
      </g>
    </g>
    <g id="Group_346" data-name="Group 346" transform="translate(391.271 3686.181)">
      <g id="Group_345" data-name="Group 345">
        <path id="Path_601" data-name="Path 601" d="M694.885,463.673a.537.537,0,0,0,0-1.073.537.537,0,0,0,0,1.073Z" transform="translate(-694.375 -462.6)" fill="#161616"/>
      </g>
    </g>
    <g id="Group_348" data-name="Group 348" transform="translate(390.708 3689.078)">
      <g id="Group_347" data-name="Group 347">
        <path id="Path_602" data-name="Path 602" d="M693.336,471.773h.143a.536.536,0,0,0,0-1.073h-.143a.55.55,0,0,0-.536.536.577.577,0,0,0,.536.536Z" transform="translate(-692.8 -470.7)" fill="#161616"/>
      </g>
    </g>
    <g id="Group_350" data-name="Group 350" transform="translate(371.925 3697.536)">
      <g id="Group_349" data-name="Group 349">
        <path id="Path_603" data-name="Path 603" d="M642.572,501.664c-.572-.822-1.5-2-1.109-3.075.465-1.216,1.931-1.037,2.9-.894a6.832,6.832,0,0,0,3.29.036,15.1,15.1,0,0,0,2.61-1.359c2.038-1.144,4.434-1.252,5.078,1.43,1.824,7.331-11.121,9.4-13.124,2.968-.215-.644-1.252-.393-1.037.286,2.467,7.9,17.772,4.971,15.09-3.79a3.909,3.909,0,0,0-3.147-2.9c-2.575-.25-4.255,2.324-6.723,2.5-1.824.143-4.041-1.252-5.507.465-1.323,1.538-.25,3.5.715,4.863.429.572,1.359.036.965-.536Z" transform="translate(-640.274 -494.352)" fill="#161616"/>
      </g>
    </g>
    <g id="Group_352" data-name="Group 352" transform="translate(372.11 3699.127)">
      <g id="Group_351" data-name="Group 351">
        <path id="Path_604" data-name="Path 604" d="M640.831,502.485c.787,2.181,4.72,1.5,6.437,1.252A18.043,18.043,0,0,0,656.1,499.7c.536-.429-.215-1.216-.751-.751a16.554,16.554,0,0,1-6.365,3.361c-1.037.286-6.508,1.5-7.08-.072-.286-.679-1.323-.393-1.073.25Z" transform="translate(-640.792 -498.802)" fill="#161616"/>
      </g>
    </g>
    <g id="Group_354" data-name="Group 354" transform="translate(378.125 3712.685)">
      <g id="Group_353" data-name="Group 353">
        <path id="Path_605" data-name="Path 605" d="M658,542.539c4.184,1.073,9.762-1.573,12.122-5.042.393-.572-.536-1.109-.93-.536-2.074,3.04-7.259,5.471-10.907,4.541a.538.538,0,0,0-.286,1.037Z" transform="translate(-657.614 -536.716)" fill="#161616"/>
      </g>
    </g>
    <g id="Group_356" data-name="Group 356" transform="translate(378.64 3713.52)">
      <g id="Group_355" data-name="Group 355">
        <path id="Path_606" data-name="Path 606" d="M659.32,544.362c3.719,2.324,9.834-.966,11.622-4.506.322-.608-.608-1.144-.93-.536-1.5,3-6.973,6.115-10.156,4.148a.521.521,0,1,0-.536.894Z" transform="translate(-659.052 -539.052)" fill="#161616"/>
      </g>
    </g>
    <path id="Path_607" data-name="Path 607" d="M675.09,447.9a57.383,57.383,0,0,1,.787,5.793c.5,6.58,1.359,17.594-5.292,24.924a20.8,20.8,0,0,1-10.084,5.936,30.107,30.107,0,0,0,6.329-.894,22.693,22.693,0,0,0,3.218-1.037c.143,3.183.25,6.365.393,9.548,1.216-.787,2.4-1.538,3.612-2.324a15.2,15.2,0,0,1-1.43-8.26,22.264,22.264,0,0,1,2.181-6.58,29.691,29.691,0,0,1,2.36-4.22,4.812,4.812,0,0,0,.751,2.289c2.181,3.254,9.011,3.576,13.3.787,3.969-2.575,5.9-7.8,4.9-13.159a16.2,16.2,0,0,1,2.074,2.074c.536.644,1.931,2.5,3.862,9.047a35.744,35.744,0,0,1,1.073,4.112,18.282,18.282,0,0,1-.143,7.223,16.731,16.731,0,0,1-6.258,9.19,18.942,18.942,0,0,1-7.08,3.29c-1.788.393-7.152,1.681-12.194-1.252-1.9-1.109-2.932-1.931-3.5-2.932a6.944,6.944,0,0,1-.751-2.932c-.322-4.9-.465-7.366-.143-9.047.965-4.863,3.147-5.364,4.363-10.907a26.789,26.789,0,0,0,.572-4.756,4.648,4.648,0,0,0,5.042-2.539c1.287-2.038,1.859-5.686-.143-7.366a4.271,4.271,0,0,0-3.218-.858C678.2,451.333,676.663,449.616,675.09,447.9Z" transform="translate(-281.343 3233.025)" fill="#3f3f3f" opacity="0.2"/>
    <path id="Path_608" data-name="Path 608" d="M653.9,480.3c1.824.536,3.683,1.109,5.507,1.645-.465.429-.93.822-1.43,1.252-.465.393-.894.715-1.359,1.073a7.554,7.554,0,0,1-2.038-2.324A5.952,5.952,0,0,1,653.9,480.3Z" transform="translate(-277.103 3212.211)" fill="#3f3f3f" opacity="0.13"/>
    <path id="Path_609" data-name="Path 609" d="M564.631,489.01c-3.9,13.767-1,24.888,4.828,27.32,4.577,1.9,12.838-.787,14.375-5.471.214-.608.429-1.681-.393-4.971a39.019,39.019,0,0,0-5.471-12.23,8.617,8.617,0,0,1-2.038-1.788,8.113,8.113,0,0,1-1.716-3.969c1.037,1.073,2.539,2.432,3.5,2a2.613,2.613,0,0,0,1.18-3,44.467,44.467,0,0,0,1.752,6.508c1.216,3.469,2.432,6.83,5.257,10.013A21.074,21.074,0,0,0,594.025,509a11.956,11.956,0,0,1,2.467,5.65,12.407,12.407,0,0,1-.322,4.863,13.877,13.877,0,0,1-3.826,6.365,15.118,15.118,0,0,1-8.511,3.9c-9.691,1.287-17.2-7.188-18.523-8.654a21.647,21.647,0,0,1-4.756-7.867c-2-6.151-.465-11.693.644-15.734A39.981,39.981,0,0,1,564.631,489.01Z" transform="translate(-216.512 3207.971)" fill="#3f3f3f" opacity="0.16"/>
  </g>
</svg>
