<svg xmlns="http://www.w3.org/2000/svg" width="298.001" height="202.311" viewBox="0 0 298.001 202.311">
  <g id="Group_912" data-name="Group 912" transform="translate(-965 -2099.346)">
    <rect id="Rectangle" width="138" height="138" rx="69" transform="translate(965 2145.5)" fill="#c2e3a1" opacity="0.21"/>
    <path id="Path_193" data-name="Path 193" d="M143.622,144.762a15.607,15.607,0,0,1-3.427-4.625,42.529,42.529,0,0,1,13.442-2.923c-2.755,2.667-5.195,5.655-7.769,8.5-.5-.253-1.005-.509-1.512-.755" transform="translate(1015.263 2053.453)" fill-rule="evenodd"/>
    <path id="Path_194" data-name="Path 194" d="M153.663,135.761a1.167,1.167,0,0,1,.62.484,1.181,1.181,0,0,1,.175.769c-.148.723-.119.346-2.686,3.108a61.391,61.391,0,0,1-4.827,5.077c-1.068.988-.988.915-1.269.987-.518.046-.469-.068-1.935-1.011h0l-.122-.154-.3.121-.552-.177v0a14.7,14.7,0,0,1-3.608-3.98c-.348-.624-.53-.874-.447-1.449a1.187,1.187,0,0,1,.406-.648,45.911,45.911,0,0,1,11.261-2.984A16.509,16.509,0,0,1,153.663,135.761Zm-3.429,2.521a44.211,44.211,0,0,0-8.769,2.189c.007.008.082.148.088.158a18.677,18.677,0,0,0,2.237,3.252l.065.177c.572,0,.223-.059,1.352.328a40.231,40.231,0,0,1,3.25-4.111c1.98-2.216,1.868-2,1.781-1.994Z" transform="translate(1015.61 2053.795)" fill-rule="evenodd"/>
    <path id="Path_195" data-name="Path 195" d="M201.932,169.733c-1.945,2.512-3.976,4.951-5.927,7.462,2.219.41,4.564.4,6.817.606a16.914,16.914,0,0,0-.886-8.139" transform="translate(1002.384 2045.966)" fill-rule="evenodd"/>
    <path id="Path_196" data-name="Path 196" d="M202.034,168.951l.005.006.245.462-.005.027c.055.105.111.192.267.5a12.541,12.541,0,0,1,1.107,7.688,1.188,1.188,0,0,1-.892,1.108c-.272.048-.077.06-1.432-.05-1.418-.09-3.331-.182-4.445-.325-1.482-.192-1.615-.21-1.98-.466a1.177,1.177,0,0,1-.286-1.457c.3-.458,2.962-3.759,3.3-4.172,1.445-1.658,2.825-2.909,3.082-3.194.347-.166.275-.108.357-.2h0l.046,0C201.561,168.808,201.438,168.808,202.034,168.951Zm-4.182,7.158c3.524.254,3.02.194,3.562.236a46.368,46.368,0,0,0-.154-4.827,32.436,32.436,0,0,1-3.408,4.591Z" transform="translate(1002.736 2046.156)" fill-rule="evenodd"/>
    <path id="Path_197" data-name="Path 197" d="M142.267,88.2a42.557,42.557,0,0,1,10.5,20.468,127.037,127.037,0,0,0-13.077,18.822,34.422,34.422,0,0,1,16.035-2.846c16.871,1.565,32.842,16.558,34.165,33.774,2.73-3.454,5.6-6.8,8.4-10.194,1.788-2.172,3.377-4.572,5.369-6.57-2.667-4.7-2.38-10.426-1.942-15.61.957-11.318,4.6-23.625,10.664-33.367-3.555,1.048-8.056,2.462-11.778,1.477-4.741-1.258-6.923-5.538-3.607-9.575-5.835-2.332-12.388-2.683-18.6-2.78a95.138,95.138,0,0,0-36.831,6.737" transform="translate(1015.38 2066.245)" fill="#80c43b" fill-rule="evenodd"/>
    <path id="Path_198" data-name="Path 198" d="M223.892,46.432l.308.442c-.095.937.129.039-.908,2.4-2.765,6.248-3.175,6.718-4.077,9.365-1.625,4.931-1.769,9.38,2.56,12.292,1.072.708,1.275.635,1.495,1.336a1.339,1.339,0,0,1-.338,1.163c-.94,1.432-2.025,3.869-2.979,5.642a.985.985,0,0,1-1.145.4,10.963,10.963,0,0,1-3.482-2.049L215.064,77l.062-.442,0-.007.375-.241c.723.095.231-.034,1.372.5a8.143,8.143,0,0,0,1.6.556,28.588,28.588,0,0,1,1.077-2.713c.3-.611.572-1.134.934-1.751-8.646-5.538-3.611-17.8,2.335-26.165.065-.09-.008-.022.519-.375l.538.068Z" transform="translate(997.986 2074.419)" fill="#00004d" fill-rule="evenodd"/>
    <ellipse id="Ellipse_10" data-name="Ellipse 10" cx="1.855" cy="1.175" rx="1.855" ry="1.175" transform="matrix(0.415, -0.91, 0.91, 0.415, 1228.19, 2132.947)" fill="#00004d"/>
    <path id="Path_199" data-name="Path 199" d="M270.791,140.492c2.851-7.685.779-16.273-2.977-23.254-1.644-3.052-5.445-6.856-9.211-6.953-1.057,7.512-2.01,15.208-3.9,22.568,5.606.146,12.3,3.18,15.669,7.769" transform="translate(988.839 2059.667)" fill="#80c43b" fill-rule="evenodd"/>
    <path id="Path_200" data-name="Path 200" d="M247.168,51.29a8.432,8.432,0,0,0-5.518,1.19c-2.077-2.029-1.655-4.972-1.1-7.565-5.525.856-11.291.035-15.163-3.995a13.677,13.677,0,0,1-3.214-13.746c1.707-5.154,6.923-8.67,12.226-6.511,5.964,2.429,7.428,9.751,8.7,15.317a13.679,13.679,0,0,1,5.552,4.477c2.326,3.481,1.231,7.936-1.582,10.669" transform="translate(996.498 2080.499)" fill="#00004d" fill-rule="evenodd"/>
    <path id="Path_201" data-name="Path 201" d="M235.686,19.8c5.206,2.9,6.78,9.289,8.09,15.042a13.942,13.942,0,0,1,4.966,4.045,8.965,8.965,0,0,1-.635,11.356c-.692.805-.624.558-.558.807v.008l-.291.474c-.73.2-.4.154-.983.115a6.589,6.589,0,0,0-2.495.346c-2.028.692-1.945,1.215-2.763,1.031a3.967,3.967,0,0,1-1.356-1.407,8.477,8.477,0,0,1-.836-5.712A18.538,18.538,0,0,1,226.6,43.391a14.97,14.97,0,0,1-6.6-13.194C220.523,21.275,228.622,15.869,235.686,19.8Zm-6.295,1.194c-6.341,1.34-9.664,10.491-4.615,17.446,2.812,3.815,6.952,5.259,11.652,5.258,3.7.019,3.778-.636,4.592.1.6.752.148.932-.154,3.308a5.467,5.467,0,0,0,.688,3.882,8.992,8.992,0,0,1,4.923-.846,7.912,7.912,0,0,0,1.615-8.3,10.628,10.628,0,0,0-4.8-4.582c-2.327-1.268-1.108-.052-2.887-6.26a21.084,21.084,0,0,0-2.673-6.154c-2.3-3.311-5.588-4.427-8.345-3.845Z" transform="translate(996.853 2080.849)" fill="#00004d" fill-rule="evenodd"/>
    <path id="Path_202" data-name="Path 202" d="M224.954,79.559a1.223,1.223,0,0,1,.509.2,8.819,8.819,0,0,0,3.259,1.058c.062.031.088.043.154.072l.118.072a8.452,8.452,0,0,1,1.29.893c-.509.608-.568.8-1.3,1.108-.507.21-.743.172-1.6.008a10.13,10.13,0,0,1-2.923-1.077,1.933,1.933,0,0,1-.677-.512h0a3.186,3.186,0,0,1-.422-.688c-.091-.19-.062-.011-.124-1.2A3.761,3.761,0,0,1,224.954,79.559Z" transform="translate(996.098 2066.79)" fill="#00004d" fill-rule="evenodd"/>
    <path id="Path_203" data-name="Path 203" d="M230.862,69.489a2.455,2.455,0,0,1-.086,2.056,4.125,4.125,0,0,1-1.369,1.125,3.456,3.456,0,0,1-2.79.385,2.357,2.357,0,0,1-1.332-1.121,2.145,2.145,0,0,1-.112-1.242c.018-.109-.052.025.582-.975,1.462.928.632.4,1.115.769a2.1,2.1,0,0,0,.414.259c.205.272.826-.028,1.117-.205C229.337,69.959,228.4,70.16,230.862,69.489Z" transform="translate(995.663 2069.082)" fill="#00004d" fill-rule="evenodd"/>
    <path id="Path_204" data-name="Path 204" d="M228.052,54.717l.005.007.1.472a2.686,2.686,0,0,1-.615,1.154c-.886,1.322-1.484,1.551-3.17,3.692-.167.215-.635.838-.769,1.008a5.466,5.466,0,0,1,1.538,1.224c.417.462.287.231.595,1.242-1.256.275-.579.226-2.352-.094a3.45,3.45,0,0,1-2.417-1.5,1.887,1.887,0,0,1,.411-1.8,29.783,29.783,0,0,1,3.312-3.991,5.474,5.474,0,0,1,1.733-1.242,2.308,2.308,0,0,1,1.18-.371Z" transform="translate(996.641 2072.537)" fill="#00004d" fill-rule="evenodd"/>
    <path id="Path_205" data-name="Path 205" d="M96.187,226.2c.47-9.415-1.2-18.864-.235-28.269-3.708,3.554-8.077,6.457-11.865,9.975-8.462,7.854-15.742,16.642-23.186,25.407,6.78,3.255,11.218,10.851,10.064,18.362,1.513-3.9,4.462-7.37,7.183-10.484C83.4,235.168,96.187,226.2,96.187,226.2Z" transform="translate(1033.562 2039.442)" fill="#00004d" fill-rule="evenodd"/>
    <path id="Path_206" data-name="Path 206" d="M95.924,196.445a1.2,1.2,0,0,1,.649.468c.37.663.122.39-.046,4.236-.346,8.957.65,16.637.052,24.735-.413-.022-1.375-.072-.127-.007-.054.447.139.115-3.873,3.268-3.417,2.713-6.734,5.451-9.923,8.4-3.715,3.468-8.856,9.165-10.812,13.853-.223.55-.25.665-.657.941a1.172,1.172,0,0,1-1.468-.259,1.289,1.289,0,0,1-.235-1.187c.9-6.565-2.885-13.235-8.357-16.308-1.268-.713-1.446-.634-1.705-1.3a1.193,1.193,0,0,1,.032-.769c.175-.355-.308.269,4.726-5.671,18.335-21.462,21.308-22.107,28.508-28.238C95.064,196.585,94.961,196.258,95.924,196.445Zm-1.893,4.12c-8.051,6.85-9.538,5.978-31.642,32.039a19.487,19.487,0,0,1,9.415,13.93,56.182,56.182,0,0,1,7.334-8.723A134.1,134.1,0,0,1,95.094,225.6v0h0c.148-6.488-.708-13.128-.9-19.164C93.957,200.073,94.471,200.19,94.031,200.565Z" transform="translate(1033.914 2039.795)" fill="#00004d" fill-rule="evenodd"/>
    <path id="Path_207" data-name="Path 207" d="M135.266,208.777a189.184,189.184,0,0,0,1.407-37.556c-.438-6.065-3.38-14.085-10.344-12.654-8.748,1.8-11.414,10.738-11.5,18.7-.163,16.154,1.122,32.409,1.468,48.574,2.418-6.987,4.3-15.568,8.905-21.545,5.289-6.869,9.1-1.472,10.061,4.494" transform="translate(1021.119 2048.564)" fill="#00004d" fill-rule="evenodd"/>
    <path id="Path_208" data-name="Path 208" d="M131.619,158.044a9.325,9.325,0,0,1,2.284,2.095,15.112,15.112,0,0,1,2.367,4.512,26.723,26.723,0,0,1,1.342,7.883,167.62,167.62,0,0,1-1.7,34.263c-.3,2.052-.171,1.591-.545,2.219l-.538.154h-.008l-.483-.285-.154-.547a.953.953,0,0,0-.038-.6c-.523-2.128-1.665-5.195-3.67-5.993-1.8-.718-3.68,1.236-4.84,2.8-4.053,5.481-5.923,13.435-8.282,20.5-.312.923-.407,1.528-1.374,1.628a1.2,1.2,0,0,1-.76-.258,1.171,1.171,0,0,1-.415-.688c-.026-.231-.048-1.6-.142-4.743-.532-16.385-1.441-28.3-1.352-43.692.067-5.472,1.038-11.2,4.591-15.562C121.1,157.821,127.378,155.3,131.619,158.044Zm-3.361,1.231c-1.948-.263-5.4.692-7.959,3.294-3.082,3.192-4.289,8.085-4.573,12.546-.5,8.056.853,33.566,1.2,43.489,1.692-5.341,4.06-11.949,7.884-16.1a7.542,7.542,0,0,1,4.077-2.574,4.024,4.024,0,0,1,2.8.6,5.8,5.8,0,0,1,1.412,1.308c1.572,2.121,1.43,3.165,1.495,2.469a216.315,216.315,0,0,0,.877-26.995c-.135-4.518-.222-8.4-1.4-11.814-1-2.915-2.765-5.813-5.812-6.222Z" transform="translate(1021.469 2048.912)" fill="#00004d" fill-rule="evenodd"/>
    <path id="Path_209" data-name="Path 209" d="M184.845,175.521c-.862-3.214-2.948-5.7-4.946-8.322-8.645-11.308-21.769-15.723-35.108-18.485-1.06,1.215-2.077,2.447-3.065,3.723,8.56,3.445,8.6,12.42,7.892,20.436-.807,9.111-1.248,18.27-2.025,27.389,5.642-1.692,11.9-1.862,17.236-4.492C173.315,191.586,184.845,175.521,184.845,175.521Z" transform="translate(1014.91 2050.799)" fill="#00004d" fill-rule="evenodd"/>
    <path id="Path_210" data-name="Path 210" d="M144.989,147.281c11.455,2.422,21.979,5.735,30.555,13.642a42.017,42.017,0,0,1,5.664,6.589,21.648,21.648,0,0,1,4,7.462l-.123.035c.077.385-.082.506-.38.936a107.908,107.908,0,0,1-12.467,15.038c-7.486,7.288-11.485,7.15-21.39,9.231-3.492.738-3.675,1.26-4.491.48-.412-.554-.308-.692-.185-2.162.615-7.567,1-14.59,1.53-21.4.643-8.478,2.392-18.685-5-23.077-1.747-1.037-2.4-.818-2.512-1.954.044-.564.017-.485,1.774-2.644C143.861,147.172,143.841,147.038,144.989,147.281Zm-1.769,4.365c7.462,4.11,7.963,11.923,7.265,20.41-.665,7.735-.488,6.194-1.935,26.279h0c6.322-1.6,12.267-1.565,18.125-5.609,5.454-3.908,11.6-10.769,15.769-15.955.971-1.2,1.182-1.492,1.268-1.6a18.69,18.69,0,0,0-3.388-5.83c-7-8.969-14.878-15.308-35.451-19.681-1.115,1.278-1.565,1.88-1.658,1.984Z" transform="translate(1015.264 2051.15)" fill="#00004d" fill-rule="evenodd"/>
    <path id="Path_211" data-name="Path 211" d="M250.281,60.316c.308.572.277.375.335,1.242.486,8.308-5.441,12.472-10.393,18.058a30.326,30.326,0,0,0-3.715,5.193c-7.889,12.936-13.941,26.869-12.837,41.846.391,4.545,1.057,8.575,3.491,12.428,2.265,3.288,5.415,5.585,11.892,6.244a23.866,23.866,0,0,0,5.823-.335c7.177-1.292,13.218-5.532,15.812-12.52.752-2.086.282-1.349.816-2.064l.455-.077h.007l.372.274c.1.538.126.333-.077,1.209-2.6,10.769-12.9,16.742-24.118,15.788-5.893-.724-10.7-3.048-13.615-8.329-1.979-3.345-2.78-7.93-3.145-11.8-1.05-11.788,2.188-22.825,7.359-33.469a131.467,131.467,0,0,1,7.272-12.829c4.855-7.107,12.912-10.436,13.077-19.12.014-1.462-.128-.818.154-1.656l.494-.26h.008Z" transform="translate(996.573 2071.24)" fill="#00004d" fill-rule="evenodd"/>
    <path id="Path_212" data-name="Path 212" d="M263.074,67.868a10.934,10.934,0,0,1,.236-1.794,13.452,13.452,0,0,0,.733-3.226c.2-2.222-.2-2.421-.135-4.568.013-.592-.084-.282.5-1.376h0l.472.085a2.155,2.155,0,0,1,.709.827,6.41,6.41,0,0,1,.564,1.218,13.088,13.088,0,0,1,.21,4.208,14.585,14.585,0,0,1-.594,2.862,4.248,4.248,0,0,1-1.327,2.154c-.349.337-.129.216-1.135.564C263.026,67.831,263.059,68,263.074,67.868Z" transform="translate(986.909 2071.987)" fill="#00004d" fill-rule="evenodd"/>
    <path id="Path_213" data-name="Path 213" d="M270.378,68.441a12.854,12.854,0,0,1,.73-2.714,13.472,13.472,0,0,0,.912-4.861,14.961,14.961,0,0,0-.3-2.6c-.269-2.408-.272-1.52-.178-2.467l.308-.38h.007l.5.016c.573.419.462.313.625.538a6.426,6.426,0,0,1,1.345,3.852c.268,3.5-.875,6.991-1.757,8.114a8.361,8.361,0,0,1-1.154,1.236l-.864.24C270.323,68.416,270.342,68.587,270.378,68.441Z" transform="translate(985.226 2072.328)" fill="#00004d" fill-rule="evenodd"/>
    <path id="Path_214" data-name="Path 214" d="M272.855,68.257c.154.466.316.445-.077,2.755a18.735,18.735,0,0,1-1.785,5.394c-3.462,6.769-8.519,6.528-10.755,11.639-5.853,13.44-6.088,26.165-9.217,42.186-.084.422-.015.252-.322.752-1.321.395-1.052.112-.366-8.764.6-7.538,2.5-19.9,5.362-28.774a48.105,48.105,0,0,1,3.235-7.957c2.308-3.566,5.769-4.482,8.649-7.942a18.311,18.311,0,0,0,3.9-8.442c.106-.6.005-.338.366-.956l.527-.164h.008Z" transform="translate(989.978 2069.429)" fill="#00004d" fill-rule="evenodd"/>
    <path id="Path_215" data-name="Path 215" d="M254.995,63.372c-6.308-1.556-13.009,8.02-9.9,11.492,1.518,1.692,3.572.322,4.752-1.082,2.324-2.765,5.188-6.726,4.7-10.57" transform="translate(991.236 2070.533)" fill="#00004d" fill-rule="evenodd"/>
    <path id="Path_216" data-name="Path 216" d="M254.609,62.319c.28.084.154.019.662.431l.1.532v.007c-.385.494-.3.419-.408.442a10.689,10.689,0,0,1-1.828,6.867,33.868,33.868,0,0,1-3,3.982c-2.753,2.945-5.684,2.362-6.923-.194C240.989,69.62,247.873,60.352,254.609,62.319ZM249.3,65.557h0a11.061,11.061,0,0,0-1.747,1.581c-1.385,1.551-3.251,4.832-2.062,6.52a1.043,1.043,0,0,0,1.385.448,7.03,7.03,0,0,0,2.588-2.405,26.245,26.245,0,0,0,3.508-5.775,9.058,9.058,0,0,0,.566-2.138A7.76,7.76,0,0,0,249.3,65.55Z" transform="translate(991.589 2070.799)" fill="#00004d" fill-rule="evenodd"/>
    <path id="Path_217" data-name="Path 217" d="M214.965,62.243a18.364,18.364,0,0,1,3.408-9.294,4.877,4.877,0,0,0-6.818-3.808,9.847,9.847,0,0,0-5.115,6.2,7.625,7.625,0,0,0,1.032,6.313c2.039,2.682,5.5,2.323,7.571.052" transform="translate(1000.04 2073.875)" fill="#00004d" fill-rule="evenodd"/>
    <path id="Path_218" data-name="Path 218" d="M219.177,52.358c.132.986-.372.741-1.764,3.482a21.383,21.383,0,0,0-1.668,4.361c-.585,2.231-.146,1.367-.685,2.27l-.516.168h-.008l-.112-.064a5.783,5.783,0,0,1-4.055,1.628c-5.154-.1-8.121-7.645-3.246-13.657C211.789,44.786,218.375,47.227,219.177,52.358Zm-8.736-1.784a9.165,9.165,0,0,0-3.3,5.084c-1,5.04,3.165,8.288,6.757,5.555a16.258,16.258,0,0,1,2.88-8.9C216.158,49.852,213.21,48.546,210.441,50.574Z" transform="translate(1000.39 2074.222)" fill="#00004d" fill-rule="evenodd"/>
    <path id="Path_219" data-name="Path 219" d="M220.456,45.069a3.371,3.371,0,0,1,.094.626c-.017.231-.023.208-.168.4-1.1,1.462-.952,1.532-1.25,1.712a3.731,3.731,0,0,1-.516.188l-1.3-.721c-.015-.049-.055-.284-.064-.335-.02-.437-.124-.335.9-1.769.555-.769.435-.782,1.323-.846Z" transform="translate(997.484 2074.889)" fill="#00004d" fill-rule="evenodd"/>
    <path id="Path_220" data-name="Path 220" d="M263.875,43.7a9.176,9.176,0,0,1-.947,4.175c-.479,1.017-.462.9-.808,1.236l-.426.052h-.008l-.3-.3c-.188-1.257.094.279.127-4.245a14.963,14.963,0,0,0-.082-2.442,9.658,9.658,0,0,0-5.828-8.11,16.364,16.364,0,0,0-3.6-1.1c-.092-.017-.009.008-.557-.282l-.212-.477v-.008l.225-.473c.568-.278.412-.284,1.492-.34C259.4,31.1,263.836,37.192,263.875,43.7Z" transform="translate(989.64 2077.876)" fill="#00004d" fill-rule="evenodd"/>
    <path id="Path_226" data-name="Path 226" d="M124.058,75.994c3.753,5.919,4.834,12.668,7.481,16.879h0A11.907,11.907,0,0,0,135.02,96.9c.6.394.349.168.761.654l.008.441V98l-.329.3c-.447.015-.419.1-1.5-.357a10.287,10.287,0,0,1-4.415-3.821h0c-3.135-5.089-4.035-12.186-8.246-18v0a26.233,26.233,0,0,0-2.577-2.935,16.684,16.684,0,0,0-3.1-2.385h0l-.369-.446.008-.538V69.8l.405-.355.578-.007C119.347,70.635,121.574,72.121,124.058,75.994Z" transform="translate(1021.019 2069.093)" fill="#00004d" fill-rule="evenodd"/>
    <path id="Path_227" data-name="Path 227" d="M131.866,94.607a4,4,0,0,1,.722-.918h0a29.066,29.066,0,0,1,4.282-1.923,2.274,2.274,0,0,1,.8-.21h.009a7.481,7.481,0,0,1,1,.028l.943.472c-.584,1.166-.355.839-.886,1.312a3.356,3.356,0,0,1-.687.462c-2.952,1.063-3.888,1.715-4.4,1.865h0a2.344,2.344,0,0,0-.231.043h0a3.975,3.975,0,0,1-1.9-.15C131.842,94.575,131.774,94.755,131.866,94.607Z" transform="translate(1017.266 2063.991)" fill="#00004d" fill-rule="evenodd"/>
    <path id="Path_228" data-name="Path 228" d="M104.614,95.39c.468.789.135-.2,1.005,4.538a57.038,57.038,0,0,0,1.358,5.769c2.09,6.827,6.4,12.839,13.247,15.334a18.3,18.3,0,0,0,4.549.968,56.728,56.728,0,0,0,7.516.044l.492.148.248.378v.008l-.144.428c-.585.352-.068.19-2.805.774a19.008,19.008,0,0,1-8.248.149,20.266,20.266,0,0,1-4.808-1.711,21.2,21.2,0,0,1-5.417-3.955,29.541,29.541,0,0,1-7.868-16.527c-.21-2.009-.231-3.256-.3-5.127a1.7,1.7,0,0,1,.172-1.119l.473-.268h.008Z" transform="translate(1023.751 2063.144)" fill="#00004d" fill-rule="evenodd"/>
    <path id="Path_229" data-name="Path 229" d="M134.21,216.444c2.654,4.637,1.129,11.716-1.068,16.575a23.611,23.611,0,0,1-2.581,4.385h0c-1.256,1.7-2.9,3.662-3.538,5.641-.873,2.7-.376,6.448-3.442,8.668a5.38,5.38,0,0,1-2.033.853c-2.72.525-5.252-1.358-6.421-3.871-1.331-2.923-.923-6.318.148-9.354.994-2.706,1.237-2.417.955-2.505,1.5-5.615,4.308-13.626,7.657-18.422a13.916,13.916,0,0,1,3.41-3.53C129.99,212.91,132.655,213.726,134.21,216.444ZM117.5,237.306c-1.1,2.758-1.769,6.112-1,8.955.96,3.462,3.71,4.653,5.391,3.721,1.825-.764,2.086-3.626,2.415-5.574.643-3.692,1.973-5.2,4.362-8.4h0c3.365-4.641,4.87-10.6,4.555-14.6a9.671,9.671,0,0,0-.861-3.433,3.846,3.846,0,0,0-1.248-1.576,1.566,1.566,0,0,0-1.338-.195,8.4,8.4,0,0,0-2.992,2.288c-2.437,2.859-5.137,8.82-6.6,12.3C117.251,237.8,117.849,237.232,117.5,237.306Z" transform="translate(1021.241 2035.781)" fill="#00004d" fill-rule="evenodd"/>
    <path id="Path_230" data-name="Path 230" d="M69.324,263.692a2.337,2.337,0,0,1-.538.627h0a2.781,2.781,0,0,1-1.832.758,2.593,2.593,0,0,1,.025-2.013h0a2.453,2.453,0,0,1,.444-.755c.5-.692,1.226-1.632,1.76-2.291,1.27-1.587.912-1.084,1.267-1.378a6.551,6.551,0,0,1,1.963-.692C72.182,260.9,72.217,259.674,69.324,263.692Z" transform="translate(1032.209 2025.592)" fill="#00004d" fill-rule="evenodd"/>
    <path id="Path_231" data-name="Path 231" d="M49.929,228.888A144.114,144.114,0,0,1,56.8,248.623a58.173,58.173,0,0,1,1.644,9.56c.125,2.158,0,4.615-1.2,6.429a6.035,6.035,0,0,1-5.066,2.631,7.242,7.242,0,0,1-1.6-.186,8.869,8.869,0,0,1-5.035-3.545c-1.936-2.776-2.108-5.426-2.231-8.808-.131-3.738-.212-5.735-2.635-9.939h0c-2.515-4.4-6.579-8.822-6.877-14.973a15.224,15.224,0,0,1,.692-5.678C36.746,217.917,44.059,217.237,49.929,228.888ZM38.775,221.21c-.09.025-.022-.031-.278.308a4.881,4.881,0,0,0-1.231,1.022,6.761,6.761,0,0,0-1.424,3.749c-.982,9.218,5.935,13.3,8.923,21.7,1.823,5.615-.353,10.578,3.2,14.784a6.014,6.014,0,0,0,3.777,2.1,3.907,3.907,0,0,0,1.046-.032c1.758-.365,2.979-1.258,3.281-4.1a29.688,29.688,0,0,0-.615-7.26c-1.251-6.615-3.172-11.917-5.582-18.62a44.873,44.873,0,0,0-3.639-8.3c-1.614-2.624-4.491-6.167-7.458-5.358Z" transform="translate(1039.824 2034.414)" fill="#00004d" fill-rule="evenodd"/>
    <path id="Path_232" data-name="Path 232" d="M130.041,240.509a4.533,4.533,0,0,1,1.268.538c.344.2.2.077.87.858a3.416,3.416,0,0,1-1.908.852h0l-.282.045h0c-.878.062.441-.06-3.652-.13-2.531-.043-2.236.154-3.682-.285-.385-.117-.161.029-1.055-.808.841-.9.63-.738,1-.878a5.875,5.875,0,0,1,2.885-.385C126.377,240.314,129.495,240.375,130.041,240.509Z" transform="translate(1019.554 2029.661)" fill="#00004d" fill-rule="evenodd"/>
    <path id="Path_233" data-name="Path 233" d="M126.675,247.607a5.1,5.1,0,0,1,.725.334c.615.39.32.142,1.154.986a3.866,3.866,0,0,1-1.318.75,5.658,5.658,0,0,1-.762.2,7.823,7.823,0,0,1-1.3-.067c-3.909-.315-3.562.055-4.769-.369-.632-.237-.338-.036-1.267-.9l.716-.774a6.741,6.741,0,0,1,1.008-.38,3.5,3.5,0,0,1,1.148-.077A45.688,45.688,0,0,1,126.675,247.607Z" transform="translate(1020.123 2028.05)" fill="#00004d" fill-rule="evenodd"/>
    <path id="Path_234" data-name="Path 234" d="M51.524,251.083a3.758,3.758,0,0,1,1.175.475c.333.188.154.039.883.813a3.738,3.738,0,0,1-1.749.952,14.117,14.117,0,0,1-2.385.1c-1.047.016-2.63.154-2.722.163a2.886,2.886,0,0,1-.948.015c-1.219-.242-.923-.142-1.875-.9l.655-.827a5.553,5.553,0,0,1,1.509-.592A40.756,40.756,0,0,1,51.524,251.083Z" transform="translate(1037.484 2027.18)" fill="#00004d" fill-rule="evenodd"/>
    <path id="Path_235" data-name="Path 235" d="M52.957,260.733a2.8,2.8,0,0,1,.832.308c.558.4.09-.123,1.1.975a4.262,4.262,0,0,1-1.63.944h0l-.214.063h-.005c-.13.02-.082.012-.208.036h0c-3.941.077-4.231.567-5.5.217-.6-.186-.3,0-1.294-.817l.672-.815c.148-.072.263-.164.648-.342a2.5,2.5,0,0,1,1.133-.281A34.1,34.1,0,0,1,52.957,260.733Z" transform="translate(1036.993 2024.949)" fill="#00004d" fill-rule="evenodd"/>
    <path id="Path_236" data-name="Path 236" d="M167.284,95.93c.532,1.118.319.485.39,1.344.112,1.221.733,3.5-.822,5.131a58.609,58.609,0,0,0-6.05,6.325h0c-1.065,1.147-2.077,1.968-2.221,2.131l-.538.25c-.011,0-.495-.1-.505-.1l-.238-.452c.092-.615.059-.525.1-.615a18.881,18.881,0,0,1,1.26-2.249,53.282,53.282,0,0,1,4.671-5.2c2.438-2.365,1.933-1.35,2.365-3.774a7.826,7.826,0,0,1,.7-2.222C166.514,96.272,166.4,96.368,167.284,95.93Z" transform="translate(1011.316 2062.98)" fill="#00004d" fill-rule="evenodd"/>
    <path id="Path_237" data-name="Path 237" d="M83.129,93.372l.462.246.185.385v.008l-.212.368-.481.216a37.826,37.826,0,0,1-4.2.448c-14.547-.172-14.9-.264-18.064-1.019-.231-.052-.068.026-.666-.352l-.172-.488v-.008l.26-.448c.7-.279.319-.2,1.243-.252,5.488-.183-.587-.117,10.779.145C79.94,92.717,79.467,92.592,83.129,93.372Z" transform="translate(1033.773 2063.801)" fill="#c2e3a1" fill-rule="evenodd"/>
    <path id="Path_253" data-name="Path 253" d="M83.129,93.372l.462.246.185.385v.008l-.212.368-.481.216a37.826,37.826,0,0,1-4.2.448c-14.547-.172-14.9-.264-18.064-1.019-.231-.052-.068.026-.666-.352l-.172-.488v-.008l.26-.448c.7-.279.319-.2,1.243-.252,5.488-.183-.587-.117,10.779.145C79.94,92.717,79.467,92.592,83.129,93.372Z" transform="translate(1167.773 2143.801)" fill="#c2e3a1" fill-rule="evenodd"/>
    <path id="Path_238" data-name="Path 238" d="M77.691,107.5l.424.255.141.425v.008c-.409.661.243.527-5.468.485-2.631-.005-2.61-.1-8.555-.333-3.406-.131-10.04-.267-13.415-.417-10.291-.462-10.105-.884-14-1.585v0l-.479-.308-.147-.519V105.5l.283-.455c.654-.2.462-.174.867-.154C65.814,106.509,67.946,105.373,77.691,107.5Z" transform="translate(1039.263 2060.917)" fill="#c2e3a1" fill-rule="evenodd"/>
    <path id="Path_254" data-name="Path 254" d="M77.691,107.5l.424.255.141.425v.008c-.409.661.243.527-5.468.485-2.631-.005-2.61-.1-8.555-.333-3.406-.131-10.04-.267-13.415-.417-10.291-.462-10.105-.884-14-1.585v0l-.479-.308-.147-.519V105.5l.283-.455c.654-.2.462-.174.867-.154C65.814,106.509,67.946,105.373,77.691,107.5Z" transform="translate(1173.263 2140.917)" fill="#c2e3a1" fill-rule="evenodd"/>
    <path id="Path_239" data-name="Path 239" d="M78.825,118.824l.551.7-.725.516c-.279.011-2.437.136-2.643.125-2.679.041-3.755-.452-13.468-.231a23.919,23.919,0,0,1-4.923-.288c-.09-.015.014.018-.564-.255l-.231-.462v-.012l.2-.472.511-.281a38.13,38.13,0,0,1,3.8-.534C73.917,117.336,75.8,117.761,78.825,118.824Z" transform="translate(1034.503 2057.994)" fill="#c2e3a1" fill-rule="evenodd"/>
    <path id="Path_255" data-name="Path 255" d="M78.825,118.824l.551.7-.725.516c-.279.011-2.437.136-2.643.125-2.679.041-3.755-.452-13.468-.231a23.919,23.919,0,0,1-4.923-.288c-.09-.015.014.018-.564-.255l-.231-.462v-.012l.2-.472.511-.281a38.13,38.13,0,0,1,3.8-.534C73.917,117.336,75.8,117.761,78.825,118.824Z" transform="translate(1168.503 2137.994)" fill="#c2e3a1" fill-rule="evenodd"/>
    <path id="Path_248" data-name="Path 248" d="M100.319,78.431l-.485.923a5.868,5.868,0,0,0-.615.659h0c-.019.022.077-.086-.231.253a3.076,3.076,0,0,0-1.147,2.244c-.038,1.038.217.986.271,1.746.011.154.065.538.111.769.048.172.028.028.012.979-.983-.044-.821-.008-1-.092A2.97,2.97,0,0,1,96,84.885a2.576,2.576,0,0,1-.336-.862h0A5.449,5.449,0,0,1,97.338,78.6a2.658,2.658,0,0,1,1.341-.615,5.994,5.994,0,0,1,.715-.047Z" transform="translate(1025.577 2067.132)" fill="#00004d" fill-rule="evenodd"/>
    <path id="Path_249" data-name="Path 249" d="M106.741,75.38c.345.066.1-.07,1.013.747l-.7.775a1.688,1.688,0,0,0-.315.209c-.038.029-.037.034-.077.068h0a3.04,3.04,0,0,0-.336.346h0c-.018.02-.025.028-.1.1v0a1.654,1.654,0,0,0-.24.218h0a2.264,2.264,0,0,0-.265.362h0a3.176,3.176,0,0,0-.367,2.147,3.39,3.39,0,0,0,.385.988,5.949,5.949,0,0,0,.218.556h0a1.9,1.9,0,0,0,.172.316c.128.176.008-.067.436.908-.859.352-.762.385-1.385.268-2.557-.488-3.172-5.423-.356-7.627h0a2.487,2.487,0,0,1,.292-.168h0A2.7,2.7,0,0,1,106.741,75.38Z" transform="translate(1023.853 2067.732)" fill="#00004d" fill-rule="evenodd"/>
    <path id="Path_250" data-name="Path 250" d="M235.978,22.735a6.071,6.071,0,0,1,2.446,3.89c.031.136.063-.023-.267.928-.934-.355-.8-.282-.879-.385a12.846,12.846,0,0,0-3.349-2.941,4.974,4.974,0,0,0-4.425.2,8.763,8.763,0,0,0-2.95,2.508,18.942,18.942,0,0,0-1.788,2.385h0l-.446.385-.5.037h-.007l-.355-.369a2.33,2.33,0,0,1,.154-1.455,7.525,7.525,0,0,1,1.742-3.172C228.208,21.568,232.467,20.3,235.978,22.735Z" transform="translate(996.062 2080.165)" fill="#fff" fill-rule="evenodd"/>
    <path id="Path_251" data-name="Path 251" d="M245.742,34.262h0l.065.045.045.049.009.017c.077.24.032.092.143.41.467,1.341.345.832.3,1.138-.345.538-.192.385-1.462.86a1.887,1.887,0,0,1-.61-.166c-.089-.077-.05-.028-.111-.191-.018-.059-.41-1.108-.471-1.308,0-.154.017-.061.029-.154.019-.039.077-.154.1-.194.006-.009.128-.2.136-.2l1.4-.47A2.913,2.913,0,0,1,245.742,34.262Z" transform="translate(991.388 2077.25)" fill="#fff" fill-rule="evenodd"/>
    <path id="Path_252" data-name="Path 252" d="M185.632,85.916a1.646,1.646,0,0,1,.9.341l.154.42c-.372.642.022.508-3.806.709-4.615.244-12.969-.073-22.063,2.255h0c-.865.221-4.254,1.175-5.978,1.762-2.046.7-1.115.575-2.139.622l-.42-.325-.007-.008-.039-.532.339-.462c.09-.045.2-.16,1.418-.869a22.507,22.507,0,0,1,2.462-1.218c4.9-2.05,12.923-3.015,18.373-3.3A37.2,37.2,0,0,1,185.632,85.916Z" transform="translate(1012.486 2065.458)" fill="#fefefe" fill-rule="evenodd"/>
    <g id="Group_41" data-name="Group 41" transform="translate(815.994 2102.006)">
      <path id="Path_262" data-name="Path 262" d="M176.712,99.765s-6.562,23.661-3.2,25.377,52.191,1.547,72.116,1.041,34.733-2.083,41.3-1.041,9.925-1.65,9.252-10.233,1.009-19.52-10.766-21.2-81.99.672-91.391,0S179.236,94.044,176.712,99.765Z" fill="#c2e3a1"/>
      <g id="Group_40" data-name="Group 40" transform="translate(185.768 100.301)">
        <path id="Path_263" data-name="Path 263" d="M196.887,110.772a5.2,5.2,0,0,0,1.164-5.512c-1.158-2.957-4.772-1.622-5.776.617a.737.737,0,0,0,.017.662,40.385,40.385,0,0,0-1.218,10.674,3.678,3.678,0,0,0-.13.724,3.2,3.2,0,0,0,.059.844.706.706,0,0,0-.053,1.258c4.2,2.193,10.024.918,10.7-4.3C202.083,112.379,199.617,110.881,196.887,110.772Zm-.017-2.945a4.644,4.644,0,0,1-2.11,3.014c.108-1.885.251-3.77.285-5.677C196.109,104.944,197.138,106,196.87,107.827Zm-2.28,11.721a11.715,11.715,0,0,0,.081-3.669c-.047-1.115-.032-2.22.009-3.322.133-.075.265-.153.392-.236,2.476-.62,5.177.2,5.118,3.415C200.138,118.762,197.252,119.752,194.591,119.548Z" transform="translate(-190.585 -103.097)" fill="#fff"/>
        <path id="Path_264" data-name="Path 264" d="M217.068,106.785a2.2,2.2,0,0,0-1.107-.291,4.872,4.872,0,0,0-.775-.048.684.684,0,0,0-.66.479,9.671,9.671,0,0,0-3.466,4.364c-1.808,4.353.554,9.722,5.814,9.336C223.08,120.173,222.295,108.887,217.068,106.785Zm-2.06,1.454a5.231,5.231,0,0,0-.445.67c-.034.063-.063.13-.1.193a.6.6,0,0,0-.141-.279A3.544,3.544,0,0,1,215.008,108.239Zm-3.183,6.342c.031.2.061.4.105.6a14.965,14.965,0,0,0,.406,1.458A5.632,5.632,0,0,1,211.825,114.581Zm6.976,3.26a2.876,2.876,0,0,1-2.713,1.346,4.1,4.1,0,0,1-.51-.044.51.51,0,0,0,.005-.111c-.281-2.442-1.188-4.637-.6-7.166.18-.778,1.309-4.232,2.108-2.648a.678.678,0,0,0,1.162.08C220.049,111.474,220.09,115.647,218.8,117.841Z" transform="translate(-195.894 -103.869)" fill="#fff"/>
        <path id="Path_265" data-name="Path 265" d="M240.076,107.282a.729.729,0,0,0-1.457,0c-.026,1.816-.2,3.65-.3,5.479-3.424-1.348-5.46-4.8-8.757-6.425-.841-.414-1.579.844-.736,1.258.045.022.086.048.13.07a.552.552,0,0,0-.015.095c.176,3.963.306,7.929.317,11.9a.669.669,0,0,0,.188.474.718.718,0,0,0,.454.982c1.656.5,2.8.027,3.033-1.745a19.593,19.593,0,0,0-.312-3.64c-.121-1.839-.166-3.683-.183-5.525,1.779,1.589,3.475,3.282,5.817,4.088a20.713,20.713,0,0,0,.548,5.877.73.73,0,0,0,1.406-.388C239.137,115.7,240.017,111.424,240.076,107.282Zm-9.087,3.161c.029,2.034.1,4.065.229,6.1.028.428.185,1.087.254,1.7A39.124,39.124,0,0,1,230.988,110.444Zm0-1.359v-.1l.017.012A.863.863,0,0,0,230.991,109.084Z" transform="translate(-200.702 -103.818)" fill="#fff"/>
        <path id="Path_266" data-name="Path 266" d="M251.779,105.881a.729.729,0,0,0,0,1.457,23.416,23.416,0,0,0,2.882-.251c-.013,2.316-.055,4.633-.076,6.949-.018,2.04.643,4.655-.24,6.567a.7.7,0,0,0-.048.408,2.474,2.474,0,0,1-3.373-2.188c-.11-.922-1.569-.931-1.458,0,.3,2.544,1.592,4.094,4.28,3.772,2.939-.354,4.5-3.131,4.8-5.814a35.01,35.01,0,0,0,.075-9.284C258.11,104.356,253.777,105.9,251.779,105.881Zm5.666,3.774c0,.013,0,.026,0,.039A.351.351,0,0,0,257.445,109.656Z" transform="translate(-206.313 -103.622)" fill="#fff"/>
        <path id="Path_267" data-name="Path 267" d="M276.739,106.138a.755.755,0,0,0-.574-.405c-.149-.021-.292-.023-.437-.034a4.043,4.043,0,0,0-1.661-.1.588.588,0,0,0-.417.248c-7.029,1.7-7.563,15.071.916,15.021C281.09,120.828,281.273,108.922,276.739,106.138ZM271.655,116.3c.047.333.1.665.174,1a5.76,5.76,0,0,1-.3-.838A.643.643,0,0,0,271.655,116.3Zm.308-4.882a.819.819,0,0,0-.135-.077c.126-.272.266-.54.416-.8C272.143,110.832,272.041,111.128,271.963,111.418Zm2.6,7.991a4.656,4.656,0,0,1-.55.019c-.007-.023-.007-.048-.015-.072a11.07,11.07,0,0,1-.658-7.453c.3-1.108,1.055-4.313,2.648-4.161a.6.6,0,0,0,.437-.119C279.272,110.1,279.232,118.964,274.566,119.409Z" transform="translate(-211.344 -103.632)" fill="#fff"/>
        <path id="Path_268" data-name="Path 268" d="M297.37,106.316c.389,3.052,1.26,10.855-2.6,12.066a3.27,3.27,0,0,1-1.051.16c-.634-1.982-1.28-3.6-1.09-5.8.128-1.484.435-2.948.59-4.43.272-2.611-1.582-2.785-3.716-2.69a.727.727,0,0,0-.7.815c0,.012-.007.021-.007.034-.051,4.4-1.248,11.733,3.955,13.183a.85.85,0,0,0,.335.084,7.225,7.225,0,0,0,1.039.152c5.837.418,5.131-10.164,4.695-13.577C298.709,105.4,297.251,105.386,297.37,106.316Zm-6.549,2.589a8.587,8.587,0,0,1-.134,1.683A8.9,8.9,0,0,1,290.821,108.906Z" transform="translate(-216.783 -103.645)" fill="#fff"/>
        <path id="Path_269" data-name="Path 269" d="M316.812,118.613c-1.946-1.368-3.069-3.521-4.632-5.27a5.85,5.85,0,0,0,2.363-5.618c-.345-3.148-2.709-4.947-5.334-4.212-.024-.019-.04-.04-.067-.06-2.921-2.128-3.166,2.833-3.106,4.253.149,3.6-1.125,8.048.328,11.465.882,2.074,3.51,1.129,4.045-.564a10.088,10.088,0,0,0-.036-3.834c-.019-.191-.029-.382-.046-.572.174-.048.344-.1.51-.159,1.836,1.892,3.035,4.28,5.24,5.83C316.848,120.414,317.575,119.15,316.812,118.613Zm-6.888-13.756c1.662-.281,2.95.934,3.186,3.1a4.215,4.215,0,0,1-2.9,4.748C310.023,110.1,309.955,107.452,309.924,104.857Z" transform="translate(-221.327 -102.93)" fill="#fff"/>
      </g>
    </g>
  </g>
</svg>
