<svg xmlns="http://www.w3.org/2000/svg" width="386.219" height="304.036" viewBox="0 0 386.219 304.036">
  <g id="Group_913" data-name="Group 913" transform="translate(-230 -2863)">
    <g id="Group_724" data-name="Group 724" transform="translate(230 3107.071)" opacity="0.2">
      <g id="Group_723" data-name="Group 723">
        <path id="Path_851" data-name="Path 851" d="M77.033,921.332c19.4-8.652,41.419-7.536,61.765-3.238,21.519,4.549,42.228,12.476,63.942,16.16,12.029,2.037,24.31,2.763,36.423.865.53-.084.307-.893-.223-.809-22.5,3.489-44.991-2.093-66.51-8.178-20.6-5.833-41.447-12.308-63.1-12.141a81.794,81.794,0,0,0-32.711,6.615c-.5.223-.084.949.419.726Z" transform="translate(-76.387 -913.989)" fill="#8c8989"/>
      </g>
    </g>
    <g id="Group_726" data-name="Group 726" transform="translate(338.857 3106.934)">
      <g id="Group_725" data-name="Group 725">
        <path id="Path_852" data-name="Path 852" d="M466.827,928.179c26.291.53,51.746-6.754,77.451-11.08,7.508-1.256,15.071-2.261,22.691-2.763.53-.028.53-.865,0-.837-26.319,1.73-51.69,9.6-77.814,12.671a165.383,165.383,0,0,1-22.3,1.2.406.406,0,1,0-.028.809Z" transform="translate(-466.412 -913.498)" fill="#e8e8e8"/>
      </g>
    </g>
    <g id="Group_728" data-name="Group 728" transform="translate(461.64 3109.633)" opacity="0.2">
      <g id="Group_727" data-name="Group 727">
        <path id="Path_853" data-name="Path 853" d="M906.855,925.771a78.9,78.9,0,0,1,28.5-.893c8.708,1.34,17.053,4.214,25.287,7.285,8.122,3.014,16.188,6.224,24.617,8.373,8.708,2.205,17.556,2.763,26.543,2.763,10.606,0,21.3-.419,31.706,1.926.53.112.754-.7.223-.809-18.393-4.131-37.455.056-55.848-4.131-17.165-3.907-32.85-12.7-50.21-15.853a79.96,79.96,0,0,0-31.008.53c-.558.112-.335.921.2.809Z" transform="translate(-906.335 -923.165)" fill="#8c8989"/>
      </g>
    </g>
    <g id="Group_730" data-name="Group 730" transform="translate(303.232 2989.508)" opacity="0.2">
      <g id="Group_729" data-name="Group 729">
        <path id="Path_854" data-name="Path 854" d="M345.256,508.182c-2.4-.726-7.117-2.707-5.359-6.056,1.256-2.4,5-2.6,7.312-2.512,7.815.223,15.63.893,23.445.251,7.34-.614,14.346-2.707,21.491-4.382,7.257-1.73,14.932-2.986,22.244-.865,3.21.921,6.2,2.456,9.35,3.517A22.132,22.132,0,0,0,428.4,499.2a38.326,38.326,0,0,0,5.666-.167c1.926-.084,3.907-.028,5.554,1.116,1.507,1.033,2.763,2.986,1.786,4.8-1.4,2.624-5.47,1.9-7.815,1.4a61.848,61.848,0,0,0-21.016-.949,63.9,63.9,0,0,0-10.969,2.568c-3.852,1.228-7.592,2.316-11.694,1.758-3.824-.53-7.48-1.758-11.359-1.9a66.689,66.689,0,0,0-11.555.837c-7.424,1-15.351,2.289-22.3-1.312-.474-.251-.893.474-.419.726,6.5,3.377,13.843,2.6,20.877,1.675a99,99,0,0,1,11.136-1.116c4.1-.084,7.927.865,11.918,1.647a23.263,23.263,0,0,0,11.722-.865,79.875,79.875,0,0,1,11.89-3.042,57.141,57.141,0,0,1,12.727-.5c3.768.251,7.368,1.256,11.08,1.675,2.2.251,5.024.167,6.391-1.9,1.563-2.372-.112-5.135-2.261-6.447-3.266-1.982-7.312-.586-10.857-.809-3.907-.251-7.508-2.065-11.108-3.461-7.48-2.9-15.127-2.54-22.858-.893-8.178,1.73-16.132,4.382-24.505,5.052a120.372,120.372,0,0,1-14.541.112l-7.564-.335a19.783,19.783,0,0,0-4.633.223c-2.372.474-5.08,1.87-4.912,4.689.2,3.1,3.768,4.521,6.28,5.275.474.112.7-.7.2-.865Z" transform="translate(-338.774 -492.767)" fill="#8c8989"/>
      </g>
    </g>
    <g id="Group_732" data-name="Group 732" transform="translate(507.738 2887.128)" opacity="0.2">
      <g id="Group_731" data-name="Group 731">
        <path id="Path_855" data-name="Path 855" d="M1079.454,140.784c-2.4-.335-6.336-1.2-7.033-3.935-1-3.8,4.41-5,7.033-5.47,7.675-1.312,15.546-.112,23.277-.112,15.323-.028,30.422-2.931,45.661-4.019a114.033,114.033,0,0,1,22.886.335,32.9,32.9,0,0,1,5.219.893,4.932,4.932,0,0,1,2.01,1.033c1.284,1.256.028,2.4-1.144,3.014a23.042,23.042,0,0,1-9.824,2.372c-6.754.307-13.481-1.089-20.235-.837a29.9,29.9,0,0,0-9.238,1.73c-3.489,1.284-6.726,3.1-10.243,4.3a39.212,39.212,0,0,1-12.7,2.093,113.056,113.056,0,0,1-13.034-1.172,106.244,106.244,0,0,0-26.291.2c-.53.084-.53.921,0,.837a104.684,104.684,0,0,1,25.761-.251c4.242.474,8.485,1.144,12.783,1.228a40.034,40.034,0,0,0,11.778-1.507c3.908-1.116,7.48-3.042,11.248-4.549a30.328,30.328,0,0,1,11.332-2.093c7.2-.056,14.43,1.563,21.63.614a23.337,23.337,0,0,0,5.135-1.228c1.284-.474,3.014-1.061,3.935-2.149,1.73-2.093-.781-3.935-2.651-4.466-3.684-1.089-7.843-1.284-11.667-1.507a116.267,116.267,0,0,0-12.476-.028c-16.83.809-33.464,4.326-50.35,4.27-4.8,0-9.6-.447-14.4-.474-4.075-.028-8.736.056-12.56,1.647-2.4,1-4.745,3.349-3.405,6.112,1.256,2.6,4.8,3.489,7.368,3.852.5.167.725-.642.2-.726Z" transform="translate(-1071.5 -125.95)" fill="#8c8989"/>
      </g>
    </g>
    <g id="Group_734" data-name="Group 734" transform="translate(245.146 2934.848)" opacity="0.2">
      <g id="Group_733" data-name="Group 733">
        <path id="Path_856" data-name="Path 856" d="M131.28,302.138c23.277-10.1,48.787-.67,70.25,9.462,10.941,5.163,21.714,10.69,33.129,14.765a171.257,171.257,0,0,0,34.637,8.345,202.62,202.62,0,0,0,71.255-3.433c24.421-5.47,47.559-15.406,71.785-21.63a189.308,189.308,0,0,1,77.255-3.712c3.126.5,6.224,1.089,9.322,1.758.53.112.754-.7.223-.809a188.836,188.836,0,0,0-75.888-.586c-25.008,4.968-48.536,15.127-73.069,21.742a207.348,207.348,0,0,1-73.264,6.7,174.573,174.573,0,0,1-36.06-7.2c-12.113-3.8-23.472-9.322-34.888-14.792-20.626-9.908-43.9-19.956-67.236-14.067a49.471,49.471,0,0,0-7.871,2.707c-.474.251-.056.977.419.754Z" transform="translate(-130.652 -296.926)" fill="#8c8989"/>
      </g>
    </g>
    <g id="Group_736" data-name="Group 736" transform="translate(341.091 2919.048)" opacity="0.2">
      <g id="Group_735" data-name="Group 735">
        <path id="Path_857" data-name="Path 857" d="M474.607,251.335c27.268,15.211,59.728,16.355,89.982,12.113,34.246-4.8,67.236-16.1,101.537-20.514,19.091-2.456,38.572-2.763,57.467,1.423.53.112.754-.7.223-.809-33.409-7.368-67.682-.865-100.393,6.754-32.236,7.508-64.835,16.272-98.244,14.123-17.444-1.116-34.8-5.275-50.155-13.816-.447-.279-.865.447-.419.726Z" transform="translate(-474.416 -240.315)" fill="#8c8989"/>
      </g>
    </g>
    <g id="Group_738" data-name="Group 738" transform="translate(259.341 2874.086)" opacity="0.2">
      <g id="Group_737" data-name="Group 737">
        <path id="Path_858" data-name="Path 858" d="M182.04,83.1A112.389,112.389,0,0,1,252.6,89.347c10.857,4.717,21.044,10.857,31.706,15.965a112.876,112.876,0,0,0,33.8,10.271c13.536,1.814,27.24,1.507,40.8.614.53-.028.53-.865,0-.837-12.253.809-24.617,1.144-36.841-.14a112.341,112.341,0,0,1-35.53-9.769c-10.745-5-20.9-11.136-31.706-15.993a111.729,111.729,0,0,0-33.436-9.434,113.056,113.056,0,0,0-39.577,2.261c-.53.112-.307.921.223.809Z" transform="translate(-181.514 -79.222)" fill="#8c8989"/>
      </g>
    </g>
    <g id="Group_740" data-name="Group 740" transform="translate(490.205 3033.875)" opacity="0.2">
      <g id="Group_739" data-name="Group 739">
        <path id="Path_859" data-name="Path 859" d="M1016.138,664.981c-2.456-.5-6.475-1.758-6.67-4.8-.112-1.87,1.451-3.237,3.1-3.74,1.982-.642,4.075-.056,6,.5a44,44,0,0,0,10.745,2.009,33.822,33.822,0,0,0,10.159-1.256c3.573-.949,7.061-2.233,10.606-3.237a44.175,44.175,0,0,1,11.471-1.675c7.452-.112,14.82,1.228,22.245,1.535a58.2,58.2,0,0,0,11.024-.614c3.963-.614,8.01-1.535,12.057-1.061,2.9.335,7.564,2.289,6.615,6.029-.837,3.266-5.47,5.108-8.317,6.029-14.29,4.633-29.026-3.07-43.512-1.033-8.345,1.172-16.216,4.689-24.645,5.359a26.671,26.671,0,0,1-11.471-1.312c-3.349-1.284-6.364-4.075-10.187-3.405-.53.084-.307.893.223.809,2.289-.391,4.3.7,6.224,1.758a25.619,25.619,0,0,0,4.829,2.121,28.463,28.463,0,0,0,10.857.865c7.982-.754,15.49-3.907,23.389-5.191,8.708-1.4,17.276.614,25.873,1.758,7.006.921,14.513,1.144,21.1-1.786,2.512-1.116,5.861-2.9,6.5-5.861.586-2.651-1.451-4.773-3.656-5.861-3.265-1.591-7.2-1.284-10.662-.809-4.214.558-8.317,1.451-12.588,1.507-8.317.14-16.523-1.563-24.812-1.591a46.415,46.415,0,0,0-11.75,1.451c-3.824,1-7.536,2.4-11.332,3.433a33.934,33.934,0,0,1-14.206.893,59.234,59.234,0,0,1-6.978-1.73,11.168,11.168,0,0,0-5.415-.53c-2.707.586-5.163,3.154-3.963,6.029,1.089,2.624,4.41,3.768,6.978,4.3.447.028.67-.781.167-.893Z" transform="translate(-1008.68 -651.732)" fill="#8c8989"/>
      </g>
    </g>
    <g id="Group_742" data-name="Group 742" transform="translate(371.903 3138.577)">
      <g id="Group_741" data-name="Group 741">
        <path id="Path_860" data-name="Path 860" d="M585.34,1045.636a186.452,186.452,0,0,0,30.506-10.215c5.107-2.233,10.1-4.772,15.546-6.112a59.411,59.411,0,0,1,16.021-1.563,137.725,137.725,0,0,1,18.532,1.954c.53.084.754-.726.223-.809-10.466-1.647-21.24-2.986-31.762-1.089a64.932,64.932,0,0,0-15.351,5.3c-5.219,2.372-10.494,4.521-15.909,6.419a182.854,182.854,0,0,1-18.03,5.3c-.53.112-.307.921.223.809Z" transform="translate(-584.814 -1026.873)" fill="#161616"/>
      </g>
    </g>
    <g id="Group_744" data-name="Group 744" transform="translate(437.987 3134.09)">
      <g id="Group_743" data-name="Group 743">
        <path id="Path_861" data-name="Path 861" d="M821.982,1016.46a54.155,54.155,0,0,0,13.843-2.093c4.605-1.312,9.155-3.154,14.039-2.679a46.63,46.63,0,0,1,7.313,1.535c2.512.642,5,1.284,7.508,1.926,4.828,1.228,9.629,2.456,14.458,3.684a.42.42,0,0,0,.223-.809c-5-1.284-9.992-2.54-14.988-3.824-4.577-1.172-9.266-2.735-13.955-3.293-4.605-.53-8.959.893-13.313,2.233a56.809,56.809,0,0,1-15.1,2.512.4.4,0,1,0-.028.809Z" transform="translate(-821.587 -1010.793)" fill="#161616"/>
      </g>
    </g>
    <g id="Group_746" data-name="Group 746" transform="translate(486.719 3140.186)">
      <g id="Group_745" data-name="Group 745">
        <path id="Path_862" data-name="Path 862" d="M996.724,1036.533c10.969-2.428,22.5-4.521,33.632-1.954,5.526,1.284,10.718,3.74,15.881,6,5.414,2.4,10.857,4.773,16.272,7.173.5.223.921-.5.418-.726-8.484-3.74-16.885-7.787-25.538-11.108-8.373-3.21-17.081-3.852-25.956-2.847a143.544,143.544,0,0,0-14.96,2.679c-.5.084-.279.893.251.782Z" transform="translate(-996.191 -1032.636)" fill="#161616"/>
      </g>
    </g>
    <g id="Group_748" data-name="Group 748" transform="translate(387.56 3163.154)">
      <g id="Group_747" data-name="Group 747" transform="translate(0)">
        <path id="Path_863" data-name="Path 863" d="M641.44,1118.8c2.875-.5,5.777-1,8.652-1.507s5.777-1.144,8.68-1.451a41.065,41.065,0,0,1,8.066.447c2.931.307,5.889.586,8.82.893.53.056.53-.781,0-.837-2.931-.307-5.889-.586-8.82-.893a38.54,38.54,0,0,0-8.6-.391c-5.694.7-11.359,1.954-17.025,2.931-.53.112-.307.921.223.809Z" transform="translate(-640.914 -1114.929)" fill="#161616"/>
      </g>
    </g>
    <circle id="Ellipse_29" data-name="Ellipse 29" cx="3.461" cy="3.461" r="3.461" transform="translate(307.538 3034.229)" fill="#ec615b"/>
    <circle id="Ellipse_30" data-name="Ellipse 30" cx="1.814" cy="1.814" r="1.814" transform="translate(318.535 3045.114)" fill="#ec615b"/>
    <circle id="Ellipse_31" data-name="Ellipse 31" cx="4.27" cy="4.27" r="4.27" transform="translate(510.724 2863)" fill="#ec615b"/>
    <circle id="Ellipse_32" data-name="Ellipse 32" cx="2.428" cy="2.428" r="2.428" transform="translate(522.502 2871.513)" fill="#ec615b"/>
    <circle id="Ellipse_33" data-name="Ellipse 33" cx="4.047" cy="4.047" r="4.047" transform="translate(519.265 2867.27)" fill="#006"/>
    <circle id="Ellipse_34" data-name="Ellipse 34" cx="5.47" cy="5.47" r="5.47" transform="translate(508.156 3072.689)" fill="#006"/>
    <circle id="Ellipse_35" data-name="Ellipse 35" cx="3.489" cy="3.489" r="3.489" transform="translate(311.529 2867.27)" fill="#006"/>
    <circle id="Ellipse_36" data-name="Ellipse 36" cx="4.27" cy="4.27" r="4.27" transform="translate(365.954 3104.283)" fill="#006"/>
    <g id="Group_750" data-name="Group 750" transform="translate(399.948 3021.441)">
      <g id="Group_749" data-name="Group 749" transform="translate(0 0)">
        <path id="Path_864" data-name="Path 864" d="M686.388,618.239c-.586-.251.084-1.284.391-1.423a2.744,2.744,0,0,1,1.479.167c.614.2,1.144.53,1.758.7a3.078,3.078,0,0,0,2.121-.056c2.233-1.144-.419-5,2.847-5,1.786,0,3.293,2.651,4.773.67a8.17,8.17,0,0,0,1.033-2.428,5.529,5.529,0,0,1,.921-2.065c.586-.67,2.372-1.34,2.568.112.056.53.921.53.837,0a1.932,1.932,0,0,0-1.9-1.73,2.864,2.864,0,0,0-2.624,1.842,15.1,15.1,0,0,0-.781,2.233c-.167.53-.391,1.451-.865,1.786-.5.335-.893-.028-1.312-.279a4.172,4.172,0,0,0-3.712-.809,2.52,2.52,0,0,0-1.619,2.707c0,.363.112.809.084,1.172-.2,1.284-1.061,1.34-1.954,1.144s-1.647-.754-2.568-.921a2.01,2.01,0,0,0-2.4,1.033,1.4,1.4,0,0,0,.7,2.01c.5.14.726-.67.223-.865Z" transform="translate(-685.299 -607.181)" fill="#006"/>
      </g>
    </g>
    <g id="Group_752" data-name="Group 752" transform="translate(414.315 3022.062)">
      <g id="Group_751" data-name="Group 751" transform="translate(0 0)">
        <path id="Path_865" data-name="Path 865" d="M737.9,621.182a1.851,1.851,0,0,1,.028-2.093c.642-.921,1.535-.782,2.512-.642.726.112,1.619.251,2.149-.391.363-.419.307-.921.446-1.4a3.215,3.215,0,0,1,1.228-1.73,3.519,3.519,0,0,1,4.187-.084.436.436,0,0,0,.726-.307,4.993,4.993,0,0,1,5.694-4.242c.53.084.754-.726.223-.809a5.854,5.854,0,0,0-6.754,5.052c.251-.112.474-.2.726-.307a4.137,4.137,0,0,0-3.963-.642,4.56,4.56,0,0,0-2.875,3.014c-.279.726-.614,1.172-1.423,1.061-.447-.056-.865-.167-1.312-.2a2.375,2.375,0,0,0-1.7.558,2.761,2.761,0,0,0-.586,3.6.414.414,0,0,0,.7-.447Z" transform="translate(-736.775 -609.405)" fill="#006"/>
      </g>
    </g>
    <g id="Group_754" data-name="Group 754" transform="translate(428.461 2874.754)">
      <g id="Group_753" data-name="Group 753">
        <path id="Path_866" data-name="Path 866" d="M788.557,87.947c-.475-.447-.335-.726.391-.865.307-.419.642-.5,1-.223a2.892,2.892,0,0,1,1.2.893,10.375,10.375,0,0,0,1.34,1.144,2.476,2.476,0,0,0,2.289.2c.893-.447.921-1.34,1.228-2.177a2.827,2.827,0,0,1,5.024-.558c.167.223.586.307.726,0a7.146,7.146,0,0,1,2.4-3.433c1.2-.754,3.21-.67,3.74.893.167.5.977.279.809-.223a3.125,3.125,0,0,0-3.6-1.926c-2.121.363-3.293,2.484-4.075,4.27h.726a3.7,3.7,0,0,0-4.326-1.535,3.592,3.592,0,0,0-1.758,1.4,4.836,4.836,0,0,0-.5,1.088,3.609,3.609,0,0,1-.223.781,1.6,1.6,0,0,1-2.01.5c-1.368-.754-2.707-3.154-4.605-2.177a1.551,1.551,0,0,0-.2,2.679.419.419,0,0,0,.419-.726Z" transform="translate(-787.457 -81.615)" fill="#ec615b"/>
      </g>
    </g>
    <g id="Group_756" data-name="Group 756" transform="translate(446.638 2876.481)">
      <g id="Group_755" data-name="Group 755">
        <path id="Path_867" data-name="Path 867" d="M853.425,92.184c-.2-2.791,3.377-1.87,4.8-1.172.726.363,1.619,1.033,2.4.419a1.656,1.656,0,0,0,.474-.754c.419-.921.7-1.591,1.814-1.926,1.731-.5,3.405.586,4.8,1.479.447.279.865-.447.419-.726-1.479-.921-3.154-1.954-4.968-1.647a3.561,3.561,0,0,0-1.647.67c-.726.53-.865,1.451-1.591,1.9-.7.419-.977,0-1.675-.335-.363-.167-.726-.335-1.116-.474a4.17,4.17,0,0,0-2.261-.2,2.757,2.757,0,0,0-2.289,2.763c.028.53.865.53.837,0Z" transform="translate(-852.583 -87.802)" fill="#ec615b"/>
      </g>
    </g>
    <g id="Group_758" data-name="Group 758" transform="translate(527.167 2991.582)">
      <g id="Group_757" data-name="Group 757" transform="translate(0 0)">
        <path id="Path_868" data-name="Path 868" d="M1142.2,505.083c-1.842-4.047,5.135-5.833,5.61-1.591a3.016,3.016,0,0,1-2.065,3.321,3.24,3.24,0,0,1-3.8-2.233.42.42,0,0,0-.809.223,4.082,4.082,0,0,0,4.828,2.819,3.9,3.9,0,0,0,2.568-4.745,3.675,3.675,0,0,0-4.633-2.54,3.713,3.713,0,0,0-2.428,5.219c.223.447.949,0,.726-.474Z" transform="translate(-1141.116 -500.199)" fill="#ec615b"/>
      </g>
    </g>
    <g id="Group_760" data-name="Group 760" transform="translate(531.025 2995.034)">
      <g id="Group_759" data-name="Group 759" transform="translate(0 0)">
        <path id="Path_869" data-name="Path 869" d="M1157.355,517.209a1.871,1.871,0,0,1-1.033-3.154,2.533,2.533,0,0,1,3.265-.084c.949.754,1.87,2.958.809,4.019-1.4,1.4-3.1-.865-3.768-1.87-.307-.447-1.033-.028-.726.419.977,1.507,3.21,3.88,5.08,2.037,1.479-1.451.418-4.382-1.033-5.415a3.282,3.282,0,0,0-4.745,1.033,2.724,2.724,0,0,0,2.177,3.852c.5.056.5-.782-.028-.837Z" transform="translate(-1154.937 -512.566)" fill="#ec615b"/>
      </g>
    </g>
    <g id="Group_762" data-name="Group 762" transform="translate(279.506 2961.453)">
      <g id="Group_761" data-name="Group 761">
        <path id="Path_870" data-name="Path 870" d="M254.164,395.389c1.116-.056,1.7-.809,2.484-1.507,1.842-1.647,3.963-.084,5.135,1.535,1.116,1.535,2.735,2.624,4.159.781.67-.865,1-2.149,1.926-2.763,1.87-1.256,3.461,1.228,4.633,2.317,1.34,1.228,4.1,1.786,4.717-.5a.42.42,0,0,0-.809-.223c-.307,1.2-1.758,1.172-2.624.67a8.761,8.761,0,0,1-1.675-1.535,5.378,5.378,0,0,0-2.819-1.87c-1.926-.335-2.791,1.4-3.656,2.791a2.845,2.845,0,0,1-.921,1.144c-1,.53-1.73-.53-2.261-1.228a6.335,6.335,0,0,0-2.512-2.261,3.566,3.566,0,0,0-2.875-.167c-1.061.447-1.73,1.954-2.931,2.01a.405.405,0,0,0,.028.809Z" transform="translate(-253.762 -392.249)" fill="#ec615b"/>
      </g>
    </g>
    <g id="Group_764" data-name="Group 764" transform="translate(299.316 2957.865)">
      <g id="Group_763" data-name="Group 763">
        <path id="Path_871" data-name="Path 871" d="M324.841,380.371c1.172,1.4,3.266,3.266,5.108,1.73.447-.391.7-.949,1.172-1.34a2.7,2.7,0,0,1,2.428-.391c1.758.474,2.791,2.149,3.712,3.573a.419.419,0,0,0,.726,0c1.2-2.624,4.41-3.266,6.922-2.261.5.2.726-.614.223-.809-2.819-1.144-6.531-.307-7.871,2.624h.726c-1.256-1.954-2.847-4.186-5.47-4.1a3.325,3.325,0,0,0-2.372,1.088c-.726.837-1.34,1.507-2.54,1.144a5.268,5.268,0,0,1-2.2-1.87c-.307-.391-.893.2-.558.614Z" transform="translate(-324.741 -379.392)" fill="#ec615b"/>
      </g>
    </g>
    <g id="Group_766" data-name="Group 766" transform="translate(347.322 2981.935)">
      <g id="Group_765" data-name="Group 765" transform="translate(0 0)">
        <path id="Path_872" data-name="Path 872" d="M499.1,471.738c-.363-.726-.781-1.479-1.116-2.233-.363-.781-.2-1.089.279-1.758.614-.865,1.563-1.647,2.651-1.061a3.558,3.558,0,0,1,1.507,2.177c.391,1.368.056,3.321-1.535,3.768-1.312.363-3.014-.447-2.958-1.954a.419.419,0,0,0-.837,0,3.036,3.036,0,0,0,3.545,2.847c2.121-.251,3.014-2.484,2.707-4.382-.307-1.842-2.01-4.187-4.131-3.321a4.968,4.968,0,0,0-2.289,2.484c-.279.586-.223.614.056,1.2.447.893.893,1.786,1.34,2.651a.444.444,0,0,0,.781-.419Z" transform="translate(-496.743 -465.636)" fill="#006"/>
      </g>
    </g>
    <g id="Group_768" data-name="Group 768" transform="translate(350.074 2986.72)">
      <g id="Group_767" data-name="Group 767" transform="translate(0 0)">
        <path id="Path_873" data-name="Path 873" d="M509.31,489.567c-1.061-1.256-2.875-3.712-1.312-5.275a2.882,2.882,0,0,1,4.047.419c.949,1.144,1.144,3.377-.335,4.214a2.233,2.233,0,0,1-3.293-1.423c-.084-.53-.893-.307-.809.223a3.123,3.123,0,0,0,4.326,2.037c2.037-.949,2.121-3.768.921-5.415a3.726,3.726,0,0,0-5.219-.837c-2.261,1.87-.307,4.94,1.116,6.615.307.447.893-.14.558-.558Z" transform="translate(-506.603 -482.78)" fill="#ec615b"/>
      </g>
    </g>
    <g id="Group_770" data-name="Group 770" transform="translate(516.975 2927.883)">
      <g id="Group_769" data-name="Group 769">
        <path id="Path_874" data-name="Path 874" d="M1105.436,281.105c.028-2.456,3.405-1.73,4.856-1.563a5.7,5.7,0,0,0,3.517-.642c1.228-.642,2.233-1.647,3.433-2.344a5.372,5.372,0,0,1,2.651-.893,6.672,6.672,0,0,1,2.456.977c2.01.809,3.294-1.061,4.549-2.289,2.484-2.428,6.029-1.423,8.931-.419.5.167.726-.642.223-.809-2.6-.893-5.889-1.87-8.457-.391-1.228.7-1.953,1.982-3.07,2.791-1.591,1.144-2.931-.67-4.605-.7-3.6-.056-5.5,4.1-9.127,3.907-1.563-.084-3.07-.67-4.577.028a2.539,2.539,0,0,0-1.619,2.317.419.419,0,0,0,.837.028Z" transform="translate(-1104.598 -271.97)" fill="#5222d0"/>
      </g>
    </g>
    <g id="Group_772" data-name="Group 772" transform="translate(537.921 2929.75)">
      <g id="Group_771" data-name="Group 771">
        <path id="Path_875" data-name="Path 875" d="M1180.413,284.979a7.571,7.571,0,0,1,8.15-2.9c1.312.391,2.54,1.451,3.991,1.368,1.2-.084,1.842-1.061,2.652-1.814a7.122,7.122,0,0,1,4.856-2.121,4.4,4.4,0,0,1,2.847,1.172,2.172,2.172,0,0,0,.893.586,2.392,2.392,0,0,0,1.563-.335,18.073,18.073,0,0,1,2.679-.977,15.354,15.354,0,0,1,5.749-.307c.53.056.53-.781,0-.837a15.182,15.182,0,0,0-5.5.223,18.4,18.4,0,0,0-2.4.754,3.577,3.577,0,0,1-1.619.419c-.754,0-.7-.112-1.2-.5-2.373-1.814-5.554-.977-7.7.726-.586.447-1.061,1.061-1.619,1.507-1.339,1.061-2.4.391-3.768-.223a7.99,7.99,0,0,0-3.684-.726,8.4,8.4,0,0,0-6.559,3.573c-.363.447.363.865.67.419Z" transform="translate(-1179.644 -278.661)" fill="#5222d0"/>
      </g>
    </g>
    <g id="leg_right" transform="translate(452.928 3010.98)">
      <path id="Path_876" data-name="Path 876" d="M927.036,967.963c.53,3.349,1.061,6.726,1.563,10.076q-16.537,5.359-16.216,6.782c.279,1.172,9.1.307,26.459-2.512-1-5.3-1.982-10.606-2.986-15.909C932.9,966.9,929.966,967.433,927.036,967.963Z" transform="translate(-901.979 -855.68)"/>
      <path id="Path_877" data-name="Path 877" d="M877.079,569.84c-.2,3.8-.474,9.21-.726,15.769-.251,6.95-.391,10.578-.363,15.044,0,1.926.084,9.769,1.088,19.872a186.445,186.445,0,0,0,6.81,36.9,172.891,172.891,0,0,0,9.127,24,37.82,37.82,0,0,0,7.173.363,37.07,37.07,0,0,0,12.169-2.679c-.837-2.735-2.01-6.615-3.238-11.276a284.182,284.182,0,0,1-8.233-50.852,296.552,296.552,0,0,1,.363-47.28Q889.193,569.742,877.079,569.84Z" transform="translate(-875.746 -569.7)" fill="#fff"/>
      <path id="Path_878" data-name="Path 878" d="M949.115,577.9c-.53,2.01-1.228,4.912-1.982,8.429-1.954,9.294-3.963,22.552-3.768,44.963a385.114,385.114,0,0,0,4.661,55.876c1.4-.139,2.819-.307,4.3-.53a81.464,81.464,0,0,0,8.6-1.786c-1.172-3.8-2.791-9.433-4.466-16.3a290.585,290.585,0,0,1-8.066-58.946A295.335,295.335,0,0,1,949.115,577.9Z" transform="translate(-924.31 -575.611)" fill="#606060" opacity="0.09"/>
      <g id="Group_774" data-name="Group 774" transform="translate(23.595 0.464)">
        <g id="Group_773" data-name="Group 773">
          <path id="Path_879" data-name="Path 879" d="M960.956,571.764a268.625,268.625,0,0,0,5.108,84.624q2.638,11.806,6.308,23.305c.168.5.977.279.809-.223A268.94,268.94,0,0,1,960.51,595.85c.056-8.038.5-16.1,1.284-24.114.056-.5-.781-.5-.837.028Z" transform="translate(-959.661 -571.362)" fill="#161616"/>
        </g>
      </g>
      <g id="Group_776" data-name="Group 776" transform="translate(0 25.492)">
        <g id="Group_775" data-name="Group 775">
          <path id="Path_880" data-name="Path 880" d="M875.312,661.446A188.626,188.626,0,0,0,884.69,729.1a178.636,178.636,0,0,0,7.005,17.89c.223.5.949.056.726-.419a187.647,187.647,0,0,1-16.16-66.008,189.924,189.924,0,0,1-.112-19.118c.028-.558-.809-.53-.837,0Z" transform="translate(-875.123 -661.037)" fill="#161616"/>
        </g>
      </g>
      <g id="Group_778" data-name="Group 778" transform="translate(16.793 108.74)">
        <g id="Group_777" data-name="Group 777">
          <path id="Path_881" data-name="Path 881" d="M935.406,962.264c.949,1.061,3.126.809,4.41.837a37.416,37.416,0,0,0,5.861-.446c2.093-.307,4.187-.754,6.252-1.256,1.033-.251,3.182-.307,3.712-1.451.223-.474-.5-.921-.726-.419-.251.586-1.647.7-2.177.809-.781.2-1.535.363-2.317.558-1.479.335-2.931.642-4.41.865a36.785,36.785,0,0,1-4.605.474c-1.172.056-4.521.419-5.387-.558-.391-.419-.977.2-.614.586Z" transform="translate(-935.292 -959.308)" fill="#161616"/>
        </g>
      </g>
    </g>
    <g id="leg_left" transform="translate(431.202 2997.905)">
      <path id="Path_882" data-name="Path 882" d="M818.379,535.9a58.974,58.974,0,0,0-2.679,8.066,93.218,93.218,0,0,0-1.786,9.322c-1.033,6.084-1.73,7.117-3.238,13.788-1.591,7.145-2.317,12.643-2.875,17.025-.447,3.405-1.256,10.355-1.619,19.342-.167,3.88-.251,6.168-.167,9.322a103.6,103.6,0,0,0,2.512,20.6,100.827,100.827,0,0,0,7.34,21.128,23.358,23.358,0,0,0,5.554,1.982c2.958.642,6.754,1.479,10.383-.363a11.727,11.727,0,0,0,5.024-5.191,107.63,107.63,0,0,1-4.3-15.211,113.355,113.355,0,0,1-1.256-36.172c1.507-14.876,4.968-26.04,10.913-45.3,2.01-6.475,3.8-11.722,5.024-15.211.419-2.763,1.4-11.052-3.042-14.513C837.665,519.377,822.51,527,818.379,535.9Z" transform="translate(-803.553 -522.852)" fill="#fff"/>
      <path id="Path_883" data-name="Path 883" d="M892.538,622.8a109.173,109.173,0,0,0-6.81,12.532c-3.07,6.643-7.592,18.309-10.02,41.558a258.411,258.411,0,0,0-.167,51.941,10.733,10.733,0,0,0,7.7-2.149,10.079,10.079,0,0,0,2.875-3.768,108.634,108.634,0,0,1-4.466-16.132c-3.963-19.928-1.479-35.948.363-47.112A165.134,165.134,0,0,1,892.538,622.8Z" transform="translate(-852.816 -594.904)" fill="#606060" opacity="0.08"/>
      <path id="Path_884" data-name="Path 884" d="M816.486,1000.174c.949,3.405,1.9,6.838,2.847,10.243q-22.44,6.824-22.049,8.513.419,1.926,30.562-2.847c-.53-5.47-1.061-10.913-1.563-16.383C822.989,999.84,819.724,1000.007,816.486,1000.174Z" transform="translate(-797.278 -866.611)"/>
      <g id="Group_780" data-name="Group 780" transform="translate(2.126 13.099)">
        <g id="Group_779" data-name="Group 779">
          <path id="Path_885" data-name="Path 885" d="M817.288,570.069c-2.958,7.48-4.466,15.406-6.057,23.277-1.675,8.233-3.293,16.467-4.466,24.784-2.177,15.406-2.847,31.176.14,46.526a84.844,84.844,0,0,0,8.206,23.724c.251.474.977.056.726-.419-14.932-28.385-10.411-61.6-4.326-91.713,1.758-8.736,3.321-17.639,6.615-25.957.167-.5-.642-.726-.837-.223Z" transform="translate(-804.894 -569.785)" fill="#161616"/>
        </g>
      </g>
      <g id="Group_782" data-name="Group 782" transform="translate(26.34 27.547)">
        <g id="Group_781" data-name="Group 781">
          <path id="Path_886" data-name="Path 886" d="M904.672,621.843c-9.35,24.924-15.6,51.718-11.974,78.428a102.491,102.491,0,0,0,5.331,21.575c.2.5,1,.279.809-.223-9.294-25.091-7.4-52.611-.419-78.037,2.01-7.285,4.41-14.457,7.061-21.547.2-.5-.614-.7-.809-.2Z" transform="translate(-891.653 -621.55)" fill="#161616"/>
        </g>
      </g>
      <g id="Group_784" data-name="Group 784" transform="translate(12.218 127.388)">
        <g id="Group_783" data-name="Group 783">
          <path id="Path_887" data-name="Path 887" d="M841.263,983.552a21.059,21.059,0,0,0,12.922,2.512c3.656-.5,7.9-2.177,8.261-6.391.056-.53-.781-.53-.837,0-.391,4.382-5.694,5.554-9.294,5.722a19.862,19.862,0,0,1-10.606-2.568c-.5-.251-.921.475-.447.726Z" transform="translate(-841.055 -979.275)" fill="#161616"/>
        </g>
      </g>
    </g>
    <g id="torso" transform="translate(444.186 2932.928)">
      <path id="Path_888" data-name="Path 888" d="M851.392,295.338a25.366,25.366,0,0,0-2.819,4.075c-3.433,6.029-3.656,11.946-3.712,17.137a152.412,152.412,0,0,0,.7,19.593,113.85,113.85,0,0,1-1.758,32.85,29.137,29.137,0,0,0,10.606,4.94c13.341,3.126,24.394-4.661,26.487-6.168-2.651-15.546-4.1-27.994-4.94-36.73-.53-5.526-2.484-13.564-6.364-29.669-1.172-4.912-2.372-9.6-6-10.941C858.565,288.528,852.4,294.361,851.392,295.338Z" transform="translate(-843.8 -290.049)" fill="#fa5051"/>
      <path id="Path_889" data-name="Path 889" d="M914.2,292.8c.447,1.814,1.089,4.549,1.73,7.927a183.141,183.141,0,0,1,2.735,20.737c.809,10.1,1.73,29.054,2.01,53.56a32.749,32.749,0,0,0,6.615-2.735,34.073,34.073,0,0,0,4.186-2.735c-.2-2.149-.558-5.415-1.144-9.35-.753-4.94-1.507-8.373-1.87-10.076a106.517,106.517,0,0,1-2.01-20.151c-1.144-4.856-2.01-8.764-2.6-11.359-1.619-7.368-2.093-10.076-3.321-14.541-1.228-4.494-2.512-8.066-3.321-10.215C916.209,293.47,915.2,293.135,914.2,292.8Z" transform="translate(-894.551 -292.032)" fill="#606060" opacity="0.1"/>
    </g>
    <g id="backpack" transform="translate(450.626 2938.274)">
      <path id="Path_890" data-name="Path 890" d="M870.391,312.082c.251.5.67.67,1.591,1.116.781.391,1.535.865,2.317,1.2,2.4,1.033,5.219,5.61,5.666,6.336a35.15,35.15,0,0,1,4.828,10.69c.307,1.228,1,4.41.2,15.155-.865,11.025-1.982,12.56-1.116,18.058.642,3.991,1.451,8.764,5.387,11.359a12.008,12.008,0,0,0,8.736,1.4c5.3-1.033,8.317-5.135,11.248-9.127a39.906,39.906,0,0,0,6.894-15.63c.335-1.647.279-6.475.2-16.1-.112-9.936-.279-13.369-2.875-16.272a12.133,12.133,0,0,0-5.387-3.349,3.244,3.244,0,0,0-.363-2.317c-.949-1.451-3.21-1.423-4.661-1.4a18.8,18.8,0,0,0-11.08,4.549,18.333,18.333,0,0,0-5.387,9.852,27.255,27.255,0,0,0-3.07-7.815,49.2,49.2,0,0,0-4.745-6.057c-2.037-2.4-3.014-3.321-4.549-3.824-.335-.112-2.875-.865-3.712.279A1.923,1.923,0,0,0,870.391,312.082Z" transform="translate(-869.267 -309.459)" fill="#fff"/>
      <path id="Path_891" data-name="Path 891" d="M870.175,314.7c.167-.307,2.037.391,2.233.474,2.763,1.061,5.219,3.266,8.373,8.373a58.986,58.986,0,0,1,5.387,11.164c1.228-1.256,2.261-2.289,3.07-3.07a44.173,44.173,0,0,1,7.815-5.666c.474-.279,1.06-.614,1.479-.363.865.474-.056,2.791.2,4.94.2,1.619,1.144,3.852,4.745,6.336a1.929,1.929,0,0,1-.279,1.591c-.781.865-2.791.167-3.824-.2-1.675-.586-4.912-2.121-8.736-6.615a59.107,59.107,0,0,0-1.2,6.056,62.894,62.894,0,0,0,.279,18.979,65.681,65.681,0,0,0,4.1,14.43,16.116,16.116,0,0,0,11.443.474,9.667,9.667,0,0,0-3.266,2.512c-1.312,1.591-1.34,2.791-2.428,4.27a9.189,9.189,0,0,1-4.466,3.154,10.62,10.62,0,0,1-3.154-.837c-3.824-1.7-5.554-5.3-6.336-6.978-1.033-2.261-2.624-6.838-1.116-22.328.865-8.848,1.814-11.611.363-16.662a34.276,34.276,0,0,0-3.712-8.178,32.714,32.714,0,0,0-7.257-8.652C872.045,316.346,870.008,315.063,870.175,314.7Z" transform="translate(-869.247 -313.109)" fill="#606060" opacity="0.11"/>
      <path id="Path_892" data-name="Path 892" d="M975.36,330.6a12.4,12.4,0,0,0-1.647,2.931,10.927,10.927,0,0,0-.781,4.745,11.231,11.231,0,0,0,4.075,7.62c.391.307.726.558.949.7a23.182,23.182,0,0,0-.865,4.94c-.223,2.958-.446,6.28,1.284,7.257a3.418,3.418,0,0,0,3.712-.7c.223-.223.865-.921,1.033-4.075.2-3.74-.586-5.3.53-6.391a6.207,6.207,0,0,1,1.982-1.116,10.845,10.845,0,0,1,1.982-.614c-.307,2.289-.53,4.326-.7,5.973-.2,2.037-.279,3.07.419,3.712a2.4,2.4,0,0,0,2.512.335c1.061-.474,1.4-1.786,1.982-4.41a17.056,17.056,0,0,0,.614-6.14,14.38,14.38,0,0,0-.614-2.847,14.2,14.2,0,0,0-.419-1.982c-.474-1.619-.921-2.093-1.2-3.126-.419-1.479.056-2.2.167-3.88a11.9,11.9,0,0,0-.949-5.526,3.705,3.705,0,0,0-1.9.614,4.063,4.063,0,0,0-1.479,1.814,7.287,7.287,0,0,0-3.545.084,7.537,7.537,0,0,0-4.326,3.21c.726-1.591.112-3.154-.865-3.545C976.476,329.814,975.471,330.54,975.36,330.6Z" transform="translate(-943.312 -322.753)"/>
      <g id="Group_786" data-name="Group 786" transform="translate(34.424 14.61)">
        <g id="Group_785" data-name="Group 785">
          <path id="Path_893" data-name="Path 893" d="M990.991,363.432c.279-.53,1.675-1.7,2.149-.726.223.474.949.056.726-.419a1.509,1.509,0,0,0-1.73-.7,2.692,2.692,0,0,0-1.87,1.423c-.251.474.474.893.726.419Z" transform="translate(-990.213 -361.547)" fill="#fff"/>
        </g>
      </g>
      <g id="Group_788" data-name="Group 788" transform="translate(42.612 12.098)">
        <g id="Group_787" data-name="Group 787">
          <path id="Path_894" data-name="Path 894" d="M1020.317,354.795a3.642,3.642,0,0,1,.614-1.061c.279-.279,1.117-.586,1.144.056.028.53.865.53.837,0a1.33,1.33,0,0,0-1.563-1.228c-.921.167-1.4,1-1.758,1.786-.223.5.5.949.726.447Z" transform="translate(-1019.549 -352.547)" fill="#fff"/>
        </g>
      </g>
      <g id="Group_790" data-name="Group 790" transform="translate(42.797 16.451)">
        <g id="Group_789" data-name="Group 789">
          <path id="Path_895" data-name="Path 895" d="M1021.019,368.691v.084l-.14.14c-.14.084-.363,0-.335-.167,0,0,0-.084.028-.056l-.084.084h.586l-.056-.056.028.028c-.028-.028,0-.028,0,.028.028.167-.056.279-.279.363-.084-.028-.14-.028-.223-.056-.112-.056-.084-.223-.056-.307.028-.028,0-.028-.028.028h0a.415.415,0,0,0-.14.586.44.44,0,0,0,.586.14.889.889,0,0,0,.419-.614.561.561,0,0,0-.53-.586.531.531,0,0,0-.558.5.7.7,0,0,0,.251.558.43.43,0,0,0,.586,0,.705.705,0,0,0,.028-1.144.659.659,0,0,0-.642-.028.65.65,0,0,0-.223.726.4.4,0,0,0,.5.279.47.47,0,0,0,.279-.53Z" transform="translate(-1020.213 -368.145)" fill="#fff"/>
        </g>
      </g>
      <g id="Group_792" data-name="Group 792" transform="translate(35.909 17.141)">
        <g id="Group_791" data-name="Group 791">
          <path id="Path_896" data-name="Path 896" d="M998.762,371.337a1.841,1.841,0,0,1-2.428-.53c-.307-.447-1.033-.028-.726.419a2.758,2.758,0,0,0,3.6.837.427.427,0,0,0-.447-.726Z" transform="translate(-995.534 -370.616)" fill="#fff"/>
        </g>
      </g>
      <g id="Group_794" data-name="Group 794" transform="translate(36.964 19.561)">
        <g id="Group_793" data-name="Group 793">
          <path id="Path_897" data-name="Path 897" d="M1000.873,379.4a5.481,5.481,0,0,0-1.507,1.786c-.251.474.475.893.726.419a4.85,4.85,0,0,1,1.4-1.619.43.43,0,0,0,0-.586.466.466,0,0,0-.614,0Z" transform="translate(-999.313 -379.287)" fill="#fff"/>
        </g>
      </g>
      <g id="Group_796" data-name="Group 796" transform="translate(44.619 13.923)">
        <g id="Group_795" data-name="Group 795">
          <path id="Path_898" data-name="Path 898" d="M1027.428,361.769a6.532,6.532,0,0,0,1.256-2.177c.167-.5-.642-.726-.809-.223a5.575,5.575,0,0,1-1.033,1.814c-.335.419.251,1,.586.586Z" transform="translate(-1026.742 -359.085)" fill="#fff"/>
        </g>
      </g>
      <g id="Group_798" data-name="Group 798" transform="translate(44.828 16.712)">
        <g id="Group_797" data-name="Group 797">
          <path id="Path_899" data-name="Path 899" d="M1028.024,370.035c.67-.14,1.451-.307,1.981.251.363.391.949-.2.586-.586a2.771,2.771,0,0,0-2.819-.447c-.5.084-.279.893.251.781Z" transform="translate(-1027.491 -369.08)" fill="#fff"/>
        </g>
      </g>
      <g id="Group_800" data-name="Group 800">
        <g id="Group_799" data-name="Group 799">
          <path id="Path_900" data-name="Path 900" d="M867.664,311.182c1.284-2.01,4.326-.809,5.861.2a17.121,17.121,0,0,1,4.494,4.689c2.54,3.545,4.8,7.4,5.638,11.722.112.53.921.307.809-.223-.977-5.163-3.991-10.131-7.4-14.095-1.982-2.289-7.592-6.615-10.131-2.679-.279.419.447.865.726.391Z" transform="translate(-866.875 -309.201)" fill="#161616"/>
        </g>
      </g>
      <g id="Group_802" data-name="Group 802" transform="translate(2.31 3.091)">
        <g id="Group_801" data-name="Group 801">
          <path id="Path_901" data-name="Path 901" d="M875.361,321.064c6.7,3.768,10.466,10.829,12.364,18.03a.42.42,0,0,0,.809-.223c-1.954-7.4-5.889-14.681-12.755-18.532a.419.419,0,0,0-.419.726Z" transform="translate(-875.152 -320.275)" fill="#161616"/>
        </g>
      </g>
      <g id="Group_804" data-name="Group 804" transform="translate(16.798 3.386)">
        <g id="Group_803" data-name="Group 803">
          <path id="Path_902" data-name="Path 902" d="M927.854,336.172a15.668,15.668,0,0,1,8.178-11.443,21.294,21.294,0,0,1,7.257-2.344,7.822,7.822,0,0,1,3.768.112c1.284.474,2.512,2.512.893,3.433-.474.251-.056.977.419.726,1.786-1,1.34-3.573-.223-4.549-2.428-1.535-6.447-.447-8.931.391-6.14,1.982-11.22,6.95-12.141,13.509-.112.474.7.7.781.167Z" transform="translate(-927.062 -321.334)" fill="#161616"/>
        </g>
      </g>
      <g id="Group_806" data-name="Group 806" transform="translate(18.76 11.795)">
        <g id="Group_805" data-name="Group 805">
          <path id="Path_903" data-name="Path 903" d="M934.791,359.148a29.663,29.663,0,0,1,4.773-4.187,13.859,13.859,0,0,1,5.359-2.679c.53-.112.307-.921-.223-.809a14.845,14.845,0,0,0-5.554,2.763,31.73,31.73,0,0,0-4.94,4.326c-.363.391.223,1,.586.586Z" transform="translate(-934.091 -351.462)" fill="#161616"/>
        </g>
      </g>
      <g id="Group_808" data-name="Group 808" transform="translate(28.936 6.801)">
        <g id="Group_807" data-name="Group 807">
          <path id="Path_904" data-name="Path 904" d="M971.317,339.466a16.67,16.67,0,0,1,2.261-3.768,3.367,3.367,0,0,1,.586-.67c.2-.363.447-.391.809-.056.447,0,.642.167.642.558a8.546,8.546,0,0,1,.447,2.261c.112.53.921.307.809-.223-.223-1.061-.5-4.856-2.512-3.824a6.538,6.538,0,0,0-1.87,2.037,19.13,19.13,0,0,0-1.9,3.266c-.223.474.5.921.726.419Z" transform="translate(-970.549 -333.568)" fill="#161616"/>
        </g>
      </g>
      <g id="Group_810" data-name="Group 810" transform="translate(34.39 7.063)">
        <g id="Group_809" data-name="Group 809">
          <path id="Path_905" data-name="Path 905" d="M990.791,338.72c1.423-1.842,4.326-4.382,6.81-3.014.475.251.893-.474.419-.726-2.875-1.535-6.112.977-7.843,3.154-.307.419.279,1,.614.586Z" transform="translate(-990.091 -334.507)" fill="#161616"/>
        </g>
      </g>
      <g id="Group_812" data-name="Group 812" transform="translate(41.937 4.857)">
        <g id="Group_811" data-name="Group 811">
          <path id="Path_906" data-name="Path 906" d="M1017.906,329.867c.391-.614,2.2-2.819,2.986-2.233.419.307.5,1.4.614,1.9a13.41,13.41,0,0,1,.251,2.372c.028.53.865.53.837,0a14.619,14.619,0,0,0-.447-3.293c-.167-.614-.307-1.786-1.033-1.982-.67-.167-1.591.474-2.093.837a6.478,6.478,0,0,0-1.814,1.982c-.307.447.419.865.7.419Z" transform="translate(-1017.134 -326.602)" fill="#161616"/>
        </g>
      </g>
      <g id="Group_814" data-name="Group 814" transform="translate(20.42 17.413)">
        <g id="Group_813" data-name="Group 813">
          <path id="Path_907" data-name="Path 907" d="M940.166,372.291a54.171,54.171,0,0,0,6.14,5.163c2.149,1.535,4.242,2.624,6.95,2.484.53-.028.53-.865,0-.837-2.763.14-4.8-1.089-6.95-2.651a53.32,53.32,0,0,1-5.582-4.745c-.363-.363-.949.223-.558.586Z" transform="translate(-940.037 -371.591)" fill="#161616"/>
        </g>
      </g>
      <g id="Group_816" data-name="Group 816" transform="translate(13.904 20.468)">
        <g id="Group_815" data-name="Group 815">
          <path id="Path_908" data-name="Path 908" d="M917.7,383.055c3.042,13.509-4.884,28.273,1.675,41.2a11.763,11.763,0,0,0,5.666,5.722,11.622,11.622,0,0,0,8.01.14c5.75-1.842,9.462-7.173,12.308-12.2a39.93,39.93,0,0,0,4.214-10.076,27.287,27.287,0,0,0,.809-5.415c.084-2.093-.2-4.186-.112-6.28.028-.53-.809-.53-.837,0-.112,3.405.335,6.643-.335,10.02a34.136,34.136,0,0,1-3.042,8.68c-2.54,5.135-5.973,10.913-11.248,13.62a11.5,11.5,0,0,1-9.043.837c-2.875-1.061-4.773-3.6-6-6.308-2.624-5.889-2.317-12.587-1.619-18.839.781-7.089,2.009-14.262.419-21.351-.2-.474-1-.279-.865.251Z" transform="translate(-916.691 -382.535)" fill="#161616"/>
        </g>
      </g>
      <g id="Group_818" data-name="Group 818" transform="translate(24.283 48.735)">
        <g id="Group_817" data-name="Group 817">
          <path id="Path_909" data-name="Path 909" d="M956.926,484.007a24.753,24.753,0,0,0-3.042,8.82c-.084.53.726.754.809.223a24.179,24.179,0,0,1,2.958-8.624c.279-.447-.447-.865-.726-.419Z" transform="translate(-953.878 -483.816)" fill="#161616"/>
        </g>
      </g>
      <g id="Group_820" data-name="Group 820" transform="translate(27.464 47.553)">
        <g id="Group_819" data-name="Group 819">
          <path id="Path_910" data-name="Path 910" d="M965.673,481.26c4.131-.363,8.485-1.144,12.615-.7.53.056.53-.781,0-.837-4.131-.475-8.485.335-12.615.7-.53.056-.53.893,0,.837Z" transform="translate(-965.275 -479.58)" fill="#161616"/>
        </g>
      </g>
      <g id="Group_822" data-name="Group 822" transform="translate(24.517 57.125)">
        <g id="Group_821" data-name="Group 821">
          <path id="Path_911" data-name="Path 911" d="M954.907,515.25c2.037,1.2,4.41,1.089,6.7,1.033a14.025,14.025,0,0,0,6.894-1.619c.474-.279.028-1-.419-.726a13.02,13.02,0,0,1-6.475,1.507c-2.121.084-4.354.223-6.28-.893-.447-.279-.865.447-.419.7Z" transform="translate(-954.716 -513.875)" fill="#161616"/>
        </g>
      </g>
      <g id="Group_824" data-name="Group 824" transform="translate(37.628 48.037)">
        <g id="Group_823" data-name="Group 823">
          <path id="Path_912" data-name="Path 912" d="M1004.15,481.617a49.122,49.122,0,0,1-2.428,8.931c-.2.5.614.726.809.223a45.515,45.515,0,0,0,2.428-8.931c.084-.53-.726-.754-.809-.223Z" transform="translate(-1001.692 -481.314)" fill="#161616"/>
        </g>
      </g>
      <g id="Group_826" data-name="Group 826" transform="translate(27.066 49.729)">
        <g id="Group_825" data-name="Group 825">
          <path id="Path_913" data-name="Path 913" d="M963.891,488.024c1.368,3.014,5.247,3.768,8.233,3.8a.419.419,0,0,0,0-.837c-2.679-.056-6.28-.67-7.508-3.4-.223-.474-.949-.028-.726.447Z" transform="translate(-963.849 -487.375)" fill="#161616"/>
        </g>
      </g>
      <g id="Group_828" data-name="Group 828" transform="translate(32.882 52.687)">
        <g id="Group_827" data-name="Group 827">
          <path id="Path_914" data-name="Path 914" d="M984.944,498.373c-.084.7-.167,1.4-.251,2.065-.056.53.781.53.837,0,.084-.7.167-1.4.251-2.065.056-.53-.781-.53-.837,0Z" transform="translate(-984.69 -497.975)" fill="#161616"/>
        </g>
      </g>
      <g id="Group_830" data-name="Group 830" transform="translate(34.501 52.687)">
        <g id="Group_829" data-name="Group 829">
          <path id="Path_915" data-name="Path 915" d="M990.716,498.373c-.084.7-.168,1.4-.223,2.093-.056.53.781.53.837,0,.084-.7.167-1.4.223-2.093.056-.53-.781-.53-.837,0Z" transform="translate(-990.49 -497.975)" fill="#161616"/>
        </g>
      </g>
      <g id="Group_832" data-name="Group 832" transform="translate(34.926 50.225)">
        <g id="Group_831" data-name="Group 831">
          <path id="Path_916" data-name="Path 916" d="M992.54,493.185a7.256,7.256,0,0,0,4.661-3.405.419.419,0,0,0-.726-.419,6.537,6.537,0,0,1-4.159,3.014.42.42,0,0,0,.223.809Z" transform="translate(-992.014 -489.152)" fill="#161616"/>
        </g>
      </g>
      <g id="Group_834" data-name="Group 834" transform="translate(29.068 10.888)">
        <g id="Group_833" data-name="Group 833">
          <path id="Path_917" data-name="Path 917" d="M971.3,348.517c-.837,4.94.084,10.829,5.135,13.09.474.223.921-.5.419-.726-4.717-2.121-5.526-7.564-4.745-12.141.084-.53-.726-.754-.809-.223Z" transform="translate(-971.022 -348.214)" fill="#161616"/>
        </g>
      </g>
      <g id="Group_836" data-name="Group 836" transform="translate(46.505 9.43)">
        <g id="Group_835" data-name="Group 835">
          <path id="Path_918" data-name="Path 918" d="M1033.5,343.409a45.224,45.224,0,0,0,.251,4.773c.223,1.7,1.758,3.6.949,5.3-.223.474.5.921.726.419.726-1.535.084-2.819-.447-4.326-.7-1.926-.53-4.159-.614-6.2-.056-.53-.893-.53-.865.028Z" transform="translate(-1033.498 -342.987)" fill="#161616"/>
        </g>
      </g>
      <g id="Group_838" data-name="Group 838" transform="translate(36.607 23.233)">
        <g id="Group_837" data-name="Group 837">
          <path id="Path_919" data-name="Path 919" d="M998.192,392.9a1.974,1.974,0,0,1,2.9,1.368c.028.14.223.084.2-.056a2.2,2.2,0,0,0-3.21-1.507c-.112.084,0,.279.112.2Z" transform="translate(-998.034 -392.442)" fill="#fff"/>
        </g>
      </g>
      <g id="Group_840" data-name="Group 840" transform="translate(38.849 24.942)">
        <g id="Group_839" data-name="Group 839">
          <path id="Path_920" data-name="Path 920" d="M1006.1,398.744a2.009,2.009,0,0,1,.419.754c.056.14.251.084.2-.056a3.1,3.1,0,0,0-.474-.837c-.084-.112-.251.056-.14.14Z" transform="translate(-1006.067 -398.567)" fill="#fff"/>
        </g>
      </g>
      <g id="Group_842" data-name="Group 842" transform="translate(44.298 20.354)">
        <g id="Group_841" data-name="Group 841">
          <path id="Path_921" data-name="Path 921" d="M1025.788,384.938a3.811,3.811,0,0,1,2.038-2.624.1.1,0,1,0-.112-.167,3.855,3.855,0,0,0-2.121,2.735c-.028.14.167.2.2.056Z" transform="translate(-1025.59 -382.126)" fill="#fff"/>
        </g>
      </g>
    </g>
    <path id="Path_922" data-name="Path 922" d="M822.878,177.71a15.94,15.94,0,0,0-4.27,3.628,23.79,23.79,0,0,0-3.712,6.056,38.823,38.823,0,0,0-2.6,7.257c1.089.2,2.177.363,3.265.558a16.106,16.106,0,0,0,.363,4.466c.391,1.675,1.033,4.354,3.266,6.224,3.07,2.624,7.145,1.982,7.9,1.87a11.559,11.559,0,0,0,1.4,5.108c.279.474.558.921.837,1.312a17.659,17.659,0,0,0,6.224-3.266c5.917-4.773,6.726-11.89,6.977-13.955.363-3.182,1.061-9.182-2.875-14.15C835.549,177.682,827.762,175.253,822.878,177.71Z" transform="translate(-376.906 2724.56)" fill="#fff"/>
    <path id="Path_923" data-name="Path 923" d="M820.977,170.778a17.038,17.038,0,0,1,3.991-4.1c2.735-1.926,3.963-1.116,5.359-2.819,1-1.228,1.647-3.238.893-4.187-1.2-1.507-5.47.307-6.029.558-1.228.53-5.275,2.233-6.894,6.531-1.34,3.6-.447,7.536.167,7.619.167.028.279-.251,1.172-1.619C820.056,172.062,820.53,171.42,820.977,170.778Z" transform="translate(-380.726 2737.297)" fill="#006"/>
    <path id="Path_924" data-name="Path 924" d="M850.914,159.123c-.223.726-.558,2.177.558,5.024,1.982,5.108,6.615,9.685,8.931,8.848a5.1,5.1,0,0,1,2.037-.754,3.2,3.2,0,0,1,2.037.558c1.228.977,1.284,3.1.474,4.466a2.928,2.928,0,0,1-2.037,1.479c-1,.084-1.34-.7-2.149-.754-1.982-.112-3.684,4.242-3.907,4.828a13.181,13.181,0,0,0-.754,7.731,11.587,11.587,0,0,0,1.758,4.27c2.6,3.768,6.95,4.689,8.569,5.024,1.591.335,7.647,1.591,12.364-2.317a10.9,10.9,0,0,0,3.907-6.336c1.144-6.084-3.963-10.634-4.27-10.885a37.67,37.67,0,0,0-3.628-13.676c-1.675-3.489-3.237-6.7-6.782-9.127-4.661-3.154-11.443-4.047-14.988-1.312A6.845,6.845,0,0,0,850.914,159.123Z" transform="translate(-404.579 2740.55)" fill="#006"/>
    <path id="Path_925" data-name="Path 925" d="M827.583,278.2a6.281,6.281,0,0,0-1.87,3.712,6.438,6.438,0,0,0,1.954,5.108c2.038,2.093,5.443,2.931,7.9,1.675.2-.084,2.344-1.228,2.428-2.875.028-.726-.363-1.089-.921-2.707-.363-1.061-.586-1.926-.754-2.512a7.881,7.881,0,0,1-3.628.363A8.441,8.441,0,0,1,827.583,278.2Z" transform="translate(-386.55 2651.421)" fill="#006"/>
    <path id="Path_926" data-name="Path 926" d="M852.5,179.7a9.587,9.587,0,0,0,.726,3.517,9.947,9.947,0,0,0,1.088,1.926,20.247,20.247,0,0,1,2.177,5.331c.977,2.9.809,5.331.614,8.345a34.589,34.589,0,0,1-2.54,10.773,11.448,11.448,0,0,1,3.014,1.451,14.146,14.146,0,0,1,3.74,3.991c1.256,1.647,4.047,3.377,10.773,3.266-.67-.67-1.619-1.675-2.651-2.9-2.428-2.847-4.549-5.331-5.805-8.345a18.521,18.521,0,0,1-.977-10.411,2.435,2.435,0,0,0,2.428-.112,2.3,2.3,0,0,0,.977-2.428,2.38,2.38,0,0,0-2.9-1.451,15.051,15.051,0,0,0-1.451-2.791,15.991,15.991,0,0,0-2.791-3.154A52.288,52.288,0,0,1,852.5,179.7Z" transform="translate(-405.885 2722.43)" fill="#606060" opacity="0.12"/>
    <path id="Path_927" data-name="Path 927" d="M813.4,237.194c.028-.447,1.451-.809,2.651-.726,1.061.084,2.317.558,2.289.977-.028.391-1.2.7-2.065.726C814.935,238.227,813.4,237.641,813.4,237.194Z" transform="translate(-377.698 2681.514)" fill="#606060" opacity="0.14"/>
    <g id="Group_844" data-name="Group 844" transform="translate(434.898 2908.104)">
      <g id="Group_843" data-name="Group 843">
        <path id="Path_928" data-name="Path 928" d="M814.785,201.327a112.96,112.96,0,0,0-4.242,10.662.4.4,0,0,0,.279.5,8.519,8.519,0,0,0,3.321.586.419.419,0,0,0,0-.837,8.951,8.951,0,0,1-3.1-.558c.084.167.2.335.279.5a99.567,99.567,0,0,1,4.159-10.466c.251-.447-.474-.893-.7-.391Z" transform="translate(-810.521 -201.105)" fill="#161616"/>
      </g>
    </g>
    <g id="Group_846" data-name="Group 846" transform="translate(438.408 2919.846)">
      <g id="Group_845" data-name="Group 845">
        <path id="Path_929" data-name="Path 929" d="M823.1,243.573c.223,3.6.558,7.592,3.238,10.3,2.568,2.624,6.28,2.4,9.657,2.01.53-.056.53-.893,0-.837-3.126.363-6.67.67-9.071-1.758-2.512-2.54-2.763-6.336-2.986-9.713-.028-.53-.865-.53-.837,0Z" transform="translate(-823.098 -243.175)" fill="#161616"/>
      </g>
    </g>
    <g id="Group_848" data-name="Group 848" transform="translate(449.651 2932.109)">
      <g id="Group_847" data-name="Group 847">
        <path id="Path_930" data-name="Path 930" d="M863.384,287.64a18.6,18.6,0,0,0,1.982,5.554c.251.474.977.056.726-.419a18.328,18.328,0,0,1-1.9-5.359c-.084-.53-.893-.307-.809.223Z" transform="translate(-863.378 -287.114)" fill="#161616"/>
      </g>
    </g>
    <g id="Group_850" data-name="Group 850" transform="translate(438.838 2922.883)">
      <g id="Group_849" data-name="Group 849">
        <path id="Path_931" data-name="Path 931" d="M824.768,255.688a2.391,2.391,0,0,0,3.935-1.116c.167-.53-.642-.726-.809-.223a1.515,1.515,0,0,1-2.512.726c-.419-.335-1,.251-.614.614Z" transform="translate(-824.64 -254.057)" fill="#161616"/>
      </g>
    </g>
    <g id="Group_852" data-name="Group 852" transform="translate(441.251 2922.544)">
      <g id="Group_851" data-name="Group 851">
        <path id="Path_932" data-name="Path 932" d="M833.569,253.668a1.98,1.98,0,0,1,1.061.7.414.414,0,1,0,.586-.586,2.7,2.7,0,0,0-1.423-.921.421.421,0,0,0-.223.809Z" transform="translate(-833.285 -252.842)" fill="#161616"/>
      </g>
    </g>
    <g id="Group_854" data-name="Group 854" transform="translate(441.999 2911.238)">
      <g id="Group_853" data-name="Group 853">
        <path id="Path_933" data-name="Path 933" d="M836.754,214.026c.223-1.172,1.675-.949,2.456-.53a3.166,3.166,0,0,1,1.423,1.647c.2.5,1,.279.809-.223a3.881,3.881,0,0,0-2.651-2.484c-1.172-.307-2.568.056-2.819,1.368-.112.53.7.754.781.223Z" transform="translate(-835.962 -212.333)" fill="#161616"/>
      </g>
    </g>
    <g id="Group_856" data-name="Group 856" transform="translate(441.974 2906.159)">
      <g id="Group_855" data-name="Group 855">
        <path id="Path_934" data-name="Path 934" d="M836.664,195.968c1.256-2.093,3.712-.474,4.214,1.284a.42.42,0,0,0,.809-.223,3.836,3.836,0,0,0-2.624-2.819,2.894,2.894,0,0,0-3.126,1.312.426.426,0,0,0,.726.447Z" transform="translate(-835.875 -194.136)" fill="#161616"/>
      </g>
    </g>
    <g id="Group_858" data-name="Group 858" transform="translate(443.192 2916.839)">
      <g id="Group_857" data-name="Group 857">
        <path id="Path_935" data-name="Path 935" d="M840.646,233.237a.419.419,0,0,0,0-.837.419.419,0,0,0,0,.837Z" transform="translate(-840.237 -232.4)" fill="#161616"/>
      </g>
    </g>
    <g id="Group_860" data-name="Group 860" transform="translate(444.772 2915.583)">
      <g id="Group_859" data-name="Group 859">
        <path id="Path_936" data-name="Path 936" d="M846.319,228.737h.112a.419.419,0,0,0,0-.837h-.112a.429.429,0,0,0-.419.419.411.411,0,0,0,.419.419Z" transform="translate(-845.9 -227.9)" fill="#161616"/>
      </g>
    </g>
    <g id="Group_862" data-name="Group 862" transform="translate(445.219 2917.446)">
      <g id="Group_861" data-name="Group 861">
        <path id="Path_937" data-name="Path 937" d="M847.5,234.973v.084a.419.419,0,0,0,.837,0v-.084a.419.419,0,0,0-.837,0v.084a.419.419,0,0,0,.837,0v-.084a.419.419,0,0,0-.837,0Z" transform="translate(-847.5 -234.575)" fill="#161616"/>
      </g>
    </g>
    <g id="Group_864" data-name="Group 864" transform="translate(456.052 2912.193)">
      <g id="Group_863" data-name="Group 863">
        <path id="Path_938" data-name="Path 938" d="M887.651,217.135c.754-1.088,2.037-.391,2.484.5a4.591,4.591,0,0,1,.335,2.289c-.112,1.9-1.7,3.238-3.545,2.065-.447-.307-.865.419-.419.726a3.015,3.015,0,0,0,3.573-.028,4.036,4.036,0,0,0,1.228-3.628,3.367,3.367,0,0,0-1.926-3.182,2.083,2.083,0,0,0-2.456.837c-.279.419.447.837.726.419Z" transform="translate(-886.316 -215.755)" fill="#161616"/>
      </g>
    </g>
    <g id="binocular" transform="translate(377.781 2895.865)">
      <path id="Path_939" data-name="Path 939" d="M611.322,159.491c-.586,0-1.172.028-1.73.028a22.053,22.053,0,0,0-1.786,4.745,22.586,22.586,0,0,0-.5,8.038,18.431,18.431,0,0,0,.419,2.344h1.507l.586,2.01c4.717-.028,8.6-.028,11.3,0,16.411.14,27.854.781,30.506.921,3.321.2,6.029.391,7.7.5.056-1.033.335-1.4.586-1.507.447-.2.837.279,1.424.167.614-.112,1-.754,1.256-1.34a4.248,4.248,0,0,0,2.512.419,3.912,3.912,0,0,0,.67-.167L667.2,172.8a8.855,8.855,0,0,0-2.763-.419,9.416,9.416,0,0,0-1.675.167,2.643,2.643,0,0,0-1.675-1.675,2.036,2.036,0,0,0-.921,0l-.5-.921c-.67-.112-1.7-.279-2.931-.5a185.215,185.215,0,0,1-22.216-5.61c-5.08-1.535-12.476-3.628-21.965-5.945C612.159,158.43,611.74,158.961,611.322,159.491Z" transform="translate(-606.794 -157.719)" fill="#fff"/>
      <path id="Path_940" data-name="Path 940" d="M607.358,181.854c.251-.056.53.586.837.5.5-.112.391-1.87.5-3.182a12.5,12.5,0,0,1,1.675-5.275c.809.335,2.037.865,3.517,1.507,5.331,2.317,9.015,4.1,10.131,4.605a78.123,78.123,0,0,0,17.5,5.359,80.768,80.768,0,0,0,18.756,1.34l-1,2.763c-1.284-.028-3.154-.028-5.443-.084-9.824-.2-16.69-.5-20.626-.67-5.554-.223-13.509-.447-23.556-.419l-.335-2.261-1.926.335C606.967,182.887,607.079,181.91,607.358,181.854Z" transform="translate(-606.765 -169.254)" fill="#606060" opacity="0.07"/>
      <g id="Group_866" data-name="Group 866" transform="translate(1.56)">
        <g id="Group_865" data-name="Group 865">
          <path id="Path_941" data-name="Path 941" d="M615.02,157.461a22.276,22.276,0,0,0-2.679,18.253.42.42,0,0,0,.809-.223,21.428,21.428,0,0,1,2.6-17.611c.307-.474-.419-.893-.726-.419Z" transform="translate(-611.466 -157.252)" fill="#161616"/>
        </g>
      </g>
      <g id="Group_868" data-name="Group 868" transform="translate(5.556 0.193)">
        <g id="Group_867" data-name="Group 867">
          <path id="Path_942" data-name="Path 942" d="M626.069,158.768q23.57,5.945,47.112,11.862a.42.42,0,0,0,.223-.809q-23.57-5.945-47.112-11.862a.421.421,0,0,0-.223.809Z" transform="translate(-625.785 -157.942)" fill="#161616"/>
        </g>
      </g>
      <g id="Group_870" data-name="Group 870" transform="translate(2.623 18.518)">
        <g id="Group_869" data-name="Group 869">
          <path id="Path_943" data-name="Path 943" d="M615.673,224.466q24.575-.209,49.122,1.144c.53.028.53-.809,0-.837q-24.533-1.34-49.122-1.144a.419.419,0,0,0,0,.837Z" transform="translate(-615.275 -223.601)" fill="#161616"/>
        </g>
      </g>
      <g id="Group_872" data-name="Group 872" transform="translate(51.957 11.946)">
        <g id="Group_871" data-name="Group 871">
          <path id="Path_944" data-name="Path 944" d="M792.778,200.68a7.722,7.722,0,0,1-.67,7.564c-.307.447.419.865.726.419a8.531,8.531,0,0,0,.67-8.4c-.223-.474-.949-.056-.726.419Z" transform="translate(-792.034 -200.052)" fill="#161616"/>
        </g>
      </g>
      <g id="Group_874" data-name="Group 874" transform="translate(53.143 12.845)">
        <g id="Group_873" data-name="Group 873">
          <path id="Path_945" data-name="Path 945" d="M796.68,204.092c.307.223.53.14.893.223a1.741,1.741,0,0,1,1.116,1.507c.223,1.228-.084,3.824-1.9,3.1-.5-.2-.726.614-.223.809,1.842.726,3.042-1.2,3.042-2.819a4.838,4.838,0,0,0-.614-2.651,1.848,1.848,0,0,0-.67-.642c-.363-.167-.865-.056-1.172-.279a.446.446,0,0,0-.474.754Z" transform="translate(-796.285 -203.275)" fill="#161616"/>
        </g>
      </g>
      <g id="Group_876" data-name="Group 876" transform="translate(55.596 14.321)">
        <g id="Group_875" data-name="Group 875">
          <path id="Path_946" data-name="Path 946" d="M805.473,209.438a21.51,21.51,0,0,1,4.242.14c.53.056.53-.781,0-.837a23.967,23.967,0,0,0-4.242-.14c-.53.056-.53.893,0,.837Z" transform="translate(-805.075 -208.562)" fill="#161616"/>
        </g>
      </g>
      <g id="Group_878" data-name="Group 878" transform="translate(55.579 17.451)">
        <g id="Group_877" data-name="Group 877">
          <path id="Path_947" data-name="Path 947" d="M805.317,220.593a12.9,12.9,0,0,0,3.433.167c.53-.056.53-.893,0-.837a12.339,12.339,0,0,1-3.21-.14c-.53-.084-.754.7-.223.809Z" transform="translate(-805.014 -219.778)" fill="#161616"/>
        </g>
      </g>
      <g id="Group_880" data-name="Group 880" transform="translate(0 1.244)">
        <g id="Group_879" data-name="Group 879">
          <path id="Path_948" data-name="Path 948" d="M610.517,162.013c-2.707-1.563-3.461,3.321-3.824,4.856a20.943,20.943,0,0,0-.2,10.745.448.448,0,0,0,.391.307H608a.419.419,0,0,0,0-.837h-1.116a4.761,4.761,0,0,1,.391.307,17.887,17.887,0,0,1-.307-7.787c.2-1.172.447-2.344.754-3.489.2-.754.809-4.3,2.344-3.377a.426.426,0,0,0,.447-.726Z" transform="translate(-605.877 -161.709)" fill="#161616"/>
        </g>
      </g>
    </g>
    <g id="hand" transform="translate(406.072 2902.542)">
      <path id="Path_949" data-name="Path 949" d="M714.519,182.92a1.753,1.753,0,0,0-1.451-.53c-.921.056-1.814.893-2.791,2.931a20.553,20.553,0,0,0-1.982,8.373,34.239,34.239,0,0,0,2.121,12.225,60.388,60.388,0,0,0,1.34,8.764c1.423,6.364,2.93,13.062,8.122,19.007,1.954,2.261,5.805,6.643,12.5,8.234a22.017,22.017,0,0,0,14.095-1.451,21.449,21.449,0,0,0,7.564-5.973c1.758-2.2,3.8-4.605,3.461-7.564a12.8,12.8,0,0,0-1.535-4.1c-.837-1.73-1.284-2.6-2.177-2.931-1.228-.474-2.54.363-3.991,1.2-2.456,1.4-2.679,2.735-5.331,4.131a17.046,17.046,0,0,1-2.791,1.061,27.785,27.785,0,0,1-6.391,1.591c-4.382.307-7.9-2.2-8.9-2.931a17.939,17.939,0,0,1-6.112-8.513,25.205,25.205,0,0,1-1.591-12.755,5.5,5.5,0,0,0,2.512-1.061c1.479-1.144,1.842-2.735,2.4-5.191.363-1.535.53-2.344.14-2.651-.809-.614-3.293,1.4-3.852,1.87a24.159,24.159,0,0,1,.67-4.521,6.629,6.629,0,0,1,1.061-2.791c.977-1.144,2.121-1.033,2.512-2.121a1.819,1.819,0,0,0-.279-1.87,2.2,2.2,0,0,0-2.791.279,2.005,2.005,0,0,0-1.73-1.2,1.945,1.945,0,0,0-1.34.53,1.7,1.7,0,0,0-.809-1.73,1.858,1.858,0,0,0-2.4,1.2A1.811,1.811,0,0,0,714.519,182.92Z" transform="translate(-707.999 -182.048)" fill="#fff"/>
      <path id="Path_950" data-name="Path 950" d="M712.943,182.4a20.049,20.049,0,0,0-2.065,5.163,22.7,22.7,0,0,0,.223,11c4.8,20.458,2.707,20.961,6.057,25.761,1.228,1.73,9.657,13.341,22.216,11.806,10.522-1.284,16.1-10.857,16.83-12.141a10.659,10.659,0,0,1,.586,5.275,11.293,11.293,0,0,1-3.321,6.2,24.925,24.925,0,0,1-3.433,2.624,43.483,43.483,0,0,1-3.908,2.512c-3.321,1.87-8.457,2.317-12.029,1.842-9.713-1.284-15.546-10.494-17.974-14.318a40.162,40.162,0,0,1-6.057-21.993c-.53-1.786-1.061-3.6-1.591-5.387a40.379,40.379,0,0,1-.335-6.643c.139-3.991.251-6.978,2.289-9.517A9.455,9.455,0,0,1,712.943,182.4Z" transform="translate(-707.875 -182.058)" fill="#606060" opacity="0.12"/>
      <g id="Group_882" data-name="Group 882" transform="translate(10.234 23.193)">
        <g id="Group_881" data-name="Group 881">
          <path id="Path_951" data-name="Path 951" d="M776.534,296.686c4.41-2.093,7.368-6.475,6.643-11.443-.419-3.014-2.847-8.206-6.726-6.363-1.73.837-3.154,2.372-4.745,3.461a28.242,28.242,0,0,1-7.284,3.489,13.238,13.238,0,0,1-9.964-.307,14.154,14.154,0,0,1-5.443-5.135,25.911,25.911,0,0,1-4.214-15.713c.028-.53-.809-.53-.837,0a25.991,25.991,0,0,0,2.791,13.341c1.814,3.74,4.466,7.257,8.485,8.764,4.884,1.814,10.215-.028,14.625-2.344a40.7,40.7,0,0,0,5.47-3.8c1.619-1.256,3.238-1.87,4.884-.2,2.037,2.065,2.651,5.666,2.037,8.4a10.73,10.73,0,0,1-6.14,7.117c-.475.223-.056.949.419.726Z" transform="translate(-743.909 -264.275)" fill="#161616"/>
        </g>
      </g>
      <g id="Group_884" data-name="Group 884" transform="translate(10.091 12.091)">
        <g id="Group_883" data-name="Group 883">
          <path id="Path_952" data-name="Path 952" d="M744.373,236.359c-.363-1.535.726-1.926,1.73-2.651a6.578,6.578,0,0,0,1.451-1.591,11.793,11.793,0,0,0,2.121-5.191c.112-.921.307-2.372-.949-2.428-1.479-.056-2.093,1.814-3.489,1.954-.53.056-.53.893,0,.837,1.061-.112,1.591-.782,2.4-1.4.474-.363,1-.782,1.256.028a4.1,4.1,0,0,1-.2,1.73,10.9,10.9,0,0,1-1.061,2.735,9.353,9.353,0,0,1-1.535,2.233c-.586.614-1.4.754-2.037,1.256-.865.67-.726,1.814-.5,2.735.139.5.949.279.809-.251Z" transform="translate(-743.395 -224.496)" fill="#161616"/>
        </g>
      </g>
      <g id="Group_886" data-name="Group 886">
        <g id="Group_885" data-name="Group 885">
          <path id="Path_953" data-name="Path 953" d="M708.569,200.719a35.587,35.587,0,0,1-.056-10.885,23.164,23.164,0,0,1,1-4.326,8.062,8.062,0,0,1,1.34-2.568c.837-.921,2.484-1.4,2.931.167a.42.42,0,0,0,.809-.223,2.212,2.212,0,0,0-3.014-1.535c-1.7.7-2.512,2.791-3.042,4.382a33.763,33.763,0,0,0-.809,15.211c.112.53.921.307.837-.223Z" transform="translate(-707.24 -181.175)" fill="#161616"/>
        </g>
      </g>
      <g id="Group_888" data-name="Group 888" transform="translate(4.536 0.925)">
        <g id="Group_887" data-name="Group 887">
          <path id="Path_954" data-name="Path 954" d="M724.331,188.706c.67-1.647,2.568-4.968,4.633-2.707.363.391.949-.2.586-.586a2.734,2.734,0,0,0-3.517-.5c-1.34.754-1.954,2.233-2.512,3.6-.2.474.614.7.809.2Z" transform="translate(-723.492 -184.488)" fill="#161616"/>
        </g>
      </g>
      <g id="Group_890" data-name="Group 890" transform="translate(8.054 2.053)">
        <g id="Group_889" data-name="Group 889">
          <path id="Path_955" data-name="Path 955" d="M736.936,192.317a3.019,3.019,0,0,1,1.479-2.735,2.011,2.011,0,0,1,2.484.53c.335.419.921-.167.586-.586a2.866,2.866,0,0,0-3.405-.726,3.844,3.844,0,0,0-1.982,3.517c-.028.53.809.53.837,0Z" transform="translate(-736.098 -188.529)" fill="#161616"/>
        </g>
      </g>
      <g id="Group_892" data-name="Group 892" transform="translate(10.495 2.675)">
        <g id="Group_891" data-name="Group 891">
          <path id="Path_956" data-name="Path 956" d="M745.668,194.2c.5-1.87,2.6-3.573,4.41-2.065.419.335,1-.251.586-.586-2.317-1.9-5.108-.112-5.805,2.428a.42.42,0,0,0,.809.223Z" transform="translate(-744.842 -190.758)" fill="#161616"/>
        </g>
      </g>
      <g id="Group_894" data-name="Group 894" transform="translate(11.457 3.285)">
        <g id="Group_893" data-name="Group 893">
          <path id="Path_957" data-name="Path 957" d="M752.4,193.574c.893,1.256-1.089,2.037-1.786,2.624a3.856,3.856,0,0,0-1.172,1.786,24.745,24.745,0,0,0-1.144,6.029c-.056.53.781.53.837,0a29.646,29.646,0,0,1,.726-4.41,13.5,13.5,0,0,1,.391-1.423,3.822,3.822,0,0,1,1.7-1.926c1-.726,2.065-1.9,1.172-3.154-.307-.391-1.033.028-.726.474Z" transform="translate(-748.29 -192.945)" fill="#161616"/>
        </g>
      </g>
      <g id="Group_896" data-name="Group 896" transform="translate(0.285 18.18)">
        <g id="Group_895" data-name="Group 895">
          <path id="Path_958" data-name="Path 958" d="M708.273,246.84a44.692,44.692,0,0,0,1.7,5.61c.2.5,1,.279.809-.223a44.7,44.7,0,0,1-1.7-5.61c-.112-.53-.921-.307-.809.223Z" transform="translate(-708.262 -246.314)" fill="#161616"/>
        </g>
      </g>
      <g id="Group_898" data-name="Group 898" transform="translate(1.856 24.453)">
        <g id="Group_897" data-name="Group 897">
          <path id="Path_959" data-name="Path 959" d="M713.893,269.182c1.061,9.6,3.433,19.453,9.88,26.933,5.135,5.945,13.285,10.466,21.323,8.987a19.712,19.712,0,0,0,10.02-5.247c.391-.363-.2-.977-.586-.586a18.259,18.259,0,0,1-20.4,3.545c-7.536-3.433-12.811-9.88-15.8-17.5a63.838,63.838,0,0,1-3.628-16.1c-.028-.558-.865-.558-.809-.028Z" transform="translate(-713.89 -268.787)" fill="#161616"/>
        </g>
      </g>
    </g>
  </g>
</svg>
