<svg xmlns="http://www.w3.org/2000/svg" width="274.287" height="184.208" viewBox="0 0 274.287 184.208">
  <g id="Group_908" data-name="Group 908" transform="translate(-170 -2088.5)">
    <rect id="Rectangle" width="120" height="120" rx="60" transform="translate(170 2088.5)" fill="#2384f5" opacity="0.15"/>
    <path id="Path_320" data-name="Path 320" d="M40.839,230.976a7.786,7.786,0,0,0-4.821,7.2v22.777H13.009V238.025a7.769,7.769,0,0,1,7.768-7.768H40.839Z" transform="translate(193.458 2010.536)" fill="#006" fill-rule="evenodd"/>
    <path id="Path_321" data-name="Path 321" d="M37.626,234.271c-1.327,2.53-.957,2.957-.843,10.674.011,1.324.078,15.74-.028,16.149a.973.973,0,0,1-.3.437c-.466.331,1.56.225-23.627.225a.971.971,0,0,1-.951-.813c-.017-.21-.029-23.165.011-23.752a8.7,8.7,0,0,1,5.426-7.366c2.2-.843,2.544-.622,13.719-.5,10.5.15,9.687.105,9.936.226a.6.6,0,0,1,.3.537c-.009.815-.005.675-.016.819a.6.6,0,0,1-.361.455l-.008-.009A7.1,7.1,0,0,0,37.626,234.271Zm-7.069-3.565v.15l-9.959.116a6.885,6.885,0,0,0-6.663,5.513c-.174.928-.14-1-.14,23.339H34.88c0-22.343-.011-23.3.862-25.083a8.529,8.529,0,0,1,3.733-4.039Z" transform="translate(193.637 2010.701)" fill="#006" fill-rule="evenodd"/>
    <path id="Path_322" data-name="Path 322" d="M191.207,93.186l.353.268c.169.9.073-.091-.322,3.085-.327,2.12-.525,5.8-.552,6.114-.422,7.5.688,15.616,7.519,18.793,1.888.8,2.323.551,2.824,1.069.305.471.18.208.233,3.3,0,4.117.3,11.47.284,11.818a.708.708,0,0,1-.645.627,21.269,21.269,0,0,0-2.819.464l-.459-.1-.264-.374v-.007l.089-.448.385-.272h0c.759-.182,1.461-.409,2.257-.565,0-.1-.808-7.038-.808-13.064a12.938,12.938,0,0,1-8.67-7.662,22.031,22.031,0,0,1-1.79-7.169,37.386,37.386,0,0,1,.28-9.63,41.4,41.4,0,0,1,1.375-5.806l.288-.364.434-.076Z" transform="translate(165.948 2032.007)" fill="#006" fill-rule="evenodd"/>
    <path id="Path_323" data-name="Path 323" d="M226.882,98.758a6.349,6.349,0,0,1,4.587,5.75,6.443,6.443,0,0,1-.027.884,6.28,6.28,0,0,1-.9,2.641c-1.843,2.709-4.439,3.62-7.667,4.1a70.524,70.524,0,0,1-3.7,10.06c.1,4.7.025,7.883.315,13.772.854.1,1.666.245,2.5.41,1.025.206.773.119,1.258.438l.109.446c-.007.009-.253.379-.253.389a1.371,1.371,0,0,1-.952.04c-3.483-.476-3.373-.162-3.837-.482h0c-.283-.269-.283-.118-.746-5.581-.358-5.306-.279-6.149-.35-9.235a1.52,1.52,0,0,1,.195-1.067,62.755,62.755,0,0,0,3.693-10.231c.253-1.064.928-.727,2.743-1.1a8.5,8.5,0,0,0,4.478-2.264,4.482,4.482,0,0,0-.3-6.331,4.426,4.426,0,0,0-.41-.331,6.321,6.321,0,0,0-2.653-1.189,15.338,15.338,0,0,0-2.415-.325l-.422-.2-.169-.407v-.007l.182-.4.422-.187h0A12.575,12.575,0,0,1,226.882,98.758Zm-9.388,22.475-.031.039-.011.01.058-.062Zm.084-.077c-.1.084-.03.027.066-.05Z" transform="translate(161.474 2031.205)" fill="#006" fill-rule="evenodd"/>
    <path id="Path_324" data-name="Path 324" d="M198.021,97.938l.307.268.109.468c0,3.229-.874,3.634-.684,9.761,2.692-.023,2.115-.143,2.867.11l.229.374v.006l-.132.422-.412.261h0a28.1,28.1,0,0,1-3.313.712.992.992,0,0,1-.726-.169,1.041,1.041,0,0,1-.3-.378c-.369-1.124-.253-6.783.477-9.446,0-.069.412-1.079.412-1.086.035-.069.388-.81.431-.88h0l.337-.345.4-.072Z" transform="translate(164.832 2031.263)" fill="#006" fill-rule="evenodd"/>
    <path id="Path_325" data-name="Path 325" d="M210.086,112.375c.266.406.331.327.47,1.62a5.058,5.058,0,0,1-1.072,3.6,4.059,4.059,0,0,1-2.284,1.548,4.158,4.158,0,0,1-4.152-1.4,4.011,4.011,0,0,1-.563-1.119c0-.609-.084-.371.2-.825h0c1.386.337.4.078,1.775.831a4.073,4.073,0,0,0,1.546.642,2.238,2.238,0,0,0,2.16-1.225,7.547,7.547,0,0,0,.963-2.983c.011-.192-.023-.059.175-.6l.365-.228h0Z" transform="translate(163.781 2029.022)" fill="#006" fill-rule="evenodd"/>
    <path id="Path_326" data-name="Path 326" d="M209.739,92.31A5.52,5.52,0,0,1,211,93.515a1.629,1.629,0,0,1,.427.908l-.151.392-.008,0-.4.121a1.92,1.92,0,0,1-.781-.361,10.3,10.3,0,0,0-1.569-.718,3.52,3.52,0,0,0-2.727-.193h0a2.774,2.774,0,0,0-.349.169h0a2.284,2.284,0,0,0-.261.177s-.564.294-.7.376c-.518.265.092.115-1.153.38-.169-.8-.286-.81.1-1.578a2.3,2.3,0,0,1,1.012-1.042h0a4.315,4.315,0,0,1,.617-.3h0A5.419,5.419,0,0,1,209.739,92.31Z" transform="translate(163.67 2032.268)" fill="#006" fill-rule="evenodd"/>
    <ellipse id="Ellipse_11" data-name="Ellipse 11" cx="1.783" cy="2.33" rx="1.783" ry="2.33" transform="translate(369.052 2130.155)" fill="#006"/>
    <path id="Path_327" data-name="Path 327" d="M219.8,93.112c1.251-7.1,2.093-16.483-5.279-20.548-2.925-1.615-6.21-2.038-9.361-3.007-2.216-4.541-6.958-11.622-11.827-12.938a14.133,14.133,0,0,0-15.226,5.9c-4.186,6.209-3.2,15.161,4.094,18.436,5.676,2.545,13.876,1.729,20.023.52,1.892-.372,3.678,1.167,5.519,1.729.967,4.673,3.8,7.859,8.4,9.013C217.447,92.547,219.8,93.112,219.8,93.112Z" transform="translate(167.985 2037.802)" fill="#006" fill-rule="evenodd"/>
    <path id="Path_328" data-name="Path 328" d="M193.334,55.467c5.21,1.4,9.892,8.244,12.332,13.087,3.806,1.053,7.216,1.58,10.211,3.626,6.531,4.687,5.806,12.988,4.335,20.852-.1-.017-1.3-.228.008,0a.612.612,0,0,1-.447.486c-.223.04.074.092-2.847-.579a14.3,14.3,0,0,1-4.807-1.748,11.719,11.719,0,0,1-5.251-7.538c-1.408-.506-2.827-1.482-4.087-1.545-1.051-.046-15.553,3.993-23.6-1.872-6.536-5.06-5.767-14.692-.82-20.063A15.007,15.007,0,0,1,193.334,55.467Zm-6.663,1.855c-8.861,2.3-12.3,12-9.042,18.092,2.9,6.124,12.164,6.52,18.916,5.819,5.242-.579,5.263-1.035,6.77-.809,1.638.29,2.79,1.2,4.408,1.793.974.3.337.828,1.573,3.6a10.3,10.3,0,0,0,1.526,2.4c2.284,2.666,5.144,3.167,8.3,3.96,0-.7,1.634-8.343-.653-13.77a10.087,10.087,0,0,0-2.831-3.953c-2.883-2.465-6.975-2.964-10.647-4.048-1.207-.365-.411-.2-2.952-4.3-2.034-3.157-5.424-7.6-9.024-8.681a12.323,12.323,0,0,0-6.344-.092Z" transform="translate(168.167 2037.986)" fill="#006" fill-rule="evenodd"/>
    <path id="Path_329" data-name="Path 329" d="M88.555,34.425A33.133,33.133,0,0,1,107.98,56.538h0a32.956,32.956,0,0,1-4.672,28.555A32.541,32.541,0,0,1,91.775,95.165a33.128,33.128,0,0,1-7.146,2.778A33.606,33.606,0,0,1,57.906,93.7C33.387,77.252,39.775,41.92,65.372,33.591A33.142,33.142,0,0,1,88.555,34.425Zm-17.742.462a30.975,30.975,0,1,0,31.276,47.376,31.452,31.452,0,0,0,4.173-25.707l-.013,0A31.353,31.353,0,0,0,70.813,34.887Zm37.162,21.651h0C107.829,56.064,107.842,56.1,107.976,56.538Z" transform="translate(208.445 2061.243)" fill="#006" fill-rule="evenodd"/>
    <path id="Path_330" data-name="Path 330" d="M88.807,60.6c.219,1.747.911,10.413.937,10.78.069.868.174,2.588.175,2.593,2.023.152,7.109-.123,10.272-.107.877.006.66-.023,1.1.155l.158.335v0l-.137.344c-.545.261.076.094-2.538.369a49.149,49.149,0,0,1-9.491.46.865.865,0,0,1-.814-.405c-.123-.249-.1-.17-.17-1.453-.438-7.54-1.131-10.379-.93-16.156.014-.357-.024-.19.158-.629l.32-.158h0C88.451,56.969,88.282,56.611,88.807,60.6Z" transform="translate(194.415 2053.47)" fill="#006" fill-rule="evenodd"/>
    <path id="Path_331" data-name="Path 331" d="M55.75,80.617a7.006,7.006,0,0,1,.987.2c.2.05.074,0,.538.232l.174.278c-.183.363-.069.243-.515.521a7.21,7.21,0,0,1-1.073.319,3.992,3.992,0,0,1-.779.052c-2.066.088-1.734.247-2.344.035-.309-.1-.1.008-.807-.458.453-.676.324-.53.585-.734a1.573,1.573,0,0,1,.57-.286A20.686,20.686,0,0,1,55.75,80.617Z" transform="translate(205.491 2045.998)" fill="#006" fill-rule="evenodd"/>
    <path id="Path_332" data-name="Path 332" d="M127.417,78.42a2.189,2.189,0,0,1,.7.082c.054.013.326.095.357.107.464.165.231.015.889.59-.573.606-.4.5-.87.663a10.236,10.236,0,0,1-2.7.146.834.834,0,0,1-.561-.146c-.26-.124-.057.007-.743-.489.47-.658.365-.539.579-.7a.95.95,0,0,1,.636-.259C126.322,78.384,126.76,78.4,127.417,78.42Z" transform="translate(182.789 2046.692)" fill="#006" fill-rule="evenodd"/>
    <path id="Path_333" data-name="Path 333" d="M87.183,40.832a3.7,3.7,0,0,1,.352.677,9.346,9.346,0,0,1,.123.987c.166,1.6.4,2.4-.089,3.715l-.262.206H87.3l-.3-.137-.256-.383a10.262,10.262,0,0,1-.424-1.207c-.069-.31-.316-2.564-.316-2.643a1.411,1.411,0,0,1,.076-.785c.221-.481-.094-.078.573-.871Z" transform="translate(194.839 2058.584)" fill="#006" fill-rule="evenodd"/>
    <path id="Path_334" data-name="Path 334" d="M91.734,118.765a3.819,3.819,0,0,1-.522-1.774c-.254-1.622-.218-1.266-.095-1.735.165-.386.051-.179.538-.816a2.562,2.562,0,0,1,.807.756c.157.229.121.187.222.829a5.634,5.634,0,0,1,.148,2.469c-.063.322,0,.177-.475.86C91.694,118.8,91.81,118.919,91.734,118.765Z" transform="translate(193.26 2035.415)" fill="#006" fill-rule="evenodd"/>
    <path id="Path_335" data-name="Path 335" d="M195.99,193.485s-.1,7.43-.288,10.811c8.273,1.472,16.429,3.473,24.688,5.026,2.361.444,4.688,1.658,7.073,1.34,12.712-1.7,25.611-1.731,38.421-2.318a3.5,3.5,0,0,0,3.263-4.132c-1.732-9.267-4.059-18.373-8.5-26.813-8.7-16.53-25.534-29.119-44.119-32.14a1.481,1.481,0,0,0-1.413.571c-3.885,5.114-9.633,10.2-16.037,11.362-3.8.684-10.134.121-11.909-4.026a9.253,9.253,0,0,1-.33-5.384A1.481,1.481,0,0,0,185,146.076a86.93,86.93,0,0,0-29.15,13.549c-3.138,2.309-6.619,4.841-9.151,7.831a8.181,8.181,0,0,1,2.883,7.4c1.755,1.861,2.637,4.315,1.627,6.78,3.993,6.543-4.217,12.074-9.155,14.9,4.234,8.188,14.3,23.411,14.46,23.822.047.12,1.333,26.531,1.376,26.566a.085.085,0,0,0,.066.02c7.605-.77,15.288.164,22.928.01,11.039-.223,22.454-.668,33.513-.688a.085.085,0,0,0,.019-.169c-7.609-2.02-18.185-5.417-24.187-10.266-5.65,2.178-12.44,1.144-17.932-1.117-3.993-1.643-7.023-5.949-.94-7.331-2.657-2.318-5.6-6.817-.447-7.992-2.967-2.46-7.348-8.929-.827-10.073-.759-4.385-1.864-8.866-3.052-13.165-8.511-.794-7.94-6.281-4.807-7.59,4.571-1.909,11.19-.764,16.1-.783-.439-2.49-.85-5-1.1-7.52-.084-.849-.349-2.162.237-2.9,1.247-1.576,4.078-1.849,5.857-2.361,5.065-1.451,10.658-3.9,16.042-3.388,2.245.215,4.4,1.919,2.323,4.021-1.227,1.238-3.25,1.661-4.854,2.156-1.671.514-3.294,1.181-4.968,1.7-2.587.8-5.216,1.327-7.853,1.93a47.721,47.721,0,0,0,.652,5.8,70.119,70.119,0,0,1,12.313.506,18.889,18.889,0,0,1,5.069.923c1.752.74,2.455,2.878.5,3.879C200.611,193.5,198.122,193.486,195.99,193.485Z" transform="translate(173.245 2023.853)" fill="#2384f5" fill-rule="evenodd"/>
    <path id="Path_336" data-name="Path 336" d="M205.4,216.784a38.9,38.9,0,0,1,7.073.568c8.9,1.442,23.216,5.07,25.954,5.659,0-.8-.06-.506.155-1.091l.4-.208h.008l.427.153c.3.577.192.263.291,1.1.066.832.181,1.265-.392,1.532-.234.065-.084.071-1.724-.15-9.741-1.363-16.739-3.819-27.053-5.307-1.069-.154-4.044-.726-6.063-1.031-.183-.027-.078.013-.547-.248l-.148-.411v-.007l.2-.387C204.53,216.746,204.219,216.781,205.4,216.784Z" transform="translate(163.575 2012.647)" fill="#006" fill-rule="evenodd"/>
    <path id="Path_337" data-name="Path 337" d="M245.952,223.89c.347.019,2.759.584,3.333.726a6.718,6.718,0,0,1,1.887.685,3.046,3.046,0,0,1,1.064.7l.116.4v.007l-.3.294-.547.115c-2.183,0-2.151-.244-5.279-.886a2.924,2.924,0,0,1-1.456-.57c-.269-.169-.124-.017-.7-.821.8-.567.622-.479.933-.545A3.71,3.71,0,0,1,245.952,223.89Z" transform="translate(157.263 2011.533)" fill="#006" fill-rule="evenodd"/>
    <path id="Path_338" data-name="Path 338" d="M271.523,222.589c.29.565.2.115.342,2.361a35.91,35.91,0,0,1-.451,7.488,30.441,30.441,0,0,1-8.44,16.488c-6.318,6.555-15.356,9.886-24.373,10.326-9.42.422-17.069-2.09-25.7-5.828-5.614-2.439-11.716-5.072-16.294-8.91a28.823,28.823,0,0,1-6.754,1.535c-4.927.471-10.178-.258-13.8-3.542h0l-.2-.413.132-.43c.012-.008.4-.2.412-.207.494.15.406.1.563.234a11.469,11.469,0,0,0,1.476.986c5.284,2.816,11.993,1.981,17.6-.036,2.038-.763.245.389,9.081,5.037a129.022,129.022,0,0,0,19.428,7.955c24.042,6.588,44.334-6.613,45.984-27.787.253-4.817-.212-4.132.152-5.19l.412-.21h0Z" transform="translate(167.951 2011.759)" fill="#006" fill-rule="evenodd"/>
    <path id="Path_339" data-name="Path 339" d="M175.2,224.588c.444.267,1.434.725,1.813.933.357.192.253.148.618.359a13.171,13.171,0,0,0,4.622,1.614,14.488,14.488,0,0,0,4.572-.131c1.047-.233.381-.206,1.219-.2l.337.281,0,.006v.439a1.432,1.432,0,0,1-.707.614,8.486,8.486,0,0,1-2.991,1,13.863,13.863,0,0,1-7.722-1.747,5.925,5.925,0,0,1-1.855-1.394,11.134,11.134,0,0,1-.715-.875h0l-.159-.455.112-.39v-.005l.376-.151Z" transform="translate(168.204 2011.44)" fill="#006" fill-rule="evenodd"/>
    <path id="Path_340" data-name="Path 340" d="M176.585,236.047c3.607.573,4.062,1.349,8.752.843a23.737,23.737,0,0,0,2.952-.463h0l.49.041.31.3v.006l-.028.434c-.332.36-.189.32-1.254.83a9.622,9.622,0,0,1-3.488.934,16.52,16.52,0,0,1-3.919-.136,7.631,7.631,0,0,1-4.323-1.7h0l-.288-.393-.012-.4v-.006l.31-.253.482-.044Z" transform="translate(167.962 2009.629)" fill="#006" fill-rule="evenodd"/>
    <path id="Path_341" data-name="Path 341" d="M200.722,208.528h.008l.253.375a1.308,1.308,0,0,1-.272.81,14.155,14.155,0,0,1-6.82,5.271h0A25.858,25.858,0,0,1,181.4,217.24a11.35,11.35,0,0,1-4.159-1.468c-.153-.084-.073-.01-.422-.438V214.9l.322-.281c.506-.018.413-.033.506-.005a17.826,17.826,0,0,0,3.841.664c3.341.267,6.586-.034,11.633-2.1a21.019,21.019,0,0,0,5.85-3.449c1.308-1.333.611-.834,1.3-1.276Z" transform="translate(167.799 2013.951)" fill="#006" fill-rule="evenodd"/>
    <path id="Path_342" data-name="Path 342" d="M103.007,190.871h.008l.3.337-.008.46h0a54.1,54.1,0,0,0-3.12,25.024,31.833,31.833,0,0,0,2.366,8.833,17.43,17.43,0,0,0,14.4,10.781c8.889,1.227,21.06-2.783,28.483-9.651.878-.814.506-.584,1.114-.838l.432.169h0l.179.422-.169.439h0c-9.208,9.651-26.605,15.343-38,8.892-13.4-7.632-13.494-31.373-6.778-44.582l.349-.307Z" transform="translate(180.172 2016.709)" fill="#006" fill-rule="evenodd"/>
    <path id="Path_343" data-name="Path 343" d="M145.161,196.253v.005l.148.4-.151.445h0a18.326,18.326,0,0,1-2.494,2.646h0a18.311,18.311,0,0,1-3.045,1.95h0c-.3.151-.046.032-.7.346-2.325,1.053-2.115.705-2.082,1,.769,5.22,1.016,4.681,1.954,10.517.358,2.5.337,2.039.2,2.652l-.369.26h-.008l-.439-.1-.276-.393h0c-.752-2.9-2.48-7.617-3.12-13.68h0c-.023-.964.657-1.018,1.472-1.288a17.869,17.869,0,0,0,2.471-1.056h0a53.905,53.905,0,0,0,5.457-3.606c.176-.137.055-.078.583-.253Z" transform="translate(174.385 2015.886)" fill="#006" fill-rule="evenodd"/>
    <path id="Path_344" data-name="Path 344" d="M140.181,178.994h.008l.183.4-.121.471a13.08,13.08,0,0,1-3.166,3.512,25.5,25.5,0,0,1-4.875,2.941,7.011,7.011,0,0,1-2.783.794,1.81,1.81,0,0,1-1-.062l-.272-.3c0-.009.064-.392.066-.4l.337-.347c.022-.008,1.336-.773,1.391-.8a32.859,32.859,0,0,0,4.536-2.382c1.053-.689,3.711-2.75,4.606-3.542.3-.265.132-.16.669-.4Z" transform="translate(175.422 2018.585)" fill="#006" fill-rule="evenodd"/>
    <path id="Path_345" data-name="Path 345" d="M142.622,186.822v.005l.186.393-.113.473a14.746,14.746,0,0,1-2.979,3.592,18.815,18.815,0,0,1-4.754,3.021,6.171,6.171,0,0,1-2.886.654,1.811,1.811,0,0,1-1.018-.169c-.007-.009-.234-.321-.24-.331l.112-.385.373-.309c.337-.131,1.464-.7,1.725-.805a16.057,16.057,0,0,0,4.4-2.354c.609-.458,3.495-2.906,4.323-3.691l.446-.2Z" transform="translate(175.005 2017.357)" fill="#006" fill-rule="evenodd"/>
    <path id="Path_346" data-name="Path 346" d="M135.007,170.459v.005l.144.431-.194.434c-.512.3-6,6.87-15,9.123-4.934,1.242-11.257.857-14-3.344a6.968,6.968,0,0,1-.695-1.434c-.034-.1-.017,0,0-.515l.3-.321h.439c.38.328.323.253.376.347.1.028,1.089,2.652,5.978,3.677,7.506,1.5,15.82-3.653,21.794-8.434h0l.455-.147Z" transform="translate(179.011 2019.931)" fill="#006" fill-rule="evenodd"/>
    <path id="Path_347" data-name="Path 347" d="M114.325,178.027c-5.006-9.263-6.157-13.325-7.718-16.016,1.274-1.518,2.56-3,3.943-4.425,5.717.754,11.47,1.331,17.183,2.156.777,4.1,2.874,7.748,3.964,11.734-2.638,2.7-6.184,4.165-9.726,5.225a22.193,22.193,0,0,1-7.449,1.274" transform="translate(178.797 2021.919)" fill="#006" fill-rule="evenodd"/>
    <path id="Path_348" data-name="Path 348" d="M110.5,156.433c6.041.788,10.8,1.265,16.116,2.005,1.265.175,1.289.145,1.616.414.353.395.222.44.524,1.613.976,3.768,2.606,6.679,3.589,10.187.143.506.2.633.055,1.043a5.287,5.287,0,0,1-1.15,1.165,17.631,17.631,0,0,1-3.527,2.3,36.249,36.249,0,0,1-11.407,3.242,12.765,12.765,0,0,1-2.024-.011c-.46.04-.191.069-.675-.258-.1-.18-3.167-5.336-5.482-10.265-.821-1.755-1.236-3.053-2.277-5.06a2.752,2.752,0,0,1-.38-.767c-.1-.65.233-.876.687-1.413,1.277-1.511,2-2.3,2.855-3.225C109.631,156.742,109.824,156.4,110.5,156.433Zm.195,2.05c-1.728,1.836-2.952,3.317-3.08,3.458.834,1.439,2.2,5.3,6.878,15.24,3.638.026,9.726-2.121,12.538-3.693h0a16.044,16.044,0,0,0,3.4-2.469c0-.577-2.5-6.172-3.5-9.783v-.008c-.084-.337-.108-.433-.19-.78C126.733,160.35,110.736,158.435,110.691,158.483Z" transform="translate(178.978 2022.1)" fill="#006" fill-rule="evenodd"/>
    <path id="Path_349" data-name="Path 349" d="M130.39,172.816c-.467-.388-.277-.078-1.65-2.239-.059-.108-.407-.665-.617-1.1-.283-.59-1.07-2.277-1.313-2.884-.824-1.9-.816-1.68.066-2.973.3-.46.573-.826.614-.9a10.72,10.72,0,0,1,1.483-1.424l.45-.2.389.068h.008l.179.352c-.068.608.035.323-.614,1.794a17.346,17.346,0,0,1-1.1,1.726c1.241,3.077,1.451,2.69,2.805,6.9l.012.525-.259.351h-.008Z" transform="translate(175.728 2021.368)" fill="#fff" fill-rule="evenodd"/>
    <path id="Path_350" data-name="Path 350" d="M206.609,178.147l.245.36c0,.745-.457.67-4.09,1.707,0,.234-2.323.238-14.891,4.032.028.884.155,3.879.155,8.24,0,3.556.116,2.765-.132,3.458l-.4.213h0l-.428-.157-.225-.428c0-.432-.723-4.941-.9-10.513-.053-1.722-.094-1.6.051-1.968.292-.492.047-.357,4.494-1.667,11.5-3.333,11.9-2.852,11.9-3,.1-.013,3-.406,3.771-.406Z" transform="translate(166.378 2018.718)" fill="#006" fill-rule="evenodd"/>
    <path id="Path_351" data-name="Path 351" d="M193.772,198.536c5.274.073,4.33.122,9.769.122l.45.169.206.4v.007l-.159.427-.428.217c0,.1-5.4.506-10.1.613-16.569.076-17.289,1-22.967.45-1.149-.111-2.382-.337-2.482-.35l-.4-.235-.139-.413v-.009l.213-.381a1.41,1.41,0,0,1,.928-.161C172.716,199.368,183.734,198.391,193.772,198.536Z" transform="translate(169.256 2015.507)" fill="#006" fill-rule="evenodd"/>
    <path id="Path_352" data-name="Path 352" d="M199.294,208.8c.1-3.1.422-6.178.582-9.27-5.589.064-11.174.278-16.759.324a79.343,79.343,0,0,0-8.623.327c.967,4.631,2.07,9.171,3.181,13.759,1.872.3,3.663,1.028,5.586.983,4.074-.094,8.58-1.795,12.1-3.693a20.838,20.838,0,0,0,4.086-2.361" transform="translate(168.163 2015.349)" fill="#006" fill-rule="evenodd"/>
    <path id="Path_353" data-name="Path 353" d="M200.536,198.959h0c.117.31.115.3-.008,1.612-.8,8.557-.918,7.345-.657,8.158-.207.442-.154.395-.376.582a17.906,17.906,0,0,1-3.357,2.044,41.817,41.817,0,0,1-4.68,2.329,29.9,29.9,0,0,1-4.688,1.518,13.911,13.911,0,0,1-7.943-.159c-1.8-.422-1.67-.253-2.063-.62-.193-.258-.066.39-1.67-6.442-.288-1.206-.935-3.992-1.468-6.471-.293-1.37-.43-1.561-.113-2.08.342-.4.563-.39,1.091-.447,1.693-.175,3.1-.227,4.807-.259C201.3,198.385,200.084,198.149,200.536,198.959ZM175.5,200.872c.563,2.762,2.118,9.247,2.8,12.044,2.825.546,3.345,1.136,6.6.759,5.039-.608,9.356-2.995,11.831-4.147a11.514,11.514,0,0,0,1.787-1.012c0-3.711.153-5.748.221-8.186C195.283,200.462,177.993,200.65,175.5,200.872Z" transform="translate(168.345 2015.524)" fill="#006" fill-rule="evenodd"/>
    <path id="Path_354" data-name="Path 354" d="M82.768,161.038a.6.6,0,0,1,.5.59c.414,40.13.46,38.439,0,38.9h0a.938.938,0,0,1-.6.223c-2.167.009-40.814.084-41.272-.034a.99.99,0,0,1-.506-.422c-.2-.428-.127,2.334-.127-38.66a.964.964,0,0,1,.794-.945C44.894,160.386,82.672,161.029,82.768,161.038Zm-40.084,1.557v36.25c21.253,0-31.932.024,39.048.029.1.049-.078,1.513.33-36.64-22.4.416-21.587.361-39.377.361Z" transform="translate(189.114 2021.446)" fill="#006" fill-rule="evenodd"/>
    <path id="Path_355" data-name="Path 355" d="M103.842,236.844c.861.293.277-.022,1.088.444l.186.362v.006l-.206.35-.474.24c-2.376.475-.422.289-4.536.4a2.518,2.518,0,0,1-1.4-.153c-.553-.253-.273-.038-1.037-.772.727-.759.473-.551,1-.814a2.519,2.519,0,0,1,1.383-.222C102.943,236.6,102.618,236.576,103.842,236.844Z" transform="translate(180.229 2009.538)" fill="#006" fill-rule="evenodd"/>
    <path id="Path_356" data-name="Path 356" d="M89.251,252.522a2,2,0,0,1,.972.12,51.812,51.812,0,0,1,6.618,3.985c1.841,1.249,2.284,1.349,2.16,2.225a.964.964,0,0,1-.349.554c-.288.189-.337.189-.913.263-3.59.467-7.126-.26-10.79-.626-7.519-.729-12.242-2.133-18.352-3.018-1.94-.288-1.975-.33-2.894-.519l-.385-.268-.093-.45c.006-.01.257-.374.264-.384l.412-.084.015-.012a75.634,75.634,0,0,1,10.068-1.349C79.372,252.707,86.177,252.515,89.251,252.522Zm-.337,1.961c-5.559.012-11.289.342-14.3.462-2.965.121-2.705.051-1.62.215,1.94.3,6.027.928,8.483,1.255,0,.1,11.315,1.421,13.679,1.445a55.906,55.906,0,0,0-5.422-3.267c-.245-.126-.1-.111-.823-.11Zm.26-.2.012.005-.015-.013Z" transform="translate(185.279 2007.051)" fill="#006" fill-rule="evenodd"/>
    <path id="Path_357" data-name="Path 357" d="M83.394,239.7a47.829,47.829,0,0,1,6.264.337c1.149.113.823.037,1.386.3l.187.4v.006l-.187.4-.45.2c-.4,0-1.855.235-5.022.314-1.9.05-1.14-.135-8.083.121h0a13.753,13.753,0,0,1-5.3-.5l-.393-.267-.132-.4v-.007l.221-.353C73.186,239.771,82.078,239.694,83.394,239.7Z" transform="translate(184.271 2009.057)" fill="#006" fill-rule="evenodd"/>
    <path id="Path_358" data-name="Path 358" d="M47.325,248.494c.577.019,1.053.126,3.022.18,2.906.062,3.718-.122,5.4-.051,2.716.126,2.277.084,2.867.31l.221.379v.007l-.169.406-.45.246a26.751,26.751,0,0,1-7.718.669c-3.5-.073-4-.342-5.159-.843-.127-.053-.044,0-.466-.354l-.109-.387c.006-.01.234-.315.24-.325l.462-.156C45.576,248.565,47.093,248.483,47.325,248.494Z" transform="translate(188.484 2007.679)" fill="#006" fill-rule="evenodd"/>
    <path id="Path_359" data-name="Path 359" d="M249.341,263.876l.233.422v.007l-.225.428-.544.187h0l-5.55.406-24.232.352-12.666.169-12.154.145-15.428.144-18.193.169-40.659.381-39.7.373-16.985.159-13.747.129-6.272.035-6.79.02-13.645.008-16.8-.024H5.606l-.422-.176L5,266.792v-.007l.175-.422.422-.184h0l.385-.008,16.8-.344,13.641-.253,6.789-.107,6.277-.084,13.742-.129,16.985-.159,39.692-.372,40.663-.381,18.19-.169,15.428-.145,12.157-.084,12.666-.07,24.233-.1,5.55-.077h0Z" transform="translate(194.713 2005.298)" fill="#006" fill-rule="evenodd"/>
    <path id="Path_360" data-name="Path 360" d="M18.342,237.225c5.974.113,6.325.12,8.66.606a1.659,1.659,0,0,1,.8.321l.169.4v.007l-.217.374a1.645,1.645,0,0,1-.828.227,25.206,25.206,0,0,1-4.832.116,39.744,39.744,0,0,1-4.57-.169c-1.367-.314-1.27-.323-1.712-.59l-.169-.353v-.006l.183-.346.428-.24A7.9,7.9,0,0,1,18.342,237.225Z" transform="translate(193.046 2009.444)" fill="#fff" fill-rule="evenodd"/>
    <path id="Path_361" data-name="Path 361" d="M33.855,249.34c1.94.143,1.434.023,2.108.3l.213.393v.007l-.183.408-.458.224h0c-4.758.66-3.685.466-12.544.724a16.368,16.368,0,0,1-4.188-.236h0l-.432-.207-.191-.366v-.007l.161-.38.415-.24c.337-.051.374-.11,1.565-.318a13.316,13.316,0,0,1,2.614-.2C31.848,249.178,30.776,249.195,33.855,249.34Z" transform="translate(192.648 2007.563)" fill="#fff" fill-rule="evenodd"/>
    <path id="Path_362" data-name="Path 362" d="M36.152,260.817h0c.506.36.381.206.577.663h0c-.843.675-.537.506-1.181.675a14.842,14.842,0,0,1-3.613.223h0a1.208,1.208,0,0,1-.558-.059c-.693-.283-.622-.293-1.237-.922.65-.633.539-.6,1.223-.9.279-.089.109-.062.865-.084C34.608,260.36,34.773,260.258,36.152,260.817Z" transform="translate(190.775 2005.819)" fill="#fff" fill-rule="evenodd"/>
    <path id="Path_363" data-name="Path 363" d="M234.439,194.658c.8.521.573.279,1.2,3.538,1.06,5.708,1.677,8.222,2.179,11.426.622,3.983.663,3.575.066,4.041h-.008l-.439-.084-.3-.385c0-.1-.016.033-.759-2.4-1.311-4.528-1.133-4.456-2.774-12.783-.422-2.295-.148-1.542-1.048-2.48-.179-.18-.547-.546-.633-.629h0a4.84,4.84,0,0,0-.967-.774l-.307-.359-.023-.422v-.006l.307-.293.47-.038A10.405,10.405,0,0,1,234.439,194.658Z" transform="translate(159.37 2016.37)" fill="#006" fill-rule="evenodd"/>
    <path id="Path_364" data-name="Path 364" d="M121.252,163.95a11.947,11.947,0,0,1,3.026.516c.95.332.525.094,1.145.5l.152.358v.006l-.19.337-.428.214a6.9,6.9,0,0,1-2.47.162c-1.3-.149-6.032-.784-7.322-1.07-2.323-.506-1.8-.326-2.384-.654l-.159-.395v-.007l.2-.376a1.778,1.778,0,0,1,1.012-.232C116.457,163.143,117.085,163.378,121.252,163.95Z" transform="translate(177.855 2021.031)" fill="#fff" fill-rule="evenodd"/>
    <path id="Path_365" data-name="Path 365" d="M160.133,205.605l.373.178.209.417c.44,3.432.32.732.393,11.983a64.443,64.443,0,0,1-.331,7.206l-.2.459-.4.192h0l-.4-.191c-.212-.489-.2-.155-.4-2.858-.187-2.628-.229-2.341-.229-12.594a22.09,22.09,0,0,1,.392-4.208l.218-.412.377-.169Z" transform="translate(170.568 2014.397)" fill="#006" fill-rule="evenodd"/>
    <circle id="Ellipse_12" data-name="Ellipse 12" cx="4.661" cy="4.661" r="4.661" transform="translate(247.167 2178.362)" fill="#2384f5"/>
    <path id="Path_366" data-name="Path 366" d="M66.295,155.49a5.307,5.307,0,0,1,4.315,8.151,5.642,5.642,0,0,1-9.575.23h0a5.4,5.4,0,0,1,3.384-8.265A8.42,8.42,0,0,1,66.295,155.49Zm-.54,1.234a3.953,3.953,0,0,0-3.7,3.669c0,4.38,4.971,5.4,6.916,2.173a3.628,3.628,0,0,0,.283-.654,4.138,4.138,0,0,0-3.5-5.2Zm.046-1.217h0Z" transform="translate(186.076 2022.249)" fill="#006" fill-rule="evenodd"/>
    <path id="Path_367" data-name="Path 367" d="M81.966,199.28c4,.143,5.7-.117,9.267.153,2.1.164,1.679.1,2.183.337l.178.388v.007l-.169.39c-.538.265-.117.169-2.164.393a65.562,65.562,0,0,1-8.681.279c-1.224,6.6-2.491,11.3-6.215,17.095-.2.315-.084.2-.544.528l-.442-.05h0l-.27-.36c.061-.563.018-.4.182-.73a50.2,50.2,0,0,0,2.2-5.123c3.852-10.486,2.737-12.335,3.706-13.138A1.078,1.078,0,0,1,81.966,199.28Z" transform="translate(183.731 2015.39)" fill="#006" fill-rule="evenodd"/>
    <path id="Path_368" data-name="Path 368" d="M78.278,229.266a8.778,8.778,0,0,1,4.848,1.5,8.618,8.618,0,0,1,2.846,3.179c1.283,2.605,1.006,3.422,1.006,11.488-.017,5.162.028,4.7-.136,5.06a.946.946,0,0,1-1.106.442c-.376-.153-.207-.131-.444-.134-3.529-.03-10.5.128-17.233.6,4.031.739,6.872,1.271,10.234,1.787,7.506,1.125,8.246.629,8.324,1.6h-.012c.084,6.8.106,6.128.046,6.377a.68.68,0,0,1-.291.366c-.1.047,1.518.367-46.248.367a.965.965,0,0,1-.951-.8c-.012-.169-.035-23.062.015-23.778a8.771,8.771,0,0,1,7.648-7.986C47.719,229.23,78.182,229.265,78.278,229.266Zm-5.368,1.929c-25.875,0-25.691-.253-27.578.506a6.84,6.84,0,0,0-3.879,4.1c-.524,1.335-.373,1.114-.373,24.166,24.329,0,20.371-.047,44.24.266l.012.014v-4.935c-5.3-.608-4.243-.212-16.682-2.269-3.036-.5-6.173-.721-7.2-1.023a.805.805,0,0,1,.253-1.554A155.988,155.988,0,0,1,85,248.92c.1,0,.042.821.042-11.023a6.857,6.857,0,0,0-5.161-6.494C78.782,231.114,78.135,231.195,72.91,231.195Zm12.2,19.423.008.005-.012-.011Z" transform="translate(189.365 2010.692)" fill="#006" fill-rule="evenodd"/>
    <path id="Path_369" data-name="Path 369" d="M190.39,60.308a5.736,5.736,0,0,1,1.74.348c.37.135.229.062.653.4l.109.383v.006l-.234.319c-.724.26-.3.1-1.258.253h0a9.819,9.819,0,0,0-4.16,1.22h0a9.61,9.61,0,0,0-2.124,1.661h0a18.557,18.557,0,0,0-2.676,3.318l-.365.31-.427.008h-.008l-.283-.323a1.713,1.713,0,0,1,.186-1.09,9.514,9.514,0,0,1,2.2-3.572h0a11.96,11.96,0,0,1,2.536-1.979h0A8.88,8.88,0,0,1,190.39,60.308Z" transform="translate(167.092 2037.157)" fill="#fff" fill-rule="evenodd"/>
    <path id="Path_370" data-name="Path 370" d="M180.06,76.824h0a2.284,2.284,0,0,1-.155-.3,7.832,7.832,0,0,1-.272-2.074,1.344,1.344,0,0,1,.163-.288h0a2.043,2.043,0,0,1,.194-.224c1.44.079,1.1,0,1.359.263h0a1.254,1.254,0,0,0,.1.135c.019.033.034.053.055.084h0a12.02,12.02,0,0,0,.26,1.634,3.045,3.045,0,0,1-.5,1.754C180.448,77.323,180.515,77.426,180.06,76.824Z" transform="translate(167.358 2035.021)" fill="#fff" fill-rule="evenodd"/>
    <path id="Path_371" data-name="Path 371" d="M179.573,155.7l.319.306c0,.01-.015.439-.016.448l-.326.342h0c-1.117.543-2.9,1.473-3.857,1.989-3.076,1.737-3.55,1.7-7.95,4.428-3.68,2.277-4.787,3.414-8.181,5.375h0l-.455.1c-.013-.006-.369-.183-.38-.191l-.1-.406.194-.422c0-.1,1.869-1.849,2.253-2.183a70.014,70.014,0,0,1,13.8-8.27c3.8-1.538,4.229-1.446,4.229-1.542Z" transform="translate(170.649 2022.219)" fill="#fff" fill-rule="evenodd"/>
  </g>
</svg>
