<svg xmlns="http://www.w3.org/2000/svg" width="491.036" height="458.829" viewBox="0 0 491.036 458.829">
  <g id="Group_906" data-name="Group 906" transform="translate(-750.484 -176.599)">
    <path id="Path_136" data-name="Path 136" d="M29.816,126.1c51.856-.474,103.507.124,155.419-.906a2.086,2.086,0,1,1,.716,4.109,2.033,2.033,0,0,1-.43.03c-51.328,1.016-104.123,2.186-155.424.826C27.141,130.087,26.775,126.134,29.816,126.1Z" transform="translate(761.227 222.871)" fill="#fd5c37"/>
    <path id="Path_138" data-name="Path 138" d="M31.69,57.608c0-1.285-2.088-1.255-2.2-.017-2.816,29.616-1.422,60.644-1.317,90.417.017,4.463,1.576,4.79,4.37,4.973,44.386,2.922,105.331,1.285,149.628-.677,1.6-.071,1.646-2.79,0-2.819-49.489-.926-101.55,2.475-150.246-.445C32.686,119.178,31.848,87.65,31.69,57.608Z" transform="translate(761.25 175.377)" fill="#341c77"/>
    <path id="Path_139" data-name="Path 139" d="M183.778,152.094c.169,1.319,2.784,1.5,2.757.02-.579-31.1-.312-62.437-1.116-93.443-.112-4.263-.185-3.894-4.81-4.082-47.41-1.846-100.3-.935-147.515,1.785a1.356,1.356,0,0,0,.125,2.709c49.526-.169,99.584-2.171,149.053-.569C180.463,83.152,180.705,127.939,183.778,152.094Z" transform="translate(764.068 173.277)" fill="#341c77"/>
    <path id="Path_141" data-name="Path 141" d="M210.514,71.35c7.086-.455,6.841-5.036-.461-4.526-22.33,1.559-45.185,1.134-67.559.56-9.844-.252-10.823,3.837-.716,4.219,21.841.83,46.986,1.141,68.729-.254Z" transform="translate(835.359 182.4)" fill="#fd5c37"/>
    <path id="Path_142" data-name="Path 142" d="M193.56,125.042a188.261,188.261,0,0,0-.135-22.1c-.1-1.118-2.144-1.272-2.335-.134-.957,5.723.254,16.136.02,22.35-.058,1.341,2.359,1.224,2.443-.12Z" transform="translate(874.23 206.832)" fill="#fd5c37"/>
    <path id="Path_143" data-name="Path 143" d="M291.577,24.008c-11.153-.452-221.97.909-250.266.992S14.026,52.375,16.169,52.548c3.083.247,295.315,2.149,298.451,1.659C317.561,53.749,316.108,25,291.577,24.008ZM255.551,45.093a5.744,5.744,0,0,1-6.568-.582l0-.005a5.165,5.165,0,0,1-.642-6.607,6.106,6.106,0,0,1,6.619-2.2C259.064,37.11,259.149,43.105,255.551,45.093Zm20.486.35a5.518,5.518,0,0,1-6.864-1.272,5.374,5.374,0,0,1,3.217-8.81,5.569,5.569,0,0,1,5.9,3.585A5.757,5.757,0,0,1,276.037,45.444Zm17.548.532a5.293,5.293,0,0,1-.75.044,5.387,5.387,0,0,1-5.332-5.442V40.57a5.361,5.361,0,1,1,6.082,5.4Z" transform="translate(752.569 152.683)" fill="#453264"/>
    <path id="Path_144" data-name="Path 144" d="M191.231,46.091c.471,23.5-1.614,47.008-.362,70.674.073,1.387,2.408,1.29,2.386-.054-.378-23.3,2.079-47.425.41-70.674-.1-1.4-2.46-1.327-2.437.049Z" transform="translate(874.054 167.312)" fill="#fd5c37"/>
    <path id="Path_145" data-name="Path 145" d="M213.35,55.737c-26.339,1.231-52.151-.52-78.38-.523-1.033,0-1.224,1.863-.22,2.3C142.813,61,201.525,60.6,213.462,59.7a1.984,1.984,0,0,0-.112-3.964Z" transform="translate(834.975 174.379)" fill="#fd5c37"/>
    <path id="Path_146" data-name="Path 146" d="M35.745,220.6c18.783.1,38.478,1.824,53.437.731,1.355-.1,1.543-2.4.119-2.44-17.709-.508-34.663-1.646-51.419-2.017-11.344-.252-17.655-4.761-18.813-16.6-1.952-19.99-1.185-45.378-1.3-65.75-.129-22.333,1.962-83.954,1.434-90.2a1.355,1.355,0,0,0-2.675-.249c-.743,3.7-1.891,48.834-2.291,83.758-.254,22.127-1.234,52.693,1.085,73.993C16.551,213.125,24.15,220.548,35.745,220.6Z" transform="translate(751.603 165.926)" fill="#fd5c37"/>
    <path id="Path_147" data-name="Path 147" d="M189.491,145.742c-32.14,1.981-69.111.677-102.269,1.524-1.424.036-1.429,2.474.017,2.513,32.835.875,69.514-.606,102.269-.571,1.971,0,1.973-3.583-.017-3.461Z" transform="translate(801.746 237.133)" fill="#fd5c37"/>
    <path id="Path_148" data-name="Path 148" d="M138.475,81.04c-3.8.9-3.3,3.356.535,3.358,6.068,0,12.623-.677,18.91-.753,4.021-.047,5.74-3.217-.809-3.725a87.5,87.5,0,0,0-18.635,1.119Z" transform="translate(836.209 191.438)" fill="#fd5c37"/>
    <path id="Path_149" data-name="Path 149" d="M241.5,202.081a74.839,74.839,0,0,0-12.8-23.222c-.8-1.068.545-2.709,1.656-1.785A46.665,46.665,0,0,1,244.41,201.3a50.8,50.8,0,0,1,48.006,12.089c1.659-42.982-34.352-72.19-70.2-74.84-5.286,12.277-28.527,17.089-32.865,4.367-18.089,3.595-44.154,16.593-53.505,32.123,11.839-.076,20.068-.095,26.385,1.067,6.028,1.109,10.086,5.388,10.4,10.51a195.879,195.879,0,0,0,3.54,29.26c4.592-11.89,15.434-14.876,25.115-15.1,8.39-.195,28.722,4.043,40.217,1.3Z" transform="translate(836.196 232.146)" fill="#fab705"/>
    <path id="Path_150" data-name="Path 150" d="M194.855,127.94a153.223,153.223,0,0,1,47.821-2.37c15.6,1.636,25.473,3.7,29.157,20.826,5.5,25.552-.225,66.653-9.03,91.252-7.577,21.165-21.46,19.167-39.982,20.574-1.422.108-1.8,2.562-.24,2.613,17.623.576,32.509-.124,40.589-14.465,12.459-22.115,16.974-71.536,13.32-96.851-2.394-16.576-9.433-24.551-26.339-26.753-17.333-2.259-39.353-2.75-56.062,2.652a1.319,1.319,0,0,0,.765,2.521Z" transform="translate(875.962 220.093)" fill="#453264"/>
    <path id="Path_151" data-name="Path 151" d="M241.485,128.735c11.334,4.1,23.6,8.5,31.832,17.746,18.551,20.826,8.635,55.029,4.009,79.359-5.135,27.022-10.036,54.088-15.147,81.1-1.6,8.449,1.6,11.077,3.1,3.524,5.362-26.963,10.4-54.055,15.552-81.064,4.89-25.637,14.929-59.723-2.094-82.8-8.678-11.759-22.912-16.317-36.382-20.108-1.443-.4-2.354,1.7-.872,2.238Z" transform="translate(908.898 223.759)" fill="#453264"/>
    <path id="Path_152" data-name="Path 152" d="M218.378,315.35c-.635,2.631,3.309,3.375,3.962.6,5.852-24.853,13.8-54.406,16.631-79.049,2.243-19.529.643-32.112-21.443-34.2C199.8,201,185.13,208.133,181.9,226.772c-4.218,24.362-1.693,63.727-.823,89.73a1.231,1.231,0,1,0,2.462.027c.752-26.009-.433-52.772,1.123-78.536,1.065-17.648,5.295-30.715,25.715-31.748,22.442-1.133,26.922,7.425,24.956,28.331-2.5,26.519-12.823,63.683-16.952,80.773Z" transform="translate(866.478 276.446)" fill="#453264"/>
    <path id="Path_154" data-name="Path 154" d="M123.486,185.531c.567-4.729.847-7.054-4.192-7.3-14.487-.7-24.785,2.955-33.676,9.875C75.9,195.67,68.575,207.783,67.9,220.257a1.192,1.192,0,1,0,2.348.408c2.284-11.717,7.665-22.43,17.255-29.875,10.185-7.907,21.069-10.41,33.617-9.49a54.9,54.9,0,0,1-14.606,33.629c-10.174,10.85-18.625,13.265-32.144,16.326a1.185,1.185,0,0,0,.3,2.326c11.756-.147,25.967-8.146,33.949-16.519A57,57,0,0,0,123.486,185.531Z" transform="translate(789.082 259.596)" fill="#fa5051"/>
    <path id="Path_155" data-name="Path 155" d="M178.334,277.2c-3.96-8.686-13.8-19.827-24.521-17.664-6.688,1.355-14.07,8.507-17.343,14.314-1.719,3.048-.945,6.556,2.917,7.042a210.733,210.733,0,0,0,26.922.7c8.735-.1,21.876-.611,30.171-2.8,1.551-.408.782-2.523-.577-2.54C190.071,276.131,184.192,276.784,178.334,277.2Z" transform="translate(836.025 315.83)" fill="#fd5c37"/>
    <path id="Path_156" data-name="Path 156" d="M117.984,279.939c10.091.571,23.852.528,33.412-1.829,1.483-.364.821-2.472-.53-2.472-1.388,0-2.775.047-4.16.1-2.172-5.315-4.821-10.721-10.066-13.59-8.436-4.609-17.343,2.045-23.139,7.907C106.008,277.631,110.255,279.5,117.984,279.939Z" transform="translate(817.99 316.757)" fill="#fd5c37"/>
    <path id="Path_157" data-name="Path 157" d="M82.054,225.316a1.3,1.3,0,0,0-.032-2.606c-13.635-.066-26.8-2.244-38.928-8.766C25.292,204.371,14.654,190,8.05,171.361c10.94-1.355,28.554-2.2,43.947,2.184,23.3,6.629,32.867,22.506,37.262,44.806.269,1.368,2.609,1.207,2.486-.24-3.872-44.8-44.091-54.069-82.51-49.949-4.245.455-5.12.694-3.434,5.149,4.064,10.74,9.727,21.516,17.54,29.667C37.6,217.849,61.253,227.98,82.054,225.316Z" transform="translate(745.488 252.062)" fill="#fa5051"/>
    <path id="Path_158" data-name="Path 158" d="M489.453,274.02c-33.053-.847-34.614-.677-67.672-.643s-66.14.235-99.208.279q-98.7.13-197.4.567c-36.9.122-74.555-.445-111.359.892-1.3.047-1.326,2.255-.019,2.3,33.033,1.016,66.162.381,99.2.312q49.61-.1,99.206-.227c65.8-.188,131.6-.508,197.4-.545,37.1-.022,42.738.94,79.826-.2,1.546-.047,1.571-2.685.022-2.726Z" transform="translate(750.917 325.585)" fill="#fa5051"/>
    <path id="Path_159" data-name="Path 159" d="M104.385,301.433c2.992-15.957,7.066-38.446,8.127-54.331,3.791-.291,4.233-.7,5-4.675a78.072,78.072,0,0,0,1.546-9.892c.293-4.741.979-6.807-4.438-6.925-22.311-.488-49.47-.7-71.521.794a1.168,1.168,0,0,0,.069,2.335c24.032,1.524,49.651-1.473,72.879.577a66.388,66.388,0,0,1-1.693,14.446c-23.861,1.653-46.519,1.417-70.364,1.124a99.85,99.85,0,0,1-3.556-15.173c-.23-1.355-2.526-1.314-2.491.134a52.654,52.654,0,0,0,2.889,15.364c.865,2.592,2.765,3,5.532,2.985,21.434-.144,41.834.464,63.363-.911-2.223,20.947-5.638,34.724-7.907,50.706-.787,5.64,1.94,6.775,2.564,3.449Z" transform="translate(768.328 292.246)" fill="#6a2405"/>
    <path id="Path_160" data-name="Path 160" d="M122.672,207.77c1.258.029,1.768-2,.42-2.276-8.1-1.651-17.249-2.221-24.087,3.327-8.541,6.93-5.32,21.151-3.8,30.837,2.858,18.243,12.32,57.654,19.531,76.546.6,1.566,3.153.549,2.709-.992-5.728-20.026-14.174-48.79-18.662-75.9-1.1-6.649-3.527-17.977-.527-24.082,4.387-8.92,16.229-7.633,24.418-7.45Z" transform="translate(806.72 277.764)" fill="#453264"/>
    <path id="Path_161" data-name="Path 161" d="M42.884,242.1c.709,10.259,5.8,39.132,9.562,48.041a1.37,1.37,0,0,0,2.575-.784c-3.894-15.8-6.615-27.6-9.753-47.665C45.033,240.184,42.781,240.626,42.884,242.1Z" transform="translate(771.75 302.997)" fill="#6a2405"/>
    <path id="Path_162" data-name="Path 162" d="M64.236,216.445a1.185,1.185,0,0,0,2.045-1.185,54.792,54.792,0,0,1-5.891-37.747,51.979,51.979,0,0,1,36.16-38.646,88.07,88.07,0,0,1,2.433,35.369c-3.121,20.408-11.217,31.246-24.054,46.055-.952,1.1.588,2.794,1.761,1.888,8.287-6.39,15.838-18.412,19.854-28.031,7.03-16.832,8.71-37.958,2.745-55.415-1.119-3.275-1.46-3.518-4.683-2.508a55.815,55.815,0,0,0-28.422,20.581A53.736,53.736,0,0,0,64.236,216.445Z" transform="translate(780.943 230.171)" fill="#fa5051"/>
    <path id="Path_163" data-name="Path 163" d="M83.631,270.06c.029,1.5,2.592,1.524,2.646.01q.071-1.989.156-3.977c11.869-25.205,23.646-38.956,45.209-56.314,1.016-.82-.283-2.745-1.47-2.149-16.3,8.18-35.882,34.106-43.392,51,1.727-37.071,4.768-63.724,14.121-100.849.339-1.355-1.944-1.991-2.389-.637-8.779,26.644-13.292,62.591-14.638,90.663-10.095-22.846-30.7-41.128-53.448-50.749-1.434-.606-2.2,1.62-.821,2.254,24.66,11.248,42.747,31.46,54.013,55.772C83.516,260.068,83.534,265.051,83.631,270.06Z" transform="translate(762.045 244.515)" fill="#fa5051"/>
    <path id="Path_164" data-name="Path 164" d="M174,186.17c-2.2,2.865-4.035,3.188-5.449,7.272a13.748,13.748,0,0,0,.391,9.739,1.168,1.168,0,0,1-2.1,1.029,14.608,14.608,0,0,1-1.321-11.695c.941-3.027,3.908-7.592,7.2-8.28A1.263,1.263,0,0,1,174,186.17Z" transform="translate(856.306 263.805)" fill-rule="evenodd"/>
    <path id="Path_165" data-name="Path 165" d="M177.922,189.868a1.208,1.208,0,0,0-.779-1.959c-3.451-.125-6.334,4.6-6.854,7.592a9.578,9.578,0,0,0,4.14,9.651,1.189,1.189,0,1,0,1.478-1.863,8.517,8.517,0,0,1-2.611-7.36C174.006,191.868,176.811,190.958,177.922,189.868Z" transform="translate(859.968 266.362)" fill-rule="evenodd"/>
    <path id="Path_166" data-name="Path 166" d="M259.4,182.795c-.262-1.556-2.677-1.378-2.668.11.066,10.217-3.386,20.845-21.124,24.36-19.794,3.923-39.32-.8-56.214-11.387a1.124,1.124,0,0,0-1.319,1.82c16.062,12.381,38.312,16.656,58.111,12.955,14.79-2.765,26.028-11.114,23.215-27.858Z" transform="translate(865.157 262.063)" fill-rule="evenodd"/>
    <path id="Path_167" data-name="Path 167" d="M234.665,226.052c-2.079.2-31.309,1.051-33.3.056s-9.917-26.414-11.837-51.008c-.552-7.079-1.659-10.344-10.288-11.615-6.991-1.031-62.063-.508-66.958,0-4.209.444-7.406,2.094-7.057,10.516.828,20.017,11.4,57.626,17.093,60.679,6.2,3.319,104.758,2.467,112.1.992C240.472,234.457,239.367,225.61,234.665,226.052Zm-83.4-17.843c-4.253.163-7.2-3.268-8.127-7.137-.913-3.816-.081-9.206,4.482-9.375,4.062-.152,7.467,2.648,8.546,7.3S155.589,208.043,151.268,208.209Z" transform="translate(814.947 249.021)" fill="#ff8947" fill-rule="evenodd"/>
    <path id="Path_168" data-name="Path 168" d="M140.21,248.556c-.362-1.355-2.448-.821-2.354.508.23,3.231,2.426,14.392,3.427,19.607.2,1.05,2.008.5,2.184-.466.418-2.266-2.433-16.593-3.256-19.65Z" transform="translate(837.585 307.857)" fill="#00004d" fill-rule="evenodd"/>
    <path id="Path_169" data-name="Path 169" d="M148.79,248.278c-.677-1.063-2.54-.322-2.074.938,2.086,5.7,4.1,9.99,5.386,16.39.261,1.309,2.37.98,2.321-.393a42.145,42.145,0,0,0-5.632-16.935Z" transform="translate(843.677 307.858)" fill="#00004d" fill-rule="evenodd"/>
    <path id="Path_170" data-name="Path 170" d="M168.118,265.113a52.169,52.169,0,0,1-2.878-16.424,1.165,1.165,0,0,0-2.293-.161,35.449,35.449,0,0,0,1.449,15.508c1.605,5.151,5.2,9.514,4.355,15a1.292,1.292,0,0,0,2.4.847c2.692-4.751-1.4-10.389-3.036-14.771Z" transform="translate(854.778 307.765)" fill="#00004d" fill-rule="evenodd"/>
    <path id="Path_171" data-name="Path 171" d="M125.727,248.724a1.163,1.163,0,0,0-2.14.847c.97,4.561,5.068,13.314,2.321,17.421a1.232,1.232,0,0,0,1.334,1.824c5.632-1.825.743-16.656-1.514-20.092Z" transform="translate(827.674 308.117)" fill="#00004d" fill-rule="evenodd"/>
    <path id="Path_172" data-name="Path 172" d="M157.8,252.3c-3.143-12.347-6.773-33.177,3.5-43.007-16.05-.239-29.426-.542-32.741-.545-6.085,0-13.52,1.444-15.381,10.129-2.281,10.645,5.757,34.8,13.608,52.386,5.532.442,24.443.747,31.294-.112a144.11,144.11,0,0,1-.276-18.85Z" transform="translate(820.208 280.811)" fill="#00004d" fill-rule="evenodd"/>
    <path id="Path_173" data-name="Path 173" d="M148.536,209.579c-17.155,11.148-4.8,47.823.347,62.445a279.4,279.4,0,0,0,33.385-.117c-1.263-5.418-1.485-20.136.948-23.232s9.744-2.8,20.657-2.655c.08-12.613-.522-31.592,7.111-37.565-6.8,1.541-36.759,1.463-62.447,1.124Z" transform="translate(838.899 280.606)" fill="#00004d" fill-rule="evenodd"/>
    <path id="Path_174" data-name="Path 174" d="M232.4,175.956c-16.275,6.324-24.8,4.155-41.279,3.386-11.333-.528-26.947,2.457-30.043,15.489a1.185,1.185,0,0,0,2.254.677c5.158-13.446,20.908-13.73,33.017-12.638s26.36,2.083,37.167-4.766a1.212,1.212,0,0,0-1.116-2.144Z" transform="translate(853.67 258.015)" fill-rule="evenodd"/>
    <path id="Path_175" data-name="Path 175" d="M236.19,168.268c-12.657-10.376-16.255-33.216-21.278-44.047-9.975-21.546-31.384-28.266-53.526-23.292-17.257,3.877-17.02,22.35,8.395,20.222,13.559-1.136,20.019-4.545,20.066-4.572,1.524,5.945,8.16,15.039,8.942,13.358,1.915-4.121,5.958-2.381,6.617,1.41.955,5.5-2.047,8.27-5.166,8.148-1.114-.042,4.428,19.257,5.809,22.858.361.943,1.566.784,2.435.811,6.991.21,18.993,1.311,27.706,5.112Z" transform="translate(845.601 204.989)" fill="#00004d" fill-rule="evenodd"/>
    <path id="Path_176" data-name="Path 176" d="M244.17,106.212c-13.847-10.853-38.243-22.978-55.9-24.01a6.884,6.884,0,0,0-3.407.44c-16.085,4.436-38.932,15.654-51.709,26.282-.786.654-.169,1.786.643,2.032,8.828,2.66,17.281,4.631,25.388,8.024,1.548.647,2.2-1.818.723-2.453a133.668,133.668,0,0,0-23.107-7.254c14.362-9.526,33.676-21.233,50.525-24.733,16.453,1.028,40.014,12.311,53.2,22.274a226.975,226.975,0,0,0-28.415,7.958,1.141,1.141,0,0,0,.694,2.172c10.913-2.907,19.775-5.994,30.864-8.187a1.478,1.478,0,0,0,.5-2.54Z" transform="translate(834.079 193.051)" fill="#453264" fill-rule="evenodd"/>
    <path id="Path_177" data-name="Path 177" d="M135.5,123.258a34.893,34.893,0,0,1,3.146,14.338c-.139,1.27-1.954,1.214-2.343.152-.615-1.671-.847-3.8-1.4-5.61-.2,3.236-.125,6.463-.3,9.69a1.185,1.185,0,0,1-2.362.149,72.168,72.168,0,0,1-.508-9.6,37.916,37.916,0,0,0-2.11,6.885,1.109,1.109,0,0,1-2.169-.452c.376-2.975,1.829-10.8,3.353-13.574.726-1.326,3.31-4.216,4.7-1.979Z" transform="translate(830.37 220.977)" fill="#453264" fill-rule="evenodd"/>
    <path id="Path_178" data-name="Path 178" d="M133.469,101.025a1.136,1.136,0,0,1,2.2.417,193.015,193.015,0,0,0-2.382,32.227c0,1.588-2.359,1.388-2.418-.141-.35-8.8.545-24.013,2.6-32.493Z" transform="translate(832.693 205.621)" fill="#453264" fill-rule="evenodd"/>
    <path id="Path_179" data-name="Path 179" d="M159.548,93.7c-.227-1.051-2.049-1.275-2.186-.113-.2,1.746-.339,7.45-.3,9.131a1.248,1.248,0,0,0,2.491.134,67.657,67.657,0,0,0,0-9.152Z" transform="translate(850.895 200.438)" fill="#453264" fill-rule="evenodd"/>
    <path id="Path_180" data-name="Path 180" d="M183.287,93.67c-6.4-3.522-16.326-3.894-23.043-2.008a1.107,1.107,0,0,0,.537,2.149.874.874,0,0,0,.129-.041,36.721,36.721,0,0,1,21.8,2.54,40.488,40.488,0,0,0-.125,9.021,1.223,1.223,0,0,0,2.445-.071c-.122-2.55-.1-4.9-.044-7.45.054-2.328.369-3-1.693-4.142Z" transform="translate(852.525 198.866)" fill="#453264" fill-rule="evenodd"/>
    <path id="Path_181" data-name="Path 181" d="M179.131,143.606a29.294,29.294,0,0,0,10.652-7.958c.86-.977-.686-2.34-1.646-1.524-4.763,4.04-9.748,8.818-16.529,8.092-7.223-.774-9.313-8.127-10.82-14.106-.357-1.426-2.579-1.062-2.276.41,1.446,7.018,4.13,14.793,12.181,16.128a14.915,14.915,0,0,0,6.112-.284c.366,2.379-.054,4.678.134,6.7a1.148,1.148,0,0,0,2.269-.069,30.029,30.029,0,0,0-.078-7.386Z" transform="translate(851.886 224.286)" fill="#00004d" fill-rule="evenodd"/>
    <path id="Path_182" data-name="Path 182" d="M177.049,126.656a1.185,1.185,0,0,0-2.323.276c.427,4.233-3.695,5.227-6.9,6.1a1.112,1.112,0,1,0,.545,2.157c4.032-.383,9.876-2.389,8.678-8.522Z" transform="translate(857.78 223.308)" fill="#00004d" fill-rule="evenodd"/>
    <path id="Path_183" data-name="Path 183" d="M167.464,127.993a5.5,5.5,0,0,1-2.638.088c.366-1.273.743-2.54,1.041-3.832a1.112,1.112,0,0,0-2.125-.655c-.437,1.185-.882,2.528-1.212,3.761a2.2,2.2,0,0,0,1.055,2.929,2.23,2.23,0,0,0,.808.2,8.141,8.141,0,0,0,3.937-.218,1.218,1.218,0,0,0-.792-2.3l-.066.025Z" transform="translate(854.545 221.26)" fill="#00004d" fill-rule="evenodd"/>
    <path id="Path_184" data-name="Path 184" d="M160.98,123.677c-.063-.972-.467-2.062-1.59-2.14-1.466-.1-1.841,1.248-1.649,2.423.159.974.892,2.464,2.123,2.318C161.049,126.141,161.038,124.563,160.98,123.677Z" transform="translate(851.339 220.351)" fill="#00004d" fill-rule="evenodd"/>
    <path id="Path_185" data-name="Path 185" d="M170.5,120.194a1.789,1.789,0,0,0-2.2-1.243,1.824,1.824,0,0,0-.378.154,2.763,2.763,0,0,0,1.8,4.692C171.177,123.47,171.059,121.643,170.5,120.194Z" transform="translate(857.877 218.516)" fill="#00004d" fill-rule="evenodd"/>
    <path id="Path_186" data-name="Path 186" d="M190.394,118.672l.005-.015a12.282,12.282,0,0,0-6.319-.014c-1.5-3.065-4.651-6.378-8.371-5.772-4.148.677-5.19,5.323-4.932,8.876a4.412,4.412,0,0,0-3.4.926c-1.163-2.621-2.992-5.061-5.984-5.547-6.388-1.04-7.569,7.45-6.434,12.066.887,3.583,3.639,7.372,7.789,6.857,6.236-.772,5.024-10.261,5.207-10.5a2.67,2.67,0,0,1,3.077-1.185c.791,4.411,4.292,9.606,9.429,8.388,4.939-1.172,5.621-7.814,4.467-11.866a26.378,26.378,0,0,1,5.273-.036,1.138,1.138,0,0,0,.2-2.181Zm-28.131,14.944c-2.8.208-4.644-2.938-5.141-5.262-.555-2.608-.268-8.91,3.43-8.815,2.9.074,4.392,2.707,4.856,5.621l0,0C165.743,127.246,165.665,133.362,162.263,133.616Zm18.187-3.579h0c-4,1.874-6.17-2.254-7.2-7.269-.633-3.09-.03-6.25,2.152-7.291,2.511-1.2,5.09,1.8,6.136,3.739C182.858,121.665,184.024,128.36,180.45,130.036Z" transform="translate(849.175 214.297)" fill="#00004d" fill-rule="evenodd"/>
    <g id="Group_21" data-name="Group 21" transform="translate(370.382 347.696)" opacity="0.88">
      <path id="Path_28" data-name="Path 28" d="M53.6,17.821a19.188,19.188,0,0,0-1.6-3.14,34.69,34.69,0,0,0-3.132-4.177A18.755,18.755,0,0,0,45.784,7.74,38.215,38.215,0,0,0,41.039,4.7a22.686,22.686,0,0,0-6.362-2.222,46.109,46.109,0,0,0-5.513-.72,27.1,27.1,0,0,0-7.576.788,25.462,25.462,0,0,0-6.362,2.289A38.114,38.114,0,0,0,10.491,7.9,22.14,22.14,0,0,0,5.93,12.562a24.305,24.305,0,0,0-2.864,5A23.311,23.311,0,0,0,1.7,31.553a24.156,24.156,0,0,0,5.2,10.5,22.818,22.818,0,0,0,4.342,4.058c-.092.295-.172.589-.258.89a20.932,20.932,0,0,1-1,2.969,37.078,37.078,0,0,1-1.838,3.361c-.3.51-.6,1.026-.9,1.553l-.865,1.536,1.693.079.15.011c.113.006.22.012.322.012h.14l.618-.04c.93-.062,1.86-.119,2.789-.2a13.224,13.224,0,0,0,4.546-1.269,19.289,19.289,0,0,0,5.556-3.956c.978.181,1.9.317,2.762.413a21.133,21.133,0,0,1-1.945-3.819h0c-.073-.183-.134-.358-.2-.537-.081-.215-.167-.435-.24-.641h0c-.194-.55-.349-1.066-.478-1.525a20.374,20.374,0,0,1-.7-9.339c1.23-6.381,5.641-11.663,10.816-14.967a24.931,24.931,0,0,1,8.071-3.389,21.5,21.5,0,0,1,5-.5s1.311.034,3.015.187c.408.034.833.079,1.273.125h0A24.965,24.965,0,0,1,53.6,17.821Z" transform="translate(462.803 -104.793)" fill="#ff792e"/>
      <path id="Path_29" data-name="Path 29" d="M69.011,56.926a19.206,19.206,0,0,0,4.132-8.348,18.564,18.564,0,0,0,.349-5.247,18.326,18.326,0,0,0-1.44-5.9,19.31,19.31,0,0,0-2.273-3.979,17.744,17.744,0,0,0-3.637-3.711,29.536,29.536,0,0,0-3.617-2.352l-.091-.051c-.457-.238-.93-.459-1.413-.663a20.774,20.774,0,0,0-3.616-1.145c-.017-.006-.027-.006-.043-.011-.4-.085-.784-.164-1.155-.233a19.874,19.874,0,0,0-4.772-.374,35.353,35.353,0,0,0-4.293.561,17.856,17.856,0,0,0-5.056,1.763,29.733,29.733,0,0,0-3.719,2.38A14.885,14.885,0,0,0,35.9,31.838a27.045,27.045,0,0,0-2.461,3.281A17.5,17.5,0,0,0,31.232,40.6a18.646,18.646,0,0,0,.994,11.328c.161.38.338.754.521,1.122.048.091.091.176.139.266a19.454,19.454,0,0,0,2.09,3.151c.07.1.145.187.22.283.312.386.645.766.994,1.128a20.581,20.581,0,0,0,2.767,2.42,21.764,21.764,0,0,0,7.018,3.372,23.972,23.972,0,0,0,3.122.584l.156.023c.811.119,1.6.158,2.466.2a22.637,22.637,0,0,0,4.868-.374,15.4,15.4,0,0,0,4.2,2.918,10.756,10.756,0,0,0,3.7,1.026c.694.062,1.392.1,2.09.147l.527.034a1.265,1.265,0,0,0,.145.006c.1,0,.194-.006.3-.011l2.52-.118-1.241-2.2c-.226-.408-.462-.8-.693-1.2-.506-.862-.984-1.672-1.371-2.511a15.28,15.28,0,0,1-.725-2.17,1.744,1.744,0,0,1-.054-.182A18.482,18.482,0,0,0,69.011,56.926Z" transform="translate(456.593 -109.657)" fill="#ffb600"/>
      <g id="Group_16" data-name="Group 16" transform="translate(496.797 -70.513)">
        <g id="Group_13" data-name="Group 13">
          <path id="Path_30" data-name="Path 30" d="M45.436,49.528a3.191,3.191,0,0,0,2.472-4.064,3,3,0,0,0-2.4-2.5,2.154,2.154,0,0,0-2.316,1.286,3.762,3.762,0,0,0,.216,4.012A2.36,2.36,0,0,0,45.436,49.528Z" transform="translate(-42.711 -42.933)" fill="#fff"/>
        </g>
        <g id="Group_14" data-name="Group 14" transform="translate(5.335 6.431)">
          <path id="Path_31" data-name="Path 31" d="M56.349,56.745a7.44,7.44,0,0,0,5.443-4.08,2.163,2.163,0,0,0,.284-.788,2.779,2.779,0,0,0-.182-.8c-.247.085-.591.1-.731.277a8.437,8.437,0,0,1-3.815,2.89c-1.988.686-3.982.873-5.814-.51-.408-.312-.709-.777-1.1-1.111a2.73,2.73,0,0,0-.795-.323c-.059.3-.237.646-.151.89a5.06,5.06,0,0,0,2.16,2.726A6.731,6.731,0,0,0,56.349,56.745Z" transform="translate(-49.464 -51.073)" fill="#fff"/>
        </g>
        <g id="Group_15" data-name="Group 15" transform="translate(18.06 0.275)">
          <path id="Path_32" data-name="Path 32" d="M70.806,46.008c-.3-2.034-2.075-3.253-3.649-2.505a3.25,3.25,0,0,0-1.413,3.961,2.7,2.7,0,0,0,3.079,2.1A3,3,0,0,0,70.806,46.008Z" transform="translate(-65.571 -43.281)" fill="#fff"/>
        </g>
      </g>
      <g id="Group_17" data-name="Group 17" transform="translate(473.656 -94.816)">
        <path id="Path_33" data-name="Path 33" d="M14.579,23.086a1.154,1.154,0,0,1-.365-.062,1.245,1.245,0,0,1-.736-1.547,13.692,13.692,0,0,1,4.766-6.795A12.483,12.483,0,0,1,25.9,12.172a1.226,1.226,0,0,1-.016,2.448h-.017a10.282,10.282,0,0,0-6.281,2.063,11.218,11.218,0,0,0-3.911,5.577A1.155,1.155,0,0,1,14.579,23.086Z" transform="translate(-13.419 -12.17)" fill="#fff"/>
      </g>
    </g>
    <g id="cat" transform="translate(1119.741 544.379)">
      <path id="Path_662" data-name="Path 662" d="M743.022,967.506c15.381-10.4,23.1-15.625,25.1-16.26,4.883-1.562,20.7-6.592,34.521,1.855,9.912,6.055,19.043,19.189,15.234,27.978-2.734,6.25-11.084,8.2-18.652,10.009a57.082,57.082,0,0,1-26.123-.1,29.886,29.886,0,0,1-10.2,6.592c-7.861,3.028-16.943,2.49-17.382.684-.2-.928,1.758-2.734,11.23-6.445a15.285,15.285,0,0,0-5.127-3.711c-6.933-3.174-13.867-.1-15.185.537,6.787,3.955,8.252,6.006,7.91,7.129-.879,2.832-14.7,3.76-18.408-2.734-.391-.635-1.465-2.832-.586-6.983C727.1,978.444,733.452,974,743.022,967.506Z" transform="translate(-725.01 -941.957)" fill="#161616"/>
      <path id="Path_663" data-name="Path 663" d="M891.061,1007.234c1.563-3.222,8.594-2.441,11.328-2.148,3.516.391,6.641.732,9.473,3.223,2.148,1.855,5.273,5.908,4.15,9.179-1.025,3.125-4.883,2.881-12.353,6.543-1.269.635-13.476,6.641-12.646,10.6.342,1.612,2.539,1.563,9.521,4.541,6.055,2.539,9.619,4.1,12.6,7.519,1.465,1.709,4.394,5.078,3.613,8.5-1.465,6.3-14.551,7.373-14.892,6.4-.293-.83,8.886-3.125,8.984-7.422.1-3.271-5.029-5.908-8.252-7.617-9.472-4.932-15.869-3.174-18.359-7.91a8.622,8.622,0,0,1-.488-6.1c.732-2.637,2.783-4.883,12.793-9.912,9.131-4.59,13.183-5.664,13.135-7.715-.049-1.9-3.564-3.467-5.713-4-6.055-1.611-10.5,2.2-12.549.049A3.635,3.635,0,0,1,891.061,1007.234Z" transform="translate(-806.057 -970.846)" fill="#161616"/>
      <path id="Path_664" data-name="Path 664" d="M728.3,958.944l9.228,6.885c4.394-.439,8.74-.83,13.134-1.269,2.734-2.637,5.469-5.322,8.2-7.959.2,1.66.586,5.42.732,7.226,1.709,16.26,1.855,17.676.83,19.531-3.369,6.006-14.746,8.447-21.289,4.248-3.174-2.051-4.394-5.127-6.689-11.035A64.577,64.577,0,0,1,728.3,958.944Z" transform="translate(-726.694 -946.187)" fill="#161616"/>
      <g id="Group_465" data-name="Group 465" transform="translate(9.562 29.457)">
        <g id="Group_464" data-name="Group 464">
          <path id="Path_665" data-name="Path 665" d="M749.039,995.8a3.77,3.77,0,0,1-4,2.148c-.439-.1-.635.635-.2.683a4.425,4.425,0,0,0,4.834-2.49c.2-.391-.391-.781-.635-.342Z" transform="translate(-744.593 -995.602)" fill="#fff"/>
        </g>
      </g>
      <g id="Group_467" data-name="Group 467" transform="translate(20.679 28.558)">
        <g id="Group_466" data-name="Group 466">
          <path id="Path_666" data-name="Path 666" d="M767.478,994.367a6.918,6.918,0,0,0,5.957,1.9c.488-.049.244-.781-.2-.684a6.2,6.2,0,0,1-5.273-1.709.346.346,0,1,0-.488.488Z" transform="translate(-767.362 -993.762)" fill="#fff"/>
        </g>
      </g>
      <g id="Group_469" data-name="Group 469" transform="translate(16.593 33.139)">
        <g id="Group_468" data-name="Group 468">
          <path id="Path_667" data-name="Path 667" d="M760.608,1003.806h0c-.146,0-.244-.049-.391-.049.049-.049.049-.146.1-.2.1.1.244.2.342.293,0-.1-.049-.146-.049-.244-.146-.439-.83-.244-.684.2.244,1.074.635,2.734-.684,3.271-.44.2-.244.879.2.684,1.758-.733,1.562-2.637,1.221-4.2-.244.049-.488.146-.684.2,0,.1.049.146.049.244a.419.419,0,0,0,.342.293c1.27-.1.244-1.855-.342-.83-.244.342.342.732.586.342Z" transform="translate(-758.993 -1003.145)" fill="#fff"/>
        </g>
      </g>
      <g id="Group_471" data-name="Group 471" transform="translate(17.71 33.7)">
        <g id="Group_470" data-name="Group 470">
          <path id="Path_668" data-name="Path 668" d="M761.29,1004.736a7.5,7.5,0,0,0,.83,2.49,1.829,1.829,0,0,0,1.856.732c.439-.1.244-.781-.2-.683-1.367.293-1.562-1.856-1.807-2.734-.1-.439-.781-.244-.684.2Z" transform="translate(-761.281 -1004.293)" fill="#fff"/>
        </g>
      </g>
      <g id="Group_473" data-name="Group 473" transform="translate(10.566 33.978)">
        <g id="Group_472" data-name="Group 472">
          <path id="Path_669" data-name="Path 669" d="M751.459,1005.711a9.263,9.263,0,0,0-4.443-.83c-.488.049-.488.781,0,.732a8.222,8.222,0,0,1,4.053.733c.44.2.83-.439.391-.635Z" transform="translate(-746.65 -1004.862)" fill="#fff"/>
        </g>
      </g>
      <g id="Group_475" data-name="Group 475" transform="translate(10.872 35.801)">
        <g id="Group_474" data-name="Group 474">
          <path id="Path_670" data-name="Path 670" d="M750.51,1008.6a4.891,4.891,0,0,0-3.125,1.416c-.342.342.2.83.537.537a4.423,4.423,0,0,1,2.637-1.221c.391-.049.391-.781-.049-.732Z" transform="translate(-747.276 -1008.595)" fill="#fff"/>
        </g>
      </g>
      <g id="Group_477" data-name="Group 477" transform="translate(20.631 33.125)">
        <g id="Group_476" data-name="Group 476">
          <path id="Path_671" data-name="Path 671" d="M767.721,1004.474a9.413,9.413,0,0,1,4.346-.586c.488.049.488-.683,0-.732a10.277,10.277,0,0,0-4.541.635c-.44.146-.293.879.2.683Z" transform="translate(-767.264 -1003.114)" fill="#fff"/>
        </g>
      </g>
      <g id="Group_479" data-name="Group 479" transform="translate(21.699 35.055)">
        <g id="Group_478" data-name="Group 478">
          <path id="Path_672" data-name="Path 672" d="M769.816,1007.816a6.21,6.21,0,0,1,3.125.342c.439.146.635-.537.2-.684a6.989,6.989,0,0,0-3.32-.342c-.488,0-.488.781,0,.684Z" transform="translate(-769.45 -1007.068)" fill="#fff"/>
        </g>
      </g>
      <g id="Group_481" data-name="Group 481" transform="translate(10.006 26.465)">
        <g id="Group_480" data-name="Group 480">
          <path id="Path_673" data-name="Path 673" d="M746.038,990.513a2.247,2.247,0,0,1,2.344,0c.391.244.781-.391.391-.635a3.137,3.137,0,0,0-3.076,0,.36.36,0,1,0,.342.635Z" transform="translate(-745.502 -989.475)" fill="#fff"/>
        </g>
      </g>
      <g id="Group_483" data-name="Group 483" transform="translate(20.228 25.397)">
        <g id="Group_482" data-name="Group 482">
          <path id="Path_674" data-name="Path 674" d="M767,988.417a4.127,4.127,0,0,1,2.441-.391c.439.049.684-.635.2-.683a4.851,4.851,0,0,0-2.979.488c-.488.147-.1.781.342.586Z" transform="translate(-766.437 -987.289)" fill="#fff"/>
        </g>
      </g>
      <g id="Group_485" data-name="Group 485" transform="translate(8.282 8.275)">
        <g id="Group_484" data-name="Group 484">
          <path id="Path_675" data-name="Path 675" d="M742.816,955.141c1.514-.635,3.027-1.27,4.492-1.953a9.385,9.385,0,0,1-.83-.634,16.778,16.778,0,0,1-2.637,5.078c-.293.391.2.977.635.83,1.66-.635,3.32-1.221,4.98-1.856.635-.244.391-1.318-.293-1.074-1.66.635-3.32,1.221-4.98,1.856a9.4,9.4,0,0,0,.635.83A16.817,16.817,0,0,0,747.6,952.9c.146-.488-.391-.781-.83-.635-1.514.635-3.027,1.27-4.492,1.953-.684.293-.1,1.221.537.928Z" transform="translate(-741.973 -952.222)" fill="#161616"/>
        </g>
      </g>
      <g id="Group_487" data-name="Group 487" transform="translate(10.745)">
        <g id="Group_486" data-name="Group 486">
          <path id="Path_676" data-name="Path 676" d="M747.839,937.582a10.959,10.959,0,0,1,3.174-1.221,9.443,9.443,0,0,0-.635-.83,16.266,16.266,0,0,1-1.611,2.832.564.564,0,0,0,.488.83,5.129,5.129,0,0,0,3.564-1.026c.537-.439,0-1.367-.537-.928a4.08,4.08,0,0,1-2.978.879,7.351,7.351,0,0,0,.488.83,18.3,18.3,0,0,0,1.611-2.832.582.582,0,0,0-.635-.83,11.064,11.064,0,0,0-3.467,1.318.557.557,0,0,0,.537.976Z" transform="translate(-747.017 -935.274)" fill="#161616"/>
        </g>
      </g>
      <g id="Group_489" data-name="Group 489" transform="translate(17.962 4.658)">
        <g id="Group_488" data-name="Group 488">
          <path id="Path_677" data-name="Path 677" d="M763.458,954.28c-1.611-1.611,1.172-2.539,1.465-3.955.293-1.66-1.66-3.223.537-4.492.635-.342.049-1.318-.537-.928a3.117,3.117,0,0,0-1.611,2.051c-.293,1.562,1.074,2.49-.1,3.906-.537.684-1.172.879-1.367,1.806a2.636,2.636,0,0,0,.83,2.393c.537.488,1.318-.293.781-.781Z" transform="translate(-761.796 -944.814)" fill="#161616"/>
        </g>
      </g>
    </g>
  </g>
</svg>
