<svg xmlns="http://www.w3.org/2000/svg" width="188.666" height="53.039" viewBox="0 0 188.666 53.039">
  <g id="Group_1" data-name="Group 1" transform="translate(-1.197 -1.724)">
    <path id="Path_23" data-name="Path 23" d="M129.77,28.057a6.468,6.468,0,0,0-5.339-2.306,5.736,5.736,0,0,0-3.089.873,8.169,8.169,0,0,0-2.515,2.652,7.524,7.524,0,0,0-2.8-2.672,8.341,8.341,0,0,0-3.92-.853,6.074,6.074,0,0,0-2.853.653,6.314,6.314,0,0,0-2.214,2.019V26.151h-4.309V46.141h4.258V37.579q0-3.993.962-5.641a3.386,3.386,0,0,1,3.171-1.643,3.23,3.23,0,0,1,3.042,1.472q.867,1.47.869,5.524v8.85h4.378V37.579q0-3.993.939-5.641a3.31,3.31,0,0,1,3.129-1.643,3.133,3.133,0,0,1,2.954,1.463q.853,1.462.851,5.533v8.85h4.345V34.673Q131.633,30.366,129.77,28.057Z" transform="translate(-32.523 -7.696)" fill="#27aae1"/>
    <rect id="Rectangle_11" data-name="Rectangle 11" width="4.309" height="4.432" transform="translate(102.97 11.985)" fill="#27aae1"/>
    <rect id="Rectangle_12" data-name="Rectangle 12" width="4.309" height="19.99" transform="translate(102.97 18.455)" fill="#27aae1"/>
    <path id="Path_24" data-name="Path 24" d="M163.071,16.82V43.281h4.309V16.82Z" transform="translate(-51.849 -4.835)" fill="#27aae1"/>
    <rect id="Rectangle_13" data-name="Rectangle 13" width="4.309" height="4.432" transform="translate(119.474 11.985)" fill="#27aae1"/>
    <rect id="Rectangle_14" data-name="Rectangle 14" width="4.309" height="19.99" transform="translate(119.474 18.455)" fill="#27aae1"/>
    <path id="Path_25" data-name="Path 25" d="M203.789,31.5a7.729,7.729,0,0,0-.943-2.482,6.667,6.667,0,0,0-2.538-2.452,7.457,7.457,0,0,0-3.578-.819,6.09,6.09,0,0,0-2.853.653,6.314,6.314,0,0,0-2.214,2.019V26.151h-4.3V46.141h4.254V37.579q0-3.993.966-5.641A3.386,3.386,0,0,1,195.75,30.3a3.239,3.239,0,0,1,3.033,1.487q.88,1.493.878,5.51v8.85h4.411V35.566A22.141,22.141,0,0,0,203.789,31.5Z" transform="translate(-59.628 -7.696)" fill="#27aae1"/>
    <path id="Path_26" data-name="Path 26" d="M232.065,26.1v2.38a9.435,9.435,0,0,0-3.01-2.18,8.643,8.643,0,0,0-3.523-.712,8.991,8.991,0,0,0-6.911,2.955,10.644,10.644,0,0,0-2.723,7.5,10.741,10.741,0,0,0,3.033,7.377,9.165,9.165,0,0,0,3.01,1.979,9.4,9.4,0,0,0,3.592.693,8.828,8.828,0,0,0,3.583-.717,8.615,8.615,0,0,0,2.913-2.121v.2a6.827,6.827,0,0,1-1.646,4.774,5.523,5.523,0,0,1-4.281,1.809,5.452,5.452,0,0,1-2.843-.765,5.1,5.1,0,0,1-1.964-2.106h-4.258a9.784,9.784,0,0,0,3.4,5.041,9.423,9.423,0,0,0,5.737,1.7,9.147,9.147,0,0,0,7.212-2.964q2.628-2.962,2.626-8.162V26.1ZM229.952,40.11a5.275,5.275,0,0,1-3.921,1.779,5.41,5.41,0,0,1-4.091-1.764,6.128,6.128,0,0,1-1.665-4.379,5.852,5.852,0,0,1,1.673-4.232A5.43,5.43,0,0,1,226,29.789a5.242,5.242,0,0,1,3.981,1.8,6.215,6.215,0,0,1,1.669,4.373A5.821,5.821,0,0,1,229.952,40.11Z" transform="translate(-68.77 -7.643)" fill="#27aae1"/>
    <path id="Path_27" data-name="Path 27" d="M265.036,26.1v2.418a5.707,5.707,0,0,0-2.4-2.2,7.993,7.993,0,0,0-3.555-.731,9.574,9.574,0,0,0-3.878.756,9.057,9.057,0,0,0-3.135,2.335A10.085,10.085,0,0,0,250.049,32a11.325,11.325,0,0,0-.708,4,10.6,10.6,0,0,0,2.815,7.513,9.2,9.2,0,0,0,7.023,3.028,8.343,8.343,0,0,0,3.68-.707,5,5,0,0,0,2.228-2.2v2.453h4.258V26.1ZM263,40.144a4.853,4.853,0,0,1-3.666,1.707,5.132,5.132,0,0,1-3.888-1.7,5.934,5.934,0,0,1-1.6-4.227,5.687,5.687,0,0,1,1.586-4.062,5.11,5.11,0,0,1,3.828-1.663A4.9,4.9,0,0,1,263,31.959a6.03,6.03,0,0,1,1.59,4.188A5.684,5.684,0,0,1,263,40.144Z" transform="translate(-79.482 -7.643)" fill="#27aae1"/>
    <path id="Path_28" data-name="Path 28" d="M46.279,15.574a16.509,16.509,0,0,0-1.378-2.7,29.846,29.846,0,0,0-2.695-3.594A16.136,16.136,0,0,0,39.558,6.9a32.878,32.878,0,0,0-4.082-2.618A19.518,19.518,0,0,0,30,2.37a39.67,39.67,0,0,0-4.743-.619,23.316,23.316,0,0,0-6.518.678A21.906,21.906,0,0,0,13.267,4.4,32.791,32.791,0,0,0,9.194,7.037a19.048,19.048,0,0,0-3.925,4.012,20.911,20.911,0,0,0-2.464,4.305A20.056,20.056,0,0,0,1.631,27.387a20.783,20.783,0,0,0,4.47,9.03,19.631,19.631,0,0,0,3.736,3.491c-.079.254-.148.507-.222.765a18.009,18.009,0,0,1-.86,2.554,31.9,31.9,0,0,1-1.581,2.891c-.254.439-.518.883-.772,1.336l-.744,1.321,1.457.068.129.01c.1.005.19.01.277.01h.12l.532-.034c.8-.054,1.6-.1,2.4-.171a11.377,11.377,0,0,0,3.911-1.092,16.6,16.6,0,0,0,4.78-3.4c.841.156,1.632.273,2.376.355a18.182,18.182,0,0,1-1.673-3.286h0c-.063-.158-.115-.308-.173-.462-.069-.185-.143-.375-.207-.552h0c-.167-.473-.3-.917-.411-1.312a17.529,17.529,0,0,1-.606-8.035c1.058-5.49,4.854-10.034,9.306-12.877a21.449,21.449,0,0,1,6.944-2.916,18.5,18.5,0,0,1,4.3-.434s1.128.029,2.594.161c.351.029.716.068,1.1.107h0A21.479,21.479,0,0,1,46.279,15.574Z" transform="translate(0 0)" fill="#ff792e"/>
    <path id="Path_29" data-name="Path 29" d="M63.672,52.452a16.524,16.524,0,0,0,3.555-7.182,15.972,15.972,0,0,0,.3-4.515,15.767,15.767,0,0,0-1.239-5.075,16.613,16.613,0,0,0-1.955-3.423A15.266,15.266,0,0,0,61.2,29.064a25.412,25.412,0,0,0-3.112-2.023L58.013,27c-.393-.2-.8-.395-1.216-.57a17.873,17.873,0,0,0-3.111-.985c-.014,0-.023,0-.037-.01-.342-.073-.675-.141-.994-.2a17.1,17.1,0,0,0-4.105-.321,30.416,30.416,0,0,0-3.693.483,15.362,15.362,0,0,0-4.35,1.516,25.581,25.581,0,0,0-3.2,2.048,12.806,12.806,0,0,0-2.122,1.911,23.269,23.269,0,0,0-2.117,2.823,15.06,15.06,0,0,0-1.9,4.72,16.042,16.042,0,0,0,.855,9.746c.139.327.291.648.449.965.041.078.078.152.12.229a16.738,16.738,0,0,0,1.8,2.711c.06.083.125.161.19.243.268.332.555.659.855.971a17.707,17.707,0,0,0,2.381,2.082,18.725,18.725,0,0,0,6.038,2.9,20.624,20.624,0,0,0,2.686.5l.134.02c.7.1,1.378.136,2.122.171a19.476,19.476,0,0,0,4.188-.322,13.245,13.245,0,0,0,3.611,2.511,9.254,9.254,0,0,0,3.18.883c.6.054,1.2.088,1.8.126l.453.029a1.089,1.089,0,0,0,.124,0c.084,0,.167,0,.254-.01l2.168-.1L63.505,60.18c-.194-.351-.4-.692-.6-1.028-.435-.742-.846-1.438-1.179-2.16a13.146,13.146,0,0,1-.624-1.867,1.5,1.5,0,0,1-.046-.156A15.9,15.9,0,0,0,63.672,52.452Z" transform="translate(-9.474 -7.42)" fill="#ffb600"/>
    <g id="Group_16" data-name="Group 16" transform="translate(29.414 29.733)">
      <g id="Group_13" data-name="Group 13">
        <path id="Path_30" data-name="Path 30" d="M45.055,48.607a2.746,2.746,0,0,0,2.127-3.5,2.585,2.585,0,0,0-2.066-2.155,1.853,1.853,0,0,0-1.993,1.107,3.237,3.237,0,0,0,.186,3.452A2.031,2.031,0,0,0,45.055,48.607Z" transform="translate(-42.711 -42.933)" fill="#fff"/>
      </g>
      <g id="Group_14" data-name="Group 14" transform="translate(4.59 5.533)">
        <path id="Path_31" data-name="Path 31" d="M55.387,55.953a6.4,6.4,0,0,0,4.683-3.511,1.861,1.861,0,0,0,.245-.678,2.391,2.391,0,0,0-.157-.692c-.213.073-.508.083-.629.239A7.259,7.259,0,0,1,56.247,53.8c-1.711.59-3.426.751-5-.438-.351-.268-.61-.668-.948-.956a2.349,2.349,0,0,0-.684-.278c-.051.258-.2.556-.13.765a4.353,4.353,0,0,0,1.858,2.346A5.791,5.791,0,0,0,55.387,55.953Z" transform="translate(-49.464 -51.073)" fill="#fff"/>
      </g>
      <g id="Group_15" data-name="Group 15" transform="translate(15.538 0.237)">
        <path id="Path_32" data-name="Path 32" d="M70.075,45.627c-.259-1.75-1.785-2.8-3.14-2.155A2.8,2.8,0,0,0,65.72,46.88a2.325,2.325,0,0,0,2.649,1.8A2.578,2.578,0,0,0,70.075,45.627Z" transform="translate(-65.571 -43.281)" fill="#fff"/>
      </g>
    </g>
    <g id="Group_17" data-name="Group 17" transform="translate(9.504 8.824)">
      <path id="Path_33" data-name="Path 33" d="M14.417,21.562a.993.993,0,0,1-.314-.054,1.071,1.071,0,0,1-.633-1.331,11.78,11.78,0,0,1,4.1-5.846,10.74,10.74,0,0,1,6.588-2.16,1.055,1.055,0,0,1-.014,2.106H24.13a8.846,8.846,0,0,0-5.4,1.775,9.651,9.651,0,0,0-3.365,4.8A.994.994,0,0,1,14.417,21.562Z" transform="translate(-13.419 -12.17)" fill="#fff"/>
    </g>
  </g>
</svg>
