<svg xmlns="http://www.w3.org/2000/svg" width="243.854" height="169.232" viewBox="0 0 243.854 169.232">
  <g id="Group_911" data-name="Group 911" transform="translate(-598 -2096.831)">
    <rect id="Rectangle" width="138" height="138" rx="69" transform="translate(598 2104.5)" fill="#fca7a7" opacity="0.21"/>
    <path id="Path_270" data-name="Path 270" d="M209.2,112.189c-4.442,23.444-30.707,24.842-41.575,22.714-1.035,4.543-10.379,47.584-11.414,51.207-3.881,2.846-51.235,21.567-55.031,22.685-6.555-2.157-77.313-36.515-86.4-42.783-1.589-7.728-4.509-38.05-4.827-48.544-.07-2.365-.281-1.935,2.343-3.4a59.514,59.514,0,0,1,6.289-2.744c.672-.264,1.187.675.519,1.019-1.581.815-3.119,1.694-4.637,2.632-2.221,1.376-2.5,1.994-.1,2.98,21.427,8.823,87.944,35.488,89.538,35.23,1.725-.288,58.321-18.05,62.018-19.68,1.869-2.086,19.205-47.9,22.462-70.309C197.955,68.027,214.4,84.724,209.2,112.189Z" transform="translate(631.662 2057.268)" fill="#fa5051" fill-rule="evenodd"/>
    <path id="Path_271" data-name="Path 271" d="M113.623,154.079a.607.607,0,0,0-1.08-.241,37.032,37.032,0,0,0-1.5,5.262,12.01,12.01,0,0,0,.07,4.924,17.161,17.161,0,0,0,.592,3.07.643.643,0,0,0,1.232-.156,27.227,27.227,0,0,0-.483-3.029,11.413,11.413,0,0,1,0-4.431,35.3,35.3,0,0,0,1.175-5.4Z" transform="translate(601.65 2030.376)" fill="#fa5051" fill-rule="evenodd"/>
    <path id="Path_272" data-name="Path 272" d="M110.538,148.607c-1.342-1.221-3.971-2.8-5.6-4.037a.6.6,0,0,0-.809.878c1.2,1.165,4.209,3.621,5.69,4.176a.628.628,0,0,0,.716-1.017Z" transform="translate(603.688 2033.104)" fill="#fa5051" fill-rule="evenodd"/>
    <path id="Path_273" data-name="Path 273" d="M98.99,141.216c-1.8,2.242-3.649,4.463-5.347,6.786a.618.618,0,0,0,.965.769c2.045-2.254,3.944-4.646,5.888-6.986.288-.346,8.944-2.467,9.66-2.655a73.6,73.6,0,0,1,7.257,4.668c-2.343,1.276-5.322,2.122-7.782,3.213a.637.637,0,0,0,.445,1.175c.374-.115,8.352-2.821,8.472-2.943A41.544,41.544,0,0,1,121.5,151a129.546,129.546,0,0,1-12.659,4.786c-.769.257-.3,1.343.447,1.151a91.134,91.134,0,0,0,11.839-3.885c-1.373,3.048-3.214,5.718-4.612,8.689a.6.6,0,0,0,1.017.6,57.674,57.674,0,0,0,4.479-7.436c.978-1.732,1.883-2.982,1.086-4.878a27.571,27.571,0,0,0-2.4-4.534,9.56,9.56,0,0,0-2.635-2.88,52.361,52.361,0,0,0-6.726-4.318,2.972,2.972,0,0,0-2.389-.24,79.788,79.788,0,0,0-8.595,2.289c-.8.279-.828.2-1.366.87Z" transform="translate(606.791 2035.042)" fill="#fa5051" fill-rule="evenodd"/>
    <path id="Path_274" data-name="Path 274" d="M103.227,159.445c-2.676-1.588-5.732-3.132-8.5-4.682-.651-.364-1.269.3-.889,1.14.576,1.274,3.372,7.632,4.587,8.632.511.422,1.375-.141,1.037-.676a71.956,71.956,0,0,1-3.719-6.977,48.17,48.17,0,0,0,6.844,3.7c.665.253,1.306-.738.64-1.133Z" transform="translate(606.731 2030.059)" fill="#fa5051" fill-rule="evenodd"/>
    <path id="Path_275" data-name="Path 275" d="M167.755,141.937c-.1,1.265,1.35,1.723,1.439.185.239-4.1-1.734-8.976-1.461-12.728a28.625,28.625,0,0,1,3.091-11.132c.469,2.22,2.171,3.91,3.835,5.33a25.229,25.229,0,0,0,18.009,5.955c.74-.046.7-1.34-.053-1.313-6.784.243-14.1-2.348-18.661-7.517-3.077-3.484-2.058-6.594,2.792-6.819a22.12,22.12,0,0,1,18.128,8.621c.528.667,1.481-.141,1.012-.823a22.516,22.516,0,0,0-19.406-9.349c-4.459.225-6.03,2.55-7.686,6.508a38.934,38.934,0,0,0-2.452,8.992c-.561,4.348,1.763,9.567,1.413,14.09Z" transform="translate(585.154 2042.655)" fill="#fa5051" fill-rule="evenodd"/>
    <path id="Path_276" data-name="Path 276" d="M196.839,136.489c-2.086,4.8-5.306,7.662-10.356,10.149-2.63,1.3-5.385,1.984-7.934,3.556a10.132,10.132,0,0,0-4.4,5.826.614.614,0,0,0,1.156.411,12.548,12.548,0,0,1,5.9-6.063c2.687-1.393,4.259-1.557,6.972-2.825a19.129,19.129,0,0,0,9.824-10.637.622.622,0,0,0-1.17-.417Z" transform="translate(582.812 2035.58)" fill="#fa5051" fill-rule="evenodd"/>
    <path id="Path_277" data-name="Path 277" d="M41.239,110.795a55.5,55.5,0,0,1,4.909,6.885,45.671,45.671,0,0,1,3.773,7.457c.332.935,1.21.307,1.071-.4-.475-2.424-2.7-6.52-3.525-7.862a37.79,37.79,0,0,0-5.355-6.906C41.631,109.482,40.806,110.264,41.239,110.795Z" transform="translate(622.38 2043.4)" fill="#fa5051" fill-rule="evenodd"/>
    <path id="Path_278" data-name="Path 278" d="M49.028,106.668c5.567,2.115,6.858-1.072,6.423-6a20.145,20.145,0,0,0-1.581-6.85c-.318-.665-1.271-.166-1.128.485a53.938,53.938,0,0,1,1.251,5.945c.41,3.907.483,7.072-4.809,4.995a15.191,15.191,0,0,1-4.678-2.951.612.612,0,0,0-.86.869A14.862,14.862,0,0,0,49.028,106.668Z" transform="translate(621.676 2048.253)" fill="#fa5051" fill-rule="evenodd"/>
    <path id="Path_279" data-name="Path 279" d="M60.931,92.363a20.072,20.072,0,0,0,2.725,6.972c3.121,5.048,6.538,6.955,10.873,1.662a12.235,12.235,0,0,0,2.721-6.424c.086-.806-1.054-.868-1.22-.118a13.575,13.575,0,0,1-2.408,5.32c-3.963,5.215-6.674,2.4-9.113-1.787a22.459,22.459,0,0,1-2.325-5.831C61.989,91.378,60.785,91.545,60.931,92.363Z" transform="translate(616.49 2048.803)" fill="#fa5051" fill-rule="evenodd"/>
    <path id="Path_280" data-name="Path 280" d="M86.127,95.971c-1.765,5.695-2.6,13.679-1.487,19.547a.6.6,0,0,0,1.194-.141c-.281-7.224-.187-11.954,1.455-19.076C87.441,95.641,86.331,95.314,86.127,95.971Z" transform="translate(609.583 2047.625)" fill="#fa5051" fill-rule="evenodd"/>
    <path id="Path_281" data-name="Path 281" d="M87.442,85.091a2.718,2.718,0,0,0-3.5-.729.623.623,0,0,0,.44,1.111,1.767,1.767,0,0,1,2.119.728c1.124,1.741-.2,4.535-2.566,2.758a1.558,1.558,0,0,1-.562-2,.6.6,0,0,0-1.005-.608,2.577,2.577,0,0,0,.27,3.267C86.025,93.32,90.293,88.459,87.442,85.091Z" transform="translate(610.244 2051.084)" fill="#fa5051" fill-rule="evenodd"/>
    <path id="Path_282" data-name="Path 282" d="M58.432,87.59a3.28,3.28,0,0,0,.453-3.208,3.162,3.162,0,0,0-2.5-2.053,2.946,2.946,0,0,0-3.13,1.657.636.636,0,0,0,1.072.638A2.114,2.114,0,0,1,56.71,83.9c1.553.6,1.26,2.464.211,3.284-1.279,1-2.777.373-2.824-.585-.044-.884-1.029-1.155-1.163-.414C52.539,88.383,56.162,90.353,58.432,87.59Z" transform="translate(618.874 2051.584)" fill="#fa5051" fill-rule="evenodd"/>
    <path id="Path_283" data-name="Path 283" d="M33.97,102.571c.641-.714,1.387-1.369,2.413-1.054a1.82,1.82,0,0,1,.786,3.045,1.431,1.431,0,0,1-1.953-.029c-1.133-1.173-1.813.048-.87.959a2.752,2.752,0,0,0,4.507-1.054,3.316,3.316,0,0,0-1.958-4.262c-.05-.018-.1-.035-.15-.051-1.513-.5-3.648.351-3.934,2.031a.639.639,0,0,0,1.158.416Z" transform="translate(624.852 2046.325)" fill="#fa5051" fill-rule="evenodd"/>
    <path id="Path_284" data-name="Path 284" d="M82.168,145.912a9.4,9.4,0,0,1,4.692,1.4c.692.387,1.138-.684.619-1.149a9.133,9.133,0,0,0-5.879-1.805c-3.377.025-9.427,2.478-8.354,6.647.492,1.9,2.427,2.763,4.12,3.338a.655.655,0,0,0,.461-1.224c-1.21-.44-2.946-1.1-3.2-2.551C74.071,147.391,79.67,145.786,82.168,145.912Z" transform="translate(612.86 2033.124)" fill="#fa5051" fill-rule="evenodd"/>
    <path id="Path_285" data-name="Path 285" d="M98.948,134.668a2.413,2.413,0,0,0,1.21-3.191,2.386,2.386,0,0,0-.233-.407c-1.691-2.641-7.629-3.392-10.308-2.131a5.01,5.01,0,0,0-2.916,4,3.754,3.754,0,0,0,2.9,4,.646.646,0,0,0,.3-1.258,2.511,2.511,0,0,1-1.663-3.137c.015-.051.033-.1.052-.152a4.208,4.208,0,0,1,3.756-2.582c2.931-.226,5.978.6,6.7,2.264a1.24,1.24,0,0,1-.289,1.483c-.551.368-.181,1.371.495,1.114Z" transform="translate(608.824 2037.888)" fill="#fa5051" fill-rule="evenodd"/>
    <path id="Path_286" data-name="Path 286" d="M95.644,121.9a.606.606,0,0,0,.049-1.194c-1.989-.3-1.893-2.622-.719-3.774,2.322-2.277,7.794-1.405,10.335.15,1.124.687,2.523,2.574.988,3.472-.594.351-.452,1.331.277,1.217a2.609,2.609,0,0,0,1.7-3.77c-1.636-3.465-8.035-4.426-11.381-3.632C91.155,115.736,91.879,121.976,95.644,121.9Z" transform="translate(607.034 2042.123)" fill="#fa5051" fill-rule="evenodd"/>
    <path id="Path_287" data-name="Path 287" d="M120.914,126.482a2.929,2.929,0,0,1,.592-3.774,5.123,5.123,0,0,1,4.285-.988c2.873.482,6.738,2.354,6.923,5.669a.61.61,0,0,0,1.217.048c.294-2.09-1.094-3.924-2.736-5.045a12.63,12.63,0,0,0-6.047-2.185,6.027,6.027,0,0,0-5.114,2.02,4.043,4.043,0,0,0-.027,5.091c.522.622,1.359-.21.9-.835Z" transform="translate(599.175 2040.317)" fill="#fa5051" fill-rule="evenodd"/>
    <path id="Path_288" data-name="Path 288" d="M136.11,140.535a5.094,5.094,0,0,0,4.536,4.622.676.676,0,0,0,.158-1.341,3.724,3.724,0,0,1-3.141-4.226,3.615,3.615,0,0,1,.093-.441c1.105-3.829,9.162-4.379,12.109-2.437a4.416,4.416,0,0,1,1.7,5.7c-.325.606.647,1.106,1.04.573a4.989,4.989,0,0,0-.176-5.983c-3.789-5.112-16.746-3.461-16.314,3.542Z" transform="translate(594.125 2036.2)" fill="#fa5051" fill-rule="evenodd"/>
    <path id="Path_289" data-name="Path 289" d="M140.38,180.119c-.691.325-.365,1.405.393,1.148,2.436-.818,5.168-2.131,5.952-4.8,1.783-6.075-6.723-8-11.44-6.761-2.393.632-5.228,2.051-6.376,4.373-1.439,2.911,1.116,5.032,3.541,6.082.773.335,1.352-.826.579-1.182-2.578-1.187-4.464-3.04-1.8-5.528,3.416-3.194,12.7-4.289,14.084.971.817,3.109-2.711,4.66-4.929,5.7Z" transform="translate(596.387 2025.691)" fill="#fa5051" fill-rule="evenodd"/>
    <path id="Path_290" data-name="Path 290" d="M156.093,168.282c-.717.175-.478,1.352.254,1.269a8.268,8.268,0,0,0,5.616-2.908c4.918-6.252-2.734-11.553-9.8-10.642-2.355.3-4.707,1.44-5.289,3.934-.189.814,1.054,1.059,1.265.259.632-2.4,3.628-2.8,5.7-2.859,4.075-.117,9.754,2.536,7.643,7.254-.974,2.178-3.2,3.162-5.388,3.7Z" transform="translate(590.925 2029.691)" fill="#fa5051" fill-rule="evenodd"/>
    <path id="Path_291" data-name="Path 291" d="M192.81,164.044a14.312,14.312,0,0,1-6.252.09c-1.7-.351-3.9-1.005-4.76-2.681-.357-.7-1.475-.3-1.161.455a6.106,6.106,0,0,0,3.991,3.219,15.782,15.782,0,0,0,6.289.756c3.7-.307,8.493-2.48,5.709-6.86a6.008,6.008,0,0,0-5.582-2.253.651.651,0,0,0-.038,1.283c1.686.294,3.671.606,4.394,2.405.862,2.158-.738,3.137-2.589,3.587Z" transform="translate(580.892 2029.446)" fill="#fa5051" fill-rule="evenodd"/>
    <path id="Path_292" data-name="Path 292" d="M67.009,127.626a12.245,12.245,0,0,1,5.62-.818c2.3.273,2.717,1.141,4.025,2.717a.632.632,0,0,0,1.077-.432c-.112-1.686-1.883-2.9-3.326-3.429-2.759-1.016-8.585-.133-10.439,2.344a4.77,4.77,0,0,0-.5,4.79,4.621,4.621,0,0,0,4.541,2.574c.805-.07.858-1.307.022-1.28a3.364,3.364,0,0,1-3.426-2.618A3.452,3.452,0,0,1,67.009,127.626Z" transform="translate(615.858 2038.808)" fill="#fa5051" fill-rule="evenodd"/>
    <path id="Path_293" data-name="Path 293" d="M53.776,148.28a.6.6,0,0,0-.2,1.184c5.558,1.286,9.669-2.24,6.3-6.786-2.512-3.387-9.173-5.269-12.653-2.285-1.818,1.557-2.609,4.43-1,6.43a.638.638,0,0,0,1.041-.737,3.756,3.756,0,0,1,1.9-5.152c2.858-1.354,7.647.186,9.563,2.686C61.789,147.612,57.124,148.771,53.776,148.28Z" transform="translate(621.121 2034.746)" fill="#fa5051" fill-rule="evenodd"/>
    <path id="Path_294" data-name="Path 294" d="M36.346,137.3c.759-.162.651-1.454-.124-1.228-2.127.622-6.393.873-6.61-2.154-.211-3.01,4.847-4.9,7.226-4.932,1.662-.025,4.5.641,4.011,2.9a.614.614,0,0,0,1.158.356c.753-1.938-.749-3.664-2.529-4.239-5.9-1.907-14.605,4.014-10.084,8.626C30.937,138.2,34.087,137.783,36.346,137.3Z" transform="translate(626.241 2038.1)" fill="#fa5051" fill-rule="evenodd"/>
    <path id="Path_295" data-name="Path 295" d="M13.312,112.329a.663.663,0,0,0-.255-1.3h0c-2.405.205-5.251.3-7.582.721a.608.608,0,0,0,.079,1.194C7.978,112.96,10.852,112.55,13.312,112.329Z" transform="translate(633.121 2043.043)" fill="#fa5051" fill-rule="evenodd"/>
    <path id="Path_296" data-name="Path 296" d="M14.712,87.478c2.371,1.232,4.807,2.361,7.245,3.454.732.328,1.194-.785.485-1.139-2.389-1.2-4.8-2.377-7.251-3.438C14.46,86.038,14.022,87.12,14.712,87.478Z" transform="translate(630.338 2050.396)" fill="#fa5051" fill-rule="evenodd"/>
    <path id="Path_297" data-name="Path 297" d="M46.7,72.583a.582.582,0,0,0,.96-.632,44.371,44.371,0,0,0-2.74-4.838.6.6,0,0,0-1.079.52A45.119,45.119,0,0,0,46.7,72.583Z" transform="translate(621.584 2056.199)" fill="#fa5051" fill-rule="evenodd"/>
    <path id="Path_298" data-name="Path 298" d="M76.328,71.753c-.07-2.322-.089-4.653-.253-6.971a.6.6,0,1,0-1.2.119c-.018,2.325.115,4.654.191,6.977.027.814,1.286.685,1.262-.128Z" transform="translate(612.339 2056.958)" fill="#fa5051" fill-rule="evenodd"/>
    <path id="Path_299" data-name="Path 299" d="M93.567,72.959c.8-2.243,1.75-4.632,2.4-6.9a.59.59,0,0,0-1.136-.321c-.9,2.186-1.654,4.643-2.427,6.9C92.155,73.367,93.3,73.684,93.567,72.959Z" transform="translate(607.133 2056.641)" fill="#fa5051" fill-rule="evenodd"/>
    <path id="Path_300" data-name="Path 300" d="M54.756,252.254c-.827-.193-1.226.757-.393,1.1,1.52.628,4.579,1.812,3.484,4.057-1.153,2.365-6.329,2.712-8.707,2.459-2.5-.27-6.533-1.85-4.023-5,1.583-1.984,4.575-1.887,6.857-1.854.786.011.913-1.175.112-1.234-2.7-.2-5.761-.237-7.787,1.871-3.506,3.645.1,7.236,4.187,7.767,3.156.41,8.94-.211,10.591-3.248C60.711,255.167,57.355,252.86,54.756,252.254Z" transform="translate(621.856 2001.191)" fill="#fa5051" fill-rule="evenodd"/>
    <path id="Path_301" data-name="Path 301" d="M40.965,237.7c-2.642-1.576-6.112-1.182-8.844-.017-.891.38-.337,1.595.551,1.358,2.141-.573,4.285-1.276,6.491-.554,4.189,1.368,4.356,5.921-1.47,6.892a15.131,15.131,0,0,1-6.112-.153c-2.687-.837-2.514-3.1-1-4.918.507-.609-.371-1.194-.893-.618-1.567,1.737-2.324,4.531-.285,6.238,1.8,1.51,5.35,1.456,7.567,1.227,6.827-.7,9.327-6.273,3.994-9.454Z" transform="translate(626.233 2005.665)" fill="#fa5051" fill-rule="evenodd"/>
    <path id="Path_302" data-name="Path 302" d="M12.985,253.338a.639.639,0,0,0,.218,1.242c1.99.043,4.711-.709,6.03,1.335,1.188,1.838-.181,4.042-1.686,5.175-2.622,1.978-9.733,2.959-10.655-.769-.609-2.459,2.061-4.135,3.832-5.165.73-.422.039-1.51-.691-1.106-2.21,1.224-4.585,2.9-4.606,5.7-.041,5.444,8.992,5.322,12.716,2.689,2.023-1.432,3.647-3.934,2.74-6.484-1.112-3.114-5.178-3.51-7.9-2.619Z" transform="translate(632.998 2000.828)" fill="#fa5051" fill-rule="evenodd"/>
    <path id="Path_303" data-name="Path 303" d="M67.415,174.826c.3-3.28,4.188-3.666,5.181-.211a3.778,3.778,0,0,1-1.6,4.254,10.04,10.04,0,0,1-.226,3.021,1.078,1.078,0,0,1-1.911-.211,9.407,9.407,0,0,1,.034-2.9C67.728,178.122,67.236,176.779,67.415,174.826Z" transform="translate(614.568 2024.844)" fill="#6a2405" fill-rule="evenodd"/>
    <path id="Path_304" data-name="Path 304" d="M142.572,197.951c-1.146,15.72-1.82,31.507-2.519,47.253-.034.789,1.2.971,1.256.136,1.059-15.7,1.982-31.53,2.51-47.254.027-.8-1.189-.947-1.248-.134Z" transform="translate(592.948 2017.342)" fill="#6a2405" fill-rule="evenodd"/>
    <path id="Path_305" data-name="Path 305" d="M20.174,153.087c8.244,4.348,15.367,6.811,24.353,10.52.758.313,1.285-.862.521-1.178-9.332-3.864-16.559-6.358-25.22-10.871a.649.649,0,0,0-.971.532,150.294,150.294,0,0,0,.549,18.164,146.339,146.339,0,0,0,1.976,16.163c.126.747,1.239.467,1.137-.268-.913-6.53-1.355-9.672-1.836-16.249C20.228,163.709,20.31,159.127,20.174,153.087Z" transform="translate(629.023 2031.007)" fill="#6a2405" fill-rule="evenodd"/>
    <path id="Path_306" data-name="Path 306" d="M101.369,189.834c-11.979-4.1-23.784-8.65-35.53-13.37a.887.887,0,0,0-1.246.863c-.1,3.4-.531,8.992-.75,10.973a118.733,118.733,0,0,1-13.8-5.945c-.162-4.314-.179-7.593-.1-11.914.015-.936-1.124-1.154-1.207-.124-.389,4.847-.2,8.022-.2,11.192,0,.923-.021,1.686.794,2.143A84.018,84.018,0,0,0,64.072,189.9c.391.122.955.07,1.033-.43.449-2.831.405-7.738.733-11.721,11.407,4.828,23.042,9.143,34.751,13.173-.289,6.814-.839,13.644-1.23,20.283-.386,6.55-.791,11.322-1.149,17.722-14.645-6.3-29.6-13.184-44.107-20.35-9.569-4.725-18.893-9.7-28.337-14.652-.662-.351-1.3.62-.632,1,9.379,5.279,17.345,9.3,26.981,14.088,15.3,7.608,30.742,14.7,46.436,21.437a.581.581,0,0,0,.857-.465c.442-6.906.829-11.878,1.236-18.786.375-6.361.851-12.912,1.136-19.278.026-.646.284-1.843-.41-2.081Z" transform="translate(627.22 2025.604)" fill="#6a2405" fill-rule="evenodd"/>
    <path id="Path_307" data-name="Path 307" d="M199.97,175.751c-14.472,5.9-30.891,11.35-45.82,15.927-.507.155-.439.867-.481,1.294-1.3,13.12-2.452,24.637-3.647,37.821-.041.454.291.843.764.679,7.2-2.445,14.261-5.381,21.364-8.087s13.362-4.988,20.409-7.855a.611.611,0,0,0-.416-1.149c-7.17,2.544-13.309,5.122-20.421,7.827-6.769,2.574-13.651,4.967-20.342,7.745,1.236-13,2.415-24.2,3.546-37.266,14.612-3.954,30.442-9.746,44.52-15.37-1.942,12.517-3.2,22.327-6.337,34.756-.185.735.882.873,1.081.133,3.442-12.807,4.632-22.761,6.668-35.865C200.938,175.815,200.362,175.591,199.97,175.751Z" transform="translate(589.984 2023.8)" fill="#6a2405" fill-rule="evenodd"/>
    <path id="Path_308" data-name="Path 308" d="M261.784,80.228c-.6-.608-1.418.454-.818,1.054,9.062,9.053,13.926,22.139,9.78,34.609-3.678,11.064-14.22,18.908-26.063,17.056A442.1,442.1,0,0,0,260.359,85.1a.613.613,0,0,0-1.176-.346A498.381,498.381,0,0,1,243.418,132.9c-.159.4-.277.99.3,1.1,9.513,1.9,19.474-2.766,24.811-10.716C277.973,109.217,273,91.517,261.784,80.228Z" transform="translate(562.238 2052.256)" fill="#6a2405" fill-rule="evenodd"/>
    <path id="Path_309" data-name="Path 309" d="M210.791,52.613c-2.389,15.353-20.452,68.214-22.584,68.966s-16.2-4.447-19.609-6.112c6.21-5.69,14.635-18.9.043-26.808-14.284-7.74-25.361-3.752-26.656,13.155-3.921-5-9.924-3.7-12.684-2.717-.337-7.376-12.672-10.635-17.967-7.289-5.139-7.03-15.406-6.728-19.805-3.45,1.955-8.05,17.295-58.007,18.588-58.783S207.986,51.268,210.791,52.613Z" transform="translate(607.383 2067.276)" fill="#6a2405" fill-rule="evenodd"/>
    <path id="Path_310" data-name="Path 310" d="M107.366,98.611a55.662,55.662,0,0,0-2.152-5.248.616.616,0,0,0-1.124.457,55.132,55.132,0,0,0,2.16,5.245C106.52,99.685,107.612,99.253,107.366,98.611Z" transform="translate(603.651 2048.38)" fill="#fa5051" fill-rule="evenodd"/>
    <path id="Path_311" data-name="Path 311" d="M119.339,91.586c.125-.66-.953-.9-1.153-.263-.637,2.037-1.139,4.441-1.612,6.54-.146.651.974.908,1.153.262C118.313,96,118.93,93.746,119.339,91.586Z" transform="translate(599.937 2049.012)" fill="#fa5051" fill-rule="evenodd"/>
    <path id="Path_312" data-name="Path 312" d="M128.565,100.188a11.426,11.426,0,0,1-3.453,3.2c-.65.4-.131,1.442.535,1.062a10.169,10.169,0,0,0,3.905-3.594.594.594,0,1,0-.987-.662Z" transform="translate(597.481 2046.342)" fill="#fa5051" fill-rule="evenodd"/>
    <path id="Path_314" data-name="Path 314" d="M160.985,109.417a47.175,47.175,0,0,0-4.215-4.29c-.516-.441-1.265.329-.835.849a47.129,47.129,0,0,0,4.21,4.3C160.631,110.719,161.444,109.941,160.985,109.417Z" transform="translate(588.261 2044.834)" fill="#fa5051" fill-rule="evenodd"/>
    <path id="Path_315" data-name="Path 315" d="M174.92,99.745a68.314,68.314,0,0,0-2.108-6.543.592.592,0,0,0-1.144.249,66.112,66.112,0,0,0,2.067,6.715c.247.772,1.425.347,1.186-.422Z" transform="translate(583.543 2048.456)" fill="#fa5051" fill-rule="evenodd"/>
    <path id="Path_316" data-name="Path 316" d="M196.018,91.932c.106-.679-.984-.853-1.172-.211a73.906,73.906,0,0,0-1.734,7.747c-.115.67.983.851,1.164.211a73.956,73.956,0,0,0,1.743-7.747Z" transform="translate(577.167 2048.902)" fill="#fa5051" fill-rule="evenodd"/>
    <path id="Path_317" data-name="Path 317" d="M215.282,102.631c.4-.492-.382-1.284-.913-.786-1.491,1.39-3.138,3.269-4.5,4.819a.607.607,0,1,0,.807.907C212.171,106.067,213.957,104.261,215.282,102.631Z" transform="translate(572.238 2045.818)" fill="#fa5051" fill-rule="evenodd"/>
    <path id="Path_318" data-name="Path 318" d="M223.173,143.633a35.97,35.97,0,0,1-5.433-1.524c-.776-.281-1.274.677-.5,1a33.5,33.5,0,0,0,5.687,1.7.6.6,0,1,0,.308-1.161Z" transform="translate(570.102 2033.808)" fill="#fa5051" fill-rule="evenodd"/>
    <path id="Path_319" data-name="Path 319" d="M225.532,122.184a44.8,44.8,0,0,0-5.865.663.66.66,0,0,0,.029,1.32,45.825,45.825,0,0,0,6.031-.751.632.632,0,0,0-.195-1.229Z" transform="translate(569.452 2039.72)" fill="#fa5051" fill-rule="evenodd"/>
  </g>
</svg>
