<svg xmlns="http://www.w3.org/2000/svg" width="40" height="40" viewBox="0 0 40 40">
  <g id="Group_45" data-name="Group 45" transform="translate(-3267.006 -2759.919)">
    <g id="Group_44" data-name="Group 44" transform="translate(3267.006 2759.919)">
      <path id="Path_372" data-name="Path 372" d="M3267.6,2775.116a19.995,19.995,0,1,1,14.6,24.213,19.992,19.992,0,0,1-14.6-24.213" transform="translate(-3267.005 -2759.919)" fill="#e71e1a"/>
    </g>
    <path id="Path_373" data-name="Path 373" d="M3322.01,2816.252l-.911,1.1-1.327-.531.76,1.208-.911,1.1,1.386-.352.763,1.208.09-1.426,1.386-.352-1.327-.528Zm5.283-3h-1.429l-.437-1.358-.443,1.359h-1.426l1.153.838-.443,1.358,1.156-.839,1.153.84-.44-1.36Zm-2.325-5.229.217,1.411.655-1.272,1.407.228-1.008-1.011.651-1.271-1.274.646-1-1.011.217,1.409-1.271.645Zm-2.948-6.539-.912,1.1-1.324-.527.76,1.2-.912,1.1,1.383-.354.763,1.207.093-1.426,1.383-.352-1.324-.527Zm-9.965,6.279-1.34-4.124-1.342,4.124h-4.338l3.51,2.552-1.34,4.126,3.51-2.552,3.507,2.552-1.34-4.126,3.51-2.552Z" transform="translate(-34.275 -37.465)" fill="#ffc700"/>
  </g>
</svg>
