<svg xmlns="http://www.w3.org/2000/svg" width="40" height="40" viewBox="0 0 40 40">
  <g id="Group_59" data-name="Group 59" transform="translate(1275.904 -2360.645)">
    <g id="Group_58" data-name="Group 58" transform="translate(-1275.904 2360.645)">
      <path id="Path_385" data-name="Path 385" d="M-1275.313,2375.841a19.992,19.992,0,0,1,24.213-14.606,19.994,19.994,0,0,1,14.606,24.213,19.994,19.994,0,0,1-24.214,14.606,19.992,19.992,0,0,1-14.6-24.213" transform="translate(1275.904 -2360.645)" fill="#0060af"/>
      <path id="Path_386" data-name="Path 386" d="M-1264.392,2374.238h37.615a20.131,20.131,0,0,0-14.011-12.989,19.881,19.881,0,0,0-23.6,12.989" transform="translate(1265.585 -2360.645)" fill="#e71e1a"/>
      <path id="Path_387" data-name="Path 387" d="M-1236.329,2502.874c.009-.043.018-.087.026-.131q.023-.114.044-.228l.024-.132q.021-.118.041-.236c.007-.04.014-.079.02-.119q.024-.147.046-.295c0-.019.006-.039.009-.058.017-.118.034-.236.049-.354l.011-.094c.011-.087.021-.173.031-.26,0-.042.009-.083.013-.124.008-.077.016-.155.023-.233,0-.043.008-.086.012-.129q.01-.118.019-.235c0-.04.006-.08.009-.12.007-.09.012-.18.017-.27,0-.027,0-.054,0-.082q.01-.177.016-.354c0-.019,0-.038,0-.057q0-.147.008-.293c0-.037,0-.074,0-.111,0-.081,0-.161,0-.242q0-.061,0-.122c0-.079,0-.158,0-.237,0-.039,0-.078,0-.117,0-.086,0-.173-.007-.259l0-.09q-.013-.351-.038-.7c0-.031,0-.061-.007-.092-.006-.085-.013-.17-.021-.256,0-.037-.007-.074-.01-.111-.007-.08-.015-.161-.024-.24l-.012-.11q-.014-.127-.03-.255c0-.03-.007-.06-.011-.089q-.044-.348-.1-.693c0-.021-.007-.041-.01-.062q-.023-.139-.047-.279c-.006-.032-.011-.063-.018-.095-.015-.083-.031-.166-.047-.249-.006-.033-.013-.066-.019-.1q-.026-.127-.053-.254c-.006-.028-.012-.057-.018-.085q-.034-.156-.07-.311l-.005-.023q-.038-.163-.079-.324h0q-.227-.9-.531-1.771h-37.669q-.331.954-.575,1.958a20.852,20.852,0,0,0-.343,8.127l.005.035q.023.144.047.288l.01.06q.024.135.048.268l.016.08q.024.126.05.252l.02.1c.017.08.034.159.052.239l.026.111c.017.074.034.149.051.223.014.056.028.112.042.168.021.084.042.168.064.252s.043.165.066.247c.01.036.021.072.031.109q.032.117.067.234l.033.109q.035.116.071.232l.034.107q.037.116.076.233l.035.1q.039.117.08.233l.019.055h0l.051.144h37.516c.017-.048.033-.1.05-.144h0c.042-.12.082-.241.122-.362l.012-.035q.078-.237.15-.477l.021-.067c.045-.149.088-.3.129-.451.009-.032.018-.063.027-.1q.073-.27.14-.543.042-.177.082-.354c.008-.038.016-.076.025-.113.018-.081.035-.162.051-.242" transform="translate(1275.897 -2478.671)" fill="#edeeef"/>
    </g>
  </g>
</svg>
