<svg xmlns="http://www.w3.org/2000/svg" width="40" height="40" viewBox="0 0 40 40">
<style type="text/css">
	.st0{fill:#005BAE;}
	.st1{fill:#FFFFFF;}
</style>
<g>
	<path class="st0" d="M32.91,4.76c-2.28-1.93-5.01-3.4-8.11-4.17c-0.66-0.16-1.32-0.29-1.98-0.38v4.55H32.91z"/>
	<path class="st1" d="M22.83,9.52L22.83,9.52l14.2,0c-1.1-1.79-2.49-3.4-4.11-4.77H22.83V9.52z"/>
	<path class="st0" d="M22.83,14.29L22.83,14.29l16.32,0.01c-0.5-1.68-1.21-3.29-2.12-4.77h-14.2V14.29z"/>
	<path class="st1" d="M22.83,19.07h17.14c-0.08-1.64-0.36-3.23-0.82-4.77H22.83V19.07z"/>
	<path class="st0" d="M22.83,23.83H39.6c0.31-1.6,0.44-3.2,0.37-4.76H22.83V23.83z"/>
	<path class="st1" d="M13.29,23.83H8.52H0.39c0.32,1.66,0.84,3.26,1.56,4.77h36.11c0.57-1.19,1.02-2.46,1.35-3.79
		c0.08-0.33,0.13-0.65,0.19-0.98H22.83H13.29z"/>
	<path class="st0" d="M5.13,33.37h29.74c1.27-1.41,2.35-3.01,3.19-4.77H1.95C2.77,30.33,3.84,31.94,5.13,33.37z"/>
	<path class="st1" d="M11.41,38.06h17.16c2.38-1.13,4.52-2.72,6.29-4.69H5.13C6.86,35.3,8.98,36.91,11.41,38.06z"/>
	<path class="st0" d="M13.29,1.17v3.59h9.54V0.21C19.53-0.27,16.27,0.1,13.29,1.17z"/>
	<path class="st0" d="M8.52,3.65C8.03,4,7.55,4.37,7.09,4.76h1.44V3.65z"/>
	<rect x="13.29" y="4.76" class="st0" width="9.54" height="4.77"/>
	<path class="st0" d="M8.52,4.76H7.09c-1.6,1.35-3,2.95-4.12,4.77h5.55V4.76z"/>
	<rect x="13.29" y="14.29" class="st0" width="9.54" height="0.01"/>
	<polygon class="st0" points="8.52,14.29 0.86,14.29 0.86,14.3 8.52,14.3 	"/>
	<path class="st0" d="M8.52,14.3H0.86c-0.09,0.3-0.2,0.59-0.27,0.9c0,0,0,0,0,0c-0.32,1.29-0.5,2.59-0.56,3.87h8.49V14.3z"/>
	<rect x="13.29" y="14.3" class="st0" width="9.54" height="4.77"/>
	<rect x="13.29" y="19.07" class="st0" width="9.54" height="4.76"/>
	<path class="st0" d="M8.52,19.07H0.03c-0.08,1.62,0.06,3.21,0.36,4.76h8.13V19.07z"/>
	<path class="st1" d="M13.29,4.76V1.17c-1.7,0.61-3.3,1.45-4.77,2.48v1.11H13.29z"/>
	<path class="st1" d="M13.29,1.17v-1.18H8.52v3.66C9.99,2.62,11.59,1.78,13.29,1.17z"/>
	<rect x="8.52" y="4.76" class="st1" width="4.77" height="4.77"/>
	<rect x="8.52" y="14.29" class="st1" width="4.77" height="0.01"/>
	<rect x="8.52" y="14.3" class="st1" width="4.77" height="4.77"/>
	<rect x="8.52" y="19.07" class="st1" width="4.77" height="4.76"/>
	<polygon class="st1" points="8.52,9.52 2.97,9.52 2.97,9.53 8.52,9.53 	"/>
	<rect x="13.29" y="9.52" class="st1" width="9.54" height="0"/>
	<path class="st1" d="M8.52,9.53H2.97c-0.89,1.46-1.6,3.06-2.1,4.76h7.66V9.53z"/>
	<rect x="13.29" y="9.53" class="st1" width="9.54" height="4.76"/>
	<rect x="8.52" y="9.52" class="st1" width="4.77" height="0"/>
	<rect x="8.52" y="9.53" class="st1" width="4.77" height="4.76"/>
	<path class="st0" d="M15.19,39.41C15.19,39.41,15.19,39.41,15.19,39.41c4.6,1.14,9.22,0.58,13.21-1.27H11.6
		C12.73,38.66,13.93,39.1,15.19,39.41z"/>
	<path class="st0" d="M11.6,38.14h16.8c0.06-0.03,0.12-0.05,0.18-0.08H11.41C11.47,38.09,11.54,38.11,11.6,38.14z"/>
</g>
</svg>
