<svg xmlns="http://www.w3.org/2000/svg" width="40" height="40" viewBox="0 0 40 40">
<style type="text/css">
	.st0{fill:#EDEEEF;}
	.st1{fill:#009B3B;}
	.st2{fill:#E71E1A;}
</style>
<g id="Group_56" transform="translate(-942.343 -1352.34)">
	<g id="Group_55" transform="translate(942.343 1352.34)">
		<g id="Group_54">
			<path id="Path_379" class="st0" d="M0.59,15.2C3.24,4.48,14.08-2.06,24.8,0.59c0,0,0,0,0.01,0C35.52,3.24,42.06,14.08,39.41,24.8
				c0,0,0,0,0,0C36.76,35.52,25.92,42.06,15.2,39.41c0,0,0,0,0,0C4.48,36.76-2.06,25.92,0.59,15.2C0.6,15.2,0.6,15.2,0.59,15.2"/>
			<path id="Path_380" class="st1" d="M12.06,1.85C6.11,4.26,1.8,9.33,0.54,15.4c-2.26,9.73,2.84,19.55,11.52,22.83V1.85z"/>
			<path id="Path_381" class="st2" d="M27.97,1.85v36.38c5.93-2.41,10.23-7.49,11.49-13.55C41.72,14.96,36.64,5.14,27.97,1.85"/>
		</g>
	</g>
</g>
</svg>
