<svg xmlns="http://www.w3.org/2000/svg" width="40" height="40" viewBox="0 0 40 40">
<style type="text/css">
	.st0{fill:#006600;}
	.st1{fill:#F71C1C;}
	.st2{fill-rule:evenodd;clip-rule:evenodd;fill:#FFFF00;}
	.st3{fill:#FFFFFF;}
	.st4{fill:#FF0000;}
	.st5{fill:#FFFF00;}
	.st6{fill:#003399;}
</style>
<path class="st0" d="M0,20c0,8.6,5.43,15.93,13.04,18.76L14.78,20L13.04,1.24C5.43,4.07,0,11.4,0,20z"/>
<path class="st1" d="M40,20C40,8.95,31.05,0,20,0c-2.45,0-4.79,0.44-6.96,1.24v37.51C15.21,39.56,17.55,40,20,40
	C31.05,40,40,31.05,40,20z"/>
<g>
	<g>
		<path class="st2" d="M18.33,24.17C16.3,24.11,6.97,18.28,6.9,17.35l0.52-0.86c0.93,1.34,10.46,7.01,11.4,6.81L18.33,24.17"/>
		<path d="M18.33,24.19C18.33,24.19,18.33,24.19,18.33,24.19c-1.08-0.03-4.16-1.68-6.46-3.08c-2.38-1.45-4.95-3.24-4.98-3.75
			c0,0,0-0.01,0-0.01l0.52-0.86c0-0.01,0.01-0.01,0.02-0.01c0.01,0,0.01,0,0.02,0.01c0.47,0.69,3.2,2.49,5.69,3.98
			c2.94,1.75,5.28,2.91,5.69,2.82c0.01,0,0.02,0,0.02,0.01c0,0.01,0,0.01,0,0.02l-0.49,0.86C18.35,24.18,18.34,24.19,18.33,24.19z
			 M6.92,17.36c0.05,0.43,2.13,1.98,4.97,3.71c2.29,1.39,5.35,3.03,6.43,3.08l0.46-0.82c-0.59,0.03-3.25-1.38-5.68-2.83
			c-2.47-1.47-5.16-3.25-5.69-3.97L6.92,17.36z"/>
	</g>
	<g>
		<path class="st2" d="M7.31,16.38c-0.18,0.49,2.43,2.11,5.58,4.02c3.15,1.92,5.86,3.1,6.07,2.93c0.01-0.02,0.1-0.17,0.09-0.17
			c-0.04,0.06-0.13,0.07-0.27,0.03c-0.85-0.25-3.07-1.26-5.82-2.93c-2.75-1.67-5.14-3.2-5.51-3.85c-0.03-0.05-0.04-0.13-0.04-0.19
			l-0.01,0l-0.08,0.14L7.31,16.38L7.31,16.38L7.31,16.38z M18.38,24.19c-0.03,0.06-0.1,0.06-0.22,0.05
			c-0.76-0.08-3.07-1.21-5.8-2.84c-3.18-1.9-5.81-3.64-5.52-4.09l0.08-0.14l0.02,0c-0.26,0.77,5.18,3.88,5.5,4.08
			c3.15,1.95,5.8,3.09,6.04,2.79L18.38,24.19L18.38,24.19L18.38,24.19z"/>
		<path d="M18.25,24.27c-0.03,0-0.06,0-0.1-0.01c-0.78-0.09-3.11-1.23-5.81-2.85c-3.61-2.16-5.42-3.46-5.54-3.97
			c-0.01-0.06-0.01-0.1,0.02-0.14l0.08-0.14c0-0.01,0.01-0.01,0.02-0.01l0.02,0c0,0,0.01,0,0.01,0.01c0,0,0,0.01,0,0.01
			c-0.08,0.25,0.49,1.1,5.28,3.93c0.11,0.06,0.18,0.11,0.21,0.13c3.11,1.92,5.78,3.08,6.01,2.8c0.01-0.01,0.02-0.01,0.03,0
			c0.01,0.01,0.01,0.02,0.01,0.03L18.4,24.2c0,0,0,0,0,0C18.37,24.26,18.32,24.27,18.25,24.27z M6.9,17.24l-0.05,0.09
			c-0.02,0.03-0.02,0.07-0.01,0.11c0.12,0.5,1.93,1.8,5.53,3.95c2.7,1.61,5.03,2.76,5.8,2.84c0.12,0.01,0.17,0.01,0.2-0.04
			c0,0,0,0,0,0l0.05-0.08c-0.03,0.01-0.06,0.01-0.1,0.01c-0.66,0-3.07-1.09-5.9-2.84c-0.03-0.02-0.1-0.06-0.21-0.13
			C8.68,19.07,6.9,17.76,6.9,17.24z M18.9,23.36c-0.5,0-3.05-1.15-6.01-2.94c-3.39-2.06-5.77-3.56-5.59-4.05c0,0,0,0,0,0l0.01-0.02
			l0.08-0.14c0-0.01,0.01-0.01,0.02-0.01l0.01,0c0.01,0,0.01,0,0.01,0.01c0,0,0.01,0.01,0.01,0.01c0,0.06,0.01,0.14,0.04,0.18
			c0.39,0.69,3.15,2.42,5.5,3.85c2.58,1.57,4.88,2.66,5.81,2.93c0.13,0.04,0.22,0.03,0.25-0.03c0,0,0.01-0.01,0.01-0.01
			c0.01,0,0.01,0,0.02,0.01c0.01,0.01,0.01,0.01-0.08,0.17l-0.01,0.02c0,0,0,0,0,0.01C18.96,23.36,18.93,23.36,18.9,23.36z
			 M7.33,16.39c-0.18,0.5,2.88,2.36,5.58,4c3.24,1.97,5.84,3.07,6.04,2.93l0.01-0.02c0.01-0.02,0.03-0.05,0.04-0.08
			c-0.05,0.02-0.13,0.02-0.23-0.01c-0.94-0.27-3.24-1.36-5.82-2.93c-2.36-1.43-5.12-3.16-5.52-3.86c-0.02-0.04-0.04-0.09-0.04-0.15
			L7.33,16.39z"/>
	</g>
	<g>
		<path class="st2" d="M13.07,17.92c2.04-0.02,4.55-0.28,6-0.85l-0.31-0.51c-0.85,0.47-3.38,0.78-5.7,0.83
			c-2.74-0.03-4.68-0.28-5.65-0.93l-0.29,0.54C8.89,17.75,10.72,17.91,13.07,17.92"/>
		<path d="M13.07,17.94C13.07,17.94,13.07,17.94,13.07,17.94c-2.36-0.01-4.18-0.17-5.97-0.92c0,0-0.01-0.01-0.01-0.01
			c0-0.01,0-0.01,0-0.02l0.29-0.54c0,0,0.01-0.01,0.01-0.01c0.01,0,0.01,0,0.02,0c0.9,0.61,2.7,0.9,5.64,0.93
			c2.1-0.04,4.77-0.32,5.69-0.83c0.01-0.01,0.02,0,0.03,0.01l0.31,0.51c0,0,0,0.01,0,0.02c0,0.01-0.01,0.01-0.01,0.01
			C17.55,17.69,14.98,17.92,13.07,17.94C13.07,17.94,13.07,17.94,13.07,17.94z M7.14,16.98c1.78,0.75,3.59,0.91,5.93,0.91
			c0,0,0,0,0,0c1.89-0.01,4.44-0.24,5.97-0.84l-0.29-0.47c-0.94,0.51-3.61,0.78-5.69,0.82c-2.93-0.03-4.73-0.32-5.64-0.92
			L7.14,16.98z"/>
	</g>
	<g>
		<path class="st2" d="M19.15,17.07c-0.05,0.08-0.99,0.4-2.38,0.64c-0.94,0.14-2.17,0.27-3.7,0.27c-1.46,0-2.65-0.1-3.55-0.22
			c-1.46-0.23-2.21-0.55-2.49-0.66c0.03-0.05,0.04-0.09,0.07-0.14c0.8,0.32,1.56,0.51,2.44,0.65c0.9,0.12,2.07,0.23,3.52,0.23
			c1.53,0,2.74-0.13,3.68-0.27c1.42-0.23,2.2-0.53,2.31-0.66L19.15,17.07L19.15,17.07L19.15,17.07z M18.88,16.56
			c-0.15,0.12-0.92,0.4-2.28,0.61c-0.9,0.13-2.05,0.25-3.52,0.25c-1.39,0-2.53-0.09-3.4-0.22c-1.37-0.18-2.11-0.5-2.37-0.6
			c0.03-0.05,0.05-0.09,0.08-0.14c0.21,0.1,0.91,0.39,2.31,0.59c0.86,0.12,2,0.21,3.39,0.21c1.46,0,2.6-0.12,3.49-0.25
			c1.36-0.19,2.09-0.54,2.2-0.62L18.88,16.56L18.88,16.56L18.88,16.56z"/>
		<path d="M13.04,18c-1.24,0-2.42-0.08-3.52-0.22c-1.41-0.22-2.18-0.53-2.46-0.65l-0.03-0.01c0,0-0.01-0.01-0.01-0.01
			c0-0.01,0-0.01,0-0.02c0.01-0.02,0.02-0.04,0.03-0.06c0.01-0.03,0.03-0.05,0.04-0.08c0-0.01,0.02-0.01,0.02-0.01
			c0.77,0.31,1.52,0.51,2.44,0.65c1.1,0.15,2.28,0.22,3.49,0.22c0.01,0,0.02,0,0.03,0c1.25,0,2.45-0.09,3.68-0.27
			c1.41-0.23,2.19-0.52,2.3-0.66c0,0,0.01-0.01,0.02-0.01c0.01,0,0.01,0,0.02,0.01l0.1,0.17c0,0.01,0,0.01,0,0.02c0,0,0,0,0,0
			c-0.08,0.1-1.05,0.42-2.39,0.65C15.61,17.91,14.37,18,13.07,18C13.06,18,13.05,18,13.04,18z M7.05,17.09l0.01,0
			c0.29,0.12,1.05,0.43,2.46,0.65c1.1,0.15,2.28,0.22,3.52,0.22c0.01,0,0.02,0,0.03,0c1.3,0,2.55-0.09,3.7-0.27
			c1.38-0.24,2.27-0.55,2.36-0.63l-0.08-0.14c-0.16,0.14-0.88,0.42-2.31,0.65c-1.23,0.18-2.43,0.27-3.68,0.27c-0.01,0-0.02,0-0.03,0
			c-1.22,0-2.39-0.08-3.5-0.23c-0.92-0.14-1.67-0.34-2.43-0.64c-0.01,0.02-0.02,0.04-0.03,0.06C7.07,17.06,7.06,17.08,7.05,17.09z
			 M13.05,17.44c-1.22,0-2.39-0.08-3.37-0.22c-1.22-0.16-1.92-0.43-2.26-0.56c-0.04-0.02-0.08-0.03-0.11-0.04
			c-0.01,0-0.01-0.01-0.01-0.01c0-0.01,0-0.01,0-0.02c0.03-0.05,0.05-0.09,0.08-0.14c0.01-0.01,0.02-0.01,0.03-0.01
			c0.12,0.06,0.79,0.37,2.3,0.59c0.68,0.1,1.81,0.21,3.35,0.21c0.01,0,0.02,0,0.03,0c1.59,0,2.75-0.14,3.49-0.25
			c1.3-0.18,2.06-0.52,2.2-0.62c0,0,0.01,0,0.02,0c0.01,0,0.01,0,0.01,0.01l0.1,0.17c0,0,0,0.01,0,0.01c0,0.01,0,0.01-0.01,0.02
			c-0.15,0.12-0.91,0.4-2.29,0.62c-1.15,0.17-2.3,0.25-3.52,0.25C13.07,17.44,13.06,17.44,13.05,17.44z M7.34,16.59
			c0.03,0.01,0.06,0.02,0.09,0.03c0.34,0.13,1.04,0.4,2.25,0.56c0.98,0.14,2.15,0.22,3.37,0.22c0.01,0,0.02,0,0.03,0
			c1.22,0,2.37-0.08,3.52-0.25c1.34-0.21,2.08-0.48,2.26-0.6l-0.08-0.13c-0.15,0.1-0.85,0.43-2.2,0.61c-0.74,0.11-1.9,0.25-3.5,0.25
			c-0.01,0-0.02,0-0.03,0c-1.54,0-2.68-0.11-3.36-0.21c-1.45-0.21-2.14-0.51-2.3-0.58C7.38,16.53,7.36,16.56,7.34,16.59z
			 M18.88,16.56L18.88,16.56L18.88,16.56z"/>
	</g>
	<g>
		<path class="st2" d="M6.38,20.37c1.25,0.67,4.03,1.01,6.67,1.04c2.4,0,5.52-0.37,6.69-0.99l-0.03-0.67
			c-0.37,0.57-3.71,1.12-6.68,1.1c-2.97-0.02-5.73-0.48-6.65-1.07L6.38,20.37"/>
		<path d="M13.09,21.43c-0.01,0-0.02,0-0.04,0c-2.33-0.02-5.31-0.3-6.68-1.04c-0.01,0-0.01-0.01-0.01-0.02l-0.01-0.6
			c0-0.01,0-0.01,0.01-0.02c0.01,0,0.01,0,0.02,0c0.93,0.6,3.72,1.05,6.64,1.07c2.94,0.02,6.31-0.53,6.67-1.09
			c0-0.01,0.01-0.01,0.02-0.01c0.01,0,0.01,0.01,0.01,0.02l0.03,0.67c0,0.01,0,0.01-0.01,0.02C18.58,21.06,15.45,21.43,13.09,21.43z
			 M6.4,20.36c1.36,0.73,4.33,1.01,6.65,1.03c0.01,0,0.02,0,0.04,0c2.35,0,5.45-0.37,6.63-0.98l-0.03-0.61
			c-0.5,0.56-3.73,1.08-6.67,1.06c-2.89-0.02-5.67-0.47-6.63-1.06L6.4,20.36z"/>
	</g>
	<g>
		<path class="st2" d="M19.8,20.27l0,0.16c-0.18,0.21-1.28,0.53-2.66,0.75c-1.05,0.16-2.42,0.28-4.13,0.28
			c-1.62,0-2.91-0.12-3.92-0.27c-1.58-0.23-2.6-0.63-2.8-0.76l0-0.19c0.61,0.41,2.27,0.7,2.82,0.79c1,0.15,2.28,0.27,3.89,0.27
			c1.7,0,3.06-0.12,4.1-0.28C18.12,20.89,19.53,20.52,19.8,20.27L19.8,20.27L19.8,20.27z M19.81,19.7l0,0.16
			c-0.18,0.21-1.28,0.53-2.66,0.75c-1.05,0.16-2.42,0.28-4.13,0.28c-1.62,0-2.91-0.12-3.92-0.27c-1.58-0.23-2.6-0.63-2.8-0.76
			l0-0.19c0.61,0.41,2.27,0.7,2.82,0.79c1,0.15,2.28,0.27,3.89,0.27c1.7,0,3.06-0.12,4.1-0.28C18.12,20.32,19.53,19.95,19.81,19.7
			L19.81,19.7L19.81,19.7z"/>
		<path d="M13.02,21.49c-1.43,0-2.75-0.09-3.92-0.27C7.59,21,6.54,20.6,6.29,20.46c-0.01,0-0.01-0.01-0.01-0.02l0-0.19
			c0-0.01,0-0.01,0.01-0.02c0.01,0,0.01,0,0.02,0c0.61,0.41,2.31,0.71,2.82,0.79c1.16,0.18,2.46,0.27,3.89,0.27
			c1.51,0,2.89-0.09,4.1-0.28c0.98-0.14,2.39-0.51,2.67-0.76c0.01-0.01,0.01-0.01,0.02,0c0.01,0,0.01,0.01,0.01,0.02l0,0.16
			c0,0,0,0.01,0,0.01c-0.18,0.22-1.3,0.54-2.67,0.76C15.93,21.39,14.54,21.49,13.02,21.49z M6.32,20.43
			c0.18,0.1,1.16,0.51,2.79,0.75c1.16,0.18,2.48,0.27,3.91,0.27c1.51,0,2.9-0.09,4.12-0.28c1.32-0.21,2.45-0.53,2.64-0.74l0-0.11
			c-0.34,0.25-1.7,0.6-2.66,0.74c-1.22,0.19-2.6,0.28-4.11,0.28c-1.43,0-2.74-0.09-3.9-0.27c-0.64-0.1-2.18-0.39-2.8-0.78
			L6.32,20.43z M13.02,20.91c-1.44,0-2.75-0.09-3.92-0.27c-1.52-0.22-2.56-0.61-2.81-0.76c-0.01,0-0.01-0.01-0.01-0.02l0-0.19
			c0-0.01,0-0.01,0.01-0.02c0.01,0,0.01,0,0.02,0c0.61,0.41,2.31,0.71,2.82,0.79c1.16,0.18,2.46,0.27,3.89,0.27
			c1.51,0,2.89-0.09,4.1-0.28c0.98-0.14,2.39-0.51,2.67-0.76c0,0,0.01-0.01,0.02,0c0.01,0,0.01,0,0.01,0.01c0,0,0,0.01,0,0.01
			l0,0.16c0,0,0,0.01,0,0.01c-0.18,0.22-1.3,0.54-2.67,0.76C15.93,20.82,14.54,20.91,13.02,20.91z M6.32,19.86
			c0.18,0.1,1.15,0.51,2.79,0.75c1.16,0.18,2.48,0.27,3.91,0.27c1.51,0,2.9-0.09,4.12-0.28c1.32-0.21,2.45-0.53,2.64-0.74l0-0.11
			c-0.34,0.25-1.7,0.6-2.66,0.74c-1.22,0.19-2.6,0.28-4.11,0.28c-1.43,0-2.74-0.09-3.9-0.27c-0.5-0.08-2.16-0.38-2.8-0.78
			L6.32,19.86z"/>
	</g>
	<g>
		<path class="st2" d="M13.05,24.05c-2.88-0.02-5.35-0.79-5.87-0.91l0.38,0.6c0.92,0.39,3.33,0.96,5.52,0.9
			c2.19-0.06,4.1-0.23,5.45-0.89l0.39-0.62C18,23.56,14.87,24.05,13.05,24.05"/>
		<path d="M12.74,24.66c-2.07,0-4.28-0.53-5.19-0.91c0,0-0.01,0-0.01-0.01l-0.38-0.6c0-0.01,0-0.02,0-0.02
			c0-0.01,0.01-0.01,0.02-0.01c0.06,0.02,0.15,0.04,0.26,0.07c0.84,0.23,3.06,0.83,5.6,0.84c1.83,0,4.96-0.5,5.86-0.92
			c0.01,0,0.02,0,0.02,0c0.01,0.01,0.01,0.02,0,0.02l-0.39,0.62c0,0,0,0.01-0.01,0.01c-1.41,0.68-3.45,0.83-5.46,0.89
			C12.96,24.66,12.85,24.66,12.74,24.66z M7.57,23.72c0.95,0.4,3.36,0.96,5.5,0.9c2-0.06,4.04-0.21,5.44-0.89l0.35-0.56
			c-0.98,0.42-4.02,0.89-5.82,0.9h0c0,0,0,0,0,0c-2.54-0.02-4.77-0.62-5.61-0.84c-0.09-0.02-0.16-0.04-0.22-0.06L7.57,23.72z"/>
	</g>
	<g>
		<path class="st2" d="M18.67,23.61c-0.06,0.09-0.12,0.17-0.17,0.26c-0.64,0.22-1.64,0.46-2.06,0.53c-0.86,0.18-2.2,0.31-3.39,0.31
			c-2.55-0.04-4.64-0.54-5.62-0.96L7.35,23.6l0.01-0.02l0.13,0.05c1.75,0.63,3.71,0.87,5.57,0.92c1.18,0,2.36-0.14,3.32-0.31
			c1.47-0.29,2.06-0.52,2.24-0.62L18.67,23.61L18.67,23.61L18.67,23.61z M19.01,23.05C19.01,23.05,19.01,23.05,19.01,23.05
			c-0.04,0.08-0.08,0.15-0.13,0.22c-0.34,0.12-1.26,0.39-2.6,0.58c-0.89,0.12-1.44,0.24-3.2,0.27c-3.3-0.08-5.44-0.73-5.95-0.89
			l-0.08-0.14c1.91,0.5,3.87,0.85,6.02,0.88c1.61-0.03,2.3-0.15,3.18-0.27c1.57-0.24,2.36-0.5,2.59-0.58c0,0-0.01-0.01-0.01-0.01
			L19.01,23.05L19.01,23.05L19.01,23.05z"/>
		<path d="M13.05,24.72c-2.6-0.04-4.66-0.54-5.63-0.96c0,0-0.01,0-0.01-0.01l-0.08-0.14c0-0.01,0-0.01,0-0.02l0.01-0.02
			c0-0.01,0.01-0.01,0.02-0.01l0.13,0.05c1.56,0.56,3.43,0.87,5.56,0.92c1.3,0.01,2.52-0.16,3.32-0.31
			c1.64-0.33,2.12-0.55,2.24-0.61l0.05-0.03c0.01,0,0.02,0,0.02,0c0.01,0.01,0.01,0.02,0,0.02c-0.06,0.09-0.12,0.18-0.18,0.26
			c0,0-0.01,0.01-0.01,0.01c-0.63,0.22-1.63,0.46-2.06,0.53C15.54,24.6,14.18,24.72,13.05,24.72z M7.44,23.73
			c1.05,0.45,3.19,0.92,5.61,0.96c1.13,0,2.49-0.13,3.38-0.31c0.43-0.07,1.42-0.3,2.05-0.53c0.04-0.06,0.09-0.12,0.13-0.19
			c-0.14,0.07-0.67,0.29-2.23,0.61c-0.8,0.14-2.02,0.31-3.32,0.31c-2.14-0.05-4.01-0.36-5.58-0.92l-0.12-0.05L7.44,23.73z
			 M13.08,24.14c-2.95-0.08-5-0.59-5.95-0.89c0,0-0.01,0-0.01-0.01L7.04,23.1c0-0.01,0-0.01,0-0.02c0-0.01,0.01-0.01,0.02-0.01
			c2.19,0.57,4.1,0.85,6.02,0.88c1.44-0.03,2.14-0.13,2.89-0.23c0.09-0.01,0.18-0.03,0.28-0.04c1.51-0.24,2.3-0.49,2.56-0.57l0,0
			c0,0,0-0.01,0-0.01c0-0.01,0.01-0.01,0.01-0.01L19,23.03c0.01,0,0.02,0,0.02,0.01c0,0,0,0,0,0l0,0c0,0.01,0.01,0.01,0,0.02
			c-0.04,0.07-0.09,0.15-0.13,0.22c0,0-0.01,0.01-0.01,0.01c-0.46,0.16-1.41,0.41-2.61,0.58c-0.13,0.02-0.25,0.04-0.37,0.05
			C15.2,24.03,14.58,24.11,13.08,24.14z M7.15,23.22c0.96,0.3,3,0.81,5.93,0.89c1.5-0.03,2.11-0.12,2.82-0.22
			c0.12-0.02,0.24-0.04,0.37-0.05c1.19-0.17,2.14-0.41,2.59-0.58c0.04-0.06,0.07-0.12,0.11-0.18l-0.11,0.04c0,0,0,0.01,0,0.01
			c0,0.01-0.01,0.01-0.01,0.01l-0.03,0.01c-0.26,0.08-1.06,0.33-2.57,0.57c-0.1,0.01-0.19,0.03-0.28,0.04
			c-0.75,0.1-1.46,0.2-2.9,0.23c-1.91-0.03-3.81-0.31-5.99-0.87L7.15,23.22z M19.01,23.05l0.01-0.01L19.01,23.05z"/>
	</g>
	<g>
		<path class="st2" d="M19.04,19.84c0.01,1.9-0.96,3.6-1.74,4.35c-1.11,1.06-2.57,1.74-4.28,1.78c-1.91,0.04-3.71-1.21-4.2-1.76
			c-0.94-1.07-1.71-2.43-1.74-4.26c0.12-2.07,0.93-3.51,2.11-4.5s2.74-1.47,4.05-1.43c1.51,0.04,3.27,0.78,4.48,2.25
			C18.52,17.22,18.86,18.26,19.04,19.84L19.04,19.84z M13.04,13.35c3.67,0,6.69,2.99,6.69,6.65c0,3.66-3.02,6.65-6.69,6.65
			S6.37,23.66,6.37,20S9.37,13.35,13.04,13.35"/>
		<path d="M13.04,26.66c-3.68,0-6.68-2.99-6.68-6.67c0-3.68,3-6.67,6.68-6.67c1.78,0,3.46,0.69,4.73,1.96
			c1.27,1.26,1.97,2.94,1.97,4.71c0,1.77-0.7,3.45-1.97,4.71C16.5,25.97,14.82,26.66,13.04,26.66z M13.04,13.37
			c-3.66,0-6.64,2.97-6.64,6.63c0,3.66,2.98,6.63,6.64,6.63c3.68,0,6.67-2.97,6.67-6.63C19.71,16.34,16.71,13.37,13.04,13.37z
			 M12.94,25.98c-1.96,0-3.71-1.29-4.13-1.77c-1.15-1.3-1.72-2.7-1.74-4.27c0.11-1.91,0.82-3.43,2.11-4.51
			c1.1-0.92,2.66-1.48,4.06-1.44c1.66,0.04,3.38,0.91,4.49,2.25c0.76,0.92,1.14,1.93,1.33,3.59c0,0,0,0,0,0
			c0.01,1.83-0.9,3.55-1.75,4.36c-1.18,1.14-2.67,1.75-4.29,1.78C12.99,25.98,12.97,25.98,12.94,25.98z M13.11,14.03
			c-1.36,0-2.84,0.54-3.9,1.43c-1.29,1.08-1.99,2.59-2.1,4.48c0.02,1.56,0.59,2.95,1.73,4.25c0.42,0.48,2.2,1.79,4.18,1.75
			c1.62-0.03,3.09-0.64,4.27-1.77c0.84-0.81,1.74-2.51,1.74-4.33c-0.19-1.65-0.56-2.66-1.32-3.57c-1.11-1.34-2.82-2.19-4.47-2.24
			C13.2,14.03,13.15,14.03,13.11,14.03z"/>
	</g>
	<g>
		<path class="st2" d="M13.06,13.33c3.67,0,6.67,3,6.67,6.67c0,3.67-3,6.67-6.67,6.67c-3.67,0-6.67-3-6.67-6.67
			S9.38,13.33,13.06,13.33L13.06,13.33z M6.53,20c0,3.59,2.95,6.52,6.52,6.52c3.58,0,6.52-2.94,6.52-6.52
			c0-3.59-2.95-6.52-6.52-6.52S6.53,16.41,6.53,20L6.53,20z"/>
		<path d="M13.06,26.68c-3.69,0-6.69-3-6.69-6.69c0-3.69,3-6.69,6.69-6.69c3.69,0,6.69,3,6.69,6.69
			C19.74,23.68,16.74,26.68,13.06,26.68z M13.06,13.34c-3.67,0-6.65,2.98-6.65,6.65c0,3.67,2.98,6.65,6.65,6.65
			c3.67,0,6.65-2.98,6.65-6.65C19.7,16.33,16.72,13.34,13.06,13.34z M13.06,26.54c-1.74,0-3.38-0.68-4.62-1.92
			C7.2,23.38,6.51,21.73,6.51,20c0-1.74,0.68-3.38,1.93-4.62c1.24-1.24,2.88-1.92,4.62-1.92c1.74,0,3.38,0.68,4.62,1.92
			c1.24,1.24,1.93,2.88,1.93,4.62c0,1.74-0.68,3.38-1.93,4.62C16.43,25.85,14.79,26.54,13.06,26.54z M13.06,13.49
			c-3.59,0-6.5,2.92-6.5,6.5c0,3.59,2.92,6.5,6.5,6.5c3.59,0,6.5-2.92,6.5-6.5C19.56,16.41,16.64,13.49,13.06,13.49z"/>
	</g>
	<g>
		<path class="st2" d="M13.06,13.88c3.35,0,6.11,2.75,6.11,6.11c0,3.36-2.76,6.11-6.11,6.11s-6.11-2.75-6.11-6.11
			C6.95,16.63,9.71,13.88,13.06,13.88L13.06,13.88z M7.1,19.99c0,3.28,2.69,5.96,5.96,5.96s5.96-2.68,5.96-5.96
			c0-3.28-2.69-5.96-5.96-5.96C9.79,14.03,7.1,16.71,7.1,19.99L7.1,19.99z"/>
		<path d="M13.06,26.12c-1.63,0-3.16-0.64-4.32-1.8c-1.16-1.16-1.8-2.7-1.8-4.33c0-1.63,0.64-3.17,1.8-4.33
			c1.16-1.16,2.7-1.8,4.32-1.8c1.63,0,3.16,0.64,4.32,1.8c1.16,1.16,1.8,2.7,1.8,4.33c0,1.63-0.64,3.17-1.8,4.33
			C16.22,25.48,14.69,26.12,13.06,26.12z M13.06,13.9c-3.36,0-6.09,2.73-6.09,6.09c0,3.36,2.73,6.09,6.09,6.09
			c3.36,0,6.09-2.73,6.09-6.09C19.15,16.63,16.42,13.9,13.06,13.9z M13.06,25.97c-1.59,0-3.09-0.62-4.22-1.76
			c-1.14-1.13-1.76-2.63-1.76-4.22s0.63-3.09,1.76-4.22c1.13-1.13,2.63-1.76,4.22-1.76s3.09,0.62,4.22,1.76
			c1.14,1.13,1.76,2.63,1.76,4.22s-0.63,3.09-1.76,4.22C16.15,25.35,14.65,25.97,13.06,25.97z M13.06,14.05
			c-3.28,0-5.94,2.67-5.94,5.94s2.67,5.94,5.94,5.94c3.28,0,5.94-2.67,5.94-5.94S16.34,14.05,13.06,14.05z"/>
	</g>
	<g>
		<path class="st2" d="M13.33,13.3h-0.57l0,13.4h0.57L13.33,13.3z"/>
		<path d="M13.33,26.72h-0.57c-0.01,0-0.02-0.01-0.02-0.02l0-13.4c0-0.01,0-0.01,0.01-0.01c0,0,0.01-0.01,0.01-0.01h0.57
			c0.01,0,0.02,0.01,0.02,0.02l0,13.4c0,0.01,0,0.01-0.01,0.01C13.34,26.72,13.34,26.72,13.33,26.72z M12.78,26.68h0.53l0-13.36
			h-0.53L12.78,26.68z"/>
	</g>
	<g>
		<path class="st2" d="M13.27,13.22h0.15l0,13.56h-0.15L13.27,13.22L13.27,13.22z M12.7,13.22h0.15l0,13.56H12.7L12.7,13.22
			L12.7,13.22z"/>
		<path d="M12.85,26.8H12.7c-0.01,0-0.02-0.01-0.02-0.02V13.22c0,0,0,0,0,0c0-0.01,0.01-0.02,0.02-0.02c0,0,0,0,0,0h0.15
			c0.01,0,0.02,0.01,0.02,0.02l0,13.56c0,0.01,0,0.01-0.01,0.01C12.86,26.79,12.86,26.8,12.85,26.8z M12.72,26.76h0.11l0-13.52
			h-0.11V26.76z M13.42,26.8h-0.15c-0.01,0-0.02-0.01-0.02-0.02l0-13.56c0-0.01,0-0.01,0.01-0.01c0,0,0.01-0.01,0.01-0.01h0.15
			c0.01,0,0.02,0.01,0.02,0.02l0,13.56c0,0.01,0,0.01-0.01,0.01C13.43,26.79,13.42,26.8,13.42,26.8z M13.29,26.76h0.11l0-13.52
			h-0.11L13.29,26.76z"/>
	</g>
	<g>
		<path class="st2" d="M19.73,20.25v-0.5l-0.4-0.38l-2.29-0.61l-3.3-0.34l-3.97,0.2l-2.83,0.67l-0.57,0.42v0.5l1.45-0.65l3.44-0.54
			h3.3l2.42,0.27l1.68,0.4L19.73,20.25z"/>
		<path d="M19.73,20.27C19.73,20.27,19.72,20.27,19.73,20.27l-1.09-0.54l-1.68-0.4l-2.42-0.27l-3.3,0L7.81,19.6l-1.44,0.65
			c-0.01,0-0.01,0-0.02,0c-0.01,0-0.01-0.01-0.01-0.02v-0.5c0-0.01,0-0.01,0.01-0.02l0.57-0.42c0,0,0,0,0.01,0l2.83-0.67l3.98-0.2
			l3.3,0.34l2.29,0.61c0,0,0.01,0,0.01,0l0.4,0.38c0,0,0.01,0.01,0.01,0.01v0.5c0,0.01,0,0.01-0.01,0.02
			C19.74,20.27,19.73,20.27,19.73,20.27z M14.54,19.03l2.43,0.27l1.69,0.4l1.05,0.52v-0.46l-0.39-0.37l-2.29-0.6l-3.3-0.34
			l-3.97,0.2l-2.82,0.67l-0.56,0.41v0.46l1.42-0.64c0,0,0,0,0,0l3.44-0.54L14.54,19.03z"/>
	</g>
	<g>
		<path class="st2" d="M13.06,18.96c1.57,0,3.1,0.15,4.32,0.39c1.25,0.25,2.13,0.56,2.43,0.91l0,0.17
			c-0.36-0.44-1.55-0.76-2.46-0.94c-1.2-0.23-2.72-0.39-4.29-0.38c-1.65,0-3.19,0.16-4.38,0.39c-0.95,0.19-2.22,0.56-2.38,0.93
			v-0.18c0.09-0.26,1.03-0.64,2.36-0.9C9.85,19.12,11.4,18.97,13.06,18.96L13.06,18.96z M13.06,18.39c1.57,0,3.1,0.15,4.32,0.39
			c1.25,0.25,2.13,0.56,2.43,0.91l0,0.17c-0.36-0.44-1.55-0.76-2.46-0.94c-1.2-0.23-2.72-0.39-4.29-0.38
			c-1.65,0-3.18,0.16-4.37,0.39c-0.92,0.17-2.24,0.56-2.39,0.93v-0.18c0.09-0.25,1.05-0.65,2.36-0.9
			C9.85,18.55,11.4,18.39,13.06,18.39L13.06,18.39z"/>
		<path d="M6.3,20.46C6.3,20.46,6.3,20.46,6.3,20.46c-0.01,0-0.02-0.01-0.02-0.02v-0.18c0,0,0,0,0-0.01
			c0.09-0.27,1.09-0.66,2.37-0.92c1.28-0.25,2.84-0.39,4.4-0.39l0,0.02l0-0.02c0.01,0,0.03,0,0.04,0c1.48,0,3,0.14,4.27,0.39
			c1.31,0.26,2.15,0.58,2.44,0.92c0,0,0,0.01,0,0.01l0,0.17c0,0.01-0.01,0.02-0.01,0.02c-0.01,0-0.02,0-0.02-0.01
			c-0.38-0.46-1.7-0.78-2.45-0.93c-1.27-0.25-2.77-0.38-4.24-0.38c-0.01,0-0.03,0-0.04,0c-1.54,0-3.1,0.14-4.37,0.39
			c-1.04,0.21-2.22,0.58-2.36,0.92C6.32,20.45,6.31,20.46,6.3,20.46z M13.1,19.09c1.47,0,2.98,0.14,4.25,0.38
			c0.73,0.15,2.01,0.46,2.44,0.91l0-0.12c-0.29-0.33-1.13-0.64-2.42-0.9c-1.28-0.25-2.79-0.38-4.27-0.38c-0.01,0-0.03,0-0.04,0
			c-1.56,0-3.12,0.14-4.39,0.39c-1.41,0.28-2.26,0.67-2.34,0.89v0.11c0.28-0.38,1.59-0.73,2.35-0.88c1.28-0.25,2.83-0.39,4.38-0.39
			C13.07,19.09,13.09,19.09,13.1,19.09z M6.3,19.88C6.3,19.88,6.3,19.88,6.3,19.88c-0.01,0-0.02-0.01-0.02-0.02v-0.18
			c0,0,0,0,0-0.01c0.1-0.28,1.11-0.67,2.37-0.92c1.27-0.25,2.84-0.39,4.4-0.39v0c1.49,0,3.03,0.13,4.32,0.39
			c1.31,0.26,2.15,0.58,2.44,0.92c0,0,0,0.01,0,0.01l0,0.17c0,0.01-0.01,0.02-0.01,0.02c-0.01,0-0.02,0-0.02-0.01
			c-0.38-0.46-1.7-0.78-2.45-0.93c-1.28-0.25-2.8-0.38-4.28-0.38c-1.54,0-3.09,0.14-4.37,0.39c-1.05,0.2-2.24,0.59-2.37,0.92
			C6.32,19.88,6.31,19.88,6.3,19.88z M13.1,18.52c1.47,0,2.98,0.14,4.24,0.38c0.73,0.15,2.01,0.46,2.44,0.91l0-0.12
			c-0.29-0.33-1.13-0.64-2.42-0.9c-1.29-0.25-2.82-0.39-4.31-0.38l0,0c-1.56,0-3.12,0.14-4.39,0.39c-1.36,0.26-2.26,0.66-2.34,0.89
			v0.11c0.27-0.37,1.53-0.72,2.36-0.88c1.28-0.25,2.83-0.39,4.37-0.39C13.07,18.52,13.09,18.52,13.1,18.52z"/>
	</g>
	<g>
		<path class="st2" d="M13.03,15.47c2.48-0.01,4.65,0.35,5.64,0.85l0.36,0.62c-0.86-0.46-3.2-0.95-5.99-0.87
			c-2.28,0.01-4.72,0.25-5.94,0.9l0.43-0.72C8.53,15.74,10.89,15.48,13.03,15.47"/>
		<path d="M7.09,17c-0.01,0-0.01,0-0.01-0.01c-0.01-0.01-0.01-0.02,0-0.02l0.43-0.72c0,0,0-0.01,0.01-0.01
			c1.04-0.54,3.52-0.79,5.51-0.79c0,0,0,0,0,0c2.39-0.01,4.61,0.32,5.65,0.86c0,0,0.01,0,0.01,0.01l0.36,0.62c0,0.01,0,0.02,0,0.02
			c-0.01,0.01-0.02,0.01-0.02,0c-0.9-0.49-3.25-0.94-5.99-0.87C11.43,16.11,8.53,16.24,7.09,17C7.1,17,7.09,17,7.09,17z M7.54,16.27
			l-0.39,0.66c1.45-0.74,4.3-0.86,5.89-0.87c2.69-0.07,5,0.37,5.95,0.85l-0.33-0.56c-1.04-0.53-3.24-0.86-5.62-0.85c0,0,0,0,0,0
			C11.04,15.49,8.58,15.74,7.54,16.27z"/>
	</g>
	<g>
		<path class="st2" d="M13.06,15.99c1.42,0,2.78,0.08,3.87,0.27c1.01,0.19,1.98,0.47,2.12,0.62l0.11,0.19
			c-0.34-0.22-1.17-0.46-2.25-0.67c-1.08-0.2-2.44-0.27-3.85-0.27c-1.6-0.01-2.84,0.08-3.9,0.26c-1.13,0.21-1.91,0.51-2.1,0.66
			l0.1-0.2c0.37-0.19,0.97-0.42,1.97-0.6C10.23,16.06,11.48,16,13.06,15.99L13.06,15.99L13.06,15.99z M13.06,15.42
			c1.35,0,2.69,0.07,3.73,0.26c0.82,0.16,1.64,0.41,1.93,0.63l0.16,0.25c-0.27-0.3-1.27-0.58-2.15-0.73
			c-1.03-0.18-2.32-0.25-3.67-0.26c-1.42,0-2.74,0.09-3.76,0.28c-0.97,0.19-1.6,0.4-1.87,0.58l0.14-0.21
			c0.37-0.19,0.96-0.37,1.7-0.52C10.31,15.51,11.63,15.42,13.06,15.42L13.06,15.42z"/>
		<path d="M19.16,17.09c0,0-0.01,0-0.01,0c-0.33-0.21-1.15-0.46-2.24-0.66c-0.96-0.18-2.26-0.27-3.85-0.27
			c-1.6-0.01-2.84,0.08-3.9,0.26c-1.12,0.21-1.9,0.51-2.09,0.65c-0.01,0.01-0.02,0.01-0.02,0c-0.01-0.01-0.01-0.02,0-0.02l0.1-0.2
			c0,0,0-0.01,0.01-0.01c0.51-0.26,1.15-0.46,1.97-0.6c1-0.18,2.14-0.26,3.94-0.27l0,0c0,0,0,0,0,0c1.53,0,2.86,0.09,3.87,0.27
			c1.03,0.19,1.99,0.47,2.13,0.63l0.11,0.19c0,0.01,0,0.02,0,0.02C19.16,17.09,19.16,17.09,19.16,17.09z M13.16,16.12
			c1.55,0,2.81,0.09,3.75,0.27c1.03,0.2,1.82,0.42,2.19,0.63l-0.07-0.12c-0.13-0.14-1.1-0.43-2.1-0.61
			c-1.01-0.18-2.35-0.28-3.87-0.27h0c-1.8,0.01-2.94,0.09-3.93,0.27c-0.82,0.15-1.46,0.34-1.96,0.6L7.1,17
			c0.27-0.16,1.02-0.43,2.05-0.62c1.07-0.19,2.31-0.27,3.91-0.26C13.09,16.12,13.13,16.12,13.16,16.12z M18.88,16.58
			c-0.01,0-0.01,0-0.01-0.01c-0.27-0.3-1.33-0.58-2.14-0.73c-0.94-0.16-2.14-0.25-3.67-0.26c-1.48,0-2.78,0.1-3.75,0.28
			c-0.86,0.16-1.56,0.38-1.86,0.57c-0.01,0-0.02,0-0.02,0c-0.01-0.01-0.01-0.02,0-0.02l0.14-0.21c0,0,0,0,0.01-0.01
			c0.36-0.19,0.96-0.37,1.71-0.52c0.97-0.18,2.28-0.27,3.78-0.28l0,0h0c1.48,0,2.77,0.09,3.74,0.26c0.88,0.17,1.66,0.43,1.94,0.64
			c0,0,0,0,0,0.01l0.16,0.25c0.01,0.01,0,0.02,0,0.03C18.89,16.58,18.89,16.58,18.88,16.58z M13.06,15.54
			c1.53,0.01,2.73,0.1,3.67,0.26c0.74,0.13,1.68,0.38,2.06,0.65l-0.08-0.13c-0.28-0.21-1.05-0.46-1.92-0.63
			c-0.96-0.17-2.26-0.26-3.73-0.26l0,0c-1.5,0-2.81,0.1-3.78,0.28c-0.75,0.15-1.33,0.32-1.69,0.51L7.5,16.36
			c0.34-0.18,1-0.38,1.8-0.53C10.27,15.64,11.57,15.55,13.06,15.54z"/>
	</g>
	<g>
		<path class="st2" d="M16.37,22.77c-1.23-0.23-2.46-0.26-3.32-0.25c-4.14,0.05-5.47,0.85-5.64,1.09l-0.31-0.5
			c1.05-0.76,3.31-1.19,5.97-1.15c1.38,0.02,2.57,0.11,3.58,0.31L16.37,22.77"/>
		<path d="M7.42,23.63C7.42,23.63,7.42,23.63,7.42,23.63c-0.01,0-0.01,0-0.02-0.01l-0.31-0.5c-0.01-0.01,0-0.02,0.01-0.03
			c1.06-0.77,3.29-1.2,5.98-1.15c1.46,0.02,2.63,0.13,3.58,0.31c0.01,0,0.01,0.01,0.01,0.01c0,0.01,0,0.01,0,0.02l-0.29,0.5
			c0,0.01-0.01,0.01-0.02,0.01c-0.97-0.18-2.09-0.27-3.31-0.25c-4.02,0.05-5.44,0.82-5.62,1.08C7.43,23.62,7.43,23.63,7.42,23.63z
			 M7.14,23.11l0.29,0.46c0.24-0.29,1.7-1.03,5.63-1.08c1.22-0.01,2.33,0.07,3.31,0.25l0.27-0.47c-0.94-0.18-2.1-0.28-3.55-0.3
			C10.41,21.93,8.19,22.35,7.14,23.11z"/>
	</g>
	<g>
		<path class="st2" d="M13.03,22.44c1.15,0.02,2.28,0.06,3.37,0.27l-0.08,0.14c-1.01-0.19-2.09-0.26-3.29-0.25
			c-1.53-0.01-3.07,0.13-4.41,0.52c-0.42,0.12-1.13,0.39-1.2,0.62L7.35,23.6c0.02-0.13,0.45-0.41,1.24-0.63
			C10.13,22.53,11.57,22.45,13.03,22.44L13.03,22.44L13.03,22.44z M13.09,21.87c1.19,0.02,2.42,0.08,3.62,0.31l-0.08,0.15
			c-1.08-0.21-2.11-0.29-3.53-0.31c-1.53,0-3.16,0.11-4.63,0.54C7.98,22.7,7.16,23,7.13,23.24L7.05,23.1
			c0.02-0.22,0.73-0.5,1.37-0.68C9.91,21.98,11.54,21.87,13.09,21.87L13.09,21.87z"/>
		<path d="M7.42,23.75c-0.01,0-0.01,0-0.02-0.01l-0.08-0.13c0,0,0-0.01,0-0.01c0.03-0.15,0.47-0.43,1.25-0.65
			c1.47-0.42,2.84-0.51,4.45-0.53c0,0,0,0,0,0c1.09,0.02,2.26,0.06,3.37,0.27c0.01,0,0.01,0,0.01,0.01c0,0.01,0,0.01,0,0.02
			l-0.08,0.14c0,0.01-0.01,0.01-0.02,0.01c-0.95-0.18-2.03-0.26-3.28-0.25c-1.69-0.01-3.17,0.16-4.41,0.52
			c-0.45,0.13-1.12,0.4-1.19,0.6C7.44,23.74,7.43,23.75,7.42,23.75C7.43,23.75,7.43,23.75,7.42,23.75z M7.37,23.6l0.06,0.09
			c0.13-0.23,0.79-0.48,1.2-0.59c1.24-0.36,2.73-0.53,4.42-0.52c1.25-0.01,2.33,0.08,3.28,0.25l0.06-0.11
			c-1.11-0.2-2.26-0.25-3.34-0.26c0,0,0,0,0,0c-1.6,0.01-2.97,0.1-4.44,0.52C7.8,23.21,7.4,23.48,7.37,23.6z M7.13,23.25
			c-0.01,0-0.01,0-0.02-0.01l-0.08-0.14c0,0,0-0.01,0-0.01c0.02-0.28,1.07-0.61,1.38-0.7c1.27-0.37,2.76-0.54,4.67-0.55c0,0,0,0,0,0
			c1.17,0.02,2.41,0.07,3.62,0.31c0.01,0,0.01,0.01,0.01,0.01c0,0.01,0,0.01,0,0.02l-0.08,0.15c0,0.01-0.01,0.01-0.02,0.01
			c-1.15-0.23-2.24-0.29-3.53-0.31c-1.9,0-3.37,0.18-4.63,0.54c-0.62,0.18-1.29,0.46-1.31,0.66C7.15,23.25,7.14,23.25,7.13,23.25
			C7.13,23.25,7.13,23.25,7.13,23.25z M7.07,23.09l0.05,0.1c0.13-0.29,1.2-0.61,1.33-0.65C9.71,22.17,11.19,22,13.09,22
			c1.28,0.02,2.38,0.08,3.52,0.31l0.06-0.11c-1.2-0.23-2.43-0.29-3.59-0.31c-1.91,0-3.39,0.18-4.65,0.55
			C7.63,22.66,7.1,22.92,7.07,23.09z"/>
	</g>
	<g>
		<path class="st2" d="M18.96,23.18l-0.5,0.77l-1.43-1.27l-3.7-2.49L9.15,17.9l-2.17-0.74l0.46-0.86l0.16-0.09l1.35,0.34l4.45,2.29
			l2.56,1.62l2.16,1.55l0.88,1.01L18.96,23.18z"/>
		<path d="M18.46,23.97c0,0-0.01,0-0.01,0l-1.43-1.27l-3.7-2.49l-4.17-2.29l-2.17-0.74c-0.01,0-0.01-0.01-0.01-0.01
			c0-0.01,0-0.01,0-0.02l0.46-0.86c0,0,0-0.01,0.01-0.01L7.6,16.2c0,0,0.01,0,0.01,0l1.35,0.34l4.45,2.29l2.56,1.62l2.16,1.55
			L19,23.01c0,0,0.01,0.01,0,0.02l-0.03,0.16c0,0,0,0,0,0.01l-0.5,0.77C18.48,23.97,18.47,23.97,18.46,23.97
			C18.46,23.97,18.46,23.97,18.46,23.97z M7.01,17.15l2.15,0.73l4.18,2.29l3.71,2.49l1.41,1.25l0.48-0.75l0.03-0.15l-0.87-1
			l-2.15-1.55l-2.56-1.62l-4.44-2.29l-1.34-0.33l-0.15,0.08L7.01,17.15z M18.96,23.18L18.96,23.18L18.96,23.18z"/>
	</g>
	<g>
		<path class="st2" d="M6.91,17.18c0.38-0.26,3.18,0.99,6.1,2.75c2.92,1.77,5.7,3.77,5.45,4.14l-0.08,0.13l-0.04,0.03
			c0.01-0.01,0.05-0.06,0-0.2c-0.12-0.41-2.1-1.99-5.38-3.97c-3.2-1.91-5.86-3.06-6.13-2.73L6.91,17.18L6.91,17.18L6.91,17.18z
			 M19.06,23.17c0.24-0.47-2.35-2.43-5.57-4.33c-3.29-1.86-5.66-2.96-6.09-2.63l-0.1,0.18c0,0.01,0-0.01,0.02-0.03
			c0.08-0.07,0.21-0.06,0.27-0.07c0.75,0.01,2.87,0.99,5.86,2.7c1.31,0.76,5.53,3.47,5.51,4.23c0,0.07,0.01,0.08-0.02,0.11
			L19.06,23.17L19.06,23.17L19.06,23.17z"/>
		<path d="M18.34,24.25c-0.01,0-0.01,0-0.02-0.01c-0.01-0.01,0-0.02,0-0.03l0,0c0,0,0.04-0.04-0.01-0.17
			c-0.13-0.42-2.22-2.05-5.37-3.96c-3.35-2-5.86-3.03-6.1-2.73c-0.01,0.01-0.02,0.01-0.03,0c-0.01-0.01-0.01-0.02-0.01-0.03
			l0.08-0.16c0,0,0-0.01,0.01-0.01c0.4-0.27,3.2,0.99,6.12,2.75c2.63,1.59,5.35,3.5,5.47,4.06c0.01,0.04,0,0.08-0.01,0.11
			l-0.08,0.13c0,0,0,0,0,0l-0.04,0.03v0c0,0,0,0,0,0C18.35,24.25,18.34,24.25,18.34,24.25z M7,17.27c0.73,0,3.21,1.14,5.96,2.78
			c3.21,1.94,5.26,3.54,5.39,3.98c0.02,0.05,0.03,0.1,0.03,0.13l0.06-0.1c0.01-0.02,0.02-0.04,0.01-0.08
			c-0.12-0.55-2.9-2.49-5.45-4.04c-2.85-1.72-5.68-3-6.07-2.75l-0.05,0.09C6.91,17.27,6.95,17.27,7,17.27z M18.95,23.35
			c0,0-0.01,0-0.01,0c-0.01-0.01-0.01-0.02,0-0.03l0.01-0.02c0.01-0.01,0.01-0.03,0.01-0.06l0-0.02c0.02-0.76-4.28-3.5-5.5-4.21
			c-2.97-1.7-5.11-2.69-5.85-2.7l-0.01,0c-0.06,0-0.17,0-0.24,0.06c-0.01,0.01-0.02,0.02-0.02,0.02c0,0.01-0.02,0.01-0.02,0.01
			c-0.01,0-0.01-0.01-0.01-0.02c0,0,0-0.01,0-0.01l0.1-0.18c0,0,0,0,0.01-0.01c0.52-0.39,3.61,1.21,6.11,2.63
			c2.9,1.72,5.84,3.83,5.57,4.35c0,0,0,0,0,0l-0.1,0.15c0,0.01-0.01,0.01-0.01,0.02C18.97,23.35,18.96,23.35,18.95,23.35z
			 M7.6,16.27c0.75,0.01,2.89,1,5.87,2.71c0.86,0.5,5.54,3.42,5.52,4.25l0,0.02l0.05-0.08c0.22-0.44-2.22-2.33-5.56-4.3
			c-3.51-1.99-5.66-2.93-6.07-2.64l-0.05,0.09c0.07-0.03,0.16-0.03,0.21-0.04L7.6,16.27z M19.06,23.17L19.06,23.17L19.06,23.17z"/>
	</g>
</g>
<g>
	<g>
		<path class="st3" d="M9.06,20.67c0,1.1,0.45,2.09,1.18,2.81c0.73,0.73,1.72,1.18,2.82,1.18c1.1,0,2.1-0.45,2.83-1.17
			c0.73-0.72,1.17-1.72,1.18-2.82h0v-5.33l-8-0.01L9.06,20.67L9.06,20.67L9.06,20.67z"/>
		<path d="M13.05,24.69c-1.06,0-2.06-0.42-2.83-1.19c-0.76-0.75-1.18-1.75-1.18-2.8h0l0-5.38l8.04,0.01l0,5.36
			c0,1.07-0.42,2.08-1.18,2.84C15.14,24.27,14.13,24.69,13.05,24.69z M9.08,20.65l0,0.02c0,1.05,0.42,2.04,1.17,2.8
			c0.76,0.76,1.76,1.18,2.8,1.18c1.06,0,2.06-0.41,2.81-1.16c0.75-0.75,1.16-1.74,1.17-2.79l0-0.02v-5.31l-7.95-0.01L9.08,20.65z"/>
	</g>
	<g>
		<path class="st4" d="M9.21,20.68L9.21,20.68c0,1.05,0.43,2.01,1.13,2.7c0.7,0.69,1.66,1.13,2.71,1.13c1.06,0,2.01-0.43,2.71-1.12
			c0.69-0.69,1.12-1.65,1.12-2.7h0v-5.17l-7.67,0L9.21,20.68 M15.34,17.06l0,3.29l0,0.35h0c0,0.09-0.01,0.2-0.02,0.29
			c-0.06,0.52-0.3,0.97-0.66,1.33c-0.42,0.41-0.99,0.67-1.62,0.67c-0.63,0-1.19-0.27-1.61-0.68c-0.43-0.43-0.68-1.01-0.68-1.61
			l0-3.64L15.34,17.06L15.34,17.06L15.34,17.06z"/>
		<path d="M13.05,24.52c-1.02,0-1.99-0.4-2.72-1.13c-0.73-0.73-1.13-1.69-1.13-2.71l0.03,0v0c0,1.01,0.4,1.96,1.12,2.68
			c0.73,0.72,1.68,1.12,2.7,1.12c1.02,0,1.98-0.4,2.7-1.11c0.72-0.72,1.12-1.66,1.12-2.67l0-0.01v-5.16l-7.63,0l0,5.15H9.19l0-5.19
			l7.7,0l0,5.19c0,1.02-0.4,1.98-1.13,2.71C15.04,24.12,14.07,24.52,13.05,24.52z M13.05,23c-0.6,0-1.17-0.24-1.62-0.69
			c-0.43-0.43-0.68-1.02-0.68-1.63l0-3.66h0.02l4.58,0.01l0.01,0.01l0,0.01l0,3.29l0,0.35c0,0.1-0.01,0.2-0.02,0.29
			c-0.06,0.5-0.29,0.97-0.66,1.34C14.24,22.76,13.66,23,13.05,23z M10.78,17.07l0,3.62c0,0.59,0.24,1.18,0.67,1.6
			c0.44,0.44,1,0.68,1.59,0.68c0.61,0,1.18-0.24,1.61-0.66c0.37-0.37,0.59-0.82,0.65-1.32c0.01-0.09,0.02-0.19,0.02-0.28l0-0.35
			l0-3.28L10.78,17.07z"/>
	</g>
	<g id="castle3">
		<g id="castle">
			<path class="st5" d="M9.71,16.86c0.01-0.37,0.27-0.46,0.27-0.46c0,0,0.29,0.09,0.28,0.46L9.71,16.86"/>
			<g>
				<path class="st5" d="M9.48,16.41l-0.05,0.43l0.28,0c0-0.35,0.27-0.41,0.27-0.41c0.01,0,0.27,0.08,0.28,0.41h0.28l-0.05-0.43
					L9.48,16.41L9.48,16.41L9.48,16.41z"/>
				<path d="M9.73,16.85l-0.31,0l0.05-0.45l0-0.01l1.04,0l0.05,0.46h-0.32l0-0.02c-0.01-0.32-0.26-0.39-0.26-0.39
					c0,0-0.25,0.05-0.25,0.39L9.73,16.85z M10.28,16.82h0.24l-0.05-0.4l-0.45,0c0.03,0.01,0.07,0.04,0.11,0.07
					C10.2,16.55,10.27,16.65,10.28,16.82z M9.45,16.82l0.24,0c0.01-0.19,0.08-0.29,0.15-0.34c0.03-0.02,0.06-0.04,0.09-0.05l-0.44,0
					L9.45,16.82z"/>
			</g>
			<g>
				<path class="st5" d="M9.41,16.84h1.14c0.02,0,0.04,0.02,0.04,0.05c0,0.03-0.02,0.05-0.04,0.05H9.41c-0.02,0-0.04-0.02-0.04-0.05
					C9.37,16.86,9.39,16.84,9.41,16.84z"/>
				<path d="M10.56,16.96H9.41c-0.03,0-0.06-0.03-0.06-0.07c0-0.04,0.03-0.07,0.06-0.07h1.14c0.03,0,0.06,0.03,0.06,0.07
					C10.62,16.93,10.59,16.96,10.56,16.96z M9.41,16.85c-0.01,0-0.03,0.02-0.03,0.04c0,0.02,0.01,0.04,0.03,0.04h1.14
					c0.01,0,0.03-0.02,0.03-0.04c0-0.02-0.01-0.04-0.03-0.04H9.41z"/>
			</g>
			<g>
				<path class="st5" d="M9.83,16.83c0-0.22,0.15-0.29,0.15-0.29c0,0,0.16,0.07,0.16,0.29H9.83"/>
				<path d="M10.16,16.85H9.83v-0.02l-0.02,0c0-0.14,0.06-0.23,0.11-0.27c0,0,0.05-0.04,0.06-0.03c0,0,0,0,0,0
					c0.01,0,0.17,0.08,0.17,0.3L10.16,16.85z M9.85,16.82h0.28c-0.01-0.17-0.11-0.24-0.14-0.25C9.96,16.58,9.85,16.65,9.85,16.82z"
					/>
			</g>
			<g>
				<path class="st5" d="M9.44,16.23h1.09c0.02,0,0.04,0.02,0.04,0.05c0,0.03-0.02,0.05-0.04,0.05H9.44c-0.02,0-0.04-0.02-0.04-0.05
					C9.4,16.25,9.42,16.23,9.44,16.23z"/>
				<path d="M10.53,16.34H9.44c-0.03,0-0.06-0.03-0.06-0.06c0-0.04,0.03-0.06,0.06-0.06h1.09c0.03,0,0.06,0.03,0.06,0.06
					C10.59,16.31,10.56,16.34,10.53,16.34z M9.44,16.25c-0.01,0-0.03,0.01-0.03,0.03s0.01,0.03,0.03,0.03h1.09
					c0.01,0,0.03-0.01,0.03-0.03s-0.01-0.03-0.03-0.03H9.44z"/>
			</g>
			<g>
				<path class="st5" d="M9.46,16.33h1.05c0.02,0,0.04,0.02,0.04,0.05c0,0.03-0.02,0.05-0.04,0.05H9.46c-0.02,0-0.04-0.02-0.04-0.05
					C9.42,16.35,9.44,16.33,9.46,16.33z"/>
				<path d="M10.51,16.44H9.46c-0.03,0-0.06-0.03-0.06-0.06c0-0.04,0.03-0.06,0.06-0.06h1.05c0.03,0,0.06,0.03,0.06,0.06
					C10.56,16.41,10.54,16.44,10.51,16.44z M9.46,16.34c-0.01,0-0.02,0.01-0.02,0.03c0,0.02,0.01,0.03,0.02,0.03h1.05
					c0.01,0,0.02-0.01,0.02-0.03c0-0.02-0.01-0.03-0.02-0.03H9.46z"/>
			</g>
			<g>
				<path class="st5" d="M9.8,15.61l0.08,0v0.06h0.06v-0.06l0.08,0v0.06h0.06v-0.06h0.08l0,0.14c0,0.02-0.02,0.04-0.04,0.04h-0.3
					c-0.02,0-0.04-0.02-0.04-0.04L9.8,15.61L9.8,15.61L9.8,15.61z"/>
				<path d="M10.13,15.8h-0.3c-0.03,0-0.06-0.02-0.06-0.05l0-0.14l0.01-0.01l0.01,0l0.1,0v0.06h0.03v-0.06l0.12,0v0.06h0.03v-0.06
					h0.12l0,0.15C10.19,15.78,10.17,15.8,10.13,15.8z M9.82,15.63l0,0.12c0,0.01,0.01,0.02,0.02,0.02h0.3
					c0.01,0,0.02-0.01,0.02-0.02l0-0.12H10.1v0.06h-0.09v-0.06l-0.05,0v0.06H9.87v-0.06L9.82,15.63z"/>
			</g>
			<g>
				<path class="st5" d="M10.11,15.79l0.02,0.43l-0.29,0l0.02-0.43L10.11,15.79"/>
				<path d="M10.15,16.24l-0.33,0l0.02-0.47l0.28,0L10.15,16.24z M9.86,16.21l0.25,0l-0.02-0.4l-0.22,0L9.86,16.21z"/>
			</g>
			<g>
				<path id="cp1_1_" class="st5" d="M9.76,15.99l0.01,0.23l-0.28,0l0.01-0.23L9.76,15.99L9.76,15.99L9.76,15.99z"/>
				<path d="M9.47,16.25l0.01-0.27h0.29l0.01,0.27L9.47,16.25z M9.51,16.01l-0.01,0.2l0.24,0l-0.01-0.2H9.51z"/>
			</g>
			<g>
				<g>
					<path class="st5" d="M10.47,15.99l0.01,0.23l-0.28,0l0.01-0.23L10.47,15.99L10.47,15.99L10.47,15.99z"/>
					<path d="M10.18,16.25l0.01-0.27h0.29l0.01,0.27L10.18,16.25z M10.23,16.01l-0.01,0.2l0.24,0l-0.01-0.2H10.23z"/>
				</g>
			</g>
			<g>
				<path id="cp2_1_" class="st5" d="M9.44,15.82l0.08,0v0.06h0.06v-0.06l0.08,0v0.06h0.06v-0.06l0.08,0l0,0.14
					c0,0.02-0.02,0.03-0.04,0.03H9.48c-0.02,0-0.04-0.02-0.04-0.04L9.44,15.82L9.44,15.82L9.44,15.82z"/>
				<path d="M9.77,16.01H9.48c-0.03,0-0.05-0.02-0.05-0.05l0-0.14l0.01-0.01l0.01,0l0.1,0v0.06h0.03v-0.06l0.12,0v0.06h0.03v-0.06
					l0.12,0l0,0.15C9.83,15.99,9.8,16.01,9.77,16.01z M9.46,15.84l0,0.12c0,0.01,0.01,0.02,0.02,0.02h0.29
					c0.01,0,0.02-0.01,0.02-0.02l0-0.12l-0.05,0v0.06H9.65v-0.06l-0.05,0v0.06H9.51v-0.06L9.46,15.84z"/>
			</g>
			<g>
				<g>
					<path class="st5" d="M10.16,15.82l0.08,0v0.06h0.06v-0.06l0.08,0v0.06h0.06v-0.06l0.08,0l0,0.14c0,0.02-0.02,0.03-0.04,0.03
						H10.2c-0.02,0-0.04-0.02-0.04-0.04L10.16,15.82L10.16,15.82L10.16,15.82z"/>
					<path d="M10.49,16.01H10.2c-0.03,0-0.05-0.02-0.05-0.05l0-0.14l0.01-0.01l0.01,0l0.1,0v0.06h0.03v-0.06l0.12,0v0.06h0.03v-0.06
						l0.12,0l0,0.15C10.54,15.99,10.52,16.01,10.49,16.01z M10.18,15.84l0,0.12c0,0.01,0.01,0.02,0.02,0.02h0.29
						c0.01,0,0.02-0.01,0.02-0.02l0-0.12l-0.05,0v0.06h-0.09v-0.06l-0.05,0v0.06h-0.09v-0.06L10.18,15.84z"/>
				</g>
			</g>
			<path d="M9.96,15.93c0-0.04,0.06-0.04,0.06,0v0.1H9.96L9.96,15.93"/>
			<path id="cp3" d="M9.6,16.08c0-0.04,0.06-0.04,0.06,0v0.08H9.6L9.6,16.08"/>
			<g>
				<path d="M10.31,16.08c0-0.04,0.06-0.04,0.06,0v0.08h-0.06L10.31,16.08"/>
			</g>
		</g>
		<g>
			<g>
				<path class="st5" d="M9.71,19.98c0.01-0.37,0.27-0.46,0.27-0.46c0,0,0.29,0.09,0.28,0.46L9.71,19.98"/>
				<g>
					<path class="st5" d="M9.48,19.53l-0.05,0.43l0.28,0c0-0.35,0.27-0.41,0.27-0.41c0.01,0,0.27,0.08,0.28,0.41h0.28l-0.05-0.43
						L9.48,19.53L9.48,19.53L9.48,19.53z"/>
					<path d="M9.73,19.97l-0.31,0l0.05-0.45l0-0.01l1.04,0l0.05,0.46h-0.32l0-0.02c-0.01-0.32-0.26-0.39-0.26-0.39
						c0,0-0.25,0.05-0.25,0.39L9.73,19.97z M10.28,19.94h0.24l-0.05-0.4l-0.45,0c0.03,0.01,0.07,0.04,0.11,0.07
						C10.2,19.67,10.27,19.77,10.28,19.94z M9.45,19.94l0.24,0c0.01-0.19,0.08-0.29,0.15-0.34c0.03-0.02,0.06-0.04,0.09-0.05
						l-0.44,0L9.45,19.94z"/>
				</g>
				<g>
					<path class="st5" d="M9.41,19.96h1.14c0.02,0,0.04,0.02,0.04,0.05c0,0.03-0.02,0.05-0.04,0.05H9.41
						c-0.02,0-0.04-0.02-0.04-0.05C9.37,19.98,9.39,19.96,9.41,19.96z"/>
					<path d="M10.56,20.08H9.41c-0.03,0-0.06-0.03-0.06-0.07c0-0.04,0.03-0.07,0.06-0.07h1.14c0.03,0,0.06,0.03,0.06,0.07
						C10.62,20.05,10.59,20.08,10.56,20.08z M9.41,19.97c-0.01,0-0.03,0.02-0.03,0.04c0,0.02,0.01,0.04,0.03,0.04h1.14
						c0.01,0,0.03-0.02,0.03-0.04c0-0.02-0.01-0.04-0.03-0.04H9.41z"/>
				</g>
				<g>
					<path class="st5" d="M9.83,19.95c0-0.22,0.15-0.29,0.15-0.29c0,0,0.16,0.07,0.16,0.29H9.83"/>
					<path d="M10.16,19.97H9.83v-0.02l-0.02,0c0-0.14,0.06-0.23,0.11-0.27c0,0,0.05-0.04,0.06-0.03c0,0,0,0,0,0
						c0.01,0,0.17,0.08,0.17,0.3L10.16,19.97z M9.85,19.94h0.28c-0.01-0.17-0.11-0.24-0.14-0.25C9.96,19.7,9.85,19.77,9.85,19.94z"
						/>
				</g>
				<g>
					<path class="st5" d="M9.44,19.35h1.09c0.02,0,0.04,0.02,0.04,0.05c0,0.03-0.02,0.05-0.04,0.05H9.44
						c-0.02,0-0.04-0.02-0.04-0.05C9.4,19.37,9.42,19.35,9.44,19.35z"/>
					<path d="M10.53,19.46H9.44c-0.03,0-0.06-0.03-0.06-0.06c0-0.04,0.03-0.06,0.06-0.06h1.09c0.03,0,0.06,0.03,0.06,0.06
						C10.59,19.43,10.56,19.46,10.53,19.46z M9.44,19.37c-0.01,0-0.03,0.01-0.03,0.03s0.01,0.03,0.03,0.03h1.09
						c0.01,0,0.03-0.01,0.03-0.03s-0.01-0.03-0.03-0.03H9.44z"/>
				</g>
				<g>
					<path class="st5" d="M9.46,19.44h1.05c0.02,0,0.04,0.02,0.04,0.05c0,0.03-0.02,0.05-0.04,0.05H9.46
						c-0.02,0-0.04-0.02-0.04-0.05C9.42,19.47,9.44,19.44,9.46,19.44z"/>
					<path d="M10.51,19.56H9.46c-0.03,0-0.06-0.03-0.06-0.06c0-0.04,0.03-0.06,0.06-0.06h1.05c0.03,0,0.06,0.03,0.06,0.06
						C10.56,19.53,10.54,19.56,10.51,19.56z M9.46,19.46c-0.01,0-0.02,0.01-0.02,0.03c0,0.02,0.01,0.03,0.02,0.03h1.05
						c0.01,0,0.02-0.01,0.02-0.03c0-0.02-0.01-0.03-0.02-0.03H9.46z"/>
				</g>
				<g>
					<path class="st5" d="M9.8,18.73l0.08,0v0.06h0.06v-0.06l0.08,0v0.06h0.06v-0.06h0.08l0,0.14c0,0.02-0.02,0.04-0.04,0.04h-0.3
						c-0.02,0-0.04-0.02-0.04-0.04L9.8,18.73L9.8,18.73L9.8,18.73z"/>
					<path d="M10.13,18.92h-0.3c-0.03,0-0.06-0.02-0.06-0.05l0-0.14l0.01-0.01l0.01,0l0.1,0v0.06h0.03v-0.06l0.12,0v0.06h0.03v-0.06
						h0.12l0,0.15C10.19,18.9,10.17,18.92,10.13,18.92z M9.82,18.75l0,0.12c0,0.01,0.01,0.02,0.02,0.02h0.3
						c0.01,0,0.02-0.01,0.02-0.02l0-0.12H10.1v0.06h-0.09v-0.06l-0.05,0v0.06H9.87v-0.06L9.82,18.75z"/>
				</g>
				<g>
					<path class="st5" d="M10.11,18.91l0.02,0.43l-0.29,0l0.02-0.43L10.11,18.91"/>
					<path d="M10.15,19.36l-0.33,0l0.02-0.47l0.28,0L10.15,19.36z M9.86,19.33l0.25,0l-0.02-0.4l-0.22,0L9.86,19.33z"/>
				</g>
				<g>
					<path class="st5" d="M9.76,19.11l0.01,0.23l-0.28,0l0.01-0.23L9.76,19.11L9.76,19.11L9.76,19.11z"/>
					<path d="M9.47,19.37l0.01-0.27h0.29l0.01,0.27L9.47,19.37z M9.51,19.13l-0.01,0.2l0.24,0l-0.01-0.2H9.51z"/>
				</g>
				<g>
					<g>
						<path class="st5" d="M10.47,19.11l0.01,0.23l-0.28,0l0.01-0.23L10.47,19.11L10.47,19.11L10.47,19.11z"/>
						<path d="M10.18,19.37l0.01-0.27h0.29l0.01,0.27L10.18,19.37z M10.23,19.13l-0.01,0.2l0.24,0l-0.01-0.2H10.23z"/>
					</g>
				</g>
				<g>
					<path class="st5" d="M9.44,18.94l0.08,0V19h0.06v-0.06l0.08,0V19h0.06v-0.06l0.08,0l0,0.14c0,0.02-0.02,0.03-0.04,0.03H9.48
						c-0.02,0-0.04-0.02-0.04-0.04L9.44,18.94L9.44,18.94L9.44,18.94z"/>
					<path d="M9.77,19.13H9.48c-0.03,0-0.05-0.02-0.05-0.05l0-0.14l0.01-0.01l0.01,0l0.1,0v0.06h0.03v-0.06l0.12,0v0.06h0.03v-0.06
						l0.12,0l0,0.15C9.83,19.11,9.8,19.13,9.77,19.13z M9.46,18.96l0,0.12c0,0.01,0.01,0.02,0.02,0.02h0.29
						c0.01,0,0.02-0.01,0.02-0.02l0-0.12l-0.05,0v0.06H9.65v-0.06l-0.05,0v0.06H9.51v-0.06L9.46,18.96z"/>
				</g>
				<g>
					<g>
						<path class="st5" d="M10.16,18.94l0.08,0V19h0.06v-0.06l0.08,0V19h0.06v-0.06l0.08,0l0,0.14c0,0.02-0.02,0.03-0.04,0.03H10.2
							c-0.02,0-0.04-0.02-0.04-0.04L10.16,18.94L10.16,18.94L10.16,18.94z"/>
						<path d="M10.49,19.13H10.2c-0.03,0-0.05-0.02-0.05-0.05l0-0.14l0.01-0.01l0.01,0l0.1,0v0.06h0.03v-0.06l0.12,0v0.06h0.03
							v-0.06l0.12,0l0,0.15C10.54,19.11,10.52,19.13,10.49,19.13z M10.18,18.96l0,0.12c0,0.01,0.01,0.02,0.02,0.02h0.29
							c0.01,0,0.02-0.01,0.02-0.02l0-0.12l-0.05,0v0.06h-0.09v-0.06l-0.05,0v0.06h-0.09v-0.06L10.18,18.96z"/>
					</g>
				</g>
				<path d="M9.96,19.05c0-0.04,0.06-0.04,0.06,0v0.1H9.96L9.96,19.05"/>
				<path d="M9.6,19.2c0-0.04,0.06-0.04,0.06,0v0.08H9.6L9.6,19.2"/>
				<g>
					<path d="M10.31,19.2c0-0.04,0.06-0.04,0.06,0v0.08h-0.06L10.31,19.2"/>
				</g>
			</g>
		</g>
		<g transform="matrix(0.70460892,-0.70959585,0.70959585,0.70460892,-35.341459,275.10898)">
			<g>
				<path class="st5" d="M10.92,23.23c-0.26-0.27-0.13-0.52-0.13-0.52c0,0,0.27-0.14,0.53,0.13L10.92,23.23"/>
				<g>
					<path class="st5" d="M10.44,23.07l0.27,0.33l0.2-0.2c-0.25-0.25-0.1-0.48-0.1-0.48c0,0,0.24-0.14,0.49,0.09l0.2-0.2l-0.34-0.27
						L10.44,23.07L10.44,23.07L10.44,23.07z"/>
					<path d="M10.71,23.43l-0.29-0.36l0.73-0.74l0.37,0.29l-0.22,0.22l-0.01-0.01c-0.23-0.22-0.46-0.09-0.46-0.09l0,0
						c0,0-0.14,0.21,0.1,0.46l0.01,0.01L10.71,23.43z M10.46,23.07l0.25,0.31l0.17-0.17c-0.13-0.14-0.15-0.26-0.14-0.35
						c0-0.04,0.01-0.07,0.02-0.1L10.46,23.07z M10.98,22.66c0.08,0,0.2,0.02,0.31,0.13l0.17-0.17l-0.31-0.25l-0.31,0.32
						c0.03-0.01,0.08-0.02,0.13-0.03C10.97,22.66,10.98,22.66,10.98,22.66z"/>
				</g>
				<g>
					<path class="st5" d="M10.7,23.42l0.8-0.81c0.02-0.02,0.05-0.01,0.07,0.01c0.02,0.02,0.02,0.05,0.01,0.07l-0.8,0.81
						c-0.02,0.02-0.05,0.01-0.07-0.01C10.69,23.47,10.68,23.44,10.7,23.42z"/>
					<path d="M10.75,23.52c-0.02,0-0.04-0.01-0.05-0.02c-0.03-0.03-0.03-0.07-0.01-0.09l0.8-0.81c0.02-0.02,0.06-0.02,0.09,0.01
						c0.01,0.01,0.02,0.03,0.02,0.05c0,0.02-0.01,0.03-0.02,0.04l-0.8,0.81C10.78,23.52,10.76,23.52,10.75,23.52z M11.53,22.61
						c-0.01,0-0.01,0-0.02,0.01l-0.8,0.81c-0.01,0.01-0.01,0.03,0.01,0.04c0.01,0.01,0.03,0.02,0.04,0.01l0.8-0.81
						c0.01-0.01,0.01-0.01,0.01-0.02c0-0.01,0-0.02-0.01-0.03C11.55,22.62,11.54,22.61,11.53,22.61z"/>
				</g>
				<g>
					<path class="st5" d="M10.99,23.12c-0.16-0.16-0.1-0.31-0.1-0.31c0,0,0.16-0.07,0.32,0.09L10.99,23.12"/>
					<path d="M10.98,23.13c-0.1-0.1-0.12-0.2-0.11-0.27c0-0.01,0.01-0.06,0.02-0.07c0.01-0.01,0.18-0.07,0.34,0.09l0.01,0.01
						L11,23.13l-0.01-0.01L10.98,23.13z M10.91,22.83c-0.01,0.03-0.03,0.15,0.08,0.27l0.2-0.2C11.06,22.79,10.94,22.82,10.91,22.83z
						"/>
				</g>
				<g>
					<path class="st5" d="M10.29,22.97l0.77-0.78c0.02-0.02,0.04-0.01,0.06,0c0.02,0.02,0.02,0.05,0,0.06l-0.77,0.78
						c-0.02,0.02-0.04,0.01-0.06,0C10.27,23.02,10.27,22.99,10.29,22.97z"/>
					<path d="M10.32,23.07C10.32,23.07,10.32,23.07,10.32,23.07c-0.02,0-0.04-0.01-0.05-0.02c-0.01-0.01-0.02-0.03-0.02-0.04
						c0-0.02,0-0.03,0.02-0.04l0.77-0.78c0.01-0.01,0.03-0.02,0.04-0.02c0.02,0,0.03,0.01,0.04,0.02c0.03,0.02,0.03,0.06,0,0.09
						l-0.77,0.78C10.35,23.06,10.34,23.07,10.32,23.07z M11.08,22.2c-0.01,0-0.01,0-0.02,0.01l-0.77,0.78c0,0-0.01,0.01-0.01,0.02
						c0,0.01,0,0.02,0.01,0.02c0.01,0.01,0.01,0.01,0.02,0.01c0.01,0,0.01,0,0.02-0.01l0.77-0.78c0.01-0.01,0.01-0.03,0-0.04
						C11.1,22.21,11.09,22.2,11.08,22.2C11.09,22.2,11.09,22.2,11.08,22.2z"/>
				</g>
				<g>
					<path class="st5" d="M10.37,23.02l0.74-0.74c0.02-0.02,0.04-0.01,0.06,0c0.02,0.02,0.02,0.05,0.01,0.06l-0.74,0.74
						c-0.02,0.02-0.04,0.01-0.06,0C10.36,23.07,10.35,23.04,10.37,23.02z"/>
					<path d="M10.41,23.12C10.41,23.12,10.41,23.12,10.41,23.12c-0.02,0-0.04-0.01-0.05-0.02c-0.01-0.01-0.02-0.03-0.02-0.04
						c0-0.02,0-0.03,0.01-0.04l0.74-0.74c0.02-0.02,0.06-0.02,0.09,0c0.03,0.02,0.03,0.06,0.01,0.09l-0.74,0.74
						C10.44,23.11,10.43,23.12,10.41,23.12z M11.13,22.29c-0.01,0-0.01,0-0.01,0.01l-0.74,0.74c-0.01,0.01-0.01,0.01-0.01,0.02
						c0,0.01,0,0.02,0.01,0.02c0.01,0.01,0.01,0.01,0.02,0.01c0.01,0,0.01,0,0.02-0.01l0.74-0.74c0.01-0.01,0.01-0.03-0.01-0.04
						C11.15,22.29,11.14,22.29,11.13,22.29z"/>
				</g>
				<g>
					<path class="st5" d="M10.1,22.28l0.06-0.06l0.04,0.04l0.04-0.04l-0.04-0.04l0.06-0.06l0.04,0.04l0.04-0.04l-0.04-0.04
						l0.06-0.06l0.1,0.1c0.02,0.01,0.01,0.04,0,0.05l-0.21,0.21c-0.01,0.01-0.04,0.02-0.05,0L10.1,22.28L10.1,22.28L10.1,22.28z"/>
					<path d="M10.22,22.4c-0.01,0-0.03,0-0.04-0.01l-0.11-0.1l0.01-0.01l0.07-0.07l0.04,0.04l0.02-0.02l-0.04-0.04l0.08-0.08
						l0.04,0.04l0.02-0.02l-0.04-0.04l0.08-0.08l0.11,0.11c0.02,0.02,0.02,0.05,0,0.07l-0.21,0.21C10.25,22.4,10.24,22.4,10.22,22.4
						z M10.13,22.28l0.08,0.08c0.01,0.01,0.02,0.01,0.03,0l0.21-0.21c0.01-0.01,0.01-0.02,0-0.03l-0.08-0.08l-0.04,0.04l0.04,0.04
						l-0.07,0.07l-0.04-0.04l-0.04,0.04l0.04,0.04l-0.07,0.07l-0.04-0.04L10.13,22.28z"/>
				</g>
				<g>
					<path class="st5" d="M10.45,22.19l0.32,0.29l-0.2,0.2l-0.29-0.32L10.45,22.19"/>
					<path d="M10.57,22.71l-0.32-0.34l0.2-0.2l0.35,0.32L10.57,22.71z M10.29,22.37l0.27,0.3l0.18-0.18l-0.3-0.27L10.29,22.37z"/>
				</g>
				<g>
					<path class="st5" d="M10.34,22.58l0.17,0.16l-0.2,0.2l-0.16-0.17L10.34,22.58L10.34,22.58L10.34,22.58z"/>
					<path d="M10.32,22.96l-0.18-0.2l0.21-0.21l0.2,0.18L10.32,22.96z M10.18,22.77l0.14,0.15l0.17-0.17l-0.15-0.14L10.18,22.77z"/>
				</g>
				<g>
					<g>
						<path class="st5" d="M10.85,22.07l0.17,0.16l-0.2,0.2l-0.16-0.17L10.85,22.07L10.85,22.07L10.85,22.07z"/>
						<path d="M10.82,22.46l-0.18-0.2l0.2-0.2l0.01,0.01l0.01-0.01l0.19,0.17L10.82,22.46z M10.69,22.26l0.14,0.15l0.17-0.17
							l-0.15-0.14L10.69,22.26z"/>
					</g>
				</g>
				<g>
					<path class="st5" d="M10,22.68l0.06-0.06l0.04,0.04l0.04-0.04l-0.04-0.04l0.06-0.06l0.04,0.04l0.04-0.04l-0.04-0.04l0.06-0.06
						l0.1,0.1c0.02,0.01,0.01,0.04,0,0.05l-0.2,0.21c-0.01,0.01-0.04,0.02-0.05,0L10,22.68L10,22.68L10,22.68z"/>
					<path d="M10.12,22.8c-0.01,0-0.03,0-0.04-0.01l-0.1-0.1l0-0.01l0.07-0.07l0.04,0.04l0.02-0.02l-0.04-0.04l0.08-0.08l0.04,0.04
						l0.02-0.02l-0.04-0.04l0.08-0.08l0.11,0.11c0.02,0.02,0.02,0.05,0,0.07l-0.2,0.21C10.15,22.8,10.14,22.8,10.12,22.8z
						 M10.03,22.68l0.08,0.08c0.01,0.01,0.02,0.01,0.03,0l0.2-0.21c0.01-0.01,0.01-0.02,0-0.03l-0.08-0.08l-0.03,0.03l0.04,0.04
						l-0.07,0.07l-0.04-0.04l-0.03,0.03l0.04,0.04l-0.07,0.07l-0.04-0.04L10.03,22.68z"/>
				</g>
				<g>
					<g>
						<path class="st5" d="M10.51,22.18l0.06-0.06l0.04,0.04l0.04-0.04l-0.04-0.04l0.06-0.06l0.04,0.04l0.04-0.04l-0.04-0.04
							l0.06-0.06l0.1,0.1c0.02,0.01,0.01,0.04,0,0.05l-0.2,0.21c-0.01,0.01-0.04,0.02-0.05,0L10.51,22.18L10.51,22.18L10.51,22.18z"
							/>
						<path d="M10.63,22.3c-0.01,0-0.03,0-0.04-0.01l-0.1-0.1v-0.01l0.07-0.07l0.04,0.04l0.02-0.02l-0.04-0.04l0.08-0.08l0.04,0.04
							l0.02-0.02l-0.04-0.04l0.08-0.08L10.87,22c0.01,0.01,0.02,0.02,0.02,0.04c0,0.01-0.01,0.03-0.02,0.04l-0.2,0.21
							C10.65,22.29,10.64,22.3,10.63,22.3z M10.53,22.18l0.08,0.08c0.01,0.01,0.02,0.01,0.03,0l0.2-0.21c0,0,0.01-0.01,0.01-0.01
							c0,0,0-0.01-0.01-0.01l-0.08-0.08l-0.03,0.03l0.04,0.04l-0.07,0.07l-0.04-0.04l-0.03,0.03l0.04,0.04l-0.07,0.07l-0.04-0.04
							L10.53,22.18z"/>
					</g>
				</g>
				<path d="M10.44,22.4c-0.03-0.03,0.01-0.07,0.04-0.04l0.07,0.07l-0.04,0.04L10.44,22.4"/>
				<path d="M10.29,22.76c-0.03-0.03,0.01-0.07,0.04-0.04l0.06,0.06l-0.04,0.04L10.29,22.76"/>
				<g>
					<path d="M10.8,22.25c-0.03-0.03,0.01-0.07,0.04-0.04l0.06,0.06l-0.04,0.04L10.8,22.25"/>
				</g>
			</g>
		</g>
	</g>
	<g>
		<g>
			<path class="st5" d="M12.79,16.86c0.01-0.37,0.27-0.46,0.27-0.46c0,0,0.29,0.09,0.28,0.46L12.79,16.86"/>
			<g>
				<path class="st5" d="M12.56,16.41l-0.05,0.43l0.28,0c0-0.35,0.27-0.41,0.27-0.41c0.01,0,0.27,0.08,0.28,0.41h0.28l-0.05-0.43
					L12.56,16.41L12.56,16.41L12.56,16.41z"/>
				<path d="M12.81,16.85l-0.31,0l0.05-0.46l1.04,0l0.05,0.46h-0.32l0-0.02c-0.01-0.32-0.26-0.39-0.26-0.39c0,0-0.25,0.05-0.25,0.39
					L12.81,16.85z M13.36,16.82h0.24l-0.05-0.4l-0.45,0c0.03,0.01,0.07,0.04,0.11,0.07C13.28,16.55,13.35,16.65,13.36,16.82z
					 M12.53,16.82l0.24,0c0.01-0.19,0.08-0.29,0.15-0.34c0.03-0.02,0.06-0.04,0.09-0.05l-0.44,0L12.53,16.82z"/>
			</g>
			<g>
				<path class="st5" d="M12.49,16.84h1.14c0.02,0,0.04,0.02,0.04,0.05c0,0.03-0.02,0.05-0.04,0.05h-1.14
					c-0.02,0-0.04-0.02-0.04-0.05C12.45,16.86,12.47,16.84,12.49,16.84z"/>
				<path d="M13.63,16.96h-1.14c-0.03,0-0.06-0.03-0.06-0.07c0-0.04,0.03-0.07,0.06-0.07h1.14c0.03,0,0.06,0.03,0.06,0.07
					C13.69,16.93,13.67,16.96,13.63,16.96z M12.49,16.85c-0.01,0-0.03,0.02-0.03,0.04c0,0.02,0.01,0.04,0.03,0.04h1.14
					c0.01,0,0.03-0.02,0.03-0.04c0-0.02-0.01-0.04-0.03-0.04H12.49z"/>
			</g>
			<g>
				<path class="st5" d="M12.91,16.83c0-0.22,0.15-0.29,0.15-0.29c0,0,0.16,0.07,0.16,0.29H12.91"/>
				<path d="M13.24,16.85h-0.33v-0.02l-0.02,0c0-0.14,0.06-0.23,0.11-0.27c0,0,0.05-0.04,0.06-0.03c0,0,0,0,0,0
					c0.01,0,0.17,0.08,0.17,0.3L13.24,16.85z M12.93,16.82h0.28c-0.01-0.17-0.11-0.24-0.14-0.25
					C13.04,16.58,12.93,16.65,12.93,16.82z"/>
			</g>
			<g>
				<path class="st5" d="M12.52,16.23h1.09c0.02,0,0.04,0.02,0.04,0.05c0,0.03-0.02,0.05-0.04,0.05h-1.09
					c-0.02,0-0.04-0.02-0.04-0.05C12.48,16.25,12.49,16.23,12.52,16.23z"/>
				<path d="M13.61,16.34h-1.09c-0.03,0-0.06-0.03-0.06-0.06c0-0.04,0.03-0.06,0.06-0.06h1.09c0.03,0,0.06,0.03,0.06,0.06
					C13.67,16.31,13.64,16.34,13.61,16.34z M12.52,16.25c-0.01,0-0.03,0.01-0.03,0.03s0.01,0.03,0.03,0.03h1.09
					c0.01,0,0.03-0.01,0.03-0.03s-0.01-0.03-0.03-0.03H12.52z"/>
			</g>
			<g>
				<path class="st5" d="M12.54,16.33h1.05c0.02,0,0.04,0.02,0.04,0.05c0,0.03-0.02,0.05-0.04,0.05h-1.05
					c-0.02,0-0.04-0.02-0.04-0.05C12.5,16.35,12.52,16.33,12.54,16.33z"/>
				<path d="M13.59,16.44h-1.05c-0.03,0-0.06-0.03-0.06-0.06c0-0.04,0.03-0.06,0.06-0.06h1.05c0.03,0,0.06,0.03,0.06,0.06
					C13.64,16.41,13.62,16.44,13.59,16.44z M12.54,16.34c-0.01,0-0.02,0.01-0.02,0.03c0,0.02,0.01,0.03,0.02,0.03h1.05
					c0.01,0,0.02-0.01,0.02-0.03c0-0.02-0.01-0.03-0.02-0.03H12.54z"/>
			</g>
			<g>
				<path class="st5" d="M12.88,15.61l0.08,0v0.06h0.06v-0.06l0.08,0v0.06h0.06v-0.06h0.08l0,0.14c0,0.02-0.02,0.04-0.04,0.04h-0.3
					c-0.02,0-0.04-0.02-0.04-0.04L12.88,15.61L12.88,15.61L12.88,15.61z"/>
				<path d="M13.21,15.8h-0.3c-0.03,0-0.06-0.02-0.06-0.05l0-0.14l0.01-0.01l0.01,0l0.1,0v0.06H13v-0.06l0.12,0v0.06h0.03v-0.06
					h0.12l0,0.15C13.27,15.78,13.24,15.8,13.21,15.8z M12.9,15.63l0,0.12c0,0.01,0.01,0.02,0.02,0.02h0.3
					c0.01,0,0.02-0.01,0.02-0.02l0-0.12h-0.05v0.06h-0.09v-0.06l-0.05,0v0.06h-0.09v-0.06L12.9,15.63z"/>
			</g>
			<g>
				<path class="st5" d="M13.19,15.79l0.02,0.43l-0.29,0l0.02-0.43L13.19,15.79"/>
				<path d="M13.23,16.24l-0.33,0l0.02-0.47l0.28,0L13.23,16.24z M12.94,16.21l0.25,0l-0.02-0.4l-0.22,0L12.94,16.21z"/>
			</g>
			<g>
				<path class="st5" d="M12.84,15.99l0.01,0.23l-0.28,0l0.01-0.23L12.84,15.99L12.84,15.99L12.84,15.99z"/>
				<path d="M12.55,16.25l0.01-0.27h0.29l0.01,0.27L12.55,16.25z M12.59,16.01l-0.01,0.2l0.24,0l-0.01-0.2H12.59z"/>
			</g>
			<g>
				<g>
					<path class="st5" d="M13.55,15.99l0.01,0.23l-0.28,0l0.01-0.23L13.55,15.99L13.55,15.99L13.55,15.99z"/>
					<path d="M13.26,16.25l0.01-0.27h0.29l0.01,0.27L13.26,16.25z M13.31,16.01l-0.01,0.2l0.24,0l-0.01-0.2H13.31z"/>
				</g>
			</g>
			<g>
				<path class="st5" d="M12.52,15.82l0.08,0v0.06h0.06v-0.06l0.08,0v0.06h0.06v-0.06l0.08,0l0,0.14c0,0.02-0.02,0.03-0.04,0.03
					h-0.29c-0.02,0-0.04-0.02-0.04-0.04L12.52,15.82L12.52,15.82L12.52,15.82z"/>
				<path d="M12.85,16.01h-0.29c-0.03,0-0.05-0.02-0.05-0.05l0-0.14l0.01-0.01l0.01,0l0.1,0v0.06h0.03v-0.06l0.12,0v0.06h0.03v-0.06
					l0.12,0l0,0.15C12.9,15.99,12.88,16.01,12.85,16.01z M12.54,15.84l0,0.12c0,0.01,0.01,0.02,0.02,0.02h0.29
					c0.01,0,0.02-0.01,0.02-0.02l0-0.12l-0.05,0v0.06h-0.09v-0.06l-0.05,0v0.06h-0.09v-0.06L12.54,15.84z"/>
			</g>
			<g>
				<g>
					<path class="st5" d="M13.24,15.82l0.08,0v0.06h0.06v-0.06l0.08,0v0.06h0.06v-0.06l0.08,0l0,0.14c0,0.02-0.02,0.03-0.04,0.03
						h-0.29c-0.02,0-0.04-0.02-0.04-0.04L13.24,15.82L13.24,15.82L13.24,15.82z"/>
					<path d="M13.57,16.01h-0.29c-0.03,0-0.05-0.02-0.05-0.05l0-0.14l0.01-0.01l0.01,0l0.1,0v0.06h0.03v-0.06l0.12,0v0.06h0.03
						v-0.06l0.12,0l0,0.15C13.62,15.99,13.6,16.01,13.57,16.01z M13.25,15.84l0,0.12c0,0.01,0.01,0.02,0.02,0.02h0.29
						c0.01,0,0.02-0.01,0.02-0.02l0-0.12l-0.05,0v0.06h-0.09v-0.06l-0.05,0v0.06H13.3v-0.06L13.25,15.84z"/>
				</g>
			</g>
			<path d="M13.04,15.93c0-0.04,0.06-0.04,0.06,0v0.1h-0.06L13.04,15.93"/>
			<path d="M12.68,16.08c0-0.04,0.06-0.04,0.06,0v0.08h-0.06L12.68,16.08"/>
			<g>
				<path d="M13.39,16.08c0-0.04,0.06-0.04,0.06,0v0.08h-0.06L13.39,16.08"/>
			</g>
		</g>
	</g>
	<g transform="matrix(-1,0,0,1,479.79195,0)">
		<g>
			<g>
				<path class="st5" d="M16.4,16.86c-0.01-0.37-0.27-0.46-0.27-0.46c0,0-0.29,0.09-0.28,0.46L16.4,16.86"/>
				<g>
					<path class="st5" d="M16.63,16.41l0.05,0.43l-0.28,0c0-0.35-0.27-0.41-0.27-0.41c-0.01,0-0.27,0.08-0.28,0.41h-0.28l0.05-0.43
						L16.63,16.41L16.63,16.41L16.63,16.41z"/>
					<path d="M16.38,16.85l0-0.02c0-0.34-0.26-0.39-0.26-0.39c0,0-0.25,0.07-0.26,0.39l0,0.02h-0.32l0.05-0.46l1.04,0v0.02
						l0.05,0.45L16.38,16.85z M15.59,16.82h0.24c0.01-0.17,0.08-0.27,0.14-0.32c0.04-0.04,0.08-0.06,0.11-0.07l-0.45,0L15.59,16.82z
						 M16.18,16.42c0.03,0.01,0.06,0.03,0.09,0.05c0.07,0.05,0.14,0.16,0.15,0.34l0.24,0l-0.04-0.39L16.18,16.42z"/>
				</g>
				<g>
					<path class="st5" d="M16.69,16.84h-1.14c-0.02,0-0.04,0.02-0.04,0.05c0,0.03,0.02,0.05,0.04,0.05h1.14
						c0.02,0,0.04-0.02,0.04-0.05C16.74,16.86,16.72,16.84,16.69,16.84z"/>
					<path d="M16.69,16.96h-1.14c-0.03,0-0.06-0.03-0.06-0.07c0-0.04,0.03-0.07,0.06-0.07h1.14c0.03,0,0.06,0.03,0.06,0.07
						C16.76,16.93,16.73,16.96,16.69,16.96z M15.55,16.85c-0.01,0-0.03,0.02-0.03,0.04c0,0.02,0.01,0.04,0.03,0.04h1.14
						c0.01,0,0.03-0.02,0.03-0.04c0-0.02-0.01-0.04-0.03-0.04H15.55z"/>
				</g>
				<g>
					<path class="st5" d="M16.28,16.83c0-0.22-0.15-0.29-0.15-0.29c0,0-0.16,0.07-0.16,0.29H16.28"/>
					<path d="M16.3,16.85h-0.35l0-0.02c0-0.23,0.16-0.3,0.18-0.3c0.01,0,0.06,0.03,0.06,0.03c0.05,0.04,0.11,0.12,0.11,0.27
						L16.3,16.85z M15.98,16.82h0.28c-0.01-0.17-0.11-0.24-0.14-0.25C16.1,16.58,15.99,16.64,15.98,16.82z"/>
				</g>
				<g>
					<path class="st5" d="M16.67,16.23h-1.09c-0.02,0-0.04,0.02-0.04,0.05c0,0.03,0.02,0.05,0.04,0.05h1.09
						c0.02,0,0.04-0.02,0.04-0.05C16.71,16.25,16.69,16.23,16.67,16.23z"/>
					<path d="M16.67,16.34h-1.09c-0.03,0-0.06-0.03-0.06-0.06c0-0.04,0.03-0.06,0.06-0.06h1.09c0.03,0,0.06,0.03,0.06,0.06
						C16.73,16.31,16.7,16.34,16.67,16.34z M15.58,16.25c-0.01,0-0.03,0.01-0.03,0.03s0.01,0.03,0.03,0.03h1.09
						c0.01,0,0.03-0.01,0.03-0.03s-0.01-0.03-0.03-0.03H15.58z"/>
				</g>
				<g>
					<path class="st5" d="M16.65,16.33H15.6c-0.02,0-0.04,0.02-0.04,0.05c0,0.03,0.02,0.05,0.04,0.05h1.05
						c0.02,0,0.04-0.02,0.04-0.05C16.69,16.35,16.67,16.33,16.65,16.33z"/>
					<path d="M16.65,16.44H15.6c-0.03,0-0.06-0.03-0.06-0.06c0-0.04,0.03-0.06,0.06-0.06h1.05c0.03,0,0.06,0.03,0.06,0.06
						C16.7,16.41,16.68,16.44,16.65,16.44z M15.6,16.34c-0.01,0-0.02,0.01-0.02,0.03c0,0.02,0.01,0.03,0.02,0.03h1.05
						c0.01,0,0.02-0.01,0.02-0.03c0-0.02-0.01-0.03-0.02-0.03H15.6z"/>
				</g>
				<g>
					<path class="st5" d="M16.31,15.61l-0.08,0v0.06h-0.06v-0.06l-0.08,0v0.06h-0.06v-0.06h-0.08l0,0.14c0,0.02,0.02,0.04,0.04,0.04
						h0.3c0.02,0,0.04-0.02,0.04-0.04L16.31,15.61L16.31,15.61L16.31,15.61z"/>
					<path d="M16.27,15.8h-0.3c-0.03,0-0.05-0.02-0.05-0.05l0-0.15h0.12v0.06h0.03v-0.06l0.12,0v0.06h0.03V15.6l0.1,0l0.01,0.01
						l0,0.14C16.33,15.77,16.3,15.8,16.27,15.8z M15.95,15.63l0,0.12c0,0.01,0.01,0.02,0.02,0.02h0.3c0.01,0,0.02-0.01,0.02-0.02
						l0-0.12l-0.05,0v0.06h-0.09v-0.06l-0.05,0v0.06H16v-0.06H15.95z"/>
				</g>
				<g>
					<path class="st5" d="M16,15.79l-0.02,0.43l0.29,0l-0.02-0.43L16,15.79"/>
					<path d="M15.96,16.24l0.02-0.47l0.28,0l0.02,0.47L15.96,16.24z M16.01,15.81L16,16.21l0.25,0l-0.02-0.4L16.01,15.81z"/>
				</g>
				<g>
					<path class="st5" d="M16.35,15.99l-0.01,0.23l0.28,0l-0.01-0.23L16.35,15.99L16.35,15.99L16.35,15.99z"/>
					<path d="M16.64,16.25l-0.31,0l0.01-0.27h0.29L16.64,16.25z M16.36,16.21l0.24,0l-0.01-0.2h-0.23L16.36,16.21z"/>
				</g>
				<g>
					<g>
						<path class="st5" d="M15.64,15.99l-0.01,0.23l0.28,0l-0.01-0.23L15.64,15.99L15.64,15.99L15.64,15.99z"/>
						<path d="M15.92,16.25l-0.31,0l0.01-0.27h0.29L15.92,16.25z M15.65,16.21l0.24,0l-0.01-0.2h-0.23L15.65,16.21z"/>
					</g>
				</g>
				<g>
					<path class="st5" d="M16.66,15.82l-0.08,0v0.06h-0.06v-0.06l-0.08,0v0.06h-0.06v-0.06l-0.08,0l0,0.14
						c0,0.02,0.02,0.03,0.04,0.03h0.29c0.02,0,0.04-0.02,0.04-0.04L16.66,15.82L16.66,15.82L16.66,15.82z"/>
					<path d="M16.63,16.01h-0.29c-0.03,0-0.05-0.02-0.05-0.05l0-0.15l0.12,0v0.06h0.03v-0.06l0.12,0v0.06h0.03v-0.06l0.1,0
						l0.01,0.01l0,0.14C16.68,15.99,16.66,16.01,16.63,16.01z M16.32,15.84l0,0.12c0,0.01,0.01,0.02,0.02,0.02h0.29
						c0.01,0,0.02-0.01,0.02-0.02l0-0.12l-0.05,0v0.06h-0.09v-0.06l-0.05,0v0.06h-0.09v-0.06L16.32,15.84z"/>
				</g>
				<g>
					<g>
						<path class="st5" d="M15.95,15.82l-0.08,0v0.06h-0.06v-0.06l-0.08,0v0.06h-0.06v-0.06l-0.08,0l0,0.14
							c0,0.02,0.02,0.03,0.04,0.03h0.29c0.02,0,0.04-0.02,0.04-0.04L15.95,15.82L15.95,15.82L15.95,15.82z"/>
						<path d="M15.91,16.01h-0.29c-0.03,0-0.05-0.02-0.05-0.05l0-0.15l0.12,0v0.06h0.03v-0.06l0.12,0v0.06h0.03v-0.06l0.1,0
							l0.01,0.01l0,0.14C15.97,15.99,15.94,16.01,15.91,16.01z M15.6,15.84l0,0.12c0,0.01,0.01,0.02,0.02,0.02h0.29
							c0.01,0,0.02-0.01,0.02-0.02l0-0.12l-0.05,0v0.06h-0.09v-0.06l-0.05,0v0.06h-0.09v-0.06L15.6,15.84z"/>
					</g>
				</g>
				<path d="M16.15,15.93c0-0.04-0.06-0.04-0.06,0v0.1h0.06L16.15,15.93"/>
				<path d="M16.51,16.08c0-0.04-0.06-0.04-0.06,0v0.08h0.06L16.51,16.08"/>
				<g>
					<path d="M15.79,16.08c0-0.04-0.06-0.04-0.06,0v0.08h0.06L15.79,16.08"/>
				</g>
			</g>
			<g>
				<g>
					<path class="st5" d="M16.4,19.98c-0.01-0.37-0.27-0.46-0.27-0.46c0,0-0.29,0.09-0.28,0.46L16.4,19.98"/>
					<g>
						<path class="st5" d="M16.63,19.53l0.05,0.43l-0.28,0c0-0.35-0.27-0.41-0.27-0.41c-0.01,0-0.27,0.08-0.28,0.41h-0.28l0.05-0.43
							L16.63,19.53L16.63,19.53L16.63,19.53z"/>
						<path d="M16.38,19.97l0-0.02c0-0.34-0.26-0.39-0.26-0.39c0,0-0.25,0.07-0.26,0.39l0,0.02h-0.32l0.05-0.46l1.04,0v0.02
							l0.05,0.45L16.38,19.97z M15.59,19.94h0.24c0.01-0.17,0.08-0.27,0.14-0.32c0.04-0.04,0.08-0.06,0.11-0.07l-0.45,0L15.59,19.94
							z M16.18,19.54c0.03,0.01,0.06,0.03,0.09,0.05c0.07,0.05,0.14,0.16,0.15,0.34l0.24,0l-0.04-0.39L16.18,19.54z"/>
					</g>
					<g>
						<path class="st5" d="M16.69,19.96h-1.14c-0.02,0-0.04,0.02-0.04,0.05c0,0.03,0.02,0.05,0.04,0.05h1.14
							c0.02,0,0.04-0.02,0.04-0.05C16.74,19.98,16.72,19.96,16.69,19.96z"/>
						<path d="M16.69,20.08h-1.14c-0.03,0-0.06-0.03-0.06-0.07c0-0.04,0.03-0.07,0.06-0.07h1.14c0.03,0,0.06,0.03,0.06,0.07
							C16.76,20.05,16.73,20.08,16.69,20.08z M15.55,19.97c-0.01,0-0.03,0.02-0.03,0.04c0,0.02,0.01,0.04,0.03,0.04h1.14
							c0.01,0,0.03-0.02,0.03-0.04c0-0.02-0.01-0.04-0.03-0.04H15.55z"/>
					</g>
					<g>
						<path class="st5" d="M16.28,19.95c0-0.22-0.15-0.29-0.15-0.29c0,0-0.16,0.07-0.16,0.29H16.28"/>
						<path d="M16.3,19.97h-0.35l0-0.02c0-0.23,0.16-0.3,0.18-0.3c0.01,0,0.06,0.03,0.06,0.03c0.05,0.04,0.11,0.12,0.11,0.27
							L16.3,19.97z M15.98,19.94h0.28c-0.01-0.17-0.11-0.24-0.14-0.25C16.1,19.7,15.99,19.76,15.98,19.94z"/>
					</g>
					<g>
						<path class="st5" d="M16.67,19.35h-1.09c-0.02,0-0.04,0.02-0.04,0.05c0,0.03,0.02,0.05,0.04,0.05h1.09
							c0.02,0,0.04-0.02,0.04-0.05C16.71,19.37,16.69,19.35,16.67,19.35z"/>
						<path d="M16.67,19.46h-1.09c-0.03,0-0.06-0.03-0.06-0.06c0-0.04,0.03-0.06,0.06-0.06h1.09c0.03,0,0.06,0.03,0.06,0.06
							C16.73,19.43,16.7,19.46,16.67,19.46z M15.58,19.37c-0.01,0-0.03,0.01-0.03,0.03s0.01,0.03,0.03,0.03h1.09
							c0.01,0,0.03-0.01,0.03-0.03s-0.01-0.03-0.03-0.03H15.58z"/>
					</g>
					<g>
						<path class="st5" d="M16.65,19.44H15.6c-0.02,0-0.04,0.02-0.04,0.05c0,0.03,0.02,0.05,0.04,0.05h1.05
							c0.02,0,0.04-0.02,0.04-0.05C16.69,19.47,16.67,19.44,16.65,19.44z"/>
						<path d="M16.65,19.56H15.6c-0.03,0-0.06-0.03-0.06-0.06c0-0.04,0.03-0.06,0.06-0.06h1.05c0.03,0,0.06,0.03,0.06,0.06
							C16.7,19.53,16.68,19.56,16.65,19.56z M15.6,19.46c-0.01,0-0.02,0.01-0.02,0.03c0,0.02,0.01,0.03,0.02,0.03h1.05
							c0.01,0,0.02-0.01,0.02-0.03c0-0.02-0.01-0.03-0.02-0.03H15.6z"/>
					</g>
					<g>
						<path class="st5" d="M16.31,18.73l-0.08,0v0.06h-0.06v-0.06l-0.08,0v0.06h-0.06v-0.06h-0.08l0,0.14
							c0,0.02,0.02,0.04,0.04,0.04h0.3c0.02,0,0.04-0.02,0.04-0.04L16.31,18.73L16.31,18.73L16.31,18.73z"/>
						<path d="M16.27,18.92h-0.3c-0.03,0-0.05-0.02-0.05-0.05l0-0.15h0.12v0.06h0.03v-0.06l0.12,0v0.06h0.03v-0.06l0.1,0l0.01,0.01
							l0,0.14C16.33,18.89,16.3,18.92,16.27,18.92z M15.95,18.75l0,0.12c0,0.01,0.01,0.02,0.02,0.02h0.3c0.01,0,0.02-0.01,0.02-0.02
							l0-0.12l-0.05,0v0.06h-0.09v-0.06l-0.05,0v0.06H16v-0.06H15.95z"/>
					</g>
					<g>
						<path class="st5" d="M16,18.91l-0.02,0.43l0.29,0l-0.02-0.43L16,18.91"/>
						<path d="M15.96,19.36l0.02-0.47l0.28,0l0.02,0.47L15.96,19.36z M16.01,18.93L16,19.33l0.25,0l-0.02-0.4L16.01,18.93z"/>
					</g>
					<g>
						<path class="st5" d="M16.35,19.11l-0.01,0.23l0.28,0l-0.01-0.23L16.35,19.11L16.35,19.11L16.35,19.11z"/>
						<path d="M16.64,19.37l-0.31,0l0.01-0.27h0.29L16.64,19.37z M16.36,19.33l0.24,0l-0.01-0.2h-0.23L16.36,19.33z"/>
					</g>
					<g>
						<g>
							<path class="st5" d="M15.64,19.11l-0.01,0.23l0.28,0l-0.01-0.23L15.64,19.11L15.64,19.11L15.64,19.11z"/>
							<path d="M15.92,19.37l-0.31,0l0.01-0.27h0.29L15.92,19.37z M15.65,19.33l0.24,0l-0.01-0.2h-0.23L15.65,19.33z"/>
						</g>
					</g>
					<g>
						<path class="st5" d="M16.66,18.94l-0.08,0V19h-0.06v-0.06l-0.08,0V19h-0.06v-0.06l-0.08,0l0,0.14c0,0.02,0.02,0.03,0.04,0.03
							h0.29c0.02,0,0.04-0.02,0.04-0.04L16.66,18.94L16.66,18.94L16.66,18.94z"/>
						<path d="M16.63,19.13h-0.29c-0.03,0-0.05-0.02-0.05-0.05l0-0.15l0.12,0v0.06h0.03v-0.06l0.12,0v0.06h0.03v-0.06l0.1,0
							l0.01,0.01l0,0.14C16.68,19.11,16.66,19.13,16.63,19.13z M16.32,18.96l0,0.12c0,0.01,0.01,0.02,0.02,0.02h0.29
							c0.01,0,0.02-0.01,0.02-0.02l0-0.12l-0.05,0v0.06h-0.09v-0.06l-0.05,0v0.06h-0.09v-0.06L16.32,18.96z"/>
					</g>
					<g>
						<g>
							<path class="st5" d="M15.95,18.94l-0.08,0V19h-0.06v-0.06l-0.08,0V19h-0.06v-0.06l-0.08,0l0,0.14c0,0.02,0.02,0.03,0.04,0.03
								h0.29c0.02,0,0.04-0.02,0.04-0.04L15.95,18.94L15.95,18.94L15.95,18.94z"/>
							<path d="M15.91,19.13h-0.29c-0.03,0-0.05-0.02-0.05-0.05l0-0.15l0.12,0v0.06h0.03v-0.06l0.12,0v0.06h0.03v-0.06l0.1,0
								l0.01,0.01l0,0.14C15.97,19.11,15.94,19.13,15.91,19.13z M15.6,18.96l0,0.12c0,0.01,0.01,0.02,0.02,0.02h0.29
								c0.01,0,0.02-0.01,0.02-0.02l0-0.12l-0.05,0v0.06h-0.09v-0.06l-0.05,0v0.06h-0.09v-0.06L15.6,18.96z"/>
						</g>
					</g>
					<path d="M16.15,19.05c0-0.04-0.06-0.04-0.06,0v0.1h0.06L16.15,19.05"/>
					<path d="M16.51,19.2c0-0.04-0.06-0.04-0.06,0v0.08h0.06L16.51,19.2"/>
					<g>
						<path d="M15.79,19.2c0-0.04-0.06-0.04-0.06,0v0.08h0.06L15.79,19.2"/>
					</g>
				</g>
			</g>
			<g transform="matrix(0.70460892,-0.70959585,0.70959585,0.70460892,-35.341459,275.10898)">
				<g>
					<path class="st5" d="M15.19,23.23c0.26-0.27,0.13-0.52,0.13-0.52c0,0-0.27-0.14-0.53,0.13L15.19,23.23"/>
					<g>
						<path class="st5" d="M15.67,23.07L15.4,23.4l-0.2-0.2c0.25-0.25,0.1-0.48,0.1-0.48c0,0-0.24-0.14-0.49,0.09l-0.2-0.2
							l0.34-0.27L15.67,23.07L15.67,23.07L15.67,23.07z"/>
						<path d="M15.4,23.43l-0.22-0.22l0.01-0.01c0.24-0.24,0.1-0.46,0.1-0.46l0,0c0,0-0.23-0.13-0.46,0.09l-0.01,0.01l-0.22-0.22
							l0.37-0.29l0.73,0.74l-0.01,0.01L15.4,23.43z M15.22,23.21l0.17,0.17l0.25-0.31l-0.31-0.31c0.01,0.03,0.02,0.06,0.02,0.1
							C15.37,22.94,15.35,23.07,15.22,23.21z M14.64,22.62l0.17,0.17c0.12-0.11,0.25-0.13,0.33-0.13c0.05,0,0.1,0.01,0.13,0.03
							l-0.31-0.32L14.64,22.62z"/>
					</g>
					<g>
						<path class="st5" d="M15.41,23.42l-0.8-0.81c-0.02-0.02-0.05-0.01-0.07,0.01c-0.02,0.02-0.02,0.05-0.01,0.07l0.8,0.81
							c0.02,0.02,0.05,0.01,0.07-0.01C15.42,23.47,15.43,23.44,15.41,23.42z"/>
						<path d="M15.36,23.52c-0.02,0-0.03-0.01-0.04-0.02l-0.8-0.81c-0.01-0.01-0.02-0.02-0.02-0.04c0-0.02,0.01-0.04,0.02-0.05
							c0.03-0.03,0.07-0.03,0.09-0.01l0.8,0.81c0.02,0.02,0.02,0.06-0.01,0.09C15.4,23.51,15.38,23.52,15.36,23.52z M14.58,22.61
							c-0.01,0-0.02,0-0.03,0.01c-0.01,0.01-0.01,0.02-0.01,0.03c0,0,0,0.01,0.01,0.02l0.8,0.81c0.01,0.01,0.03,0.01,0.04-0.01
							c0.01-0.01,0.02-0.03,0.01-0.04l-0.8-0.81C14.59,22.62,14.58,22.61,14.58,22.61z"/>
					</g>
					<g>
						<path class="st5" d="M15.12,23.12c0.16-0.16,0.1-0.31,0.1-0.31c0,0-0.16-0.07-0.32,0.09L15.12,23.12"/>
						<path d="M15.13,23.13l-0.01-0.01l-0.01,0.01l-0.23-0.23l0.01-0.01c0.16-0.16,0.33-0.1,0.34-0.09
							c0.01,0.01,0.02,0.06,0.02,0.07C15.25,22.93,15.23,23.03,15.13,23.13z M14.92,22.9l0.2,0.2c0.12-0.13,0.09-0.25,0.08-0.27
							C15.18,22.82,15.05,22.78,14.92,22.9z"/>
					</g>
					<g>
						<path class="st5" d="M15.82,22.97l-0.77-0.78c-0.02-0.02-0.04-0.01-0.06,0c-0.02,0.02-0.02,0.05,0,0.06l0.77,0.78
							c0.02,0.02,0.04,0.01,0.06,0C15.84,23.02,15.84,22.99,15.82,22.97z"/>
						<path d="M15.78,23.07c-0.02,0-0.03-0.01-0.04-0.02l-0.77-0.78c-0.02-0.02-0.02-0.06,0-0.09c0.01-0.01,0.03-0.02,0.04-0.02
							c0.02,0,0.03,0,0.04,0.02l0.77,0.78c0.02,0.02,0.02,0.06,0,0.09C15.82,23.06,15.8,23.07,15.78,23.07
							C15.79,23.07,15.78,23.07,15.78,23.07z M15.02,22.2C15.02,22.2,15.02,22.2,15.02,22.2c-0.01,0-0.02,0-0.02,0.01
							c-0.01,0.01-0.01,0.03,0,0.04l0.77,0.78c0,0,0.01,0.01,0.02,0.01c0.01,0,0.02,0,0.02-0.01c0.01-0.01,0.01-0.03,0-0.04
							l-0.77-0.78C15.04,22.2,15.03,22.2,15.02,22.2z"/>
					</g>
					<g>
						<path class="st5" d="M15.74,23.02L15,22.28c-0.02-0.02-0.04-0.01-0.06,0c-0.02,0.02-0.02,0.05-0.01,0.06l0.74,0.74
							c0.02,0.02,0.04,0.01,0.06,0C15.75,23.07,15.75,23.04,15.74,23.02z"/>
						<path d="M15.7,23.12c-0.01,0-0.03-0.01-0.04-0.02l-0.74-0.74c-0.01-0.01-0.02-0.03-0.01-0.04c0-0.02,0.01-0.03,0.02-0.04
							c0.01-0.01,0.03-0.02,0.04-0.02c0.02,0,0.03,0,0.04,0.02l0.74,0.74c0.01,0.01,0.02,0.03,0.01,0.04c0,0.02-0.01,0.03-0.02,0.04
							C15.73,23.11,15.72,23.12,15.7,23.12C15.7,23.12,15.7,23.12,15.7,23.12z M14.98,22.29C14.97,22.29,14.97,22.29,14.98,22.29
							c-0.01,0-0.02,0-0.02,0.01c-0.01,0.01-0.01,0.01-0.01,0.02c0,0,0,0.01,0.01,0.02l0.74,0.74c0,0,0.01,0.01,0.02,0.01
							c0.01,0,0.02,0,0.02-0.01c0.01-0.01,0.01-0.01,0.01-0.02c0,0,0-0.01-0.01-0.02l-0.74-0.74
							C14.99,22.29,14.98,22.29,14.98,22.29z"/>
					</g>
					<g>
						<path class="st5" d="M16.01,22.28l-0.06-0.06l-0.04,0.04l-0.04-0.04l0.04-0.04l-0.06-0.06l-0.04,0.04l-0.04-0.04l0.04-0.04
							l-0.06-0.06l-0.1,0.1c-0.02,0.01-0.01,0.04,0,0.05l0.21,0.21c0.01,0.01,0.04,0.02,0.05,0L16.01,22.28L16.01,22.28L16.01,22.28
							z"/>
						<path d="M15.89,22.4c-0.01,0-0.03-0.01-0.04-0.02l-0.21-0.21c-0.02-0.02-0.02-0.05,0-0.07l0.11-0.11l0.08,0.08l-0.04,0.04
							l0.02,0.02l0.04-0.04l0.08,0.08l-0.04,0.04l0.02,0.02l0.04-0.04l0.07,0.07l0.01,0.01l-0.11,0.1
							C15.91,22.4,15.9,22.4,15.89,22.4z M15.74,22.04l-0.08,0.08c-0.01,0.01-0.01,0.02,0,0.03l0.21,0.21
							c0.01,0.01,0.02,0.01,0.03,0l0.08-0.08l-0.03-0.03l-0.04,0.04l-0.07-0.07l0.04-0.04l-0.04-0.04l-0.04,0.04l-0.07-0.07
							l0.04-0.04L15.74,22.04z"/>
					</g>
					<g>
						<path class="st5" d="M15.66,22.19l-0.32,0.29l0.2,0.2l0.29-0.32L15.66,22.19"/>
						<path d="M15.54,22.71l-0.23-0.23l0.35-0.32l0.2,0.2L15.54,22.71z M15.36,22.48l0.18,0.18l0.27-0.3l-0.16-0.16L15.36,22.48z"/>
					</g>
					<g>
						<path class="st5" d="M15.77,22.58l-0.17,0.16l0.2,0.2l0.16-0.17L15.77,22.58L15.77,22.58L15.77,22.58z"/>
						<path d="M15.79,22.96l-0.22-0.22l0.2-0.18l0.21,0.21L15.79,22.96z M15.62,22.74l0.17,0.17l0.14-0.15l-0.16-0.16L15.62,22.74z"
							/>
					</g>
					<g>
						<g>
							<path class="st5" d="M15.26,22.07l-0.17,0.16l0.2,0.2l0.16-0.17L15.26,22.07L15.26,22.07L15.26,22.07z"/>
							<path d="M15.29,22.46l-0.22-0.22l0.2-0.18l0.02,0.02l0,0l0.18,0.18L15.29,22.46z M15.11,22.23l0.17,0.17l0.14-0.15
								l-0.16-0.16L15.11,22.23z"/>
						</g>
					</g>
					<g>
						<path class="st5" d="M16.11,22.68l-0.06-0.06l-0.04,0.04l-0.04-0.04l0.04-0.04l-0.06-0.06l-0.04,0.04l-0.04-0.04l0.04-0.04
							l-0.06-0.06l-0.1,0.1c-0.02,0.01-0.01,0.04,0,0.05l0.2,0.21c0.01,0.01,0.04,0.02,0.05,0L16.11,22.68L16.11,22.68L16.11,22.68z
							"/>
						<path d="M15.99,22.8c-0.01,0-0.03-0.01-0.04-0.02l-0.2-0.21c-0.02-0.02-0.02-0.05,0-0.07l0.11-0.11l0.08,0.08l-0.04,0.04
							l0.02,0.02l0.04-0.04l0.08,0.08l-0.04,0.04l0.02,0.02l0.04-0.04l0.08,0.08l-0.01,0.02l-0.1,0.09
							C16.01,22.8,16,22.8,15.99,22.8z M15.85,22.45l-0.08,0.08c-0.01,0.01-0.01,0.02,0,0.03l0.2,0.21c0.01,0.01,0.02,0.01,0.03,0
							l0.08-0.08l-0.03-0.03l-0.04,0.04l-0.07-0.07l0.04-0.04l-0.03-0.03l-0.04,0.04l-0.07-0.07l0.04-0.04L15.85,22.45z"/>
					</g>
					<g>
						<g>
							<path class="st5" d="M15.6,22.18l-0.06-0.06l-0.04,0.04l-0.04-0.04l0.04-0.04l-0.06-0.06l-0.04,0.04l-0.04-0.04l0.04-0.04
								l-0.06-0.06l-0.1,0.1c-0.02,0.01-0.01,0.04,0,0.05l0.2,0.21c0.01,0.01,0.04,0.02,0.05,0L15.6,22.18L15.6,22.18L15.6,22.18z"
								/>
							<path d="M15.48,22.3c-0.01,0-0.03-0.01-0.04-0.02l-0.2-0.21c-0.01-0.01-0.02-0.02-0.02-0.04c0-0.01,0-0.03,0.02-0.04
								l0.11-0.11l0.08,0.08l-0.04,0.04l0.02,0.02l0.04-0.04l0.08,0.08l-0.04,0.04l0.02,0.02l0.04-0.04l0.07,0.07v0.01l-0.1,0.1
								C15.51,22.29,15.5,22.3,15.48,22.3z M15.35,21.94l-0.08,0.08c0,0-0.01,0.01-0.01,0.01c0,0,0,0.01,0.01,0.01l0.2,0.21
								c0.01,0.01,0.02,0.01,0.03,0l0.08-0.08l-0.03-0.03l-0.04,0.04l-0.07-0.07l0.04-0.04l-0.03-0.03l-0.04,0.04l-0.07-0.07
								l0.04-0.04L15.35,21.94z"/>
						</g>
					</g>
					<path d="M15.67,22.4c0.03-0.03-0.01-0.07-0.04-0.04l-0.07,0.07l0.04,0.04L15.67,22.4"/>
					<path d="M15.82,22.76c0.03-0.03-0.01-0.07-0.04-0.04l-0.06,0.06l0.04,0.04L15.82,22.76"/>
					<g>
						<path d="M15.31,22.25c0.03-0.03-0.01-0.07-0.04-0.04l-0.06,0.06l0.04,0.04L15.31,22.25"/>
					</g>
				</g>
			</g>
		</g>
	</g>
	<g id="quina">
		<path class="st6" d="M12.57,20.09L12.57,20.09c0,0.15,0.06,0.29,0.15,0.38c0.09,0.1,0.22,0.16,0.36,0.16
			c0.14,0,0.27-0.06,0.36-0.16c0.09-0.1,0.15-0.23,0.15-0.38v-0.73l-1.01,0L12.57,20.09"/>
		<circle class="st3" cx="12.8" cy="19.64" r="0.1"/>
		<circle class="st3" cx="13.36" cy="19.64" r="0.1"/>
		<circle class="st3" cx="13.08" cy="19.91" r="0.1"/>
		<circle class="st3" cx="12.8" cy="20.19" r="0.1"/>
		<circle class="st3" cx="13.36" cy="20.19" r="0.1"/>
	</g>
	<g>
		<g>
			<path class="st6" d="M12.57,18.34L12.57,18.34c0,0.15,0.06,0.29,0.15,0.38c0.09,0.1,0.22,0.16,0.36,0.16
				c0.14,0,0.27-0.06,0.36-0.16c0.09-0.1,0.15-0.23,0.15-0.38v-0.73l-1.01,0L12.57,18.34"/>
			<circle class="st3" cx="12.8" cy="17.89" r="0.1"/>
			<circle class="st3" cx="13.36" cy="17.89" r="0.1"/>
			<circle class="st3" cx="13.08" cy="18.16" r="0.1"/>
			<circle class="st3" cx="12.8" cy="18.44" r="0.1"/>
			<circle class="st3" cx="13.36" cy="18.44" r="0.1"/>
		</g>
	</g>
	<g>
		<g>
			<path class="st6" d="M11.16,20.09L11.16,20.09c0,0.15,0.06,0.29,0.15,0.38c0.09,0.1,0.22,0.16,0.36,0.16
				c0.14,0,0.27-0.06,0.36-0.16c0.09-0.1,0.15-0.23,0.15-0.38v-0.73l-1.01,0L11.16,20.09"/>
			<circle class="st3" cx="11.4" cy="19.64" r="0.1"/>
			<circle class="st3" cx="11.96" cy="19.64" r="0.1"/>
			<circle class="st3" cx="11.68" cy="19.91" r="0.1"/>
			<circle class="st3" cx="11.4" cy="20.19" r="0.1"/>
			<circle class="st3" cx="11.96" cy="20.19" r="0.1"/>
		</g>
	</g>
	<g>
		<g>
			<path class="st6" d="M13.96,20.09L13.96,20.09c0,0.15,0.06,0.29,0.15,0.38c0.09,0.1,0.22,0.16,0.36,0.16
				c0.14,0,0.27-0.06,0.36-0.16c0.09-0.1,0.15-0.23,0.15-0.38v-0.73l-1.01,0L13.96,20.09"/>
			<circle class="st3" cx="14.19" cy="19.64" r="0.1"/>
			<circle class="st3" cx="14.75" cy="19.64" r="0.1"/>
			<circle class="st3" cx="14.47" cy="19.91" r="0.1"/>
			<circle class="st3" cx="14.19" cy="20.19" r="0.1"/>
			<circle class="st3" cx="14.75" cy="20.19" r="0.1"/>
		</g>
	</g>
	<g>
		<g>
			<path class="st6" d="M12.57,21.83L12.57,21.83c0,0.15,0.06,0.29,0.15,0.38c0.09,0.1,0.22,0.16,0.36,0.16
				c0.14,0,0.27-0.06,0.36-0.16c0.09-0.1,0.15-0.23,0.15-0.38V21.1l-1.01,0L12.57,21.83"/>
			<circle class="st3" cx="12.8" cy="21.38" r="0.1"/>
			<circle class="st3" cx="13.36" cy="21.38" r="0.1"/>
			<circle class="st3" cx="13.08" cy="21.65" r="0.1"/>
			<circle class="st3" cx="12.8" cy="21.93" r="0.1"/>
			<circle class="st3" cx="13.36" cy="21.93" r="0.1"/>
		</g>
	</g>
</g>
</svg>
