<svg xmlns="http://www.w3.org/2000/svg" width="40" height="40" viewBox="0 0 40 40">
  <g id="Group_57" data-name="Group 57" transform="translate(-558 -1101)">
    <path id="Path_382" data-name="Path 382" d="M-675.159-131.371a19.992,19.992,0,0,1,24.213-14.606,19.993,19.993,0,0,1,14.606,24.213,19.994,19.994,0,0,1-24.214,14.606,19.993,19.993,0,0,1-14.6-24.213" transform="translate(1233.75 1247.568)" fill="#e71e1a"/>
    <path id="Path_383" data-name="Path 383" d="M-664.237-132.972h37.614a20.131,20.131,0,0,0-14.011-12.991,19.88,19.88,0,0,0-23.6,12.991" transform="translate(1223.431 1247.567)" fill="#e71e1a"/>
    <path id="Path_384" data-name="Path 384" d="M-636.174-4.336l.026-.131q.023-.114.044-.228l.024-.132q.021-.118.041-.236c.007-.04.014-.079.02-.119q.024-.147.046-.3l.009-.058q.026-.177.048-.354c0-.031.008-.063.012-.094.011-.087.021-.174.031-.26,0-.041.009-.082.013-.124.008-.078.016-.155.023-.233,0-.043.008-.086.012-.129.007-.078.013-.157.019-.235,0-.04.006-.08.009-.12q.009-.135.017-.27c0-.027,0-.055.005-.082q.01-.177.016-.354c0-.019,0-.039,0-.058q0-.147.008-.293c0-.037,0-.074,0-.111q0-.121,0-.242c0-.041,0-.081,0-.122q0-.118,0-.236c0-.039,0-.078,0-.117q0-.13-.007-.259c0-.03,0-.06,0-.09q-.013-.351-.037-.7,0-.046-.007-.092c-.007-.085-.013-.171-.021-.256l-.01-.111q-.011-.12-.024-.24c0-.037-.008-.073-.012-.11q-.014-.128-.03-.255c0-.03-.007-.06-.011-.089q-.044-.348-.1-.693l-.01-.062q-.023-.14-.048-.279-.008-.048-.017-.095-.023-.125-.047-.249c-.006-.033-.013-.066-.02-.1q-.026-.128-.053-.254l-.018-.085c-.023-.1-.046-.207-.07-.311l-.005-.023q-.038-.162-.079-.324h0q-.227-.9-.532-1.772h-37.669q-.331.954-.575,1.958a20.862,20.862,0,0,0-.342,8.128l.005.035q.023.144.047.288c0,.02.007.04.011.061q.023.134.048.268c.005.027.01.053.015.08q.025.127.05.253l.02.1c.017.08.034.159.052.239l.025.111c.017.074.034.149.052.223.013.056.028.112.042.168q.031.126.064.252c.022.083.043.165.066.247l.031.109c.022.078.044.156.067.234.011.036.022.073.033.109.023.077.047.155.071.232l.034.107q.037.117.076.233l.035.1q.04.117.08.233l.019.055h0c.017.048.033.1.051.144h37.516c.017-.048.033-.1.05-.144h0c.042-.12.082-.241.122-.362l.012-.035q.078-.237.15-.477l.021-.067c.045-.149.087-.3.129-.451.009-.032.018-.063.027-.095.049-.18.1-.361.139-.543q.043-.177.082-.353c.009-.038.016-.075.025-.113.017-.081.035-.162.052-.242" transform="translate(1233.742 1129.54)" fill="#ffc700"/>
  </g>
</svg>
