<svg xmlns="http://www.w3.org/2000/svg" width="40" height="40" viewBox="0 0 40 40">
  <g id="Group_60" data-name="Group 60" transform="translate(-1978.007 -240.56)">
    <path id="Path_388" data-name="Path 388" d="M1978.6,255.756a20,20,0,1,1,14.6,24.213,19.992,19.992,0,0,1-14.6-24.213" transform="translate(0.001)" fill="#e71e1a"/>
    <path id="Path_389" data-name="Path 389" d="M2039.548,349.767a8.345,8.345,0,1,1,0-16.687,8.554,8.554,0,0,1,6,2.432,10.579,10.579,0,0,0-8.637-4.419,10.332,10.332,0,1,0,0,20.659,10.584,10.584,0,0,0,8.637-4.416,8.568,8.568,0,0,1-6,2.432" transform="translate(-43.421 -81.269)" fill="#fff"/>
    <path id="Path_390" data-name="Path 390" d="M2225.111,389.908l1.965,2.835,3.306-.993-2.091,2.748,1.965,2.838L2227,396.194l-2.091,2.745.077-3.451-3.257-1.141,3.307-.987Z" transform="translate(-219.104 -134.266)" fill="#fff"/>
  </g>
</svg>
